<?xml version="1.0" encoding="UTF-8" standalone="no"?>
<svg
   xmlns:dc="http://purl.org/dc/elements/1.1/"
   xmlns:cc="http://creativecommons.org/ns#"
   xmlns:rdf="http://www.w3.org/1999/02/22-rdf-syntax-ns#"
   xmlns:svg="http://www.w3.org/2000/svg"
   xmlns="http://www.w3.org/2000/svg"
   xmlns:sodipodi="http://sodipodi.sourceforge.net/DTD/sodipodi-0.dtd"
   xmlns:inkscape="http://www.inkscape.org/namespaces/inkscape"
   height="50mm"
   id="Layer_1"
   version="1.2"
   viewBox="0 0 113.38583 188.97639"
   width="30mm"
   xml:space="preserve"
   sodipodi:docname="stroom_contorno.svg"
   inkscape:version="0.92.2 (unknown)"
   inkscape:export-filename="/home/amoreira/franzininho/gitFranzininho/hardware/ShieldStarWars/Stroom/stroom_conforno.png"
   inkscape:export-xdpi="300"
   inkscape:export-ydpi="300"><metadata
     id="metadata17"><rdf:RDF><cc:Work
         rdf:about=""><dc:format>image/svg+xml</dc:format><dc:type
           rdf:resource="http://purl.org/dc/dcmitype/StillImage" /><dc:title></dc:title></cc:Work></rdf:RDF></metadata><defs
     id="defs15" /><sodipodi:namedview
     pagecolor="#ffffff"
     bordercolor="#666666"
     borderopacity="1"
     objecttolerance="10"
     gridtolerance="10"
     guidetolerance="10"
     inkscape:pageopacity="0"
     inkscape:pageshadow="2"
     inkscape:window-width="1317"
     inkscape:window-height="744"
     id="namedview13"
     showgrid="false"
     inkscape:document-units="mm"
     units="mm"
     inkscape:zoom="3.1855833"
     inkscape:cx="56.378999"
     inkscape:cy="94.488189"
     inkscape:window-x="49"
     inkscape:window-y="24"
     inkscape:window-maximized="1"
     inkscape:current-layer="Layer_1" /><rect
     style="display:none;fill:none;stroke:#000000;stroke-width:0.32383737;stroke-miterlimit:4;stroke-dasharray:none;stroke-opacity:1"
     id="rect14"
     width="94.67173"
     height="28.835608"
     x="8.8480415"
     y="153.05064" /><path
     d="m 100.55677,71.752584 v -4.808489 c 0,-15.868256 -10.896262,-28.850408 -24.205975,-28.850408 h -19.545 -19.545001 c -13.310812,0 -24.205971,12.981886 -24.205971,28.850408 v 4.808489 h 43.750752 z"
     id="path6-2"
     inkscape:connector-curvature="0"
     style="fill:none;fill-opacity:1;stroke:#000000;stroke-width:0.24165714;stroke-opacity:1"
     sodipodi:nodetypes="csscssccc" /><path
     d="M 104.53421,110.21971 V 86.177788 c 0,0 0,-4.80849 -3.97744,-4.80849 v -4.80849 H 56.805795 13.054823 v 4.80849 c -3.9774412,0 -3.9774412,4.80849 -3.9774412,4.80849 v 24.041922 c -5.0455939,2.69851 -7.9546623,7.73524 -7.9546623,14.4252 0,8.93757 11.8492445,21.45952 11.8492445,24.04192 0,14.4252 8.247195,24.04165 20.277762,24.04165 4.398109,0 8.433793,-1.68405 11.679791,-4.47344 -0.0079,-0.11877 -0.05561,-0.21575 -0.05561,-0.33479 v -14.4252 c 0,-2.65467 1.786629,-4.80849 3.977441,-4.80849 1.773662,0 3.226437,1.43668 3.736557,3.38377 h 0.240884 v -0.97992 c 0,-2.65441 1.786629,-4.80849 3.977221,-4.80849 2.190593,0 3.977441,2.15381 3.977441,4.80849 v 0.97992 h 0.240884 c 0.5099,-1.94709 1.962676,-3.38377 3.736557,-3.38377 2.190593,0 3.977441,2.15355 3.977441,4.80849 v 14.4252 c 0,0.11878 -0.04681,0.21576 -0.05714,0.33479 3.247097,2.78939 7.281463,4.47344 11.68089,4.47344 12.030347,0 20.277767,-9.61645 20.277767,-24.04165 0,-2.58267 11.84924,-15.10462 11.84924,-24.04192 -2.2e-4,-6.68996 -2.90819,-11.72669 -7.95488,-14.4252"
     id="path8-9"
     inkscape:connector-curvature="0"
     style="fill:none;fill-opacity:1;stroke:#000000;stroke-width:0.24165714;stroke-opacity:1"
     sodipodi:nodetypes="cccccccccssscsssccsssccssscsscc" /><rect
     style="fill:none;stroke:#000000;stroke-width:0.39015776;stroke-miterlimit:4;stroke-dasharray:none;stroke-opacity:1"
     id="rect14-1"
     width="94.67173"
     height="41.855801"
     x="10.039186"
     y="142.82967" /></svg>