<?xml version="1.0" encoding="UTF-8" standalone="no"?>
<svg
   xmlns:dc="http://purl.org/dc/elements/1.1/"
   xmlns:cc="http://creativecommons.org/ns#"
   xmlns:rdf="http://www.w3.org/1999/02/22-rdf-syntax-ns#"
   xmlns:svg="http://www.w3.org/2000/svg"
   xmlns="http://www.w3.org/2000/svg"
   xmlns:sodipodi="http://sodipodi.sourceforge.net/DTD/sodipodi-0.dtd"
   xmlns:inkscape="http://www.inkscape.org/namespaces/inkscape"
   height="50mm"
   id="Layer_1"
   version="1.2"
   viewBox="0 0 113.38583 188.97639"
   width="30mm"
   xml:space="preserve"
   sodipodi:docname="stroom_silk.svg"
   inkscape:version="0.92.2 (unknown)"
   inkscape:export-filename="/home/amoreira/franzininho/gitFranzininho/hardware/ShieldStarWars/Stroom/stroom_silk.png"
   inkscape:export-xdpi="300"
   inkscape:export-ydpi="300"><metadata
     id="metadata17"><rdf:RDF><cc:Work
         rdf:about=""><dc:format>image/svg+xml</dc:format><dc:type
           rdf:resource="http://purl.org/dc/dcmitype/StillImage" /><dc:title /></cc:Work></rdf:RDF></metadata><defs
     id="defs15" /><sodipodi:namedview
     pagecolor="#ffffff"
     bordercolor="#666666"
     borderopacity="1"
     objecttolerance="10"
     gridtolerance="10"
     guidetolerance="10"
     inkscape:pageopacity="0"
     inkscape:pageshadow="2"
     inkscape:window-width="1317"
     inkscape:window-height="744"
     id="namedview13"
     showgrid="false"
     inkscape:document-units="mm"
     units="mm"
     inkscape:zoom="3.1855833"
     inkscape:cx="1.9148763"
     inkscape:cy="94.488189"
     inkscape:window-x="49"
     inkscape:window-y="24"
     inkscape:window-maximized="1"
     inkscape:current-layer="Layer_1" /><path
     style="fill:#000000;fill-opacity:1;stroke-width:0.23288833"
     d="m 49.196114,149.59741 c -1.056255,0 -1.908727,1.03895 -1.908727,2.32651 v 13.95803 c 0,1.28731 0.852472,2.32625 1.908727,2.32625 1.056255,0 1.908727,-1.03894 1.908727,-2.32625 v -13.95803 c 0,-1.28756 -0.852472,-2.32651 -1.908727,-2.32651"
     id="path2"
     inkscape:connector-curvature="0" /><path
     style="fill:#000000;fill-opacity:1;stroke-width:0.23288833"
     d="m 64.466562,149.59741 c -1.056466,0 -1.908938,1.03895 -1.908938,2.32651 v 13.95803 c 0,1.28731 0.852472,2.32625 1.908938,2.32625 1.056255,0 1.908726,-1.03894 1.908726,-2.32625 v -13.95803 c 0,-1.28756 -0.852471,-2.32651 -1.908726,-2.32651"
     id="path4"
     inkscape:connector-curvature="0" /><g
     style="fill:#000000;fill-opacity:1;stroke:#000000;stroke-opacity:1"
     id="g826"
     transform="matrix(0.21095566,0,0,0.25710128,3.1643235,123.00326)"><path
       style="fill:#000000;fill-opacity:1;stroke:#000000;stroke-opacity:1"
       inkscape:connector-curvature="0"
       id="path6"
       d="m 453.462,-195.15557 v -18.097 c 0,-59.721 -49.577,-108.58 -110.135,-108.58 h -88.928 -88.928 c -60.563,0 -110.135,48.858 -110.135,108.58 v 18.097 h 199.062 z" /><path
       style="fill:#000000;fill-opacity:1;stroke:#000000;stroke-opacity:1"
       inkscape:connector-curvature="0"
       id="path8"
       d="m 471.559,-50.382571 v -90.482999 c 0,0 0,-18.097 -18.097,-18.097 v -18.097 H 254.399 55.336 v 18.097 c -18.097,0 -18.097,18.097 -18.097,18.097 v 90.482999 c -22.957,10.156 -36.193,29.112 -36.193,54.2900003 0,33.6369997 53.913,80.7639997 53.913,90.4829997 0,54.290001 37.524,90.482001 92.262,90.482001 20.011,0 38.373,-6.338 53.142,-16.836 -0.036,-0.447 -0.253,-0.812 -0.253,-1.26 v -54.29 c 0,-9.991 8.129,-18.097001 18.097,-18.097001 8.07,0 14.68,5.407 17.001,12.735001 h 1.096 v -3.688 c 0,-9.990001 8.129,-18.097001 18.096,-18.097001 9.967,0 18.097,8.106 18.097,18.097001 v 3.688 h 1.096 c 2.32,-7.328001 8.93,-12.735001 17.001,-12.735001 9.967,0 18.097,8.105001 18.097,18.097001 v 54.29 c 0,0.447 -0.213,0.812 -0.26,1.26 14.774,10.498 33.13,16.836 53.147,16.836 54.737,0 92.262,-36.192 92.262,-90.482001 0,-9.72 53.913,-56.847 53.913,-90.4829997 C 507.752,-21.270571 494.521,-40.226571 471.559,-50.382571 M 136.771,148.68043 c -14.986,0 -27.145,-12.159 -27.145,-27.146 0,-14.987 12.159,-27.145001 27.145,-27.145001 14.986,0 27.145,12.158001 27.145,27.145001 0,14.987 -12.159,27.146 -27.145,27.146 M 163.916,22.003429 h -31.027 c -3.004,0 -5.167,-1.626 -5.167,-3.617 0,-2.003 2.162,-4.064 5.167,-4.665 l 31.027,-9.8139997 z m 54.29,-22.80899967 C 207.638,3.5774293 197.417,9.0084293 187.379,13.945429 c -1.614,0.801 -3.535,1.402 -5.367,2.038 V -9.0995707 C 194.86,-20.151571 206.335,-27.726571 218.205,-32.698571 V -0.80557067 Z M 127.723,-68.479571 c -36.193,0 -36.193,-72.385999 -36.193,-72.385999 h 144.773 c 0,0 -72.387,72.385999 -108.58,72.385999 m 144.773,61.6420003 c -5.903,-1.413 -11.911,-2.262 -18.097,-2.262 -6.191,0 -12.2,0.849 -18.096,2.262 V -38.188571 c 5.731,-1.131 11.705,-1.838 18.096,-2.109 6.398,0.271 12.371,0.979 18.097,2.109 z m 54.29,22.8209997 c -1.839,-0.636 -3.747,-1.237 -5.373,-2.038 C 311.375,9.0084293 301.16,3.5774293 290.593,-0.80557067 V -32.698571 c 11.876,4.972 23.339,12.547 36.193,23.5990003 z m 45.241,132.697001 c -14.986,0 -27.146,-12.159 -27.146,-27.146 0,-14.987 12.159,-27.145001 27.146,-27.145001 14.987,0 27.145,12.158001 27.145,27.145001 0,14.987 -12.158,27.146 -27.145,27.146 M 344.882,22.003429 V 3.9064293 l 31.033,9.8139997 c 3.005,0.601 5.16,2.662 5.16,4.665 0,1.991 -2.155,3.617 -5.16,3.617 h -31.033 z m 36.193,-90.483 c -36.193,0 -108.579,-72.385999 -108.579,-72.385999 h 144.772 c 0.001,0 0.001,72.385999 -36.193,72.385999" /></g><path
     style="fill:#000000;fill-opacity:1;stroke-width:0.23288833"
     d="m 56.831232,147.27116 c -1.056255,0 -1.908726,1.03895 -1.908726,2.32625 v 18.61079 c 0,1.28731 0.852682,2.32626 1.908726,2.32626 1.056255,0 1.908727,-1.03895 1.908727,-2.32626 v -18.61079 c 0,-1.2873 -0.852472,-2.32625 -1.908727,-2.32625"
     id="path10"
     inkscape:connector-curvature="0" /><rect
     style="display:none;fill:none;stroke:#000000;stroke-width:0.32383737;stroke-miterlimit:4;stroke-dasharray:none;stroke-opacity:1"
     id="rect14"
     width="94.67173"
     height="28.835608"
     x="8.8480415"
     y="153.05064" /></svg>