  0
SECTION
  2
HEADER
  9
$ACADVER
  1
AC1009
  9
$EXTMIN
 10
0.0
 20
0.0
 30
0.0
  9
$EXTMAX
 10
1000.0
 20
1000.0
 30
0.0
  9
$FILLMODE
 70
 0
  9
$SPLFRAME
 70
 1
  0
ENDSEC
  0
SECTION
  2
TABLES
  0
TABLE
  2
LAYER
 70
1
  0
LAYER
  2
0
 70
     0
 62
     7
  6
CONTINUOUS
  0
ENDTAB
  0
ENDSEC
  0
SECTION
  2
ENTITIES
  0
POLYLINE
  8
0
 62
     0
 66
     1
 10
0
 20
0
 30
0.0
 70
     1
 40
0
 41
0
  0
VERTEX
  8
0
 10
9.6409
 20
2.81515
 30
0.0
 40
0
 41
0
  0
VERTEX
  8
0
 10
9.63937
 20
2.83176
 30
0.0
 40
0
 41
0
  0
VERTEX
  8
0
 10
9.63797
 20
2.87739
 30
0.0
 40
0
 41
0
  0
VERTEX
  8
0
 10
9.63656
 20
2.95053
 30
0.0
 40
0
 41
0
  0
VERTEX
  8
0
 10
9.63519
 20
3.04969
 30
0.0
 40
0
 41
0
  0
VERTEX
  8
0
 10
9.63396
 20
3.17344
 30
0.0
 40
0
 41
0
  0
VERTEX
  8
0
 10
9.63276
 20
3.32026
 30
0.0
 40
0
 41
0
  0
VERTEX
  8
0
 10
9.63162
 20
3.48861
 30
0.0
 40
0
 41
0
  0
VERTEX
  8
0
 10
9.63058
 20
3.67703
 30
0.0
 40
0
 41
0
  0
VERTEX
  8
0
 10
9.62961
 20
3.884
 30
0.0
 40
0
 41
0
  0
VERTEX
  8
0
 10
9.62875
 20
4.10813
 30
0.0
 40
0
 41
0
  0
VERTEX
  8
0
 10
9.62804
 20
4.34782
 30
0.0
 40
0
 41
0
  0
VERTEX
  8
0
 10
9.62739
 20
4.60157
 30
0.0
 40
0
 41
0
  0
VERTEX
  8
0
 10
9.6269
 20
4.86794
 30
0.0
 40
0
 41
0
  0
VERTEX
  8
0
 10
9.62651
 20
5.14546
 30
0.0
 40
0
 41
0
  0
VERTEX
  8
0
 10
9.62625
 20
5.43257
 30
0.0
 40
0
 41
0
  0
VERTEX
  8
0
 10
9.62619
 20
5.72775
 30
0.0
 40
0
 41
0
  0
VERTEX
  8
0
 10
9.62582
 20
8.62517
 30
0.0
 40
0
 41
0
  0
VERTEX
  8
0
 10
9.13351
 20
8.77029
 30
0.0
 40
0
 41
0
  0
VERTEX
  8
0
 10
8.56017
 20
8.94792
 30
0.0
 40
0
 41
0
  0
VERTEX
  8
0
 10
7.99322
 20
9.14046
 30
0.0
 40
0
 41
0
  0
VERTEX
  8
0
 10
7.43446
 20
9.347
 30
0.0
 40
0
 41
0
  0
VERTEX
  8
0
 10
6.88558
 20
9.56657
 30
0.0
 40
0
 41
0
  0
VERTEX
  8
0
 10
6.34842
 20
9.79824
 30
0.0
 40
0
 41
0
  0
VERTEX
  8
0
 10
5.82465
 20
10.041
 30
0.0
 40
0
 41
0
  0
VERTEX
  8
0
 10
5.31603
 20
10.2939
 30
0.0
 40
0
 41
0
  0
VERTEX
  8
0
 10
4.82433
 20
10.5559
 30
0.0
 40
0
 41
0
  0
VERTEX
  8
0
 10
4.35135
 20
10.8262
 30
0.0
 40
0
 41
0
  0
VERTEX
  8
0
 10
3.89876
 20
11.1037
 30
0.0
 40
0
 41
0
  0
VERTEX
  8
0
 10
3.46832
 20
11.3875
 30
0.0
 40
0
 41
0
  0
VERTEX
  8
0
 10
3.06185
 20
11.6766
 30
0.0
 40
0
 41
0
  0
VERTEX
  8
0
 10
2.68104
 20
11.97
 30
0.0
 40
0
 41
0
  0
VERTEX
  8
0
 10
2.32764
 20
12.2668
 30
0.0
 40
0
 41
0
  0
VERTEX
  8
0
 10
2.00342
 20
12.566
 30
0.0
 40
0
 41
0
  0
VERTEX
  8
0
 10
1.71018
 20
12.8666
 30
0.0
 40
0
 41
0
  0
VERTEX
  8
0
 10
1.51465
 20
13.0883
 30
0.0
 40
0
 41
0
  0
VERTEX
  8
0
 10
1.34267
 20
13.3033
 30
0.0
 40
0
 41
0
  0
VERTEX
  8
0
 10
1.19401
 20
13.5119
 30
0.0
 40
0
 41
0
  0
VERTEX
  8
0
 10
1.06847
 20
13.7147
 30
0.0
 40
0
 41
0
  0
VERTEX
  8
0
 10
0.965713
 20
13.9119
 30
0.0
 40
0
 41
0
  0
VERTEX
  8
0
 10
0.885633
 20
14.1042
 30
0.0
 40
0
 41
0
  0
VERTEX
  8
0
 10
0.827963
 20
14.2915
 30
0.0
 40
0
 41
0
  0
VERTEX
  8
0
 10
0.792481
 20
14.4746
 30
0.0
 40
0
 41
0
  0
VERTEX
  8
0
 10
0.770887
 20
14.6339
 30
0.0
 40
0
 41
0
  0
VERTEX
  8
0
 10
2.95231
 20
20.5774
 30
0.0
 40
0
 41
0
  0
VERTEX
  8
0
 10
5.13368
 20
26.5207
 30
0.0
 40
0
 41
0
  0
VERTEX
  8
0
 10
5.14611
 20
29.0075
 30
0.0
 40
0
 41
0
  0
VERTEX
  8
0
 10
5.14839
 20
29.4715
 30
0.0
 40
0
 41
0
  0
VERTEX
  8
0
 10
5.15044
 20
29.8761
 30
0.0
 40
0
 41
0
  0
VERTEX
  8
0
 10
5.1525
 20
30.2267
 30
0.0
 40
0
 41
0
  0
VERTEX
  8
0
 10
5.15474
 20
30.5283
 30
0.0
 40
0
 41
0
  0
VERTEX
  8
0
 10
5.15733
 20
30.7861
 30
0.0
 40
0
 41
0
  0
VERTEX
  8
0
 10
5.16054
 20
31.0054
 30
0.0
 40
0
 41
0
  0
VERTEX
  8
0
 10
5.16444
 20
31.1913
 30
0.0
 40
0
 41
0
  0
VERTEX
  8
0
 10
5.16932
 20
31.349
 30
0.0
 40
0
 41
0
  0
VERTEX
  8
0
 10
5.17529
 20
31.4839
 30
0.0
 40
0
 41
0
  0
VERTEX
  8
0
 10
5.18261
 20
31.6008
 30
0.0
 40
0
 41
0
  0
VERTEX
  8
0
 10
5.19151
 20
31.7053
 30
0.0
 40
0
 41
0
  0
VERTEX
  8
0
 10
5.2021
 20
31.8024
 30
0.0
 40
0
 41
0
  0
VERTEX
  8
0
 10
5.21457
 20
31.8974
 30
0.0
 40
0
 41
0
  0
VERTEX
  8
0
 10
5.22917
 20
31.9953
 30
0.0
 40
0
 41
0
  0
VERTEX
  8
0
 10
5.24604
 20
32.1014
 30
0.0
 40
0
 41
0
  0
VERTEX
  8
0
 10
5.26546
 20
32.221
 30
0.0
 40
0
 41
0
  0
VERTEX
  8
0
 10
5.38243
 20
32.8108
 30
0.0
 40
0
 41
0
  0
VERTEX
  8
0
 10
5.5415
 20
33.3982
 30
0.0
 40
0
 41
0
  0
VERTEX
  8
0
 10
5.74061
 20
33.9786
 30
0.0
 40
0
 41
0
  0
VERTEX
  8
0
 10
5.97781
 20
34.5478
 30
0.0
 40
0
 41
0
  0
VERTEX
  8
0
 10
6.25108
 20
35.1014
 30
0.0
 40
0
 41
0
  0
VERTEX
  8
0
 10
6.5586
 20
35.6351
 30
0.0
 40
0
 41
0
  0
VERTEX
  8
0
 10
6.89833
 20
36.1447
 30
0.0
 40
0
 41
0
  0
VERTEX
  8
0
 10
7.26828
 20
36.6258
 30
0.0
 40
0
 41
0
  0
VERTEX
  8
0
 10
7.78321
 20
37.1988
 30
0.0
 40
0
 41
0
  0
VERTEX
  8
0
 10
8.33817
 20
37.7203
 30
0.0
 40
0
 41
0
  0
VERTEX
  8
0
 10
8.93001
 20
38.1888
 30
0.0
 40
0
 41
0
  0
VERTEX
  8
0
 10
9.55567
 20
38.6022
 30
0.0
 40
0
 41
0
  0
VERTEX
  8
0
 10
10.2119
 20
38.9586
 30
0.0
 40
0
 41
0
  0
VERTEX
  8
0
 10
10.8955
 20
39.2562
 30
0.0
 40
0
 41
0
  0
VERTEX
  8
0
 10
11.6035
 20
39.4932
 30
0.0
 40
0
 41
0
  0
VERTEX
  8
0
 10
12.3327
 20
39.6674
 30
0.0
 40
0
 41
0
  0
VERTEX
  8
0
 10
12.4572
 20
39.6914
 30
0.0
 40
0
 41
0
  0
VERTEX
  8
0
 10
12.5697
 20
39.7124
 30
0.0
 40
0
 41
0
  0
VERTEX
  8
0
 10
12.6754
 20
39.7304
 30
0.0
 40
0
 41
0
  0
VERTEX
  8
0
 10
12.7794
 20
39.746
 30
0.0
 40
0
 41
0
  0
VERTEX
  8
0
 10
12.8869
 20
39.7592
 30
0.0
 40
0
 41
0
  0
VERTEX
  8
0
 10
13.0032
 20
39.7703
 30
0.0
 40
0
 41
0
  0
VERTEX
  8
0
 10
13.1334
 20
39.7796
 30
0.0
 40
0
 41
0
  0
VERTEX
  8
0
 10
13.2826
 20
39.7871
 30
0.0
 40
0
 41
0
  0
VERTEX
  8
0
 10
13.4561
 20
39.7931
 30
0.0
 40
0
 41
0
  0
VERTEX
  8
0
 10
13.6591
 20
39.7978
 30
0.0
 40
0
 41
0
  0
VERTEX
  8
0
 10
13.8967
 20
39.8015
 30
0.0
 40
0
 41
0
  0
VERTEX
  8
0
 10
14.1742
 20
39.8044
 30
0.0
 40
0
 41
0
  0
VERTEX
  8
0
 10
14.4967
 20
39.8067
 30
0.0
 40
0
 41
0
  0
VERTEX
  8
0
 10
14.8693
 20
39.8086
 30
0.0
 40
0
 41
0
  0
VERTEX
  8
0
 10
15.2974
 20
39.8103
 30
0.0
 40
0
 41
0
  0
VERTEX
  8
0
 10
15.786
 20
39.8121
 30
0.0
 40
0
 41
0
  0
VERTEX
  8
0
 10
16.2706
 20
39.8138
 30
0.0
 40
0
 41
0
  0
VERTEX
  8
0
 10
16.7036
 20
39.8147
 30
0.0
 40
0
 41
0
  0
VERTEX
  8
0
 10
17.0886
 20
39.8151
 30
0.0
 40
0
 41
0
  0
VERTEX
  8
0
 10
17.4299
 20
39.8147
 30
0.0
 40
0
 41
0
  0
VERTEX
  8
0
 10
17.731
 20
39.8136
 30
0.0
 40
0
 41
0
  0
VERTEX
  8
0
 10
17.9958
 20
39.8115
 30
0.0
 40
0
 41
0
  0
VERTEX
  8
0
 10
18.2283
 20
39.8083
 30
0.0
 40
0
 41
0
  0
VERTEX
  8
0
 10
18.4325
 20
39.804
 30
0.0
 40
0
 41
0
  0
VERTEX
  8
0
 10
18.6119
 20
39.7983
 30
0.0
 40
0
 41
0
  0
VERTEX
  8
0
 10
18.7708
 20
39.7914
 30
0.0
 40
0
 41
0
  0
VERTEX
  8
0
 10
18.9128
 20
39.7831
 30
0.0
 40
0
 41
0
  0
VERTEX
  8
0
 10
19.0418
 20
39.7732
 30
0.0
 40
0
 41
0
  0
VERTEX
  8
0
 10
19.1617
 20
39.7617
 30
0.0
 40
0
 41
0
  0
VERTEX
  8
0
 10
19.2764
 20
39.7483
 30
0.0
 40
0
 41
0
  0
VERTEX
  8
0
 10
19.3899
 20
39.7332
 30
0.0
 40
0
 41
0
  0
VERTEX
  8
0
 10
19.5057
 20
39.7161
 30
0.0
 40
0
 41
0
  0
VERTEX
  8
0
 10
20.079
 20
39.6082
 30
0.0
 40
0
 41
0
  0
VERTEX
  8
0
 10
20.6399
 20
39.4618
 30
0.0
 40
0
 41
0
  0
VERTEX
  8
0
 10
21.1881
 20
39.2768
 30
0.0
 40
0
 41
0
  0
VERTEX
  8
0
 10
21.7229
 20
39.0536
 30
0.0
 40
0
 41
0
  0
VERTEX
  8
0
 10
22.244
 20
38.7924
 30
0.0
 40
0
 41
0
  0
VERTEX
  8
0
 10
22.7511
 20
38.4933
 30
0.0
 40
0
 41
0
  0
VERTEX
  8
0
 10
23.2436
 20
38.1565
 30
0.0
 40
0
 41
0
  0
VERTEX
  8
0
 10
23.7211
 20
37.7824
 30
0.0
 40
0
 41
0
  0
VERTEX
  8
0
 10
23.8708
 20
37.651
 30
0.0
 40
0
 41
0
  0
VERTEX
  8
0
 10
24.0404
 20
37.4915
 30
0.0
 40
0
 41
0
  0
VERTEX
  8
0
 10
24.2219
 20
37.3126
 30
0.0
 40
0
 41
0
  0
VERTEX
  8
0
 10
24.4076
 20
37.1222
 30
0.0
 40
0
 41
0
  0
VERTEX
  8
0
 10
24.5893
 20
36.9286
 30
0.0
 40
0
 41
0
  0
VERTEX
  8
0
 10
24.7594
 20
36.74
 30
0.0
 40
0
 41
0
  0
VERTEX
  8
0
 10
24.9099
 20
36.5647
 30
0.0
 40
0
 41
0
  0
VERTEX
  8
0
 10
25.0329
 20
36.411
 30
0.0
 40
0
 41
0
  0
VERTEX
  8
0
 10
25.3343
 20
35.9975
 30
0.0
 40
0
 41
0
  0
VERTEX
  8
0
 10
25.5946
 20
35.601
 30
0.0
 40
0
 41
0
  0
VERTEX
  8
0
 10
25.8282
 20
35.1978
 30
0.0
 40
0
 41
0
  0
VERTEX
  8
0
 10
26.0499
 20
34.7644
 30
0.0
 40
0
 41
0
  0
VERTEX
  8
0
 10
26.2138
 20
34.4081
 30
0.0
 40
0
 41
0
  0
VERTEX
  8
0
 10
26.3603
 20
34.0539
 30
0.0
 40
0
 41
0
  0
VERTEX
  8
0
 10
26.4903
 20
33.6979
 30
0.0
 40
0
 41
0
  0
VERTEX
  8
0
 10
26.6047
 20
33.3369
 30
0.0
 40
0
 41
0
  0
VERTEX
  8
0
 10
26.7049
 20
32.9671
 30
0.0
 40
0
 41
0
  0
VERTEX
  8
0
 10
26.7918
 20
32.5846
 30
0.0
 40
0
 41
0
  0
VERTEX
  8
0
 10
26.8664
 20
32.1858
 30
0.0
 40
0
 41
0
  0
VERTEX
  8
0
 10
26.93
 20
31.7671
 30
0.0
 40
0
 41
0
  0
VERTEX
  8
0
 10
26.9378
 20
31.7078
 30
0.0
 40
0
 41
0
  0
VERTEX
  8
0
 10
26.9447
 20
31.6496
 30
0.0
 40
0
 41
0
  0
VERTEX
  8
0
 10
26.9508
 20
31.5892
 30
0.0
 40
0
 41
0
  0
VERTEX
  8
0
 10
26.9562
 20
31.5226
 30
0.0
 40
0
 41
0
  0
VERTEX
  8
0
 10
26.9608
 20
31.4467
 30
0.0
 40
0
 41
0
  0
VERTEX
  8
0
 10
26.965
 20
31.3576
 30
0.0
 40
0
 41
0
  0
VERTEX
  8
0
 10
26.9685
 20
31.2519
 30
0.0
 40
0
 41
0
  0
VERTEX
  8
0
 10
26.9715
 20
31.1261
 30
0.0
 40
0
 41
0
  0
VERTEX
  8
0
 10
26.9742
 20
30.9764
 30
0.0
 40
0
 41
0
  0
VERTEX
  8
0
 10
26.9767
 20
30.7993
 30
0.0
 40
0
 41
0
  0
VERTEX
  8
0
 10
26.9787
 20
30.5914
 30
0.0
 40
0
 41
0
  0
VERTEX
  8
0
 10
26.9808
 20
30.3488
 30
0.0
 40
0
 41
0
  0
VERTEX
  8
0
 10
26.9828
 20
30.0682
 30
0.0
 40
0
 41
0
  0
VERTEX
  8
0
 10
26.9846
 20
29.746
 30
0.0
 40
0
 41
0
  0
VERTEX
  8
0
 10
26.9867
 20
29.3783
 30
0.0
 40
0
 41
0
  0
VERTEX
  8
0
 10
26.9889
 20
28.9621
 30
0.0
 40
0
 41
0
  0
VERTEX
  8
0
 10
27.0012
 20
26.4981
 30
0.0
 40
0
 41
0
  0
VERTEX
  8
0
 10
29.1718
 20
20.5867
 30
0.0
 40
0
 41
0
  0
VERTEX
  8
0
 10
29.3854
 20
20.005
 30
0.0
 40
0
 41
0
  0
VERTEX
  8
0
 10
29.5849
 20
19.4622
 30
0.0
 40
0
 41
0
  0
VERTEX
  8
0
 10
29.7704
 20
18.9568
 30
0.0
 40
0
 41
0
  0
VERTEX
  8
0
 10
29.9428
 20
18.4874
 30
0.0
 40
0
 41
0
  0
VERTEX
  8
0
 10
30.1024
 20
18.0526
 30
0.0
 40
0
 41
0
  0
VERTEX
  8
0
 10
30.2496
 20
17.6511
 30
0.0
 40
0
 41
0
  0
VERTEX
  8
0
 10
30.385
 20
17.2814
 30
0.0
 40
0
 41
0
  0
VERTEX
  8
0
 10
30.509
 20
16.9422
 30
0.0
 40
0
 41
0
  0
VERTEX
  8
0
 10
30.6222
 20
16.6321
 30
0.0
 40
0
 41
0
  0
VERTEX
  8
0
 10
30.725
 20
16.3496
 30
0.0
 40
0
 41
0
  0
VERTEX
  8
0
 10
30.8178
 20
16.0933
 30
0.0
 40
0
 41
0
  0
VERTEX
  8
0
 10
30.901
 20
15.8621
 30
0.0
 40
0
 41
0
  0
VERTEX
  8
0
 10
30.9753
 20
15.6542
 30
0.0
 40
0
 41
0
  0
VERTEX
  8
0
 10
31.0411
 20
15.4685
 30
0.0
 40
0
 41
0
  0
VERTEX
  8
0
 10
31.0988
 20
15.3033
 30
0.0
 40
0
 41
0
  0
VERTEX
  8
0
 10
31.149
 20
15.1576
 30
0.0
 40
0
 41
0
  0
VERTEX
  8
0
 10
31.1919
 20
15.0297
 30
0.0
 40
0
 41
0
  0
VERTEX
  8
0
 10
31.2285
 20
14.9185
 30
0.0
 40
0
 41
0
  0
VERTEX
  8
0
 10
31.2587
 20
14.8224
 30
0.0
 40
0
 41
0
  0
VERTEX
  8
0
 10
31.2833
 20
14.7399
 30
0.0
 40
0
 41
0
  0
VERTEX
  8
0
 10
31.3028
 20
14.6697
 30
0.0
 40
0
 41
0
  0
VERTEX
  8
0
 10
31.3175
 20
14.6106
 30
0.0
 40
0
 41
0
  0
VERTEX
  8
0
 10
31.3279
 20
14.561
 30
0.0
 40
0
 41
0
  0
VERTEX
  8
0
 10
31.3346
 20
14.5194
 30
0.0
 40
0
 41
0
  0
VERTEX
  8
0
 10
31.3381
 20
14.4847
 30
0.0
 40
0
 41
0
  0
VERTEX
  8
0
 10
31.3386
 20
14.4554
 30
0.0
 40
0
 41
0
  0
VERTEX
  8
0
 10
31.3368
 20
14.43
 30
0.0
 40
0
 41
0
  0
VERTEX
  8
0
 10
31.3331
 20
14.4072
 30
0.0
 40
0
 41
0
  0
VERTEX
  8
0
 10
31.3281
 20
14.3857
 30
0.0
 40
0
 41
0
  0
VERTEX
  8
0
 10
31.3221
 20
14.3639
 30
0.0
 40
0
 41
0
  0
VERTEX
  8
0
 10
31.3157
 20
14.3404
 30
0.0
 40
0
 41
0
  0
VERTEX
  8
0
 10
31.3093
 20
14.314
 30
0.0
 40
0
 41
0
  0
VERTEX
  8
0
 10
31.2833
 20
14.2211
 30
0.0
 40
0
 41
0
  0
VERTEX
  8
0
 10
31.244
 20
14.1128
 30
0.0
 40
0
 41
0
  0
VERTEX
  8
0
 10
31.1932
 20
13.9929
 30
0.0
 40
0
 41
0
  0
VERTEX
  8
0
 10
31.1329
 20
13.8661
 30
0.0
 40
0
 41
0
  0
VERTEX
  8
0
 10
31.0656
 20
13.7363
 30
0.0
 40
0
 41
0
  0
VERTEX
  8
0
 10
30.9929
 20
13.6078
 30
0.0
 40
0
 41
0
  0
VERTEX
  8
0
 10
30.9172
 20
13.4849
 30
0.0
 40
0
 41
0
  0
VERTEX
  8
0
 10
30.8407
 20
13.3716
 30
0.0
 40
0
 41
0
  0
VERTEX
  8
0
 10
30.7443
 20
13.2451
 30
0.0
 40
0
 41
0
  0
VERTEX
  8
0
 10
30.6237
 20
13.1002
 30
0.0
 40
0
 41
0
  0
VERTEX
  8
0
 10
30.4849
 20
12.943
 30
0.0
 40
0
 41
0
  0
VERTEX
  8
0
 10
30.3333
 20
12.7797
 30
0.0
 40
0
 41
0
  0
VERTEX
  8
0
 10
30.175
 20
12.6163
 30
0.0
 40
0
 41
0
  0
VERTEX
  8
0
 10
30.0157
 20
12.459
 30
0.0
 40
0
 41
0
  0
VERTEX
  8
0
 10
29.8611
 20
12.3137
 30
0.0
 40
0
 41
0
  0
VERTEX
  8
0
 10
29.7169
 20
12.1866
 30
0.0
 40
0
 41
0
  0
VERTEX
  8
0
 10
29.1542
 20
11.7387
 30
0.0
 40
0
 41
0
  0
VERTEX
  8
0
 10
28.5414
 20
11.3047
 30
0.0
 40
0
 41
0
  0
VERTEX
  8
0
 10
27.8824
 20
10.8868
 30
0.0
 40
0
 41
0
  0
VERTEX
  8
0
 10
27.1804
 20
10.4865
 30
0.0
 40
0
 41
0
  0
VERTEX
  8
0
 10
26.439
 20
10.1061
 30
0.0
 40
0
 41
0
  0
VERTEX
  8
0
 10
25.6617
 20
9.74718
 30
0.0
 40
0
 41
0
  0
VERTEX
  8
0
 10
24.8519
 20
9.41178
 30
0.0
 40
0
 41
0
  0
VERTEX
  8
0
 10
24.0135
 20
9.10178
 30
0.0
 40
0
 41
0
  0
VERTEX
  8
0
 10
23.8701
 20
9.0524
 30
0.0
 40
0
 41
0
  0
VERTEX
  8
0
 10
23.72
 20
9.00146
 30
0.0
 40
0
 41
0
  0
VERTEX
  8
0
 10
23.5675
 20
8.95057
 30
0.0
 40
0
 41
0
  0
VERTEX
  8
0
 10
23.4171
 20
8.90104
 30
0.0
 40
0
 41
0
  0
VERTEX
  8
0
 10
23.2732
 20
8.85444
 30
0.0
 40
0
 41
0
  0
VERTEX
  8
0
 10
23.1404
 20
8.81222
 30
0.0
 40
0
 41
0
  0
VERTEX
  8
0
 10
23.0231
 20
8.77576
 30
0.0
 40
0
 41
0
  0
VERTEX
  8
0
 10
22.9257
 20
8.74658
 30
0.0
 40
0
 41
0
  0
VERTEX
  8
0
 10
22.5092
 20
8.62517
 30
0.0
 40
0
 41
0
  0
VERTEX
  8
0
 10
22.5036
 20
5.71826
 30
0.0
 40
0
 41
0
  0
VERTEX
  8
0
 10
22.4979
 20
2.81142
 30
0.0
 40
0
 41
0
  0
VERTEX
  8
0
 10
16.0765
 20
2.80567
 30
0.0
 40
0
 41
0
  0
VERTEX
  8
0
 10
15.4224
 20
2.80518
 30
0.0
 40
0
 41
0
  0
VERTEX
  8
0
 10
14.7862
 20
2.80485
 30
0.0
 40
0
 41
0
  0
VERTEX
  8
0
 10
14.1718
 20
2.80469
 30
0.0
 40
0
 41
0
  0
VERTEX
  8
0
 10
13.5821
 20
2.80469
 30
0.0
 40
0
 41
0
  0
VERTEX
  8
0
 10
13.0205
 20
2.80485
 30
0.0
 40
0
 41
0
  0
VERTEX
  8
0
 10
12.4903
 20
2.80512
 30
0.0
 40
0
 41
0
  0
VERTEX
  8
0
 10
11.9947
 20
2.80556
 30
0.0
 40
0
 41
0
  0
VERTEX
  8
0
 10
11.5372
 20
2.80615
 30
0.0
 40
0
 41
0
  0
VERTEX
  8
0
 10
11.121
 20
2.80686
 30
0.0
 40
0
 41
0
  0
VERTEX
  8
0
 10
10.7493
 20
2.80767
 30
0.0
 40
0
 41
0
  0
VERTEX
  8
0
 10
10.4256
 20
2.80865
 30
0.0
 40
0
 41
0
  0
VERTEX
  8
0
 10
10.1531
 20
2.80974
 30
0.0
 40
0
 41
0
  0
VERTEX
  8
0
 10
9.935
 20
2.81093
 30
0.0
 40
0
 41
0
  0
VERTEX
  8
0
 10
9.77474
 20
2.81222
 30
0.0
 40
0
 41
0
  0
VERTEX
  8
0
 10
9.67557
 20
2.81369
 30
0.0
 40
0
 41
0
  0
VERTEX
  8
0
 10
9.64079
 20
2.81515
 30
0.0
 40
0
 41
0
  0
VERTEX
  8
0
 10
9.6409
 20
2.81515
 30
0.0
 40
0
 41
0
  0
SEQEND
 8
0
  0
POLYLINE
  8
0
 62
     0
 66
     1
 10
0
 20
0
 30
0.0
 70
     1
 40
0
 41
0
  0
VERTEX
  8
0
 10
22.4006
 20
5.77344
 30
0.0
 40
0
 41
0
  0
VERTEX
  8
0
 10
22.4006
 20
6.23275
 30
0.0
 40
0
 41
0
  0
VERTEX
  8
0
 10
22.4007
 20
6.64122
 30
0.0
 40
0
 41
0
  0
VERTEX
  8
0
 10
22.4011
 20
7.0019
 30
0.0
 40
0
 41
0
  0
VERTEX
  8
0
 10
22.4015
 20
7.31765
 30
0.0
 40
0
 41
0
  0
VERTEX
  8
0
 10
22.4022
 20
7.59164
 30
0.0
 40
0
 41
0
  0
VERTEX
  8
0
 10
22.4032
 20
7.82667
 30
0.0
 40
0
 41
0
  0
VERTEX
  8
0
 10
22.4046
 20
8.02576
 30
0.0
 40
0
 41
0
  0
VERTEX
  8
0
 10
22.4061
 20
8.19189
 30
0.0
 40
0
 41
0
  0
VERTEX
  8
0
 10
22.4081
 20
8.32807
 30
0.0
 40
0
 41
0
  0
VERTEX
  8
0
 10
22.4104
 20
8.43722
 30
0.0
 40
0
 41
0
  0
VERTEX
  8
0
 10
22.4132
 20
8.52235
 30
0.0
 40
0
 41
0
  0
VERTEX
  8
0
 10
22.4164
 20
8.58643
 30
0.0
 40
0
 41
0
  0
VERTEX
  8
0
 10
22.4201
 20
8.63243
 30
0.0
 40
0
 41
0
  0
VERTEX
  8
0
 10
22.4243
 20
8.66336
 30
0.0
 40
0
 41
0
  0
VERTEX
  8
0
 10
22.4292
 20
8.68212
 30
0.0
 40
0
 41
0
  0
VERTEX
  8
0
 10
22.4346
 20
8.69168
 30
0.0
 40
0
 41
0
  0
VERTEX
  8
0
 10
22.4669
 20
8.7169
 30
0.0
 40
0
 41
0
  0
VERTEX
  8
0
 10
22.4969
 20
8.72737
 30
0.0
 40
0
 41
0
  0
VERTEX
  8
0
 10
22.5176
 20
8.73074
 30
0.0
 40
0
 41
0
  0
VERTEX
  8
0
 10
22.5574
 20
8.74046
 30
0.0
 40
0
 41
0
  0
VERTEX
  8
0
 10
22.6139
 20
8.75575
 30
0.0
 40
0
 41
0
  0
VERTEX
  8
0
 10
22.6853
 20
8.7761
 30
0.0
 40
0
 41
0
  0
VERTEX
  8
0
 10
22.7696
 20
8.80083
 30
0.0
 40
0
 41
0
  0
VERTEX
  8
0
 10
22.8646
 20
8.82932
 30
0.0
 40
0
 41
0
  0
VERTEX
  8
0
 10
22.9682
 20
8.86094
 30
0.0
 40
0
 41
0
  0
VERTEX
  8
0
 10
23.0785
 20
8.89501
 30
0.0
 40
0
 41
0
  0
VERTEX
  8
0
 10
23.1935
 20
8.93093
 30
0.0
 40
0
 41
0
  0
VERTEX
  8
0
 10
23.3108
 20
8.96799
 30
0.0
 40
0
 41
0
  0
VERTEX
  8
0
 10
23.4288
 20
9.00569
 30
0.0
 40
0
 41
0
  0
VERTEX
  8
0
 10
23.545
 20
9.04324
 30
0.0
 40
0
 41
0
  0
VERTEX
  8
0
 10
23.6578
 20
9.08014
 30
0.0
 40
0
 41
0
  0
VERTEX
  8
0
 10
23.7647
 20
9.11561
 30
0.0
 40
0
 41
0
  0
VERTEX
  8
0
 10
23.8639
 20
9.14914
 30
0.0
 40
0
 41
0
  0
VERTEX
  8
0
 10
23.9535
 20
9.18001
 30
0.0
 40
0
 41
0
  0
VERTEX
  8
0
 10
24.5557
 20
9.40022
 30
0.0
 40
0
 41
0
  0
VERTEX
  8
0
 10
25.1446
 20
9.63433
 30
0.0
 40
0
 41
0
  0
VERTEX
  8
0
 10
25.7185
 20
9.88108
 30
0.0
 40
0
 41
0
  0
VERTEX
  8
0
 10
26.2753
 20
10.1393
 30
0.0
 40
0
 41
0
  0
VERTEX
  8
0
 10
26.8132
 20
10.4076
 30
0.0
 40
0
 41
0
  0
VERTEX
  8
0
 10
27.3301
 20
10.6849
 30
0.0
 40
0
 41
0
  0
VERTEX
  8
0
 10
27.8243
 20
10.9699
 30
0.0
 40
0
 41
0
  0
VERTEX
  8
0
 10
28.2938
 20
11.2614
 30
0.0
 40
0
 41
0
  0
VERTEX
  8
0
 10
28.7367
 20
11.5581
 30
0.0
 40
0
 41
0
  0
VERTEX
  8
0
 10
29.151
 20
11.8588
 30
0.0
 40
0
 41
0
  0
VERTEX
  8
0
 10
29.5347
 20
12.1623
 30
0.0
 40
0
 41
0
  0
VERTEX
  8
0
 10
29.8863
 20
12.4674
 30
0.0
 40
0
 41
0
  0
VERTEX
  8
0
 10
30.2033
 20
12.7727
 30
0.0
 40
0
 41
0
  0
VERTEX
  8
0
 10
30.4843
 20
13.0771
 30
0.0
 40
0
 41
0
  0
VERTEX
  8
0
 10
30.7272
 20
13.3793
 30
0.0
 40
0
 41
0
  0
VERTEX
  8
0
 10
30.93
 20
13.6782
 30
0.0
 40
0
 41
0
  0
VERTEX
  8
0
 10
30.9956
 20
13.7924
 30
0.0
 40
0
 41
0
  0
VERTEX
  8
0
 10
31.0567
 20
13.9131
 30
0.0
 40
0
 41
0
  0
VERTEX
  8
0
 10
31.1119
 20
14.0367
 30
0.0
 40
0
 41
0
  0
VERTEX
  8
0
 10
31.1603
 20
14.1594
 30
0.0
 40
0
 41
0
  0
VERTEX
  8
0
 10
31.2001
 20
14.2779
 30
0.0
 40
0
 41
0
  0
VERTEX
  8
0
 10
31.2301
 20
14.3883
 30
0.0
 40
0
 41
0
  0
VERTEX
  8
0
 10
31.2492
 20
14.4874
 30
0.0
 40
0
 41
0
  0
VERTEX
  8
0
 10
31.2558
 20
14.571
 30
0.0
 40
0
 41
0
  0
VERTEX
  8
0
 10
31.2446
 20
14.6086
 30
0.0
 40
0
 41
0
  0
VERTEX
  8
0
 10
31.2114
 20
14.7056
 30
0.0
 40
0
 41
0
  0
VERTEX
  8
0
 10
31.1576
 20
14.8589
 30
0.0
 40
0
 41
0
  0
VERTEX
  8
0
 10
31.0843
 20
15.0653
 30
0.0
 40
0
 41
0
  0
VERTEX
  8
0
 10
30.9924
 20
15.3218
 30
0.0
 40
0
 41
0
  0
VERTEX
  8
0
 10
30.8832
 20
15.6253
 30
0.0
 40
0
 41
0
  0
VERTEX
  8
0
 10
30.7576
 20
15.9728
 30
0.0
 40
0
 41
0
  0
VERTEX
  8
0
 10
30.6171
 20
16.3611
 30
0.0
 40
0
 41
0
  0
VERTEX
  8
0
 10
30.4624
 20
16.7872
 30
0.0
 40
0
 41
0
  0
VERTEX
  8
0
 10
30.2949
 20
17.2481
 30
0.0
 40
0
 41
0
  0
VERTEX
  8
0
 10
30.1156
 20
17.7406
 30
0.0
 40
0
 41
0
  0
VERTEX
  8
0
 10
29.9256
 20
18.2615
 30
0.0
 40
0
 41
0
  0
VERTEX
  8
0
 10
29.726
 20
18.8081
 30
0.0
 40
0
 41
0
  0
VERTEX
  8
0
 10
29.5179
 20
19.3769
 30
0.0
 40
0
 41
0
  0
VERTEX
  8
0
 10
29.3026
 20
19.9653
 30
0.0
 40
0
 41
0
  0
VERTEX
  8
0
 10
29.0811
 20
20.5697
 30
0.0
 40
0
 41
0
  0
VERTEX
  8
0
 10
26.9063
 20
26.5007
 30
0.0
 40
0
 41
0
  0
VERTEX
  8
0
 10
26.8979
 20
28.9293
 30
0.0
 40
0
 41
0
  0
VERTEX
  8
0
 10
26.8963
 20
29.3869
 30
0.0
 40
0
 41
0
  0
VERTEX
  8
0
 10
26.8947
 20
29.7878
 30
0.0
 40
0
 41
0
  0
VERTEX
  8
0
 10
26.8931
 20
30.1365
 30
0.0
 40
0
 41
0
  0
VERTEX
  8
0
 10
26.891
 20
30.4382
 30
0.0
 40
0
 41
0
  0
VERTEX
  8
0
 10
26.8885
 20
30.6979
 30
0.0
 40
0
 41
0
  0
VERTEX
  8
0
 10
26.8853
 20
30.9204
 30
0.0
 40
0
 41
0
  0
VERTEX
  8
0
 10
26.8812
 20
31.1106
 30
0.0
 40
0
 41
0
  0
VERTEX
  8
0
 10
26.876
 20
31.2736
 30
0.0
 40
0
 41
0
  0
VERTEX
  8
0
 10
26.8696
 20
31.4142
 30
0.0
 40
0
 41
0
  0
VERTEX
  8
0
 10
26.8617
 20
31.5374
 30
0.0
 40
0
 41
0
  0
VERTEX
  8
0
 10
26.8521
 20
31.6481
 30
0.0
 40
0
 41
0
  0
VERTEX
  8
0
 10
26.8407
 20
31.7511
 30
0.0
 40
0
 41
0
  0
VERTEX
  8
0
 10
26.8272
 20
31.8517
 30
0.0
 40
0
 41
0
  0
VERTEX
  8
0
 10
26.8117
 20
31.9544
 30
0.0
 40
0
 41
0
  0
VERTEX
  8
0
 10
26.7936
 20
32.0646
 30
0.0
 40
0
 41
0
  0
VERTEX
  8
0
 10
26.7729
 20
32.1868
 30
0.0
 40
0
 41
0
  0
VERTEX
  8
0
 10
26.6947
 20
32.5953
 30
0.0
 40
0
 41
0
  0
VERTEX
  8
0
 10
26.5996
 20
32.9975
 30
0.0
 40
0
 41
0
  0
VERTEX
  8
0
 10
26.4876
 20
33.3932
 30
0.0
 40
0
 41
0
  0
VERTEX
  8
0
 10
26.3593
 20
33.7818
 30
0.0
 40
0
 41
0
  0
VERTEX
  8
0
 10
26.2146
 20
34.1628
 30
0.0
 40
0
 41
0
  0
VERTEX
  8
0
 10
26.054
 20
34.536
 30
0.0
 40
0
 41
0
  0
VERTEX
  8
0
 10
25.8776
 20
34.9008
 30
0.0
 40
0
 41
0
  0
VERTEX
  8
0
 10
25.6858
 20
35.2568
 30
0.0
 40
0
 41
0
  0
VERTEX
  8
0
 10
25.4786
 20
35.6036
 30
0.0
 40
0
 41
0
  0
VERTEX
  8
0
 10
25.2565
 20
35.9407
 30
0.0
 40
0
 41
0
  0
VERTEX
  8
0
 10
25.0197
 20
36.2676
 30
0.0
 40
0
 41
0
  0
VERTEX
  8
0
 10
24.7683
 20
36.5842
 30
0.0
 40
0
 41
0
  0
VERTEX
  8
0
 10
24.5028
 20
36.8896
 30
0.0
 40
0
 41
0
  0
VERTEX
  8
0
 10
24.2231
 20
37.1838
 30
0.0
 40
0
 41
0
  0
VERTEX
  8
0
 10
23.9296
 20
37.466
 30
0.0
 40
0
 41
0
  0
VERTEX
  8
0
 10
23.6228
 20
37.7358
 30
0.0
 40
0
 41
0
  0
VERTEX
  8
0
 10
23.4918
 20
37.8421
 30
0.0
 40
0
 41
0
  0
VERTEX
  8
0
 10
23.3414
 20
37.9575
 30
0.0
 40
0
 41
0
  0
VERTEX
  8
0
 10
23.1771
 20
38.0782
 30
0.0
 40
0
 41
0
  0
VERTEX
  8
0
 10
23.0049
 20
38.2001
 30
0.0
 40
0
 41
0
  0
VERTEX
  8
0
 10
22.8301
 20
38.3196
 30
0.0
 40
0
 41
0
  0
VERTEX
  8
0
 10
22.6586
 20
38.4322
 30
0.0
 40
0
 41
0
  0
VERTEX
  8
0
 10
22.4962
 20
38.5343
 30
0.0
 40
0
 41
0
  0
VERTEX
  8
0
 10
22.3486
 20
38.6218
 30
0.0
 40
0
 41
0
  0
VERTEX
  8
0
 10
21.9199
 20
38.8504
 30
0.0
 40
0
 41
0
  0
VERTEX
  8
0
 10
21.4828
 20
39.0524
 30
0.0
 40
0
 41
0
  0
VERTEX
  8
0
 10
21.0372
 20
39.2276
 30
0.0
 40
0
 41
0
  0
VERTEX
  8
0
 10
20.5832
 20
39.3764
 30
0.0
 40
0
 41
0
  0
VERTEX
  8
0
 10
20.1204
 20
39.4983
 30
0.0
 40
0
 41
0
  0
VERTEX
  8
0
 10
19.649
 20
39.5938
 30
0.0
 40
0
 41
0
  0
VERTEX
  8
0
 10
19.1686
 20
39.6626
 30
0.0
 40
0
 41
0
  0
VERTEX
  8
0
 10
18.6793
 20
39.7051
 30
0.0
 40
0
 41
0
  0
VERTEX
  8
0
 10
18.5407
 20
39.7108
 30
0.0
 40
0
 41
0
  0
VERTEX
  8
0
 10
18.3379
 20
39.7156
 30
0.0
 40
0
 41
0
  0
VERTEX
  8
0
 10
18.0706
 20
39.719
 30
0.0
 40
0
 41
0
  0
VERTEX
  8
0
 10
17.7389
 20
39.7215
 30
0.0
 40
0
 41
0
  0
VERTEX
  8
0
 10
17.3424
 20
39.7228
 30
0.0
 40
0
 41
0
  0
VERTEX
  8
0
 10
16.8812
 20
39.7231
 30
0.0
 40
0
 41
0
  0
VERTEX
  8
0
 10
16.3553
 20
39.7222
 30
0.0
 40
0
 41
0
  0
VERTEX
  8
0
 10
15.7644
 20
39.7203
 30
0.0
 40
0
 41
0
  0
VERTEX
  8
0
 10
15.2893
 20
39.7183
 30
0.0
 40
0
 41
0
  0
VERTEX
  8
0
 10
14.8728
 20
39.7165
 30
0.0
 40
0
 41
0
  0
VERTEX
  8
0
 10
14.5097
 20
39.7146
 30
0.0
 40
0
 41
0
  0
VERTEX
  8
0
 10
14.1953
 20
39.7121
 30
0.0
 40
0
 41
0
  0
VERTEX
  8
0
 10
13.9243
 20
39.7092
 30
0.0
 40
0
 41
0
  0
VERTEX
  8
0
 10
13.6917
 20
39.7054
 30
0.0
 40
0
 41
0
  0
VERTEX
  8
0
 10
13.4927
 20
39.7006
 30
0.0
 40
0
 41
0
  0
VERTEX
  8
0
 10
13.322
 20
39.6946
 30
0.0
 40
0
 41
0
  0
VERTEX
  8
0
 10
13.1747
 20
39.6871
 30
0.0
 40
0
 41
0
  0
VERTEX
  8
0
 10
13.0458
 20
39.6781
 30
0.0
 40
0
 41
0
  0
VERTEX
  8
0
 10
12.9302
 20
39.6671
 30
0.0
 40
0
 41
0
  0
VERTEX
  8
0
 10
12.8229
 20
39.654
 30
0.0
 40
0
 41
0
  0
VERTEX
  8
0
 10
12.7189
 20
39.6388
 30
0.0
 40
0
 41
0
  0
VERTEX
  8
0
 10
12.6131
 20
39.621
 30
0.0
 40
0
 41
0
  0
VERTEX
  8
0
 10
12.5004
 20
39.6004
 30
0.0
 40
0
 41
0
  0
VERTEX
  8
0
 10
12.3761
 20
39.5769
 30
0.0
 40
0
 41
0
  0
VERTEX
  8
0
 10
11.7926
 20
39.4446
 30
0.0
 40
0
 41
0
  0
VERTEX
  8
0
 10
11.2235
 20
39.2718
 30
0.0
 40
0
 41
0
  0
VERTEX
  8
0
 10
10.6704
 20
39.0597
 30
0.0
 40
0
 41
0
  0
VERTEX
  8
0
 10
10.1348
 20
38.8103
 30
0.0
 40
0
 41
0
  0
VERTEX
  8
0
 10
9.61833
 20
38.5246
 30
0.0
 40
0
 41
0
  0
VERTEX
  8
0
 10
9.1225
 20
38.204
 30
0.0
 40
0
 41
0
  0
VERTEX
  8
0
 10
8.64887
 20
37.8501
 30
0.0
 40
0
 41
0
  0
VERTEX
  8
0
 10
8.199
 20
37.4644
 30
0.0
 40
0
 41
0
  0
VERTEX
  8
0
 10
7.77442
 20
37.0482
 30
0.0
 40
0
 41
0
  0
VERTEX
  8
0
 10
7.37679
 20
36.6029
 30
0.0
 40
0
 41
0
  0
VERTEX
  8
0
 10
7.00754
 20
36.1301
 30
0.0
 40
0
 41
0
  0
VERTEX
  8
0
 10
6.66835
 20
35.6311
 30
0.0
 40
0
 41
0
  0
VERTEX
  8
0
 10
6.36074
 20
35.1074
 30
0.0
 40
0
 41
0
  0
VERTEX
  8
0
 10
6.08621
 20
34.5603
 30
0.0
 40
0
 41
0
  0
VERTEX
  8
0
 10
5.8464
 20
33.9914
 30
0.0
 40
0
 41
0
  0
VERTEX
  8
0
 10
5.64285
 20
33.4018
 30
0.0
 40
0
 41
0
  0
VERTEX
  8
0
 10
5.52669
 20
32.9922
 30
0.0
 40
0
 41
0
  0
VERTEX
  8
0
 10
5.42839
 20
32.5696
 30
0.0
 40
0
 41
0
  0
VERTEX
  8
0
 10
5.3444
 20
32.1174
 30
0.0
 40
0
 41
0
  0
VERTEX
  8
0
 10
5.27132
 20
31.619
 30
0.0
 40
0
 41
0
  0
VERTEX
  8
0
 10
5.26508
 20
31.5358
 30
0.0
 40
0
 41
0
  0
VERTEX
  8
0
 10
5.25933
 20
31.3837
 30
0.0
 40
0
 41
0
  0
VERTEX
  8
0
 10
5.25401
 20
31.1615
 30
0.0
 40
0
 41
0
  0
VERTEX
  8
0
 10
5.24914
 20
30.8678
 30
0.0
 40
0
 41
0
  0
VERTEX
  8
0
 10
5.24463
 20
30.5011
 30
0.0
 40
0
 41
0
  0
VERTEX
  8
0
 10
5.2405
 20
30.0603
 30
0.0
 40
0
 41
0
  0
VERTEX
  8
0
 10
5.23671
 20
29.544
 30
0.0
 40
0
 41
0
  0
VERTEX
  8
0
 10
5.23329
 20
28.9507
 30
0.0
 40
0
 41
0
  0
VERTEX
  8
0
 10
5.22043
 20
26.4753
 30
0.0
 40
0
 41
0
  0
VERTEX
  8
0
 10
3.04992
 20
20.5632
 30
0.0
 40
0
 41
0
  0
VERTEX
  8
0
 10
2.76378
 20
19.7838
 30
0.0
 40
0
 41
0
  0
VERTEX
  8
0
 10
2.50065
 20
19.0663
 30
0.0
 40
0
 41
0
  0
VERTEX
  8
0
 10
2.25987
 20
18.4088
 30
0.0
 40
0
 41
0
  0
VERTEX
  8
0
 10
2.04081
 20
17.8099
 30
0.0
 40
0
 41
0
  0
VERTEX
  8
0
 10
1.84278
 20
17.2676
 30
0.0
 40
0
 41
0
  0
VERTEX
  8
0
 10
1.66525
 20
16.7806
 30
0.0
 40
0
 41
0
  0
VERTEX
  8
0
 10
1.50754
 20
16.3468
 30
0.0
 40
0
 41
0
  0
VERTEX
  8
0
 10
1.36909
 20
15.9646
 30
0.0
 40
0
 41
0
  0
VERTEX
  8
0
 10
1.24924
 20
15.6324
 30
0.0
 40
0
 41
0
  0
VERTEX
  8
0
 10
1.14741
 20
15.3482
 30
0.0
 40
0
 41
0
  0
VERTEX
  8
0
 10
1.06293
 20
15.1106
 30
0.0
 40
0
 41
0
  0
VERTEX
  8
0
 10
0.995171
 20
14.9178
 30
0.0
 40
0
 41
0
  0
VERTEX
  8
0
 10
0.943576
 20
14.7681
 30
0.0
 40
0
 41
0
  0
VERTEX
  8
0
 10
0.907497
 20
14.6596
 30
0.0
 40
0
 41
0
  0
VERTEX
  8
0
 10
0.886285
 20
14.5907
 30
0.0
 40
0
 41
0
  0
VERTEX
  8
0
 10
0.879394
 20
14.5597
 30
0.0
 40
0
 41
0
  0
VERTEX
  8
0
 10
0.88851
 20
14.4525
 30
0.0
 40
0
 41
0
  0
VERTEX
  8
0
 10
0.915039
 20
14.3293
 30
0.0
 40
0
 41
0
  0
VERTEX
  8
0
 10
0.957465
 20
14.1936
 30
0.0
 40
0
 41
0
  0
VERTEX
  8
0
 10
1.01449
 20
14.0483
 30
0.0
 40
0
 41
0
  0
VERTEX
  8
0
 10
1.08464
 20
13.8972
 30
0.0
 40
0
 41
0
  0
VERTEX
  8
0
 10
1.16656
 20
13.7432
 30
0.0
 40
0
 41
0
  0
VERTEX
  8
0
 10
1.25879
 20
13.5896
 30
0.0
 40
0
 41
0
  0
VERTEX
  8
0
 10
1.35997
 20
13.4397
 30
0.0
 40
0
 41
0
  0
VERTEX
  8
0
 10
1.49408
 20
13.2638
 30
0.0
 40
0
 41
0
  0
VERTEX
  8
0
 10
1.65142
 20
13.0774
 30
0.0
 40
0
 41
0
  0
VERTEX
  8
0
 10
1.82878
 20
12.8837
 30
0.0
 40
0
 41
0
  0
VERTEX
  8
0
 10
2.02294
 20
12.6859
 30
0.0
 40
0
 41
0
  0
VERTEX
  8
0
 10
2.23068
 20
12.4871
 30
0.0
 40
0
 41
0
  0
VERTEX
  8
0
 10
2.44889
 20
12.2904
 30
0.0
 40
0
 41
0
  0
VERTEX
  8
0
 10
2.67432
 20
12.0991
 30
0.0
 40
0
 41
0
  0
VERTEX
  8
0
 10
2.90375
 20
11.9162
 30
0.0
 40
0
 41
0
  0
VERTEX
  8
0
 10
3.23296
 20
11.6711
 30
0.0
 40
0
 41
0
  0
VERTEX
  8
0
 10
3.57915
 20
11.4296
 30
0.0
 40
0
 41
0
  0
VERTEX
  8
0
 10
3.94125
 20
11.1925
 30
0.0
 40
0
 41
0
  0
VERTEX
  8
0
 10
4.31819
 20
10.9603
 30
0.0
 40
0
 41
0
  0
VERTEX
  8
0
 10
4.70893
 20
10.7333
 30
0.0
 40
0
 41
0
  0
VERTEX
  8
0
 10
5.11242
 20
10.5122
 30
0.0
 40
0
 41
0
  0
VERTEX
  8
0
 10
5.52767
 20
10.2973
 30
0.0
 40
0
 41
0
  0
VERTEX
  8
0
 10
5.95361
 20
10.0893
 30
0.0
 40
0
 41
0
  0
VERTEX
  8
0
 10
6.38917
 20
9.88846
 30
0.0
 40
0
 41
0
  0
VERTEX
  8
0
 10
6.83339
 20
9.69542
 30
0.0
 40
0
 41
0
  0
VERTEX
  8
0
 10
7.2851
 20
9.51064
 30
0.0
 40
0
 41
0
  0
VERTEX
  8
0
 10
7.74338
 20
9.33469
 30
0.0
 40
0
 41
0
  0
VERTEX
  8
0
 10
8.20714
 20
9.16792
 30
0.0
 40
0
 41
0
  0
VERTEX
  8
0
 10
8.67535
 20
9.01096
 30
0.0
 40
0
 41
0
  0
VERTEX
  8
0
 10
9.14697
 20
8.86421
 30
0.0
 40
0
 41
0
  0
VERTEX
  8
0
 10
9.62099
 20
8.72819
 30
0.0
 40
0
 41
0
  0
VERTEX
  8
0
 10
9.713
 20
8.7029
 30
0.0
 40
0
 41
0
  0
VERTEX
  8
0
 10
9.713
 20
2.8909
 30
0.0
 40
0
 41
0
  0
VERTEX
  8
0
 10
22.4006
 20
2.8909
 30
0.0
 40
0
 41
0
  0
VERTEX
  8
0
 10
22.4006
 20
5.77344
 30
0.0
 40
0
 41
0
  0
SEQEND
 8
0
  0
POLYLINE
  8
0
 62
     0
 66
     1
 10
0
 20
0
 30
0.0
 70
     1
 40
0
 41
0
  0
VERTEX
  8
0
 10
22.4601
 20
7.18875
 30
0.0
 40
0
 41
0
  0
VERTEX
  8
0
 10
22.4596
 20
7.32021
 30
0.0
 40
0
 41
0
  0
VERTEX
  8
0
 10
22.4589
 20
7.41868
 30
0.0
 40
0
 41
0
  0
VERTEX
  8
0
 10
22.4583
 20
7.48497
 30
0.0
 40
0
 41
0
  0
VERTEX
  8
0
 10
22.4578
 20
7.51986
 30
0.0
 40
0
 41
0
  0
VERTEX
  8
0
 10
22.4574
 20
7.52399
 30
0.0
 40
0
 41
0
  0
VERTEX
  8
0
 10
22.4568
 20
7.4981
 30
0.0
 40
0
 41
0
  0
VERTEX
  8
0
 10
22.4564
 20
7.44299
 30
0.0
 40
0
 41
0
  0
VERTEX
  8
0
 10
22.456
 20
7.35938
 30
0.0
 40
0
 41
0
  0
VERTEX
  8
0
 10
22.4557
 20
7.24799
 30
0.0
 40
0
 41
0
  0
VERTEX
  8
0
 10
22.4553
 20
7.10954
 30
0.0
 40
0
 41
0
  0
VERTEX
  8
0
 10
22.455
 20
6.94476
 30
0.0
 40
0
 41
0
  0
VERTEX
  8
0
 10
22.4549
 20
6.7545
 30
0.0
 40
0
 41
0
  0
VERTEX
  8
0
 10
22.4546
 20
6.53939
 30
0.0
 40
0
 41
0
  0
VERTEX
  8
0
 10
22.4544
 20
6.30013
 30
0.0
 40
0
 41
0
  0
VERTEX
  8
0
 10
22.4543
 20
6.03754
 30
0.0
 40
0
 41
0
  0
VERTEX
  8
0
 10
22.4543
 20
5.75233
 30
0.0
 40
0
 41
0
  0
VERTEX
  8
0
 10
22.4543
 20
5.46718
 30
0.0
 40
0
 41
0
  0
VERTEX
  8
0
 10
22.4544
 20
5.20458
 30
0.0
 40
0
 41
0
  0
VERTEX
  8
0
 10
22.4546
 20
4.96539
 30
0.0
 40
0
 41
0
  0
VERTEX
  8
0
 10
22.4549
 20
4.75028
 30
0.0
 40
0
 41
0
  0
VERTEX
  8
0
 10
22.455
 20
4.55994
 30
0.0
 40
0
 41
0
  0
VERTEX
  8
0
 10
22.4553
 20
4.39524
 30
0.0
 40
0
 41
0
  0
VERTEX
  8
0
 10
22.4557
 20
4.25678
 30
0.0
 40
0
 41
0
  0
VERTEX
  8
0
 10
22.456
 20
4.1454
 30
0.0
 40
0
 41
0
  0
VERTEX
  8
0
 10
22.4564
 20
4.06174
 30
0.0
 40
0
 41
0
  0
VERTEX
  8
0
 10
22.4568
 20
4.00662
 30
0.0
 40
0
 41
0
  0
VERTEX
  8
0
 10
22.4574
 20
3.98079
 30
0.0
 40
0
 41
0
  0
VERTEX
  8
0
 10
22.4578
 20
3.98492
 30
0.0
 40
0
 41
0
  0
VERTEX
  8
0
 10
22.4583
 20
4.01975
 30
0.0
 40
0
 41
0
  0
VERTEX
  8
0
 10
22.4589
 20
4.08604
 30
0.0
 40
0
 41
0
  0
VERTEX
  8
0
 10
22.4596
 20
4.18451
 30
0.0
 40
0
 41
0
  0
VERTEX
  8
0
 10
22.4601
 20
4.31592
 30
0.0
 40
0
 41
0
  0
VERTEX
  8
0
 10
22.4611
 20
4.63379
 30
0.0
 40
0
 41
0
  0
VERTEX
  8
0
 10
22.4618
 20
4.98703
 30
0.0
 40
0
 41
0
  0
VERTEX
  8
0
 10
22.4624
 20
5.36382
 30
0.0
 40
0
 41
0
  0
VERTEX
  8
0
 10
22.4625
 20
5.75233
 30
0.0
 40
0
 41
0
  0
VERTEX
  8
0
 10
22.4624
 20
6.1409
 30
0.0
 40
0
 41
0
  0
VERTEX
  8
0
 10
22.4618
 20
6.51768
 30
0.0
 40
0
 41
0
  0
VERTEX
  8
0
 10
22.4611
 20
6.87093
 30
0.0
 40
0
 41
0
  0
VERTEX
  8
0
 10
22.4601
 20
7.18875
 30
0.0
 40
0
 41
0
  0
SEQEND
 8
0
  0
POLYLINE
  8
0
 62
     0
 66
     1
 10
0
 20
0
 30
0.0
 70
     1
 40
0
 41
0
  0
VERTEX
  8
0
 10
30.1083
 20
12.5994
 30
0.0
 40
0
 41
0
  0
VERTEX
  8
0
 10
30.1242
 20
12.6235
 30
0.0
 40
0
 41
0
  0
VERTEX
  8
0
 10
30.1244
 20
12.6335
 30
0.0
 40
0
 41
0
  0
VERTEX
  8
0
 10
30.1089
 20
12.6235
 30
0.0
 40
0
 41
0
  0
VERTEX
  8
0
 10
30.0867
 20
12.5994
 30
0.0
 40
0
 41
0
  0
VERTEX
  8
0
 10
30.0708
 20
12.5754
 30
0.0
 40
0
 41
0
  0
VERTEX
  8
0
 10
30.0706
 20
12.5654
 30
0.0
 40
0
 41
0
  0
VERTEX
  8
0
 10
30.0861
 20
12.5754
 30
0.0
 40
0
 41
0
  0
VERTEX
  8
0
 10
30.1083
 20
12.5994
 30
0.0
 40
0
 41
0
  0
SEQEND
 8
0
  0
POLYLINE
  8
0
 62
     0
 66
     1
 10
0
 20
0
 30
0.0
 70
     1
 40
0
 41
0
  0
VERTEX
  8
0
 10
0.827528
 20
14.6258
 30
0.0
 40
0
 41
0
  0
VERTEX
  8
0
 10
0.818739
 20
14.6228
 30
0.0
 40
0
 41
0
  0
VERTEX
  8
0
 10
0.816135
 20
14.596
 30
0.0
 40
0
 41
0
  0
VERTEX
  8
0
 10
0.820475
 20
14.5725
 30
0.0
 40
0
 41
0
  0
VERTEX
  8
0
 10
0.82921
 20
14.5824
 30
0.0
 40
0
 41
0
  0
VERTEX
  8
0
 10
0.833387
 20
14.6074
 30
0.0
 40
0
 41
0
  0
VERTEX
  8
0
 10
0.827528
 20
14.6258
 30
0.0
 40
0
 41
0
  0
SEQEND
 8
0
  0
POLYLINE
  8
0
 62
     0
 66
     1
 10
0
 20
0
 30
0.0
 70
     1
 40
0
 41
0
  0
VERTEX
  8
0
 10
5.18251
 20
29.615
 30
0.0
 40
0
 41
0
  0
VERTEX
  8
0
 10
5.18132
 20
29.7813
 30
0.0
 40
0
 41
0
  0
VERTEX
  8
0
 10
5.18024
 20
29.8544
 30
0.0
 40
0
 41
0
  0
VERTEX
  8
0
 10
5.17919
 20
29.8387
 30
0.0
 40
0
 41
0
  0
VERTEX
  8
0
 10
5.17833
 20
29.7383
 30
0.0
 40
0
 41
0
  0
VERTEX
  8
0
 10
5.17763
 20
29.5576
 30
0.0
 40
0
 41
0
  0
VERTEX
  8
0
 10
5.17708
 20
29.3008
 30
0.0
 40
0
 41
0
  0
VERTEX
  8
0
 10
5.17676
 20
28.9722
 30
0.0
 40
0
 41
0
  0
VERTEX
  8
0
 10
5.17665
 20
28.576
 30
0.0
 40
0
 41
0
  0
VERTEX
  8
0
 10
5.17676
 20
28.1797
 30
0.0
 40
0
 41
0
  0
VERTEX
  8
0
 10
5.17708
 20
27.8511
 30
0.0
 40
0
 41
0
  0
VERTEX
  8
0
 10
5.17763
 20
27.5943
 30
0.0
 40
0
 41
0
  0
VERTEX
  8
0
 10
5.17833
 20
27.4136
 30
0.0
 40
0
 41
0
  0
VERTEX
  8
0
 10
5.17919
 20
27.3132
 30
0.0
 40
0
 41
0
  0
VERTEX
  8
0
 10
5.18024
 20
27.2975
 30
0.0
 40
0
 41
0
  0
VERTEX
  8
0
 10
5.18132
 20
27.3707
 30
0.0
 40
0
 41
0
  0
VERTEX
  8
0
 10
5.18251
 20
27.5369
 30
0.0
 40
0
 41
0
  0
VERTEX
  8
0
 10
5.18354
 20
27.7668
 30
0.0
 40
0
 41
0
  0
VERTEX
  8
0
 10
5.18431
 20
28.0224
 30
0.0
 40
0
 41
0
  0
VERTEX
  8
0
 10
5.18479
 20
28.2949
 30
0.0
 40
0
 41
0
  0
VERTEX
  8
0
 10
5.18494
 20
28.576
 30
0.0
 40
0
 41
0
  0
VERTEX
  8
0
 10
5.18479
 20
28.8571
 30
0.0
 40
0
 41
0
  0
VERTEX
  8
0
 10
5.18431
 20
29.1296
 30
0.0
 40
0
 41
0
  0
VERTEX
  8
0
 10
5.18354
 20
29.3851
 30
0.0
 40
0
 41
0
  0
VERTEX
  8
0
 10
5.18251
 20
29.615
 30
0.0
 40
0
 41
0
  0
SEQEND
 8
0
  0
POLYLINE
  8
0
 62
     0
 66
     1
 10
0
 20
0
 30
0.0
 70
     1
 40
0
 41
0
  0
VERTEX
  8
0
 10
26.9387
 20
31.1587
 30
0.0
 40
0
 41
0
  0
VERTEX
  8
0
 10
26.93
 20
31.1557
 30
0.0
 40
0
 41
0
  0
VERTEX
  8
0
 10
26.9274
 20
31.129
 30
0.0
 40
0
 41
0
  0
VERTEX
  8
0
 10
26.9317
 20
31.1054
 30
0.0
 40
0
 41
0
  0
VERTEX
  8
0
 10
26.9404
 20
31.1153
 30
0.0
 40
0
 41
0
  0
VERTEX
  8
0
 10
26.9446
 20
31.1404
 30
0.0
 40
0
 41
0
  0
VERTEX
  8
0
 10
26.9387
 20
31.1587
 30
0.0
 40
0
 41
0
  0
SEQEND
 8
0
  0
POLYLINE
  8
0
 62
     0
 66
     1
 10
0
 20
0
 30
0.0
 70
     1
 40
0
 41
0
  0
VERTEX
  8
0
 10
5.20101
 20
31.2724
 30
0.0
 40
0
 41
0
  0
VERTEX
  8
0
 10
5.19228
 20
31.2692
 30
0.0
 40
0
 41
0
  0
VERTEX
  8
0
 10
5.18967
 20
31.2425
 30
0.0
 40
0
 41
0
  0
VERTEX
  8
0
 10
5.19401
 20
31.219
 30
0.0
 40
0
 41
0
  0
VERTEX
  8
0
 10
5.20275
 20
31.2287
 30
0.0
 40
0
 41
0
  0
VERTEX
  8
0
 10
5.20692
 20
31.2539
 30
0.0
 40
0
 41
0
  0
VERTEX
  8
0
 10
5.20101
 20
31.2724
 30
0.0
 40
0
 41
0
  0
SEQEND
 8
0
  0
POLYLINE
  8
0
 62
     0
 66
     1
 10
0
 20
0
 30
0.0
 70
     1
 40
0
 41
0
  0
VERTEX
  8
0
 10
26.9171
 20
31.4767
 30
0.0
 40
0
 41
0
  0
VERTEX
  8
0
 10
26.9083
 20
31.4736
 30
0.0
 40
0
 41
0
  0
VERTEX
  8
0
 10
26.9057
 20
31.4469
 30
0.0
 40
0
 41
0
  0
VERTEX
  8
0
 10
26.91
 20
31.4233
 30
0.0
 40
0
 41
0
  0
VERTEX
  8
0
 10
26.9188
 20
31.4332
 30
0.0
 40
0
 41
0
  0
VERTEX
  8
0
 10
26.9229
 20
31.4583
 30
0.0
 40
0
 41
0
  0
VERTEX
  8
0
 10
26.9171
 20
31.4767
 30
0.0
 40
0
 41
0
  0
SEQEND
 8
0
  0
POLYLINE
  8
0
 62
     0
 66
     1
 10
0
 20
0
 30
0.0
 70
     1
 40
0
 41
0
  0
VERTEX
  8
0
 10
7.41803
 20
36.7175
 30
0.0
 40
0
 41
0
  0
VERTEX
  8
0
 10
7.43386
 20
36.7415
 30
0.0
 40
0
 41
0
  0
VERTEX
  8
0
 10
7.43414
 20
36.7515
 30
0.0
 40
0
 41
0
  0
VERTEX
  8
0
 10
7.41857
 20
36.7415
 30
0.0
 40
0
 41
0
  0
VERTEX
  8
0
 10
7.39638
 20
36.7175
 30
0.0
 40
0
 41
0
  0
VERTEX
  8
0
 10
7.38049
 20
36.6935
 30
0.0
 40
0
 41
0
  0
VERTEX
  8
0
 10
7.38021
 20
36.6835
 30
0.0
 40
0
 41
0
  0
VERTEX
  8
0
 10
7.39578
 20
36.6935
 30
0.0
 40
0
 41
0
  0
VERTEX
  8
0
 10
7.41803
 20
36.7175
 30
0.0
 40
0
 41
0
  0
SEQEND
 8
0
  0
POLYLINE
  8
0
 62
     0
 66
     1
 10
0
 20
0
 30
0.0
 70
     1
 40
0
 41
0
  0
VERTEX
  8
0
 10
24.6956
 20
36.7601
 30
0.0
 40
0
 41
0
  0
VERTEX
  8
0
 10
24.6844
 20
36.7754
 30
0.0
 40
0
 41
0
  0
VERTEX
  8
0
 10
24.6578
 20
36.7999
 30
0.0
 40
0
 41
0
  0
VERTEX
  8
0
 10
24.6382
 20
36.8156
 30
0.0
 40
0
 41
0
  0
VERTEX
  8
0
 10
24.6306
 20
36.8197
 30
0.0
 40
0
 41
0
  0
VERTEX
  8
0
 10
24.6346
 20
36.8118
 30
0.0
 40
0
 41
0
  0
VERTEX
  8
0
 10
24.6496
 20
36.7914
 30
0.0
 40
0
 41
0
  0
VERTEX
  8
0
 10
24.6686
 20
36.7679
 30
0.0
 40
0
 41
0
  0
VERTEX
  8
0
 10
24.6831
 20
36.7546
 30
0.0
 40
0
 41
0
  0
VERTEX
  8
0
 10
24.6924
 20
36.7518
 30
0.0
 40
0
 41
0
  0
VERTEX
  8
0
 10
24.6956
 20
36.7601
 30
0.0
 40
0
 41
0
  0
SEQEND
 8
0
  0
POLYLINE
  8
0
 62
     0
 66
     1
 10
0
 20
0
 30
0.0
 70
     1
 40
0
 41
0
  0
VERTEX
  8
0
 10
24.1326
 20
37.3506
 30
0.0
 40
0
 41
0
  0
VERTEX
  8
0
 10
24.1215
 20
37.3658
 30
0.0
 40
0
 41
0
  0
VERTEX
  8
0
 10
24.0947
 20
37.3904
 30
0.0
 40
0
 41
0
  0
VERTEX
  8
0
 10
24.0751
 20
37.406
 30
0.0
 40
0
 41
0
  0
VERTEX
  8
0
 10
24.0678
 20
37.4103
 30
0.0
 40
0
 41
0
  0
VERTEX
  8
0
 10
24.0717
 20
37.4024
 30
0.0
 40
0
 41
0
  0
VERTEX
  8
0
 10
24.0865
 20
37.3818
 30
0.0
 40
0
 41
0
  0
VERTEX
  8
0
 10
24.1057
 20
37.3583
 30
0.0
 40
0
 41
0
  0
VERTEX
  8
0
 10
24.1201
 20
37.345
 30
0.0
 40
0
 41
0
  0
VERTEX
  8
0
 10
24.1294
 20
37.3422
 30
0.0
 40
0
 41
0
  0
VERTEX
  8
0
 10
24.1326
 20
37.3506
 30
0.0
 40
0
 41
0
  0
SEQEND
 8
0
  0
POLYLINE
  8
0
 62
     0
 66
     1
 10
0
 20
0
 30
0.0
 70
     1
 40
0
 41
0
  0
VERTEX
  8
0
 10
13.6044
 20
39.765
 30
0.0
 40
0
 41
0
  0
VERTEX
  8
0
 10
13.5695
 20
39.7692
 30
0.0
 40
0
 41
0
  0
VERTEX
  8
0
 10
13.5394
 20
39.7642
 30
0.0
 40
0
 41
0
  0
VERTEX
  8
0
 10
13.5342
 20
39.7599
 30
0.0
 40
0
 41
0
  0
VERTEX
  8
0
 10
13.5397
 20
39.7564
 30
0.0
 40
0
 41
0
  0
VERTEX
  8
0
 10
13.5546
 20
39.7543
 30
0.0
 40
0
 41
0
  0
VERTEX
  8
0
 10
13.5778
 20
39.7538
 30
0.0
 40
0
 41
0
  0
VERTEX
  8
0
 10
13.5999
 20
39.7549
 30
0.0
 40
0
 41
0
  0
VERTEX
  8
0
 10
13.6124
 20
39.7575
 30
0.0
 40
0
 41
0
  0
VERTEX
  8
0
 10
13.6141
 20
39.761
 30
0.0
 40
0
 41
0
  0
VERTEX
  8
0
 10
13.6044
 20
39.765
 30
0.0
 40
0
 41
0
  0
SEQEND
 8
0
  0
POLYLINE
  8
0
 62
     0
 66
     1
 10
0
 20
0
 30
0.0
 70
     1
 40
0
 41
0
  0
VERTEX
  8
0
 10
18.5842
 20
39.765
 30
0.0
 40
0
 41
0
  0
VERTEX
  8
0
 10
18.5493
 20
39.7692
 30
0.0
 40
0
 41
0
  0
VERTEX
  8
0
 10
18.5192
 20
39.7642
 30
0.0
 40
0
 41
0
  0
VERTEX
  8
0
 10
18.5139
 20
39.7599
 30
0.0
 40
0
 41
0
  0
VERTEX
  8
0
 10
18.5194
 20
39.7564
 30
0.0
 40
0
 41
0
  0
VERTEX
  8
0
 10
18.5343
 20
39.7543
 30
0.0
 40
0
 41
0
  0
VERTEX
  8
0
 10
18.5575
 20
39.7538
 30
0.0
 40
0
 41
0
  0
VERTEX
  8
0
 10
18.5796
 20
39.7549
 30
0.0
 40
0
 41
0
  0
VERTEX
  8
0
 10
18.5921
 20
39.7575
 30
0.0
 40
0
 41
0
  0
VERTEX
  8
0
 10
18.5939
 20
39.761
 30
0.0
 40
0
 41
0
  0
VERTEX
  8
0
 10
18.5842
 20
39.765
 30
0.0
 40
0
 41
0
  0
SEQEND
 8
0
  0
ENDSEC
  0
EOF
