<?xml version="1.0" encoding="UTF-8" standalone="no"?>
<!-- Created with Inkscape (http://www.inkscape.org/) -->

<svg
   xmlns:dc="http://purl.org/dc/elements/1.1/"
   xmlns:cc="http://creativecommons.org/ns#"
   xmlns:rdf="http://www.w3.org/1999/02/22-rdf-syntax-ns#"
   xmlns:svg="http://www.w3.org/2000/svg"
   xmlns="http://www.w3.org/2000/svg"
   xmlns:sodipodi="http://sodipodi.sourceforge.net/DTD/sodipodi-0.dtd"
   xmlns:inkscape="http://www.inkscape.org/namespaces/inkscape"
   width="808.09747mm"
   height="1145.5579mm"
   viewBox="0 0 808.09745 1145.5579"
   version="1.1"
   id="svg4243"
   inkscape:version="0.92.2 (unknown)"
   sodipodi:docname="darth-vader-dina-vr3.svg">
  <defs
     id="defs4237" />
  <sodipodi:namedview
     id="base"
     pagecolor="#ffffff"
     bordercolor="#666666"
     borderopacity="1.0"
     inkscape:pageopacity="0.0"
     inkscape:pageshadow="2"
     inkscape:zoom="0.98994949"
     inkscape:cx="1372.7835"
     inkscape:cy="3633.5521"
     inkscape:document-units="mm"
     inkscape:current-layer="layer1"
     showgrid="false"
     inkscape:window-width="1317"
     inkscape:window-height="744"
     inkscape:window-x="49"
     inkscape:window-y="24"
     inkscape:window-maximized="1"
     units="mm"
     fit-margin-top="0"
     fit-margin-left="0"
     fit-margin-right="0"
     fit-margin-bottom="0" />
  <metadata
     id="metadata4240">
    <rdf:RDF>
      <cc:Work
         rdf:about="">
        <dc:format>image/svg+xml</dc:format>
        <dc:type
           rdf:resource="http://purl.org/dc/dcmitype/StillImage" />
        <dc:title></dc:title>
      </cc:Work>
    </rdf:RDF>
  </metadata>
  <g
     inkscape:label="Camada 1"
     inkscape:groupmode="layer"
     id="layer1"
     transform="translate(-142.5938,-240.8436)">
    <path
       d="m 810.89941,717.17212 v -99.18059 c 0,-121.22365 -93.48822,-220.40426 -207.73815,-220.40426 H 499.2932 c -114.26601,0 -207.73822,99.17908 -207.73822,220.40426 v 99.18059 L 187.68659,1003.7009 c 0,55.1006 162.75197,165.302 363.54205,165.302 200.77283,0 363.54198,-110.2014 363.54198,-165.302 z M 395.42468,1079.4642 c -10.76926,0 -19.47516,-9.2383 -19.47516,-20.664 0,-11.4259 8.7059,-20.6642 19.47516,-20.6642 10.76932,0 19.47666,9.2383 19.47666,20.6642 0,11.4257 -8.70734,20.664 -19.47666,20.664 M 369.45689,783.29508 c 0,-15.15603 7.20153,-37.30758 16.0098,-49.22722 0,0 24.68259,-33.42457 74.87607,-33.42457 25.45916,0 43.22837,12.41192 43.22837,12.41192 11.91752,8.3225 21.68965,27.53274 21.68965,42.68875 v 41.32668 c 0,7.57799 -11.68131,13.77554 -25.96758,13.77554 H 395.42468 c -14.28503,0 -25.96779,-12.40272 -25.96779,-27.5511 m 103.86983,275.50642 h -25.96634 v -55.1006 l 25.96634,-27.55113 z m 64.91803,0 H 499.2932 V 948.59869 h 38.95155 z M 512.27696,921.04757 v -41.32511 c 0,-22.8334 17.44627,-41.32514 38.95024,-41.32514 21.52119,0 38.95016,18.49326 38.95016,41.32514 v 41.32511 z m 90.8843,137.75393 h -38.9501 V 948.59869 h 38.9501 z m 51.9357,0 h -25.96778 v -82.65173 l 25.96778,27.55113 z m 51.93406,20.6627 c -10.76925,0 -19.47659,-9.2383 -19.47659,-20.664 0,-11.4259 8.70734,-20.6642 19.47659,-20.6642 10.76925,0 19.47508,9.2383 19.47508,20.6642 0,11.4257 -8.70583,20.664 -19.47508,20.664 m 0,-268.61802 H 603.16126 c -14.28503,0 -25.96628,-6.19755 -25.96628,-13.77554 v -41.32668 c 0,-15.15753 9.75482,-34.36625 21.69117,-42.68875 0,0 17.75038,-12.41192 43.22836,-12.41192 50.19211,0 74.87456,33.42457 74.87456,33.42457 8.8082,11.91812 16.0098,34.07119 16.0098,49.22722 0,15.14838 -11.68275,27.5511 -25.96785,27.5511 M 867.5353,1016.5424 c -1.53899,0.6268 -3.12821,0.9325 -4.70025,0.9325 -5.19164,0 -10.11085,-3.3373 -12.08922,-8.7704 L 756.31114,751.35035 c -24.96937,-66.1948 -55.82318,-92.03217 -110.07425,-92.03217 -35.9762,0 -66.15141,23.66655 -66.45688,23.92642 -16.00822,12.74365 -41.09727,12.69015 -57.12432,0 -0.25366,-0.25987 -30.7342,-23.92642 -66.45688,-23.92642 -54.21651,0 -85.10358,25.83737 -110.1075,92.13918 l -94.36558,257.24714 c -2.60365,7.0842 -10.17701,10.6004 -16.82107,7.8379 -6.67848,-2.7442 -9.99254,-10.7273 -7.37158,-17.84662 l 94.41897,-257.33581 c 28.95913,-76.85017 69.11109,-109.59291 134.24827,-109.59291 44.564,0 80.53882,28.22376 82.04299,29.39784 6.79528,5.44388 19.17113,5.44388 25.95067,0 1.52155,-1.17561 37.51341,-29.39784 82.04291,-29.39784 65.15574,0 105.28907,32.74274 134.23089,109.48437 l 94.46926,257.44435 c 2.58943,7.11932 -0.70759,15.10242 -7.40174,17.84662"
       id="path19-2-1"
       inkscape:connector-curvature="0"
       style="fill:none;stroke:#000000;stroke-width:7.07686663;stroke-miterlimit:4;stroke-dasharray:none" />
    <g
       id="g4495"
       transform="matrix(1,0,0,1.0044425,0,-1.6663553)">
      <path
         inkscape:connector-curvature="0"
         id="path927"
         d="m 387.47248,1310.7402 c -0.20224,-0.2112 -0.37033,-33.3548 -0.37372,-73.653 l -0.009,-73.2691 -12.50491,-3.6697 c -78.02436,-22.8971 -150.99657,-62.9865 -188.55321,-103.5869 -14.04235,-15.1804 -21.6515,-28.4537 -23.30931,-40.6604 l -0.54744,-4.0306 55.40754,-150.29422 55.40754,-150.29415 0.3143,-62.88411 c 0.33387,-66.81537 0.22869,-63.99761 3.03242,-81.26123 6.4592,-39.77235 24.83368,-80.00496 50.8721,-111.38901 33.45113,-40.31876 78.60139,-67.31552 128.63542,-76.91519 17.91977,-3.43813 17.18407,-3.40745 87.71503,-3.65861 69.32462,-0.24685 78.43492,-0.0129 94.47976,2.42673 39.24189,5.96667 75.24591,22.41013 107.07232,48.90121 9.29394,7.73591 26.09537,25.22317 33.31937,34.67943 11.06599,14.48558 18.36632,26.25399 25.82769,41.63562 11.73305,24.18772 18.40603,46.80922 22.35823,75.7951 1.12497,8.24998 1.18976,11.33169 1.4931,70.93451 l 0.31721,62.30985 55.13118,149.48319 c 59.84256,162.25758 55.97948,150.97098 54.29098,158.62028 -1.24624,5.6458 -6.72643,16.619 -11.90247,23.8328 -5.58181,7.7796 -19.26787,22.1476 -28.54237,29.9647 -36.35043,30.6385 -87.16906,58.0031 -144.86872,78.0082 -9.37646,3.2508 -21.80892,7.2927 -27.62763,8.9816 l -10.57942,3.0709 -0.14435,73.5084 -0.14421,73.5084 -163.10147,0.1446 c -89.70571,0.079 -163.26674,-0.028 -163.46888,-0.2393 z m 324.09555,-74.8084 c 0,-65.5006 0.0876,-72.9845 0.86417,-73.7955 0.47531,-0.4963 1.18743,-0.9024 1.58256,-0.9024 1.43428,0 25.63243,-7.4865 36.99639,-11.446 82.39076,-28.7074 152.52989,-73.7298 177.20478,-113.748 4.56154,-7.3979 8.27656,-17.5314 8.27656,-22.5759 0,-0.9449 -24.85758,-69.2085 -55.23891,-151.69706 l -55.23905,-149.97919 -0.21442,-61.41408 c -0.22982,-65.78458 -0.19327,-64.8369 -3.17397,-82.37544 -9.42868,-55.47825 -37.53182,-104.76262 -80.01556,-140.32244 -8.07464,-6.75869 -22.98873,-17.08257 -32.36272,-22.40239 -28.75645,-16.31931 -59.74974,-25.42879 -93.20164,-27.3937 -7.20401,-0.42314 -31.81432,-0.55069 -74.03402,-0.38366 -68.56406,0.27123 -68.18529,0.25527 -86.06526,3.62357 -79.94784,15.06087 -145.97327,75.34526 -171.02537,156.1544 -4.27137,13.7777 -7.1062,27.32162 -9.43603,45.08132 -0.4361,3.32429 -0.74441,24.84919 -0.96666,67.47839 l -0.32627,62.597 -55.13123,149.50111 c -40.3358,109.37991 -55.13123,150.12227 -55.13123,151.81537 0,6.6221 5.08397,18.4179 12.20698,28.3226 8.2279,11.4412 23.60715,26.5506 39.21222,38.5246 43.41004,33.3086 106.29626,63.023 170.61812,80.6187 l 2.33717,0.6394 v 73.4861 73.4864 h 161.13169 161.1317 z m 1.51234,-35.7903 c -0.0805,-19.9778 -0.14586,-3.6323 -0.14586,36.3237 0,39.9557 0.0653,56.3014 0.14586,36.3234 0.0804,-19.9779 0.0804,-52.669 0,-72.6471 z m 194.26549,-136.8231 c 0.3765,-0.4738 0.56084,-0.8614 0.40962,-0.8614 -0.15129,0 -0.5831,0.3876 -0.9596,0.8614 -0.37658,0.4739 -0.56091,0.8614 -0.40962,0.8614 0.15122,0 0.58303,-0.3875 0.9596,-0.8614 z m -743.73321,-51.2429 c -0.18275,-0.1908 -0.31278,0.1483 -0.28892,0.7538 0.0268,0.669 0.15674,0.805 0.33226,0.3469 0.15889,-0.4146 0.13932,-0.9098 -0.0429,-1.1007 z M 274.23006,633.03591 c -0.0813,-14.45042 -0.1487,-2.62734 -0.1487,26.27351 0,28.90081 0.067,40.72395 0.1487,26.27346 0.0822,-14.45038 0.0822,-38.09654 0,-52.54697 z m 552.60715,-39.03936 c -0.18269,-0.19084 -0.31268,0.14836 -0.28877,0.75375 0.0261,0.66901 0.15672,0.80508 0.33226,0.34696 0.15885,-0.41456 0.13926,-0.90988 -0.044,-1.10071 z m -552.13718,-2.87142 c -0.18275,-0.19084 -0.31277,0.14836 -0.28891,0.75375 0.0259,0.66901 0.15674,0.80509 0.33225,0.34697 0.15889,-0.41457 0.13941,-0.9099 -0.0438,-1.10072 z m 551.58733,-5.16856 c -0.18275,-0.19083 -0.31274,0.14835 -0.2889,0.75374 0.0268,0.66901 0.15678,0.80509 0.33226,0.34696 0.15891,-0.41456 0.13933,-0.90988 -0.044,-1.1007 z M 331.01132,453.42851 c 0.37649,-0.47377 0.56086,-0.86141 0.40965,-0.86141 -0.15129,0 -0.58311,0.38764 -0.9596,0.86141 -0.37658,0.47378 -0.56085,0.86143 -0.40964,0.86143 0.1512,0 0.58301,-0.38765 0.95959,-0.86143 z m 438.85011,-1.07825 c 0,-0.11924 -0.43305,-0.5715 -0.96235,-1.00499 -0.87228,-0.71434 -0.89172,-0.69402 -0.20769,0.21682 0.71851,0.95662 1.17004,1.26084 1.17004,0.78817 z m -14.29836,-14.93139 c 0,-0.11924 -0.43304,-0.57149 -0.96235,-1.00499 -0.87235,-0.71434 -0.89172,-0.69402 -0.20769,0.21682 0.71845,0.95662 1.17004,1.26083 1.17004,0.78817 z M 488.14546,376.3636 c -0.53501,-0.1456 -1.2775,-0.13603 -1.64975,0.0213 -0.37238,0.15731 0.0653,0.27644 0.9728,0.26473 0.90746,-0.0117 1.21196,-0.1404 0.67695,-0.28601 z m 126.48563,0 c -0.53507,-0.1456 -1.27743,-0.13603 -1.64981,0.0213 -0.37232,0.15731 0.0653,0.27644 0.97293,0.26473 0.90732,-0.0117 1.21196,-0.1404 0.67688,-0.28601 z"
         style="fill:#000000;stroke-width:0.56197906" />
    </g>
    <path
       style="fill:none;stroke:#000000;stroke-width:0.26458332px;stroke-linecap:butt;stroke-linejoin:miter;stroke-opacity:1"
       d="m 290.76046,1130.8895 v 52.9167 l 511.02382,4.5357 1.5119,-57.4524"
       id="path4497"
       inkscape:connector-curvature="0" />
    <path
       style="fill:none;stroke-width:5.72328424;stroke-miterlimit:4;stroke-dasharray:none"
       d="m 346.22006,2907.0776 c -9.58674,-9.5867 -13.74778,-18.9396 -12.07563,-27.1428 3.93715,-19.3147 361.57992,-990.7109 384.28119,-1043.749 78.52672,-183.466 186.02031,-289.2699 331.16188,-325.9561 146.5499,-37.0422 289.8558,-9.1907 423.2075,82.2504 31.5141,21.6096 37.2884,23.5101 71.4286,23.5101 34.6143,0 39.8659,-1.8023 77.1428,-26.4755 145.1052,-96.0435 293.5945,-119.4258 447.7972,-70.5136 119.5248,37.9125 217.3488,136.0344 289.1286,290.0089 40.9852,87.9171 398.2996,1068.0866 394.6629,1082.6222 -1.7593,7.0317 -9.5864,16.9703 -17.3937,22.0858 -30.8796,20.2332 -26.9084,29.2316 -222.5508,-504.2761 -192.8,-525.7562 -210.4408,-570.9176 -247.5398,-633.7137 -83.4956,-141.3302 -177.8922,-199.9261 -332.8873,-206.6367 -60.7485,-2.6301 -78.8239,-1.285 -118.893,8.8476 -47.8534,12.1011 -126.3767,47.8213 -157.9332,71.8436 -39.7435,30.2546 -66.6906,39.893 -111.5337,39.893 -44.8432,0 -71.7902,-9.6384 -111.5337,-39.893 -30.6739,-23.3504 -109.1808,-59.4263 -154.6004,-71.0427 -93.0775,-23.8052 -213.3303,-10.3742 -296.04843,33.0657 -74.8656,39.316 -148.38336,128.4689 -197.66896,239.7076 -12.23081,27.6052 -104.67573,275.1912 -205.43316,550.1912 -176.9619,482.987 -192.10529,520 -212.75101,520 -2.93754,0 -11.92308,-6.5821 -19.96788,-14.6269 z"
       id="path5304"
       inkscape:connector-curvature="0"
       transform="matrix(0.26458333,0,0,0.26458333,142.5938,240.8436)" />
    <path
       style="fill:none;stroke-width:5.72328424;stroke-miterlimit:4;stroke-dasharray:none;stroke:#000000;stroke-opacity:1"
       d="m 346.22006,2907.0776 c -9.58674,-9.5867 -13.74778,-18.9396 -12.07563,-27.1428 3.93715,-19.3147 361.57992,-990.7109 384.28119,-1043.749 78.52672,-183.466 186.02031,-289.2699 331.16188,-325.9561 146.5499,-37.0422 289.8558,-9.1907 423.2075,82.2504 31.5141,21.6096 37.2884,23.5101 71.4286,23.5101 34.6143,0 39.8659,-1.8023 77.1428,-26.4755 145.1052,-96.0435 293.5945,-119.4258 447.7972,-70.5136 119.5248,37.9125 217.3488,136.0344 289.1286,290.0089 40.9852,87.9171 398.2996,1068.0866 394.6629,1082.6222 -1.7593,7.0317 -9.5864,16.9703 -17.3937,22.0858 -30.8796,20.2332 -26.9084,29.2316 -222.5508,-504.2761 -192.8,-525.7562 -210.4408,-570.9176 -247.5398,-633.7137 -83.4956,-141.3302 -177.8922,-199.9261 -332.8873,-206.6367 -60.7485,-2.6301 -78.8239,-1.285 -118.893,8.8476 -47.8534,12.1011 -126.3767,47.8213 -157.9332,71.8436 -39.7435,30.2546 -66.6906,39.893 -111.5337,39.893 -44.8432,0 -71.7902,-9.6384 -111.5337,-39.893 -30.6739,-23.3504 -109.1808,-59.4263 -154.6004,-71.0427 -93.0775,-23.8052 -213.3303,-10.3742 -296.04843,33.0657 -74.8656,39.316 -148.38336,128.4689 -197.66896,239.7076 -12.23081,27.6052 -104.67573,275.1912 -205.43316,550.1912 -176.9619,482.987 -192.10529,520 -212.75101,520 -2.93754,0 -11.92308,-6.5821 -19.96788,-14.6269 z"
       id="path5306"
       inkscape:connector-curvature="0"
       transform="matrix(0.26458333,0,0,0.26458333,142.5938,240.8436)" />
    <path
       style="fill:#000000;stroke:#000000;stroke-width:5.72328424;stroke-miterlimit:4;stroke-dasharray:none;stroke-opacity:1"
       d="M 1441.3664,3489.8181 C 1312.0783,3478.8814 1261.8282,3473.1267 1192.795,3461.3512 857.28319,3404.1204 540.07435,3269.283 333.79796,3096.2136 252.94061,3028.3729 190.28783,2942.4252 189.12071,2897.744 c -0.30086,-11.5177 75.62896,-228.5639 194.44749,-555.8303 l 194.9411,-536.9336 v -212.7737 c 0,-233.2401 5.68927,-303.8422 31.76007,-394.1328 87.52561,-303.12604 313.07559,-517.75799 607.04103,-577.65643 43.6754,-8.8993 84.0595,-10.13818 329.7703,-10.1165 271.5552,0.024 281.8096,0.42366 340,13.25213 305.3433,67.31504 533.7309,306.34344 606.5927,634.8544 11.0752,49.9344 12.3482,76.2395 14.5409,300.4402 l 2.4031,245.7143 196.7469,543.0908 c 214.8549,593.0753 201.7895,547.8295 174.0638,602.7861 -59.1799,117.304 -264.3915,268.0519 -505.7473,371.5204 -184.0869,78.9176 -418.6544,138.9682 -622.8858,159.4621 -66.3044,6.6534 -267.8118,12.0867 -311.4286,8.397 z M 1006.0778,3169.048 c 53.346,-39.7609 49.4593,-125.8637 -7.1921,-159.3285 -23.02143,-13.5991 -64.12954,-13.1853 -88.02914,0.8861 -61.26429,36.0707 -56.90554,137.1024 7.16811,166.1501 23.5312,10.6678 68.70458,6.7136 88.05313,-7.7077 z m 1177.1429,0.2628 c 24.9087,-18.1373 42.314,-57.411 38.5209,-86.9194 -6.8788,-53.515 -52.7312,-91.5934 -100.562,-83.5124 -87.5568,14.7926 -103.9503,145.3548 -22.5528,179.616 20.7298,8.7255 66.8787,3.7152 84.5939,-9.1842 z m -919.2444,-243.3206 -0.2475,-184.2857 -62.448,65.7143 -62.448,65.7143 -0.1617,118.5714 -0.1618,118.5715 h 62.8571 62.8572 l -0.2474,-184.2858 z m 245.9616,-41.4285 v -225.7143 h -88.5715 -88.5714 v 225.7143 225.7143 h 88.5714 88.5715 z m 245.7143,0 v -225.7143 h -88.5715 -88.5714 v 225.7143 225.7143 h 88.5714 88.5715 z m 198.5693,108.5714 1.4265,-114.2857 -65.4313,-68.5714 -65.4314,-68.5715 -0.2806,184.4729 -0.2811,184.4728 64.2857,-1.6157 64.2857,-1.6157 z M 406.85275,2934.5617 c 14.56478,-13.3883 44.1234,-89.4615 199.69505,-513.9429 100.42993,-274.0257 191.84253,-519.5568 203.13916,-545.6247 78.84366,-181.9377 175.55257,-260.8355 338.58574,-276.2273 80.6031,-7.6097 175.5837,19.2814 257.1427,72.8028 59.2775,38.8996 90.1178,50.1422 137.4409,50.103 53.2456,-0.046 71.2961,-6.2486 132.675,-45.6049 116.8126,-74.9005 220.4699,-94.6717 340.1209,-64.8733 108.3211,26.9767 189.258,104.6529 254.8162,244.5504 12.1842,26.0004 105.89,275.835 208.2352,555.188 204.8322,559.0936 195.9218,539.3432 243.3244,539.3432 18.9227,0 27.0144,-3.676 42.767,-19.4286 16.1422,-16.1422 19.4286,-23.6346 19.4286,-44.2946 0,-18.4383 -46.6135,-151.8958 -180.3262,-516.2858 -193.455,-527.1973 -207.9066,-564.2845 -247.158,-634.2768 -105.4028,-187.9525 -241.5044,-271.3509 -443.9444,-272.0337 -106.9676,-0.3611 -192.7614,25.3219 -291.5782,87.2849 -70.927,44.4748 -84.116,45.3434 -138.3936,9.1144 -101.5316,-67.77 -192.7421,-96.6898 -304.0192,-96.3945 -224.02527,0.5944 -364.5687,97.8474 -474.76763,328.5288 -48.05836,100.6015 -399.81278,1063.8798 -399.81278,1094.886 0,19.7236 3.49018,27.5329 19.42857,43.4713 25.74772,25.7477 57.68015,27.1732 83.20059,3.7143 z M 1708.9696,2480.276 c -2.0753,-97.4285 -3.1837,-106.3523 -16.8561,-135.7143 -19.755,-42.4248 -38.3189,-63.0776 -74.5601,-82.9496 -26.0342,-14.2753 -36.7151,-16.7091 -73.3298,-16.7091 -69.6602,0 -116.3621,31.4763 -147.6272,99.4983 -13.2717,28.8747 -14.5722,39.2635 -16.9889,135.7143 l -2.6171,104.4461 h 167.1003 167.1003 z M 1412.795,2158.2217 c 46.4593,-21.6825 48.3228,-26.2007 50.4023,-122.2039 2.1178,-97.7732 -3.7903,-138.011 -27.2728,-185.7418 -28.8833,-58.7086 -65.8537,-88.3936 -143.1295,-114.9242 -49.5649,-17.0168 -154.0439,-14.4074 -214.2857,5.3518 -91.42663,29.9878 -164.97474,87.8844 -197.06868,155.1312 -24.40377,51.1335 -41.93629,123.3377 -38.88452,160.1381 4.66943,56.3071 41.08389,101.0026 90.56937,111.166 13.96115,2.8674 121.81243,4.7342 239.66953,4.1485 204.517,-1.0163 215.458,-1.612 240,-13.0657 z m 737.2883,9.1695 c 55.1481,-10.4586 90.1619,-49.9414 95.3867,-107.5614 3.7154,-40.9733 -13.4835,-113.6702 -39.4173,-166.6107 -32.2452,-65.8246 -105.5007,-122.7942 -196.1148,-152.5155 -60.2418,-19.7592 -164.7208,-22.3686 -214.2857,-5.3518 -52.4131,17.9946 -82.1094,35.4495 -107.8843,63.4119 -50.4054,54.6835 -65.5671,113.4095 -62.5492,242.2727 1.6372,69.9066 3.2401,81.0257 13.2771,92.1002 16.3648,18.0565 41.0128,29.4826 74.0783,34.3406 44.2899,6.507 403.1161,6.4365 437.5092,-0.086 z"
       id="path5312"
       inkscape:connector-curvature="0"
       transform="matrix(0.26458333,0,0,0.26458333,142.5938,240.8436)" />
  </g>
</svg>
