<?xml version="1.0" encoding="UTF-8" standalone="no"?>
<svg
   xmlns:dc="http://purl.org/dc/elements/1.1/"
   xmlns:cc="http://creativecommons.org/ns#"
   xmlns:rdf="http://www.w3.org/1999/02/22-rdf-syntax-ns#"
   xmlns:svg="http://www.w3.org/2000/svg"
   xmlns="http://www.w3.org/2000/svg"
   xmlns:sodipodi="http://sodipodi.sourceforge.net/DTD/sodipodi-0.dtd"
   xmlns:inkscape="http://www.inkscape.org/namespaces/inkscape"
   height="30cm"
   id="Layer_1"
   version="1.2"
   viewBox="0 0 1889.7638 1133.8583"
   width="50cm"
   xml:space="preserve"
   sodipodi:docname="01.svg"
   inkscape:version="0.92.2 (5c3e80d, 2017-08-06)"
   inkscape:export-filename="C:\Users\Diana_Santos\Desktop\darth-vader-diana-vr2.png"
   inkscape:export-xdpi="156"
   inkscape:export-ydpi="156"><metadata
     id="metadata26"><rdf:RDF><cc:Work
         rdf:about=""><dc:format>image/svg+xml</dc:format><dc:type
           rdf:resource="http://purl.org/dc/dcmitype/StillImage" /><dc:title></dc:title></cc:Work></rdf:RDF></metadata><defs
     id="defs24" /><sodipodi:namedview
     pagecolor="#ffffff"
     bordercolor="#666666"
     borderopacity="1"
     objecttolerance="10"
     gridtolerance="10"
     guidetolerance="10"
     inkscape:pageopacity="0"
     inkscape:pageshadow="2"
     inkscape:window-width="1366"
     inkscape:window-height="715"
     id="namedview22"
     showgrid="false"
     units="cm"
     inkscape:zoom="0.29074884"
     inkscape:cx="442.93812"
     inkscape:cy="524.88827"
     inkscape:window-x="-8"
     inkscape:window-y="-8"
     inkscape:window-maximized="1"
     inkscape:current-layer="Layer_1"
     showguides="true"
     inkscape:guide-bbox="true"
     inkscape:measure-start="-0.467359,1128.21"
     inkscape:measure-end="10.9157,1126.74" /><g
     id="g931"
     transform="matrix(0.79912893,0,0,0.79912893,151.48755,45.567221)"><path
       style="fill:none;stroke:#000000;stroke-width:10;stroke-miterlimit:4;stroke-dasharray:none"
       inkscape:connector-curvature="0"
       id="path19-2-1"
       d="M 1407.2881,473.53289 V 337.47186 c 0,-166.30082 -136.0717,-302.361876 -302.362,-302.361876 H 953.74659 c -166.3137,0 -302.3621,136.058956 -302.3621,302.361876 v 136.06103 l -151.18,393.07489 c 0,75.58989 236.8848,226.76982 529.13391,226.76982 292.224,0 529.1338,-151.17993 529.1338,-226.76982 z M 802.56639,970.54373 c -15.6746,0 -28.346,-12.6735 -28.346,-28.34796 0,-15.6746 12.6714,-28.3482 28.346,-28.3482 15.6747,0 28.3482,12.6736 28.3482,28.3482 0,15.67446 -12.6735,28.34796 -28.3482,28.34796 m -37.796,-406.29997 c 0,-20.79181 10.4818,-51.18045 23.3022,-67.53243 0,0 35.9254,-45.85354 108.9818,-45.85354 37.0557,0 62.9187,17.02731 62.9187,17.02731 17.3459,11.41724 31.5692,37.77083 31.5692,58.56263 v 56.69406 c 0,10.39587 -17.0021,18.89799 -37.7957,18.89799 h -151.1802 c -20.7918,0 -37.796,-17.01469 -37.796,-37.79602 m 151.1821,377.95391 h -37.7939 v -75.58989 l 37.7939,-37.79605 z m 94.48791,0 H 953.74659 V 791.01574 h 56.69381 z M 972.64439,753.21971 v -56.69192 c 0,-31.32403 25.39297,-56.69194 56.69191,-56.69194 31.324,0 56.6918,25.37 56.6918,56.69194 v 56.69192 z m 132.28171,188.97796 h -56.6917 V 791.01574 h 56.6917 z m 75.5922,0 h -37.796 V 828.81173 l 37.796,37.79605 z m 75.5898,28.34606 c -15.6746,0 -28.3481,-12.6735 -28.3481,-28.34796 0,-15.6746 12.6735,-28.3482 28.3481,-28.3482 15.6746,0 28.3459,12.6736 28.3459,28.3482 0,15.67446 -12.6713,28.34796 -28.3459,28.34796 m 0,-368.50395 h -151.182 c -20.7918,0 -37.7938,-8.50212 -37.7938,-18.89799 v -56.69406 c 0,-20.79389 14.1981,-47.14539 31.5714,-58.56263 0,0 25.8356,-17.02731 62.9187,-17.02731 73.0544,0 108.9796,45.85354 108.9796,45.85354 12.8203,16.34989 23.3022,46.74062 23.3022,67.53243 0,20.78133 -17.0042,37.79602 -37.7961,37.79602 m 233.6133,282.18468 c -2.24,0.85982 -4.5531,1.27926 -6.8412,1.27926 -7.5564,0 -14.7163,-4.57829 -17.5958,-12.03177 L 1327.8351,520.42034 c -36.3428,-90.80942 -81.2504,-126.25446 -160.2126,-126.25446 -52.3632,0 -96.2831,32.467 -96.7277,32.8235 -23.2999,17.48239 -59.8169,17.409 -83.14421,0 -0.3692,-0.3565 -44.7335,-32.8235 -96.7277,-32.8235 -78.9119,0 -123.8679,35.44504 -160.261,126.40127 l -137.3487,352.9048 c -3.7896,9.71854 -14.8126,14.54214 -24.483,10.75251 -9.7205,-3.76461 -14.5441,-14.71626 -10.7293,-24.48295 l 137.4264,-353.02648 c 42.1499,-105.42701 100.5909,-150.34518 195.3978,-150.34518 64.8627,0 117.22391,38.7188 119.41321,40.32946 9.8905,7.46819 27.9035,7.46819 37.7711,0 2.2146,-1.61276 54.6006,-40.32946 119.4131,-40.32946 94.8339,0 153.2478,44.91817 195.3725,150.19628 l 137.4996,353.17538 c 3.7689,9.76669 -1.0299,20.71834 -10.7732,24.48295" /><path
       inkscape:connector-curvature="0"
       id="path927"
       d="m 790.992,1308.3469 c -0.29435,-0.2943 -0.53901,-46.4897 -0.54395,-102.6568 l -0.013,-102.1217 -18.20085,-5.1149 C 658.67007,1066.5397 552.45934,1010.6636 497.7958,954.07511 477.35722,932.91673 466.28214,914.41672 463.86921,897.40316 l -0.79681,-5.61786 80.64545,-209.47863 80.64544,-209.4785 0.45746,-87.64725 c 0.48594,-93.12659 0.33285,-89.19923 4.41367,-113.26109 9.40134,-55.4343 36.14532,-111.51013 74.04412,-155.2529 C 751.96653,60.471042 817.68253,22.84323 890.50685,9.463304 916.589,4.671259 915.5182,4.714026 1018.1757,4.363968 c 100.9017,-0.344061 114.1617,-0.01795 137.5149,3.382358 57.1164,8.316282 109.5201,31.235007 155.8433,68.158021 13.5273,10.782233 37.9817,35.155803 48.4962,48.335833 16.1065,20.18987 26.7321,36.59256 37.5921,58.03131 17.0774,33.71261 26.7899,65.24224 32.5423,105.64247 1.6374,11.49874 1.7317,15.79399 2.1732,98.86782 l 0.4617,86.84684 80.2432,208.34819 c 87.1006,226.15297 81.4779,210.4219 79.0203,221.08336 -1.8139,7.86911 -9.7903,23.16341 -17.324,33.21797 -8.1243,10.84303 -28.0443,30.86902 -41.5433,41.76448 -52.9079,42.70368 -126.8742,80.84408 -210.8558,108.72698 -13.6474,4.531 -31.7428,10.1645 -40.2119,12.5186 l -15.3983,4.2802 -0.2101,102.4552 -0.2099,102.4553 -237.3935,0.2015 c -130.56628,0.1105 -237.63404,-0.039 -237.92826,-0.3335 z m 471.7197,-104.2672 c 0,-91.2942 0.1275,-101.7252 1.2578,-102.8554 0.6918,-0.6918 1.7283,-1.2579 2.3034,-1.2579 2.0876,0 37.3079,-10.4345 53.8481,-15.9532 119.9194,-40.0121 222.0066,-102.76396 257.9208,-158.5409 6.6393,-10.31118 12.0465,-24.43498 12.0465,-31.46605 0,-1.31696 -36.1801,-96.46211 -80.4,-211.43385 l -80.4002,-209.03951 -0.3121,-85.59832 c -0.3345,-91.6899 -0.2813,-90.36904 -4.6197,-114.81409 C 1410.6329,195.79546 1369.7289,127.10338 1307.894,77.540474 1296.1414,68.12026 1274.434,53.73095 1260.7902,46.316236 1218.9353,23.570543 1173.8247,10.873849 1125.1356,8.13517 1114.6502,7.545406 1078.83,7.367626 1017.3794,7.600426 917.5847,7.978462 918.136,7.956233 892.11179,12.65092 775.74804,33.64263 679.64831,117.6664 643.18509,230.29738 c -6.21696,19.20322 -10.34305,38.0806 -13.7341,62.83389 -0.63475,4.63337 -1.08349,34.63456 -1.40697,94.05072 l -0.47489,87.24708 -80.24327,208.37316 c -58.70859,152.45263 -80.24327,209.23879 -80.24327,211.59865 0,9.22991 7.39969,25.6709 17.7672,39.4759 11.97568,15.9466 34.36011,37.006 57.07322,53.69508 63.18313,46.42524 154.71376,87.84094 248.33396,112.36564 l 3.40173,0.8911 v 102.4243 102.4245 h 234.5265 234.5265 z m 2.2012,-49.8841 c -0.1171,-27.8449 -0.2123,-5.0627 -0.2123,50.6274 0,55.69 0.095,78.4724 0.2123,50.6273 0.117,-27.845 0.117,-73.4096 0,-101.2547 z m 282.7526,-190.70276 c 0.548,-0.66036 0.8163,-1.20067 0.5962,-1.20067 -0.2202,0 -0.8487,0.54031 -1.3967,1.20067 -0.5481,0.66037 -0.8164,1.20055 -0.5962,1.20055 0.2201,0 0.8486,-0.54018 1.3967,-1.20055 z M 465.16497,892.07093 c -0.26599,-0.26599 -0.45525,0.20681 -0.42052,1.05058 0.039,0.93247 0.22814,1.12211 0.4836,0.4836 0.23127,-0.57777 0.20278,-1.26818 -0.0624,-1.53418 z M 626.16814,363.76936 c -0.11836,-20.14085 -0.21643,-3.66196 -0.21643,36.61976 0,40.28167 0.0975,56.76065 0.21643,36.61968 0.11967,-20.14079 0.11967,-53.09857 0,-73.23944 z m 804.31736,-54.41267 c -0.2659,-0.26598 -0.4551,0.20678 -0.4203,1.05056 0.038,0.93246 0.2281,1.12213 0.4836,0.4836 0.2312,-0.57782 0.2027,-1.26818 -0.064,-1.53416 z m -803.63332,-4.00216 c -0.26599,-0.26598 -0.45524,0.20678 -0.42051,1.05057 0.0377,0.93246 0.22814,1.12213 0.4836,0.4836 0.23126,-0.57782 0.20291,-1.2682 -0.0637,-1.53417 z m 802.83302,-7.20389 c -0.266,-0.26597 -0.4552,0.20678 -0.4205,1.05057 0.039,0.93246 0.2282,1.12212 0.4836,0.48359 0.2313,-0.57781 0.2028,-1.26818 -0.064,-1.53416 z M 708.81303,113.43436 c 0.54798,-0.66035 0.81632,-1.20064 0.59624,-1.20064 -0.22021,0 -0.84871,0.54029 -1.39669,1.20064 -0.54812,0.66035 -0.81632,1.20065 -0.59624,1.20065 0.22007,0 0.84857,-0.5403 1.39669,-1.20065 z m 638.74447,-1.50286 c 0,-0.1662 -0.6303,-0.79655 -1.4007,-1.40075 -1.2696,-0.99563 -1.2979,-0.96732 -0.3023,0.30221 1.0458,1.33332 1.703,1.75734 1.703,1.09854 z m -20.8112,-20.81122 c 0,-0.1662 -0.6303,-0.79655 -1.4007,-1.40075 -1.2697,-0.99564 -1.2979,-0.96732 -0.3023,0.3022 1.0457,1.33333 1.703,1.75734 1.703,1.09855 z M 937.5211,6.022038 c -0.7787,-0.202936 -1.8594,-0.189591 -2.4012,0.02966 -0.542,0.219272 0.095,0.385306 1.4159,0.368996 1.3208,-0.01639 1.764,-0.195704 0.9853,-0.398652 z m 184.0993,0 c -0.7788,-0.202936 -1.8593,-0.189591 -2.4013,0.02966 -0.5419,0.219272 0.095,0.385306 1.4161,0.368996 1.3206,-0.01639 1.764,-0.195704 0.9852,-0.398652 z"
       style="fill:#000000;stroke-width:0.80043173" /></g></svg>