<?xml version="1.0" encoding="UTF-8" standalone="no"?>
<svg
   xmlns:dc="http://purl.org/dc/elements/1.1/"
   xmlns:cc="http://creativecommons.org/ns#"
   xmlns:rdf="http://www.w3.org/1999/02/22-rdf-syntax-ns#"
   xmlns:svg="http://www.w3.org/2000/svg"
   xmlns="http://www.w3.org/2000/svg"
   xmlns:sodipodi="http://sodipodi.sourceforge.net/DTD/sodipodi-0.dtd"
   xmlns:inkscape="http://www.inkscape.org/namespaces/inkscape"
   height="5cm"
   id="Layer_1"
   version="1.2"
   viewBox="0 0 113.38582 188.97637"
   width="3cm"
   xml:space="preserve"
   sodipodi:docname="darth-vader-silk.svg"
   inkscape:export-filename="/home/amoreira/franzininho/gitFranzininho/hardware/ShieldStarWars/Darth/darth-vader-silk.png"
   inkscape:export-xdpi="300.27502"
   inkscape:export-ydpi="300.27502"
   inkscape:version="0.92.2 (unknown)"><metadata
     id="metadata9"><rdf:RDF><cc:Work
         rdf:about=""><dc:format>image/svg+xml</dc:format><dc:type
           rdf:resource="http://purl.org/dc/dcmitype/StillImage" /><dc:title></dc:title></cc:Work></rdf:RDF></metadata><defs
     id="defs7" /><sodipodi:namedview
     pagecolor="#ffffff"
     bordercolor="#666666"
     borderopacity="1"
     objecttolerance="10"
     gridtolerance="10"
     guidetolerance="10"
     inkscape:pageopacity="0"
     inkscape:pageshadow="2"
     inkscape:window-width="1317"
     inkscape:window-height="744"
     id="namedview5"
     showgrid="false"
     units="mm"
     inkscape:zoom="3.1855833"
     inkscape:cx="56.692913"
     inkscape:cy="94.488189"
     inkscape:window-x="49"
     inkscape:window-y="24"
     inkscape:window-maximized="1"
     inkscape:current-layer="Layer_1" /><path
     d="M 93.75456,84.83818 V 67.261023 c 0,-21.483709 -13.544032,-39.060871 -30.095923,-39.060871 H 48.61078 c -16.554187,0 -30.095923,17.576892 -30.095923,39.060871 V 84.83818 L 3.467,135.61789 c 0,9.76515 23.57858,29.29545 52.667917,29.29545 29.086832,0 52.667913,-19.5303 52.667913,-29.29545 z m -60.191637,64.20676 c -1.560188,0 -2.821447,-1.63723 -2.821447,-3.66217 0,-2.02493 1.261259,-3.66217 2.821447,-3.66217 1.560188,0 2.821656,1.63724 2.821656,3.66217 0,2.02494 -1.261468,3.66217 -2.821656,3.66217 M 29.800855,96.55675 c 0,-2.68601 1.043326,-6.61179 2.319406,-8.72424 0,0 3.575865,-5.923626 10.847624,-5.923626 3.688381,0 6.26267,2.199686 6.26267,2.199686 1.72656,1.47495 3.142294,4.87946 3.142294,7.56546 v 7.32407 c 0,1.343 -1.692326,2.44135 -3.762069,2.44135 H 33.562923 c -2.069535,0 -3.762068,-2.19805 -3.762068,-4.8827 m 15.048065,48.82629 h -3.761859 v -9.76515 l 3.761859,-4.88271 z m 9.404962,0 H 48.61078 v -19.53057 h 5.643102 z m -3.762068,-24.41328 v -7.3238 c 0,-4.04661 2.527529,-7.32379 5.642894,-7.32379 3.117871,0 5.642895,3.27745 5.642895,7.32379 v 7.3238 z m 13.166823,24.41328 h -5.642894 v -19.53057 h 5.642894 z m 7.524137,0 h -3.762069 v -14.64786 l 3.762069,4.88271 z m 7.523929,3.6619 c -1.560188,0 -2.821656,-1.63723 -2.821656,-3.66217 0,-2.02493 1.261468,-3.66217 2.821656,-3.66217 1.560188,0 2.821447,1.63724 2.821447,3.66217 0,2.02494 -1.261259,3.66217 -2.821447,3.66217 m 0,-47.60549 H 63.658637 c -2.069534,0 -3.76186,-1.09835 -3.76186,-2.44135 v -7.32407 c 0,-2.68627 1.413228,-6.09051 3.142503,-7.56546 0,0 2.571575,-2.199686 6.262669,-2.199686 7.271551,0 10.847416,5.923626 10.847416,5.923626 1.27608,2.11217 2.319407,6.03823 2.319407,8.72424 0,2.68465 -1.692535,4.8827 -3.762069,4.8827 m 23.252937,36.45426 c -0.22295,0.11108 -0.4532,0.16527 -0.68094,0.16527 -0.75213,0 -1.46479,-0.59145 -1.7514,-1.55434 L 85.846117,90.89538 C 82.228711,79.164086 77.758775,74.585088 69.899179,74.585088 c -5.212037,0 -9.583652,4.194277 -9.627907,4.240335 -2.319197,2.258478 -5.953929,2.248994 -8.275841,0 -0.03674,-0.04606 -4.452609,-4.240335 -9.627906,-4.240335 -7.854587,0 -12.329323,4.578998 -15.95174,16.329262 l -13.671159,45.59029 c -0.377209,1.2555 -1.474392,1.87864 -2.436932,1.38907 -0.96755,-0.48632 -1.447672,-1.90112 -1.067958,-3.16285 L 22.918619,89.12485 C 27.11405,75.505169 32.93104,69.702378 42.367734,69.702378 c 6.456179,0 11.668006,5.00192 11.88594,5.209995 0.984458,0.964784 2.777401,0.964784 3.759564,0 0.220438,-0.208346 5.434771,-5.209995 11.885941,-5.209995 9.439406,0 15.253683,5.802791 19.446609,19.403232 l 13.686192,45.62525 c 0.37512,1.26173 -0.1025,2.67653 -1.07234,3.16285"
     id="path2"
     inkscape:connector-curvature="0"
     style="stroke-width:0.23781587" /></svg>