  0
SECTION
  2
HEADER
  9
$ACADVER
  1
AC1009
  9
$EXTMIN
 10
0.0
 20
0.0
 30
0.0
  9
$EXTMAX
 10
1000.0
 20
1000.0
 30
0.0
  9
$FILLMODE
 70
 0
  9
$SPLFRAME
 70
 1
  0
ENDSEC
  0
SECTION
  2
TABLES
  0
TABLE
  2
LAYER
 70
1
  0
LAYER
  2
0
 70
     0
 62
     7
  6
CONTINUOUS
  0
ENDTAB
  0
ENDSEC
  0
SECTION
  2
ENTITIES
  0
POLYLINE
  8
0
 62
     0
 66
     1
 10
0
 20
0
 30
0.0
 70
     1
 40
20.0604
 41
20.0604
  0
VERTEX
  8
0
 10
26.3113
 20
26.3476
 30
0.0
 40
0.278617
 41
0.278617
  0
VERTEX
  8
0
 10
26.3113
 20
30.2524
 30
0.0
 40
0.278617
 41
0.278617
  0
VERTEX
  8
0
 10
26.3006
 20
30.6972
 30
0.0
 40
0.278617
 41
0.278617
  0
VERTEX
  8
0
 10
26.2687
 20
31.1364
 30
0.0
 40
0.278617
 41
0.278617
  0
VERTEX
  8
0
 10
26.2165
 20
31.5693
 30
0.0
 40
0.278617
 41
0.278617
  0
VERTEX
  8
0
 10
26.1443
 20
31.9956
 30
0.0
 40
0.278617
 41
0.278617
  0
VERTEX
  8
0
 10
26.0526
 20
32.4144
 30
0.0
 40
0.278617
 41
0.278617
  0
VERTEX
  8
0
 10
25.9419
 20
32.8254
 30
0.0
 40
0.278617
 41
0.278617
  0
VERTEX
  8
0
 10
25.8128
 20
33.2281
 30
0.0
 40
0.278617
 41
0.278617
  0
VERTEX
  8
0
 10
25.6658
 20
33.6217
 30
0.0
 40
0.278617
 41
0.278617
  0
VERTEX
  8
0
 10
25.5015
 20
34.0057
 30
0.0
 40
0.278617
 41
0.278617
  0
VERTEX
  8
0
 10
25.3203
 20
34.3797
 30
0.0
 40
0.278617
 41
0.278617
  0
VERTEX
  8
0
 10
25.1228
 20
34.7431
 30
0.0
 40
0.278617
 41
0.278617
  0
VERTEX
  8
0
 10
24.9094
 20
35.0953
 30
0.0
 40
0.278617
 41
0.278617
  0
VERTEX
  8
0
 10
24.6808
 20
35.4357
 30
0.0
 40
0.278617
 41
0.278617
  0
VERTEX
  8
0
 10
24.4375
 20
35.7638
 30
0.0
 40
0.278617
 41
0.278617
  0
VERTEX
  8
0
 10
24.1799
 20
36.079
 30
0.0
 40
0.278617
 41
0.278617
  0
VERTEX
  8
0
 10
23.9086
 20
36.3807
 30
0.0
 40
0.278617
 41
0.278617
  0
VERTEX
  8
0
 10
23.6242
 20
36.6686
 30
0.0
 40
0.278617
 41
0.278617
  0
VERTEX
  8
0
 10
23.3271
 20
36.9418
 30
0.0
 40
0.278617
 41
0.278617
  0
VERTEX
  8
0
 10
23.0179
 20
37.2
 30
0.0
 40
0.278617
 41
0.278617
  0
VERTEX
  8
0
 10
22.6969
 20
37.4425
 30
0.0
 40
0.278617
 41
0.278617
  0
VERTEX
  8
0
 10
22.3651
 20
37.6689
 30
0.0
 40
0.278617
 41
0.278617
  0
VERTEX
  8
0
 10
22.0226
 20
37.8785
 30
0.0
 40
0.278617
 41
0.278617
  0
VERTEX
  8
0
 10
21.6701
 20
38.0707
 30
0.0
 40
0.278617
 41
0.278617
  0
VERTEX
  8
0
 10
21.3081
 20
38.245
 30
0.0
 40
0.278617
 41
0.278617
  0
VERTEX
  8
0
 10
20.9371
 20
38.401
 30
0.0
 40
0.278617
 41
0.278617
  0
VERTEX
  8
0
 10
20.5576
 20
38.5379
 30
0.0
 40
0.278617
 41
0.278617
  0
VERTEX
  8
0
 10
20.1701
 20
38.6553
 30
0.0
 40
0.278617
 41
0.278617
  0
VERTEX
  8
0
 10
19.7754
 20
38.7526
 30
0.0
 40
0.278617
 41
0.278617
  0
VERTEX
  8
0
 10
19.3738
 20
38.8293
 30
0.0
 40
0.278617
 41
0.278617
  0
VERTEX
  8
0
 10
18.9657
 20
38.8847
 30
0.0
 40
0.278617
 41
0.278617
  0
VERTEX
  8
0
 10
18.5518
 20
38.9183
 30
0.0
 40
0.278617
 41
0.278617
  0
VERTEX
  8
0
 10
18.1326
 20
38.9297
 30
0.0
 40
0.278617
 41
0.278617
  0
VERTEX
  8
0
 10
14.0433
 20
38.9297
 30
0.0
 40
0.278617
 41
0.278617
  0
VERTEX
  8
0
 10
13.624
 20
38.9183
 30
0.0
 40
0.278617
 41
0.278617
  0
VERTEX
  8
0
 10
13.2101
 20
38.8847
 30
0.0
 40
0.278617
 41
0.278617
  0
VERTEX
  8
0
 10
12.802
 20
38.8293
 30
0.0
 40
0.278617
 41
0.278617
  0
VERTEX
  8
0
 10
12.4002
 20
38.7526
 30
0.0
 40
0.278617
 41
0.278617
  0
VERTEX
  8
0
 10
12.0054
 20
38.6553
 30
0.0
 40
0.278617
 41
0.278617
  0
VERTEX
  8
0
 10
11.6179
 20
38.5379
 30
0.0
 40
0.278617
 41
0.278617
  0
VERTEX
  8
0
 10
11.2385
 20
38.401
 30
0.0
 40
0.278617
 41
0.278617
  0
VERTEX
  8
0
 10
10.8675
 20
38.245
 30
0.0
 40
0.278617
 41
0.278617
  0
VERTEX
  8
0
 10
10.5054
 20
38.0707
 30
0.0
 40
0.278617
 41
0.278617
  0
VERTEX
  8
0
 10
10.1529
 20
37.8785
 30
0.0
 40
0.278617
 41
0.278617
  0
VERTEX
  8
0
 10
9.81044
 20
37.6689
 30
0.0
 40
0.278617
 41
0.278617
  0
VERTEX
  8
0
 10
9.47851
 20
37.4425
 30
0.0
 40
0.278617
 41
0.278617
  0
VERTEX
  8
0
 10
9.15767
 20
37.2
 30
0.0
 40
0.278617
 41
0.278617
  0
VERTEX
  8
0
 10
8.84847
 20
36.9419
 30
0.0
 40
0.278617
 41
0.278617
  0
VERTEX
  8
0
 10
8.55137
 20
36.6686
 30
0.0
 40
0.278617
 41
0.278617
  0
VERTEX
  8
0
 10
8.26693
 20
36.3808
 30
0.0
 40
0.278617
 41
0.278617
  0
VERTEX
  8
0
 10
7.99567
 20
36.079
 30
0.0
 40
0.278617
 41
0.278617
  0
VERTEX
  8
0
 10
7.73813
 20
35.7638
 30
0.0
 40
0.278617
 41
0.278617
  0
VERTEX
  8
0
 10
7.49479
 20
35.4357
 30
0.0
 40
0.278617
 41
0.278617
  0
VERTEX
  8
0
 10
7.26622
 20
35.0953
 30
0.0
 40
0.278617
 41
0.278617
  0
VERTEX
  8
0
 10
7.0529
 20
34.7432
 30
0.0
 40
0.278617
 41
0.278617
  0
VERTEX
  8
0
 10
6.85542
 20
34.3797
 30
0.0
 40
0.278617
 41
0.278617
  0
VERTEX
  8
0
 10
6.67421
 20
34.0057
 30
0.0
 40
0.278617
 41
0.278617
  0
VERTEX
  8
0
 10
6.50988
 20
33.6217
 30
0.0
 40
0.278617
 41
0.278617
  0
VERTEX
  8
0
 10
6.36296
 20
33.2281
 30
0.0
 40
0.278617
 41
0.278617
  0
VERTEX
  8
0
 10
6.23389
 20
32.8254
 30
0.0
 40
0.278617
 41
0.278617
  0
VERTEX
  8
0
 10
6.12321
 20
32.4144
 30
0.0
 40
0.278617
 41
0.278617
  0
VERTEX
  8
0
 10
6.03153
 20
31.9956
 30
0.0
 40
0.278617
 41
0.278617
  0
VERTEX
  8
0
 10
5.95931
 20
31.5693
 30
0.0
 40
0.278617
 41
0.278617
  0
VERTEX
  8
0
 10
5.90701
 20
31.1364
 30
0.0
 40
0.278617
 41
0.278617
  0
VERTEX
  8
0
 10
5.87532
 20
30.6972
 30
0.0
 40
0.278617
 41
0.278617
  0
VERTEX
  8
0
 10
5.86464
 20
30.2524
 30
0.0
 40
0.278617
 41
0.278617
  0
VERTEX
  8
0
 10
5.86464
 20
26.3476
 30
0.0
 40
0.278617
 41
0.278617
  0
VERTEX
  8
0
 10
1.77528
 20
15.0669
 30
0.0
 40
0.278617
 41
0.278617
  0
VERTEX
  8
0
 10
1.79389
 20
14.8574
 30
0.0
 40
0.278617
 41
0.278617
  0
VERTEX
  8
0
 10
1.84912
 20
14.6364
 30
0.0
 40
0.278617
 41
0.278617
  0
VERTEX
  8
0
 10
1.94015
 20
14.405
 30
0.0
 40
0.278617
 41
0.278617
  0
VERTEX
  8
0
 10
2.06603
 20
14.1644
 30
0.0
 40
0.278617
 41
0.278617
  0
VERTEX
  8
0
 10
2.22586
 20
13.9161
 30
0.0
 40
0.278617
 41
0.278617
  0
VERTEX
  8
0
 10
2.41868
 20
13.6608
 30
0.0
 40
0.278617
 41
0.278617
  0
VERTEX
  8
0
 10
2.64372
 20
13.4001
 30
0.0
 40
0.278617
 41
0.278617
  0
VERTEX
  8
0
 10
2.89996
 20
13.1349
 30
0.0
 40
0.278617
 41
0.278617
  0
VERTEX
  8
0
 10
3.18658
 20
12.8666
 30
0.0
 40
0.278617
 41
0.278617
  0
VERTEX
  8
0
 10
3.50265
 20
12.5963
 30
0.0
 40
0.278617
 41
0.278617
  0
VERTEX
  8
0
 10
3.84728
 20
12.3252
 30
0.0
 40
0.278617
 41
0.278617
  0
VERTEX
  8
0
 10
4.21951
 20
12.0545
 30
0.0
 40
0.278617
 41
0.278617
  0
VERTEX
  8
0
 10
4.61854
 20
11.7854
 30
0.0
 40
0.278617
 41
0.278617
  0
VERTEX
  8
0
 10
5.04346
 20
11.519
 30
0.0
 40
0.278617
 41
0.278617
  0
VERTEX
  8
0
 10
5.49328
 20
11.2567
 30
0.0
 40
0.278617
 41
0.278617
  0
VERTEX
  8
0
 10
5.96718
 20
10.9995
 30
0.0
 40
0.278617
 41
0.278617
  0
VERTEX
  8
0
 10
6.46425
 20
10.7486
 30
0.0
 40
0.278617
 41
0.278617
  0
VERTEX
  8
0
 10
6.98356
 20
10.5054
 30
0.0
 40
0.278617
 41
0.278617
  0
VERTEX
  8
0
 10
7.52425
 20
10.2708
 30
0.0
 40
0.278617
 41
0.278617
  0
VERTEX
  8
0
 10
8.08539
 20
10.0462
 30
0.0
 40
0.278617
 41
0.278617
  0
VERTEX
  8
0
 10
8.66613
 20
9.83268
 30
0.0
 40
0.278617
 41
0.278617
  0
VERTEX
  8
0
 10
9.26551
 20
9.63146
 30
0.0
 40
0.278617
 41
0.278617
  0
VERTEX
  8
0
 10
9.88265
 20
9.44379
 30
0.0
 40
0.278617
 41
0.278617
  0
VERTEX
  8
0
 10
10.5167
 20
9.27083
 30
0.0
 40
0.278617
 41
0.278617
  0
VERTEX
  8
0
 10
11.1666
 20
9.11372
 30
0.0
 40
0.278617
 41
0.278617
  0
VERTEX
  8
0
 10
11.8317
 20
8.97368
 30
0.0
 40
0.278617
 41
0.278617
  0
VERTEX
  8
0
 10
12.5108
 20
8.85194
 30
0.0
 40
0.278617
 41
0.278617
  0
VERTEX
  8
0
 10
13.2033
 20
8.74968
 30
0.0
 40
0.278617
 41
0.278617
  0
VERTEX
  8
0
 10
13.9082
 20
8.66803
 30
0.0
 40
0.278617
 41
0.278617
  0
VERTEX
  8
0
 10
14.6244
 20
8.60824
 30
0.0
 40
0.278617
 41
0.278617
  0
VERTEX
  8
0
 10
15.3514
 20
8.5715
 30
0.0
 40
0.278617
 41
0.278617
  0
VERTEX
  8
0
 10
16.0881
 20
8.55897
 30
0.0
 40
0.278617
 41
0.278617
  0
VERTEX
  8
0
 10
16.8244
 20
8.5715
 30
0.0
 40
0.278617
 41
0.278617
  0
VERTEX
  8
0
 10
17.5514
 20
8.60824
 30
0.0
 40
0.278617
 41
0.278617
  0
VERTEX
  8
0
 10
18.2676
 20
8.66803
 30
0.0
 40
0.278617
 41
0.278617
  0
VERTEX
  8
0
 10
18.9724
 20
8.74968
 30
0.0
 40
0.278617
 41
0.278617
  0
VERTEX
  8
0
 10
19.6649
 20
8.85194
 30
0.0
 40
0.278617
 41
0.278617
  0
VERTEX
  8
0
 10
20.344
 20
8.97368
 30
0.0
 40
0.278617
 41
0.278617
  0
VERTEX
  8
0
 10
21.009
 20
9.11372
 30
0.0
 40
0.278617
 41
0.278617
  0
VERTEX
  8
0
 10
21.659
 20
9.27083
 30
0.0
 40
0.278617
 41
0.278617
  0
VERTEX
  8
0
 10
22.2929
 20
9.44379
 30
0.0
 40
0.278617
 41
0.278617
  0
VERTEX
  8
0
 10
22.9101
 20
9.63146
 30
0.0
 40
0.278617
 41
0.278617
  0
VERTEX
  8
0
 10
23.5094
 20
9.83268
 30
0.0
 40
0.278617
 41
0.278617
  0
VERTEX
  8
0
 10
24.0903
 20
10.0462
 30
0.0
 40
0.278617
 41
0.278617
  0
VERTEX
  8
0
 10
24.6514
 20
10.2708
 30
0.0
 40
0.278617
 41
0.278617
  0
VERTEX
  8
0
 10
25.1921
 20
10.5054
 30
0.0
 40
0.278617
 41
0.278617
  0
VERTEX
  8
0
 10
25.7114
 20
10.7486
 30
0.0
 40
0.278617
 41
0.278617
  0
VERTEX
  8
0
 10
26.2085
 20
10.9995
 30
0.0
 40
0.278617
 41
0.278617
  0
VERTEX
  8
0
 10
26.6824
 20
11.2567
 30
0.0
 40
0.278617
 41
0.278617
  0
VERTEX
  8
0
 10
27.1322
 20
11.519
 30
0.0
 40
0.278617
 41
0.278617
  0
VERTEX
  8
0
 10
27.5571
 20
11.7854
 30
0.0
 40
0.278617
 41
0.278617
  0
VERTEX
  8
0
 10
27.9561
 20
12.0545
 30
0.0
 40
0.278617
 41
0.278617
  0
VERTEX
  8
0
 10
28.3285
 20
12.3252
 30
0.0
 40
0.278617
 41
0.278617
  0
VERTEX
  8
0
 10
28.6731
 20
12.5963
 30
0.0
 40
0.278617
 41
0.278617
  0
VERTEX
  8
0
 10
28.9892
 20
12.8666
 30
0.0
 40
0.278617
 41
0.278617
  0
VERTEX
  8
0
 10
29.2758
 20
13.1349
 30
0.0
 40
0.278617
 41
0.278617
  0
VERTEX
  8
0
 10
29.5321
 20
13.4001
 30
0.0
 40
0.278617
 41
0.278617
  0
VERTEX
  8
0
 10
29.7572
 20
13.6608
 30
0.0
 40
0.278617
 41
0.278617
  0
VERTEX
  8
0
 10
29.95
 20
13.9161
 30
0.0
 40
0.278617
 41
0.278617
  0
VERTEX
  8
0
 10
30.1099
 20
14.1644
 30
0.0
 40
0.278617
 41
0.278617
  0
VERTEX
  8
0
 10
30.2357
 20
14.405
 30
0.0
 40
0.278617
 41
0.278617
  0
VERTEX
  8
0
 10
30.3267
 20
14.6364
 30
0.0
 40
0.278617
 41
0.278617
  0
VERTEX
  8
0
 10
30.3819
 20
14.8574
 30
0.0
 40
0.278617
 41
0.278617
  0
VERTEX
  8
0
 10
30.4007
 20
15.0669
 30
0.0
 40
0.278617
 41
0.278617
  0
VERTEX
  8
0
 10
26.3113
 20
26.3476
 30
0.0
 40
0.278617
 41
0.278617
  0
SEQEND
 8
0
  0
POLYLINE
  8
0
 62
     0
 66
     1
 10
0
 20
0
 30
0.0
 70
     1
 40
20.0604
 41
20.0604
  0
VERTEX
  8
0
 10
9.954
 20
12.0842
 30
0.0
 40
0.278617
 41
0.278617
  0
VERTEX
  8
0
 10
9.79926
 20
12.1007
 30
0.0
 40
0.278617
 41
0.278617
  0
VERTEX
  8
0
 10
9.65528
 20
12.1481
 30
0.0
 40
0.278617
 41
0.278617
  0
VERTEX
  8
0
 10
9.52501
 20
12.223
 30
0.0
 40
0.278617
 41
0.278617
  0
VERTEX
  8
0
 10
9.41157
 20
12.3223
 30
0.0
 40
0.278617
 41
0.278617
  0
VERTEX
  8
0
 10
9.31803
 20
12.4426
 30
0.0
 40
0.278617
 41
0.278617
  0
VERTEX
  8
0
 10
9.2474
 20
12.5808
 30
0.0
 40
0.278617
 41
0.278617
  0
VERTEX
  8
0
 10
9.20275
 20
12.7336
 30
0.0
 40
0.278617
 41
0.278617
  0
VERTEX
  8
0
 10
9.18722
 20
12.8977
 30
0.0
 40
0.278617
 41
0.278617
  0
VERTEX
  8
0
 10
9.20275
 20
13.0618
 30
0.0
 40
0.278617
 41
0.278617
  0
VERTEX
  8
0
 10
9.2474
 20
13.2146
 30
0.0
 40
0.278617
 41
0.278617
  0
VERTEX
  8
0
 10
9.31803
 20
13.3528
 30
0.0
 40
0.278617
 41
0.278617
  0
VERTEX
  8
0
 10
9.41157
 20
13.4731
 30
0.0
 40
0.278617
 41
0.278617
  0
VERTEX
  8
0
 10
9.52501
 20
13.5724
 30
0.0
 40
0.278617
 41
0.278617
  0
VERTEX
  8
0
 10
9.65528
 20
13.6473
 30
0.0
 40
0.278617
 41
0.278617
  0
VERTEX
  8
0
 10
9.79926
 20
13.6947
 30
0.0
 40
0.278617
 41
0.278617
  0
VERTEX
  8
0
 10
9.954
 20
13.7112
 30
0.0
 40
0.278617
 41
0.278617
  0
VERTEX
  8
0
 10
10.1087
 20
13.6947
 30
0.0
 40
0.278617
 41
0.278617
  0
VERTEX
  8
0
 10
10.2527
 20
13.6473
 30
0.0
 40
0.278617
 41
0.278617
  0
VERTEX
  8
0
 10
10.3829
 20
13.5724
 30
0.0
 40
0.278617
 41
0.278617
  0
VERTEX
  8
0
 10
10.4964
 20
13.4731
 30
0.0
 40
0.278617
 41
0.278617
  0
VERTEX
  8
0
 10
10.5899
 20
13.3528
 30
0.0
 40
0.278617
 41
0.278617
  0
VERTEX
  8
0
 10
10.6605
 20
13.2146
 30
0.0
 40
0.278617
 41
0.278617
  0
VERTEX
  8
0
 10
10.7052
 20
13.0618
 30
0.0
 40
0.278617
 41
0.278617
  0
VERTEX
  8
0
 10
10.7208
 20
12.8977
 30
0.0
 40
0.278617
 41
0.278617
  0
VERTEX
  8
0
 10
10.7052
 20
12.7336
 30
0.0
 40
0.278617
 41
0.278617
  0
VERTEX
  8
0
 10
10.6605
 20
12.5808
 30
0.0
 40
0.278617
 41
0.278617
  0
VERTEX
  8
0
 10
10.5899
 20
12.4426
 30
0.0
 40
0.278617
 41
0.278617
  0
VERTEX
  8
0
 10
10.4964
 20
12.3223
 30
0.0
 40
0.278617
 41
0.278617
  0
VERTEX
  8
0
 10
10.3829
 20
12.223
 30
0.0
 40
0.278617
 41
0.278617
  0
VERTEX
  8
0
 10
10.2527
 20
12.1481
 30
0.0
 40
0.278617
 41
0.278617
  0
VERTEX
  8
0
 10
10.1087
 20
12.1007
 30
0.0
 40
0.278617
 41
0.278617
  0
VERTEX
  8
0
 10
9.954
 20
12.0842
 30
0.0
 40
0.278617
 41
0.278617
  0
SEQEND
 8
0
  0
POLYLINE
  8
0
 62
     0
 66
     1
 10
0
 20
0
 30
0.0
 70
     1
 40
20.0604
 41
20.0604
  0
VERTEX
  8
0
 10
8.93164
 20
23.7443
 30
0.0
 40
0.278617
 41
0.278617
  0
VERTEX
  8
0
 10
8.9445
 20
23.9797
 30
0.0
 40
0.278617
 41
0.278617
  0
VERTEX
  8
0
 10
8.98133
 20
24.2329
 30
0.0
 40
0.278617
 41
0.278617
  0
VERTEX
  8
0
 10
9.03961
 20
24.4961
 30
0.0
 40
0.278617
 41
0.278617
  0
VERTEX
  8
0
 10
9.11669
 20
24.7611
 30
0.0
 40
0.278617
 41
0.278617
  0
VERTEX
  8
0
 10
9.21007
 20
25.0203
 30
0.0
 40
0.278617
 41
0.278617
  0
VERTEX
  8
0
 10
9.31711
 20
25.2656
 30
0.0
 40
0.278617
 41
0.278617
  0
VERTEX
  8
0
 10
9.43522
 20
25.4889
 30
0.0
 40
0.278617
 41
0.278617
  0
VERTEX
  8
0
 10
9.5619
 20
25.6824
 30
0.0
 40
0.278617
 41
0.278617
  0
VERTEX
  8
0
 10
9.57329
 20
25.6972
 30
0.0
 40
0.278617
 41
0.278617
  0
VERTEX
  8
0
 10
9.60747
 20
25.739
 30
0.0
 40
0.278617
 41
0.278617
  0
VERTEX
  8
0
 10
9.66461
 20
25.8039
 30
0.0
 40
0.278617
 41
0.278617
  0
VERTEX
  8
0
 10
9.74457
 20
25.8881
 30
0.0
 40
0.278617
 41
0.278617
  0
VERTEX
  8
0
 10
9.84754
 20
25.9876
 30
0.0
 40
0.278617
 41
0.278617
  0
VERTEX
  8
0
 10
9.97358
 20
26.0987
 30
0.0
 40
0.278617
 41
0.278617
  0
VERTEX
  8
0
 10
10.1226
 20
26.2176
 30
0.0
 40
0.278617
 41
0.278617
  0
VERTEX
  8
0
 10
10.2948
 20
26.3404
 30
0.0
 40
0.278617
 41
0.278617
  0
VERTEX
  8
0
 10
10.4901
 20
26.4631
 30
0.0
 40
0.278617
 41
0.278617
  0
VERTEX
  8
0
 10
10.7087
 20
26.5819
 30
0.0
 40
0.278617
 41
0.278617
  0
VERTEX
  8
0
 10
10.9504
 20
26.6932
 30
0.0
 40
0.278617
 41
0.278617
  0
VERTEX
  8
0
 10
11.2155
 20
26.7928
 30
0.0
 40
0.278617
 41
0.278617
  0
VERTEX
  8
0
 10
11.5039
 20
26.8769
 30
0.0
 40
0.278617
 41
0.278617
  0
VERTEX
  8
0
 10
11.8158
 20
26.9418
 30
0.0
 40
0.278617
 41
0.278617
  0
VERTEX
  8
0
 10
12.151
 20
26.9836
 30
0.0
 40
0.278617
 41
0.278617
  0
VERTEX
  8
0
 10
12.5098
 20
26.9983
 30
0.0
 40
0.278617
 41
0.278617
  0
VERTEX
  8
0
 10
12.6941
 20
26.9928
 30
0.0
 40
0.278617
 41
0.278617
  0
VERTEX
  8
0
 10
12.8707
 20
26.9774
 30
0.0
 40
0.278617
 41
0.278617
  0
VERTEX
  8
0
 10
13.0391
 20
26.9532
 30
0.0
 40
0.278617
 41
0.278617
  0
VERTEX
  8
0
 10
13.1986
 20
26.9219
 30
0.0
 40
0.278617
 41
0.278617
  0
VERTEX
  8
0
 10
13.3487
 20
26.885
 30
0.0
 40
0.278617
 41
0.278617
  0
VERTEX
  8
0
 10
13.4888
 20
26.8438
 30
0.0
 40
0.278617
 41
0.278617
  0
VERTEX
  8
0
 10
13.6183
 20
26.7996
 30
0.0
 40
0.278617
 41
0.278617
  0
VERTEX
  8
0
 10
13.7366
 20
26.754
 30
0.0
 40
0.278617
 41
0.278617
  0
VERTEX
  8
0
 10
13.8432
 20
26.7085
 30
0.0
 40
0.278617
 41
0.278617
  0
VERTEX
  8
0
 10
13.9375
 20
26.6643
 30
0.0
 40
0.278617
 41
0.278617
  0
VERTEX
  8
0
 10
14.0189
 20
26.6231
 30
0.0
 40
0.278617
 41
0.278617
  0
VERTEX
  8
0
 10
14.0867
 20
26.5861
 30
0.0
 40
0.278617
 41
0.278617
  0
VERTEX
  8
0
 10
14.1406
 20
26.5549
 30
0.0
 40
0.278617
 41
0.278617
  0
VERTEX
  8
0
 10
14.1796
 20
26.5307
 30
0.0
 40
0.278617
 41
0.278617
  0
VERTEX
  8
0
 10
14.2036
 20
26.5153
 30
0.0
 40
0.278617
 41
0.278617
  0
VERTEX
  8
0
 10
14.2117
 20
26.5097
 30
0.0
 40
0.278617
 41
0.278617
  0
VERTEX
  8
0
 10
14.3831
 20
26.3679
 30
0.0
 40
0.278617
 41
0.278617
  0
VERTEX
  8
0
 10
14.5431
 20
26.1928
 30
0.0
 40
0.278617
 41
0.278617
  0
VERTEX
  8
0
 10
14.6881
 20
25.9913
 30
0.0
 40
0.278617
 41
0.278617
  0
VERTEX
  8
0
 10
14.8146
 20
25.7703
 30
0.0
 40
0.278617
 41
0.278617
  0
VERTEX
  8
0
 10
14.9192
 20
25.5367
 30
0.0
 40
0.278617
 41
0.278617
  0
VERTEX
  8
0
 10
14.9982
 20
25.2974
 30
0.0
 40
0.278617
 41
0.278617
  0
VERTEX
  8
0
 10
15.0482
 20
25.0592
 30
0.0
 40
0.278617
 41
0.278617
  0
VERTEX
  8
0
 10
15.0657
 20
24.829
 30
0.0
 40
0.278617
 41
0.278617
  0
VERTEX
  8
0
 10
15.0657
 20
23.2019
 30
0.0
 40
0.278617
 41
0.278617
  0
VERTEX
  8
0
 10
15.0447
 20
23.0931
 30
0.0
 40
0.278617
 41
0.278617
  0
VERTEX
  8
0
 10
14.985
 20
22.9914
 30
0.0
 40
0.278617
 41
0.278617
  0
VERTEX
  8
0
 10
14.8904
 20
22.8993
 30
0.0
 40
0.278617
 41
0.278617
  0
VERTEX
  8
0
 10
14.7654
 20
22.8189
 30
0.0
 40
0.278617
 41
0.278617
  0
VERTEX
  8
0
 10
14.6139
 20
22.7526
 30
0.0
 40
0.278617
 41
0.278617
  0
VERTEX
  8
0
 10
14.4403
 20
22.7025
 30
0.0
 40
0.278617
 41
0.278617
  0
VERTEX
  8
0
 10
14.2488
 20
22.6707
 30
0.0
 40
0.278617
 41
0.278617
  0
VERTEX
  8
0
 10
14.0433
 20
22.6597
 30
0.0
 40
0.278617
 41
0.278617
  0
VERTEX
  8
0
 10
9.954
 20
22.6597
 30
0.0
 40
0.278617
 41
0.278617
  0
VERTEX
  8
0
 10
9.74854
 20
22.6818
 30
0.0
 40
0.278617
 41
0.278617
  0
VERTEX
  8
0
 10
9.55697
 20
22.7453
 30
0.0
 40
0.278617
 41
0.278617
  0
VERTEX
  8
0
 10
9.38331
 20
22.8457
 30
0.0
 40
0.278617
 41
0.278617
  0
VERTEX
  8
0
 10
9.23188
 20
22.9785
 30
0.0
 40
0.278617
 41
0.278617
  0
VERTEX
  8
0
 10
9.10678
 20
23.1392
 30
0.0
 40
0.278617
 41
0.278617
  0
VERTEX
  8
0
 10
9.01226
 20
23.3233
 30
0.0
 40
0.278617
 41
0.278617
  0
VERTEX
  8
0
 10
8.95247
 20
23.5265
 30
0.0
 40
0.278617
 41
0.278617
  0
VERTEX
  8
0
 10
8.93164
 20
23.7443
 30
0.0
 40
0.278617
 41
0.278617
  0
SEQEND
 8
0
  0
POLYLINE
  8
0
 62
     0
 66
     1
 10
0
 20
0
 30
0.0
 70
     1
 40
20.0604
 41
20.0604
  0
VERTEX
  8
0
 10
13.021
 20
12.8976
 30
0.0
 40
0.278617
 41
0.278617
  0
VERTEX
  8
0
 10
11.9987
 20
12.8976
 30
0.0
 40
0.278617
 41
0.278617
  0
VERTEX
  8
0
 10
11.9987
 20
15.0669
 30
0.0
 40
0.278617
 41
0.278617
  0
VERTEX
  8
0
 10
13.021
 20
16.1517
 30
0.0
 40
0.278617
 41
0.278617
  0
VERTEX
  8
0
 10
13.021
 20
12.8976
 30
0.0
 40
0.278617
 41
0.278617
  0
SEQEND
 8
0
  0
POLYLINE
  8
0
 62
     0
 66
     1
 10
0
 20
0
 30
0.0
 70
     1
 40
20.0604
 41
20.0604
  0
VERTEX
  8
0
 10
15.5768
 20
12.8976
 30
0.0
 40
0.278617
 41
0.278617
  0
VERTEX
  8
0
 10
14.0433
 20
12.8976
 30
0.0
 40
0.278617
 41
0.278617
  0
VERTEX
  8
0
 10
14.0433
 20
17.2364
 30
0.0
 40
0.278617
 41
0.278617
  0
VERTEX
  8
0
 10
15.5768
 20
17.2364
 30
0.0
 40
0.278617
 41
0.278617
  0
VERTEX
  8
0
 10
15.5768
 20
12.8976
 30
0.0
 40
0.278617
 41
0.278617
  0
SEQEND
 8
0
  0
POLYLINE
  8
0
 62
     0
 66
     1
 10
0
 20
0
 30
0.0
 70
     1
 40
20.0604
 41
20.0604
  0
VERTEX
  8
0
 10
14.5544
 20
18.321
 30
0.0
 40
0.278617
 41
0.278617
  0
VERTEX
  8
0
 10
14.5544
 20
19.9479
 30
0.0
 40
0.278617
 41
0.278617
  0
VERTEX
  8
0
 10
14.5624
 20
20.1144
 30
0.0
 40
0.278617
 41
0.278617
  0
VERTEX
  8
0
 10
14.5856
 20
20.276
 30
0.0
 40
0.278617
 41
0.278617
  0
VERTEX
  8
0
 10
14.6235
 20
20.4319
 30
0.0
 40
0.278617
 41
0.278617
  0
VERTEX
  8
0
 10
14.675
 20
20.5815
 30
0.0
 40
0.278617
 41
0.278617
  0
VERTEX
  8
0
 10
14.7396
 20
20.7237
 30
0.0
 40
0.278617
 41
0.278617
  0
VERTEX
  8
0
 10
14.8164
 20
20.8579
 30
0.0
 40
0.278617
 41
0.278617
  0
VERTEX
  8
0
 10
14.9047
 20
20.9831
 30
0.0
 40
0.278617
 41
0.278617
  0
VERTEX
  8
0
 10
15.0038
 20
21.0986
 30
0.0
 40
0.278617
 41
0.278617
  0
VERTEX
  8
0
 10
15.1126
 20
21.2036
 30
0.0
 40
0.278617
 41
0.278617
  0
VERTEX
  8
0
 10
15.2307
 20
21.2972
 30
0.0
 40
0.278617
 41
0.278617
  0
VERTEX
  8
0
 10
15.3571
 20
21.3788
 30
0.0
 40
0.278617
 41
0.278617
  0
VERTEX
  8
0
 10
15.4911
 20
21.4472
 30
0.0
 40
0.278617
 41
0.278617
  0
VERTEX
  8
0
 10
15.6319
 20
21.5019
 30
0.0
 40
0.278617
 41
0.278617
  0
VERTEX
  8
0
 10
15.779
 20
21.5419
 30
0.0
 40
0.278617
 41
0.278617
  0
VERTEX
  8
0
 10
15.9311
 20
21.5667
 30
0.0
 40
0.278617
 41
0.278617
  0
VERTEX
  8
0
 10
16.0879
 20
21.575
 30
0.0
 40
0.278617
 41
0.278617
  0
VERTEX
  8
0
 10
16.2449
 20
21.5667
 30
0.0
 40
0.278617
 41
0.278617
  0
VERTEX
  8
0
 10
16.3971
 20
21.5419
 30
0.0
 40
0.278617
 41
0.278617
  0
VERTEX
  8
0
 10
16.544
 20
21.5019
 30
0.0
 40
0.278617
 41
0.278617
  0
VERTEX
  8
0
 10
16.685
 20
21.4472
 30
0.0
 40
0.278617
 41
0.278617
  0
VERTEX
  8
0
 10
16.819
 20
21.3788
 30
0.0
 40
0.278617
 41
0.278617
  0
VERTEX
  8
0
 10
16.9454
 20
21.2972
 30
0.0
 40
0.278617
 41
0.278617
  0
VERTEX
  8
0
 10
17.0635
 20
21.2036
 30
0.0
 40
0.278617
 41
0.278617
  0
VERTEX
  8
0
 10
17.1724
 20
21.0986
 30
0.0
 40
0.278617
 41
0.278617
  0
VERTEX
  8
0
 10
17.2714
 20
20.9831
 30
0.0
 40
0.278617
 41
0.278617
  0
VERTEX
  8
0
 10
17.3596
 20
20.8579
 30
0.0
 40
0.278617
 41
0.278617
  0
VERTEX
  8
0
 10
17.4364
 20
20.7237
 30
0.0
 40
0.278617
 41
0.278617
  0
VERTEX
  8
0
 10
17.501
 20
20.5814
 30
0.0
 40
0.278617
 41
0.278617
  0
VERTEX
  8
0
 10
17.5525
 20
20.4319
 30
0.0
 40
0.278617
 41
0.278617
  0
VERTEX
  8
0
 10
17.5903
 20
20.276
 30
0.0
 40
0.278617
 41
0.278617
  0
VERTEX
  8
0
 10
17.6135
 20
20.1144
 30
0.0
 40
0.278617
 41
0.278617
  0
VERTEX
  8
0
 10
17.6214
 20
19.9479
 30
0.0
 40
0.278617
 41
0.278617
  0
VERTEX
  8
0
 10
17.6214
 20
18.321
 30
0.0
 40
0.278617
 41
0.278617
  0
VERTEX
  8
0
 10
14.5544
 20
18.321
 30
0.0
 40
0.278617
 41
0.278617
  0
SEQEND
 8
0
  0
POLYLINE
  8
0
 62
     0
 66
     1
 10
0
 20
0
 30
0.0
 70
     1
 40
20.0604
 41
20.0604
  0
VERTEX
  8
0
 10
18.1326
 20
12.8976
 30
0.0
 40
0.278617
 41
0.278617
  0
VERTEX
  8
0
 10
16.5992
 20
12.8976
 30
0.0
 40
0.278617
 41
0.278617
  0
VERTEX
  8
0
 10
16.5992
 20
17.2364
 30
0.0
 40
0.278617
 41
0.278617
  0
VERTEX
  8
0
 10
18.1326
 20
17.2364
 30
0.0
 40
0.278617
 41
0.278617
  0
VERTEX
  8
0
 10
18.1326
 20
12.8976
 30
0.0
 40
0.278617
 41
0.278617
  0
SEQEND
 8
0
  0
POLYLINE
  8
0
 62
     0
 66
     1
 10
0
 20
0
 30
0.0
 70
     1
 40
20.0604
 41
20.0604
  0
VERTEX
  8
0
 10
20.1774
 20
12.8976
 30
0.0
 40
0.278617
 41
0.278617
  0
VERTEX
  8
0
 10
19.155
 20
12.8976
 30
0.0
 40
0.278617
 41
0.278617
  0
VERTEX
  8
0
 10
19.155
 20
16.1517
 30
0.0
 40
0.278617
 41
0.278617
  0
VERTEX
  8
0
 10
20.1774
 20
15.0669
 30
0.0
 40
0.278617
 41
0.278617
  0
VERTEX
  8
0
 10
20.1774
 20
12.8976
 30
0.0
 40
0.278617
 41
0.278617
  0
SEQEND
 8
0
  0
POLYLINE
  8
0
 62
     0
 66
     1
 10
0
 20
0
 30
0.0
 70
     1
 40
20.0604
 41
20.0604
  0
VERTEX
  8
0
 10
22.2219
 20
12.0842
 30
0.0
 40
0.278617
 41
0.278617
  0
VERTEX
  8
0
 10
22.0672
 20
12.1007
 30
0.0
 40
0.278617
 41
0.278617
  0
VERTEX
  8
0
 10
21.9232
 20
12.1481
 30
0.0
 40
0.278617
 41
0.278617
  0
VERTEX
  8
0
 10
21.7929
 20
12.223
 30
0.0
 40
0.278617
 41
0.278617
  0
VERTEX
  8
0
 10
21.6796
 20
12.3223
 30
0.0
 40
0.278617
 41
0.278617
  0
VERTEX
  8
0
 10
21.586
 20
12.4426
 30
0.0
 40
0.278617
 41
0.278617
  0
VERTEX
  8
0
 10
21.5153
 20
12.5808
 30
0.0
 40
0.278617
 41
0.278617
  0
VERTEX
  8
0
 10
21.4707
 20
12.7336
 30
0.0
 40
0.278617
 41
0.278617
  0
VERTEX
  8
0
 10
21.4551
 20
12.8977
 30
0.0
 40
0.278617
 41
0.278617
  0
VERTEX
  8
0
 10
21.4707
 20
13.0618
 30
0.0
 40
0.278617
 41
0.278617
  0
VERTEX
  8
0
 10
21.5153
 20
13.2146
 30
0.0
 40
0.278617
 41
0.278617
  0
VERTEX
  8
0
 10
21.586
 20
13.3528
 30
0.0
 40
0.278617
 41
0.278617
  0
VERTEX
  8
0
 10
21.6796
 20
13.4731
 30
0.0
 40
0.278617
 41
0.278617
  0
VERTEX
  8
0
 10
21.7929
 20
13.5724
 30
0.0
 40
0.278617
 41
0.278617
  0
VERTEX
  8
0
 10
21.9232
 20
13.6473
 30
0.0
 40
0.278617
 41
0.278617
  0
VERTEX
  8
0
 10
22.0672
 20
13.6947
 30
0.0
 40
0.278617
 41
0.278617
  0
VERTEX
  8
0
 10
22.2219
 20
13.7112
 30
0.0
 40
0.278617
 41
0.278617
  0
VERTEX
  8
0
 10
22.3765
 20
13.6947
 30
0.0
 40
0.278617
 41
0.278617
  0
VERTEX
  8
0
 10
22.5206
 20
13.6473
 30
0.0
 40
0.278617
 41
0.278617
  0
VERTEX
  8
0
 10
22.6508
 20
13.5724
 30
0.0
 40
0.278617
 41
0.278617
  0
VERTEX
  8
0
 10
22.7643
 20
13.4731
 30
0.0
 40
0.278617
 41
0.278617
  0
VERTEX
  8
0
 10
22.8579
 20
13.3528
 30
0.0
 40
0.278617
 41
0.278617
  0
VERTEX
  8
0
 10
22.9285
 20
13.2146
 30
0.0
 40
0.278617
 41
0.278617
  0
VERTEX
  8
0
 10
22.9731
 20
13.0618
 30
0.0
 40
0.278617
 41
0.278617
  0
VERTEX
  8
0
 10
22.9886
 20
12.8977
 30
0.0
 40
0.278617
 41
0.278617
  0
VERTEX
  8
0
 10
22.9731
 20
12.7336
 30
0.0
 40
0.278617
 41
0.278617
  0
VERTEX
  8
0
 10
22.9285
 20
12.5808
 30
0.0
 40
0.278617
 41
0.278617
  0
VERTEX
  8
0
 10
22.8579
 20
12.4426
 30
0.0
 40
0.278617
 41
0.278617
  0
VERTEX
  8
0
 10
22.7643
 20
12.3223
 30
0.0
 40
0.278617
 41
0.278617
  0
VERTEX
  8
0
 10
22.6508
 20
12.223
 30
0.0
 40
0.278617
 41
0.278617
  0
VERTEX
  8
0
 10
22.5206
 20
12.1481
 30
0.0
 40
0.278617
 41
0.278617
  0
VERTEX
  8
0
 10
22.3765
 20
12.1007
 30
0.0
 40
0.278617
 41
0.278617
  0
VERTEX
  8
0
 10
22.2219
 20
12.0842
 30
0.0
 40
0.278617
 41
0.278617
  0
SEQEND
 8
0
  0
POLYLINE
  8
0
 62
     0
 66
     1
 10
0
 20
0
 30
0.0
 70
     1
 40
20.0604
 41
20.0604
  0
VERTEX
  8
0
 10
22.2219
 20
22.6597
 30
0.0
 40
0.278617
 41
0.278617
  0
VERTEX
  8
0
 10
18.1326
 20
22.6597
 30
0.0
 40
0.278617
 41
0.278617
  0
VERTEX
  8
0
 10
17.9271
 20
22.6707
 30
0.0
 40
0.278617
 41
0.278617
  0
VERTEX
  8
0
 10
17.7356
 20
22.7025
 30
0.0
 40
0.278617
 41
0.278617
  0
VERTEX
  8
0
 10
17.5619
 20
22.7526
 30
0.0
 40
0.278617
 41
0.278617
  0
VERTEX
  8
0
 10
17.4104
 20
22.8189
 30
0.0
 40
0.278617
 41
0.278617
  0
VERTEX
  8
0
 10
17.2854
 20
22.8993
 30
0.0
 40
0.278617
 41
0.278617
  0
VERTEX
  8
0
 10
17.191
 20
22.9914
 30
0.0
 40
0.278617
 41
0.278617
  0
VERTEX
  8
0
 10
17.1311
 20
23.0931
 30
0.0
 40
0.278617
 41
0.278617
  0
VERTEX
  8
0
 10
17.1103
 20
23.2019
 30
0.0
 40
0.278617
 41
0.278617
  0
VERTEX
  8
0
 10
17.1103
 20
24.829
 30
0.0
 40
0.278617
 41
0.278617
  0
VERTEX
  8
0
 10
17.1278
 20
25.0592
 30
0.0
 40
0.278617
 41
0.278617
  0
VERTEX
  8
0
 10
17.1776
 20
25.2974
 30
0.0
 40
0.278617
 41
0.278617
  0
VERTEX
  8
0
 10
17.2565
 20
25.5367
 30
0.0
 40
0.278617
 41
0.278617
  0
VERTEX
  8
0
 10
17.3611
 20
25.7703
 30
0.0
 40
0.278617
 41
0.278617
  0
VERTEX
  8
0
 10
17.4875
 20
25.9914
 30
0.0
 40
0.278617
 41
0.278617
  0
VERTEX
  8
0
 10
17.6325
 20
26.1928
 30
0.0
 40
0.278617
 41
0.278617
  0
VERTEX
  8
0
 10
17.7926
 20
26.3679
 30
0.0
 40
0.278617
 41
0.278617
  0
VERTEX
  8
0
 10
17.9643
 20
26.5097
 30
0.0
 40
0.278617
 41
0.278617
  0
VERTEX
  8
0
 10
17.9724
 20
26.5153
 30
0.0
 40
0.278617
 41
0.278617
  0
VERTEX
  8
0
 10
17.9962
 20
26.5307
 30
0.0
 40
0.278617
 41
0.278617
  0
VERTEX
  8
0
 10
18.0353
 20
26.5549
 30
0.0
 40
0.278617
 41
0.278617
  0
VERTEX
  8
0
 10
18.089
 20
26.5861
 30
0.0
 40
0.278617
 41
0.278617
  0
VERTEX
  8
0
 10
18.1569
 20
26.6231
 30
0.0
 40
0.278617
 41
0.278617
  0
VERTEX
  8
0
 10
18.2382
 20
26.6643
 30
0.0
 40
0.278617
 41
0.278617
  0
VERTEX
  8
0
 10
18.3325
 20
26.7085
 30
0.0
 40
0.278617
 41
0.278617
  0
VERTEX
  8
0
 10
18.439
 20
26.754
 30
0.0
 40
0.278617
 41
0.278617
  0
VERTEX
  8
0
 10
18.5574
 20
26.7996
 30
0.0
 40
0.278617
 41
0.278617
  0
VERTEX
  8
0
 10
18.6868
 20
26.8438
 30
0.0
 40
0.278617
 41
0.278617
  0
VERTEX
  8
0
 10
18.8269
 20
26.885
 30
0.0
 40
0.278617
 41
0.278617
  0
VERTEX
  8
0
 10
18.9771
 20
26.9219
 30
0.0
 40
0.278617
 41
0.278617
  0
VERTEX
  8
0
 10
19.1367
 20
26.9532
 30
0.0
 40
0.278617
 41
0.278617
  0
VERTEX
  8
0
 10
19.305
 20
26.9774
 30
0.0
 40
0.278617
 41
0.278617
  0
VERTEX
  8
0
 10
19.4817
 20
26.9928
 30
0.0
 40
0.278617
 41
0.278617
  0
VERTEX
  8
0
 10
19.6661
 20
26.9983
 30
0.0
 40
0.278617
 41
0.278617
  0
VERTEX
  8
0
 10
20.0249
 20
26.9836
 30
0.0
 40
0.278617
 41
0.278617
  0
VERTEX
  8
0
 10
20.3601
 20
26.9418
 30
0.0
 40
0.278617
 41
0.278617
  0
VERTEX
  8
0
 10
20.6719
 20
26.8769
 30
0.0
 40
0.278617
 41
0.278617
  0
VERTEX
  8
0
 10
20.9604
 20
26.7928
 30
0.0
 40
0.278617
 41
0.278617
  0
VERTEX
  8
0
 10
21.2254
 20
26.6932
 30
0.0
 40
0.278617
 41
0.278617
  0
VERTEX
  8
0
 10
21.4672
 20
26.5819
 30
0.0
 40
0.278617
 41
0.278617
  0
VERTEX
  8
0
 10
21.6858
 20
26.4631
 30
0.0
 40
0.278617
 41
0.278617
  0
VERTEX
  8
0
 10
21.8811
 20
26.3404
 30
0.0
 40
0.278617
 41
0.278617
  0
VERTEX
  8
0
 10
22.0532
 20
26.2176
 30
0.0
 40
0.278617
 41
0.278617
  0
VERTEX
  8
0
 10
22.2024
 20
26.0987
 30
0.0
 40
0.278617
 41
0.278617
  0
VERTEX
  8
0
 10
22.3283
 20
25.9876
 30
0.0
 40
0.278617
 41
0.278617
  0
VERTEX
  8
0
 10
22.4313
 20
25.8881
 30
0.0
 40
0.278617
 41
0.278617
  0
VERTEX
  8
0
 10
22.5113
 20
25.8039
 30
0.0
 40
0.278617
 41
0.278617
  0
VERTEX
  8
0
 10
22.5683
 20
25.739
 30
0.0
 40
0.278617
 41
0.278617
  0
VERTEX
  8
0
 10
22.6025
 20
25.6972
 30
0.0
 40
0.278617
 41
0.278617
  0
VERTEX
  8
0
 10
22.614
 20
25.6824
 30
0.0
 40
0.278617
 41
0.278617
  0
VERTEX
  8
0
 10
22.7406
 20
25.4889
 30
0.0
 40
0.278617
 41
0.278617
  0
VERTEX
  8
0
 10
22.8587
 20
25.2656
 30
0.0
 40
0.278617
 41
0.278617
  0
VERTEX
  8
0
 10
22.9658
 20
25.0203
 30
0.0
 40
0.278617
 41
0.278617
  0
VERTEX
  8
0
 10
23.0592
 20
24.7613
 30
0.0
 40
0.278617
 41
0.278617
  0
VERTEX
  8
0
 10
23.1363
 20
24.4961
 30
0.0
 40
0.278617
 41
0.278617
  0
VERTEX
  8
0
 10
23.1946
 20
24.2329
 30
0.0
 40
0.278617
 41
0.278617
  0
VERTEX
  8
0
 10
23.2314
 20
23.9797
 30
0.0
 40
0.278617
 41
0.278617
  0
VERTEX
  8
0
 10
23.2443
 20
23.7443
 30
0.0
 40
0.278617
 41
0.278617
  0
VERTEX
  8
0
 10
23.2235
 20
23.5265
 30
0.0
 40
0.278617
 41
0.278617
  0
VERTEX
  8
0
 10
23.1636
 20
23.3233
 30
0.0
 40
0.278617
 41
0.278617
  0
VERTEX
  8
0
 10
23.069
 20
23.1392
 30
0.0
 40
0.278617
 41
0.278617
  0
VERTEX
  8
0
 10
22.944
 20
22.9785
 30
0.0
 40
0.278617
 41
0.278617
  0
VERTEX
  8
0
 10
22.7925
 20
22.8457
 30
0.0
 40
0.278617
 41
0.278617
  0
VERTEX
  8
0
 10
22.6189
 20
22.7453
 30
0.0
 40
0.278617
 41
0.278617
  0
VERTEX
  8
0
 10
22.4274
 20
22.6818
 30
0.0
 40
0.278617
 41
0.278617
  0
VERTEX
  8
0
 10
22.2219
 20
22.6597
 30
0.0
 40
0.278617
 41
0.278617
  0
SEQEND
 8
0
  0
POLYLINE
  8
0
 62
     0
 66
     1
 10
0
 20
0
 30
0.0
 70
     1
 40
20.0604
 41
20.0604
  0
VERTEX
  8
0
 10
28.541
 20
14.5614
 30
0.0
 40
0.278617
 41
0.278617
  0
VERTEX
  8
0
 10
28.4489
 20
14.5338
 30
0.0
 40
0.278617
 41
0.278617
  0
VERTEX
  8
0
 10
28.356
 20
14.5247
 30
0.0
 40
0.278617
 41
0.278617
  0
VERTEX
  8
0
 10
28.2062
 20
14.5486
 30
0.0
 40
0.278617
 41
0.278617
  0
VERTEX
  8
0
 10
28.0706
 20
14.6171
 30
0.0
 40
0.278617
 41
0.278617
  0
VERTEX
  8
0
 10
27.9585
 20
14.7258
 30
0.0
 40
0.278617
 41
0.278617
  0
VERTEX
  8
0
 10
27.88
 20
14.87
 30
0.0
 40
0.278617
 41
0.278617
  0
VERTEX
  8
0
 10
24.1621
 20
25.0019
 30
0.0
 40
0.278617
 41
0.278617
  0
VERTEX
  8
0
 10
23.9749
 20
25.4722
 30
0.0
 40
0.278617
 41
0.278617
  0
VERTEX
  8
0
 10
23.7813
 20
25.906
 30
0.0
 40
0.278617
 41
0.278617
  0
VERTEX
  8
0
 10
23.5801
 20
26.3042
 30
0.0
 40
0.278617
 41
0.278617
  0
VERTEX
  8
0
 10
23.3706
 20
26.6676
 30
0.0
 40
0.278617
 41
0.278617
  0
VERTEX
  8
0
 10
23.1515
 20
26.9972
 30
0.0
 40
0.278617
 41
0.278617
  0
VERTEX
  8
0
 10
22.9221
 20
27.2938
 30
0.0
 40
0.278617
 41
0.278617
  0
VERTEX
  8
0
 10
22.6811
 20
27.5581
 30
0.0
 40
0.278617
 41
0.278617
  0
VERTEX
  8
0
 10
22.4276
 20
27.791
 30
0.0
 40
0.278617
 41
0.278617
  0
VERTEX
  8
0
 10
22.1606
 20
27.9933
 30
0.0
 40
0.278617
 41
0.278617
  0
VERTEX
  8
0
 10
21.879
 20
28.1661
 30
0.0
 40
0.278617
 41
0.278617
  0
VERTEX
  8
0
 10
21.5819
 20
28.3099
 30
0.0
 40
0.278617
 41
0.278617
  0
VERTEX
  8
0
 10
21.2683
 20
28.4257
 30
0.0
 40
0.278617
 41
0.278617
  0
VERTEX
  8
0
 10
20.9372
 20
28.5143
 30
0.0
 40
0.278617
 41
0.278617
  0
VERTEX
  8
0
 10
20.5875
 20
28.5765
 30
0.0
 40
0.278617
 41
0.278617
  0
VERTEX
  8
0
 10
20.2182
 20
28.6133
 30
0.0
 40
0.278617
 41
0.278617
  0
VERTEX
  8
0
 10
19.8285
 20
28.6253
 30
0.0
 40
0.278617
 41
0.278617
  0
VERTEX
  8
0
 10
19.5657
 20
28.6149
 30
0.0
 40
0.278617
 41
0.278617
  0
VERTEX
  8
0
 10
19.3099
 20
28.5853
 30
0.0
 40
0.278617
 41
0.278617
  0
VERTEX
  8
0
 10
19.0621
 20
28.5393
 30
0.0
 40
0.278617
 41
0.278617
  0
VERTEX
  8
0
 10
18.8238
 20
28.4796
 30
0.0
 40
0.278617
 41
0.278617
  0
VERTEX
  8
0
 10
18.5964
 20
28.409
 30
0.0
 40
0.278617
 41
0.278617
  0
VERTEX
  8
0
 10
18.3814
 20
28.33
 30
0.0
 40
0.278617
 41
0.278617
  0
VERTEX
  8
0
 10
18.18
 20
28.2456
 30
0.0
 40
0.278617
 41
0.278617
  0
VERTEX
  8
0
 10
17.9936
 20
28.1582
 30
0.0
 40
0.278617
 41
0.278617
  0
VERTEX
  8
0
 10
17.8238
 20
28.0707
 30
0.0
 40
0.278617
 41
0.278617
  0
VERTEX
  8
0
 10
17.6717
 20
27.9858
 30
0.0
 40
0.278617
 41
0.278617
  0
VERTEX
  8
0
 10
17.5389
 20
27.9064
 30
0.0
 40
0.278617
 41
0.278617
  0
VERTEX
  8
0
 10
17.4268
 20
27.8349
 30
0.0
 40
0.278617
 41
0.278617
  0
VERTEX
  8
0
 10
17.3365
 20
27.774
 30
0.0
 40
0.278617
 41
0.278617
  0
VERTEX
  8
0
 10
17.2699
 20
27.7268
 30
0.0
 40
0.278617
 41
0.278617
  0
VERTEX
  8
0
 10
17.2279
 20
27.6957
 30
0.0
 40
0.278617
 41
0.278617
  0
VERTEX
  8
0
 10
17.2121
 20
27.6833
 30
0.0
 40
0.278617
 41
0.278617
  0
VERTEX
  8
0
 10
16.9603
 20
27.5189
 30
0.0
 40
0.278617
 41
0.278617
  0
VERTEX
  8
0
 10
16.6835
 20
27.4014
 30
0.0
 40
0.278617
 41
0.278617
  0
VERTEX
  8
0
 10
16.3899
 20
27.3311
 30
0.0
 40
0.278617
 41
0.278617
  0
VERTEX
  8
0
 10
16.0878
 20
27.3078
 30
0.0
 40
0.278617
 41
0.278617
  0
VERTEX
  8
0
 10
15.7857
 20
27.3315
 30
0.0
 40
0.278617
 41
0.278617
  0
VERTEX
  8
0
 10
15.4921
 20
27.4021
 30
0.0
 40
0.278617
 41
0.278617
  0
VERTEX
  8
0
 10
15.215
 20
27.5193
 30
0.0
 40
0.278617
 41
0.278617
  0
VERTEX
  8
0
 10
14.9631
 20
27.6833
 30
0.0
 40
0.278617
 41
0.278617
  0
VERTEX
  8
0
 10
14.9474
 20
27.6957
 30
0.0
 40
0.278617
 41
0.278617
  0
VERTEX
  8
0
 10
14.9054
 20
27.7268
 30
0.0
 40
0.278617
 41
0.278617
  0
VERTEX
  8
0
 10
14.8383
 20
27.774
 30
0.0
 40
0.278617
 41
0.278617
  0
VERTEX
  8
0
 10
14.7478
 20
27.8349
 30
0.0
 40
0.278617
 41
0.278617
  0
VERTEX
  8
0
 10
14.635
 20
27.9064
 30
0.0
 40
0.278617
 41
0.278617
  0
VERTEX
  8
0
 10
14.5017
 20
27.9858
 30
0.0
 40
0.278617
 41
0.278617
  0
VERTEX
  8
0
 10
14.349
 20
28.0707
 30
0.0
 40
0.278617
 41
0.278617
  0
VERTEX
  8
0
 10
14.1785
 20
28.1582
 30
0.0
 40
0.278617
 41
0.278617
  0
VERTEX
  8
0
 10
13.9917
 20
28.2456
 30
0.0
 40
0.278617
 41
0.278617
  0
VERTEX
  8
0
 10
13.7899
 20
28.33
 30
0.0
 40
0.278617
 41
0.278617
  0
VERTEX
  8
0
 10
13.5747
 20
28.409
 30
0.0
 40
0.278617
 41
0.278617
  0
VERTEX
  8
0
 10
13.3474
 20
28.4796
 30
0.0
 40
0.278617
 41
0.278617
  0
VERTEX
  8
0
 10
13.1095
 20
28.5393
 30
0.0
 40
0.278617
 41
0.278617
  0
VERTEX
  8
0
 10
12.8625
 20
28.5853
 30
0.0
 40
0.278617
 41
0.278617
  0
VERTEX
  8
0
 10
12.6077
 20
28.6149
 30
0.0
 40
0.278617
 41
0.278617
  0
VERTEX
  8
0
 10
12.3467
 20
28.6253
 30
0.0
 40
0.278617
 41
0.278617
  0
VERTEX
  8
0
 10
11.957
 20
28.6133
 30
0.0
 40
0.278617
 41
0.278617
  0
VERTEX
  8
0
 10
11.5879
 20
28.5765
 30
0.0
 40
0.278617
 41
0.278617
  0
VERTEX
  8
0
 10
11.2383
 20
28.5143
 30
0.0
 40
0.278617
 41
0.278617
  0
VERTEX
  8
0
 10
10.9072
 20
28.4256
 30
0.0
 40
0.278617
 41
0.278617
  0
VERTEX
  8
0
 10
10.5936
 20
28.3097
 30
0.0
 40
0.278617
 41
0.278617
  0
VERTEX
  8
0
 10
10.2966
 20
28.1658
 30
0.0
 40
0.278617
 41
0.278617
  0
VERTEX
  8
0
 10
10.015
 20
27.9931
 30
0.0
 40
0.278617
 41
0.278617
  0
VERTEX
  8
0
 10
9.74789
 20
27.7904
 30
0.0
 40
0.278617
 41
0.278617
  0
VERTEX
  8
0
 10
9.49425
 20
27.5574
 30
0.0
 40
0.278617
 41
0.278617
  0
VERTEX
  8
0
 10
9.2531
 20
27.2926
 30
0.0
 40
0.278617
 41
0.278617
  0
VERTEX
  8
0
 10
9.02339
 20
26.9958
 30
0.0
 40
0.278617
 41
0.278617
  0
VERTEX
  8
0
 10
8.80414
 20
26.6658
 30
0.0
 40
0.278617
 41
0.278617
  0
VERTEX
  8
0
 10
8.59435
 20
26.3018
 30
0.0
 40
0.278617
 41
0.278617
  0
VERTEX
  8
0
 10
8.39301
 20
25.9031
 30
0.0
 40
0.278617
 41
0.278617
  0
VERTEX
  8
0
 10
8.19917
 20
25.4688
 30
0.0
 40
0.278617
 41
0.278617
  0
VERTEX
  8
0
 10
8.01172
 20
24.9978
 30
0.0
 40
0.278617
 41
0.278617
  0
VERTEX
  8
0
 10
4.29656
 20
14.87
 30
0.0
 40
0.278617
 41
0.278617
  0
VERTEX
  8
0
 10
4.24935
 20
14.7722
 30
0.0
 40
0.278617
 41
0.278617
  0
VERTEX
  8
0
 10
4.18658
 20
14.6887
 30
0.0
 40
0.278617
 41
0.278617
  0
VERTEX
  8
0
 10
4.11089
 20
14.6211
 30
0.0
 40
0.278617
 41
0.278617
  0
VERTEX
  8
0
 10
4.02507
 20
14.5703
 30
0.0
 40
0.278617
 41
0.278617
  0
VERTEX
  8
0
 10
3.93175
 20
14.5376
 30
0.0
 40
0.278617
 41
0.278617
  0
VERTEX
  8
0
 10
3.83365
 20
14.5246
 30
0.0
 40
0.278617
 41
0.278617
  0
VERTEX
  8
0
 10
3.73361
 20
14.5319
 30
0.0
 40
0.278617
 41
0.278617
  0
VERTEX
  8
0
 10
3.63428
 20
14.5614
 30
0.0
 40
0.278617
 41
0.278617
  0
VERTEX
  8
0
 10
3.54204
 20
14.6111
 30
0.0
 40
0.278617
 41
0.278617
  0
VERTEX
  8
0
 10
3.46349
 20
14.6774
 30
0.0
 40
0.278617
 41
0.278617
  0
VERTEX
  8
0
 10
3.39968
 20
14.7574
 30
0.0
 40
0.278617
 41
0.278617
  0
VERTEX
  8
0
 10
3.35189
 20
14.8482
 30
0.0
 40
0.278617
 41
0.278617
  0
VERTEX
  8
0
 10
3.32118
 20
14.9471
 30
0.0
 40
0.278617
 41
0.278617
  0
VERTEX
  8
0
 10
3.30886
 20
15.0512
 30
0.0
 40
0.278617
 41
0.278617
  0
VERTEX
  8
0
 10
3.31608
 20
15.1578
 30
0.0
 40
0.278617
 41
0.278617
  0
VERTEX
  8
0
 10
3.34407
 20
15.264
 30
0.0
 40
0.278617
 41
0.278617
  0
VERTEX
  8
0
 10
7.06136
 20
25.3953
 30
0.0
 40
0.278617
 41
0.278617
  0
VERTEX
  8
0
 10
7.28039
 20
25.9425
 30
0.0
 40
0.278617
 41
0.278617
  0
VERTEX
  8
0
 10
7.51058
 20
26.4494
 30
0.0
 40
0.278617
 41
0.278617
  0
VERTEX
  8
0
 10
7.75271
 20
26.9171
 30
0.0
 40
0.278617
 41
0.278617
  0
VERTEX
  8
0
 10
8.00754
 20
27.346
 30
0.0
 40
0.278617
 41
0.278617
  0
VERTEX
  8
0
 10
8.27587
 20
27.7368
 30
0.0
 40
0.278617
 41
0.278617
  0
VERTEX
  8
0
 10
8.55854
 20
28.0901
 30
0.0
 40
0.278617
 41
0.278617
  0
VERTEX
  8
0
 10
8.85628
 20
28.4068
 30
0.0
 40
0.278617
 41
0.278617
  0
VERTEX
  8
0
 10
9.16992
 20
28.6872
 30
0.0
 40
0.278617
 41
0.278617
  0
VERTEX
  8
0
 10
9.50022
 20
28.9324
 30
0.0
 40
0.278617
 41
0.278617
  0
VERTEX
  8
0
 10
9.84804
 20
29.1426
 30
0.0
 40
0.278617
 41
0.278617
  0
VERTEX
  8
0
 10
10.2141
 20
29.3187
 30
0.0
 40
0.278617
 41
0.278617
  0
VERTEX
  8
0
 10
10.5993
 20
29.4612
 30
0.0
 40
0.278617
 41
0.278617
  0
VERTEX
  8
0
 10
11.0044
 20
29.5711
 30
0.0
 40
0.278617
 41
0.278617
  0
VERTEX
  8
0
 10
11.4301
 20
29.6487
 30
0.0
 40
0.278617
 41
0.278617
  0
VERTEX
  8
0
 10
11.8773
 20
29.6949
 30
0.0
 40
0.278617
 41
0.278617
  0
VERTEX
  8
0
 10
12.3467
 20
29.71
 30
0.0
 40
0.278617
 41
0.278617
  0
VERTEX
  8
0
 10
12.6714
 20
29.6975
 30
0.0
 40
0.278617
 41
0.278617
  0
VERTEX
  8
0
 10
12.9868
 20
29.6622
 30
0.0
 40
0.278617
 41
0.278617
  0
VERTEX
  8
0
 10
13.2912
 20
29.6072
 30
0.0
 40
0.278617
 41
0.278617
  0
VERTEX
  8
0
 10
13.5832
 20
29.5357
 30
0.0
 40
0.278617
 41
0.278617
  0
VERTEX
  8
0
 10
13.8613
 20
29.4508
 30
0.0
 40
0.278617
 41
0.278617
  0
VERTEX
  8
0
 10
14.124
 20
29.356
 30
0.0
 40
0.278617
 41
0.278617
  0
VERTEX
  8
0
 10
14.37
 20
29.2542
 30
0.0
 40
0.278617
 41
0.278617
  0
VERTEX
  8
0
 10
14.5975
 20
29.1486
 30
0.0
 40
0.278617
 41
0.278617
  0
VERTEX
  8
0
 10
14.805
 20
29.0426
 30
0.0
 40
0.278617
 41
0.278617
  0
VERTEX
  8
0
 10
14.9914
 20
28.9392
 30
0.0
 40
0.278617
 41
0.278617
  0
VERTEX
  8
0
 10
15.1547
 20
28.8415
 30
0.0
 40
0.278617
 41
0.278617
  0
VERTEX
  8
0
 10
15.2938
 20
28.7529
 30
0.0
 40
0.278617
 41
0.278617
  0
VERTEX
  8
0
 10
15.4069
 20
28.6767
 30
0.0
 40
0.278617
 41
0.278617
  0
VERTEX
  8
0
 10
15.4929
 20
28.6157
 30
0.0
 40
0.278617
 41
0.278617
  0
VERTEX
  8
0
 10
15.55
 20
28.5732
 30
0.0
 40
0.278617
 41
0.278617
  0
VERTEX
  8
0
 10
15.5768
 20
28.5526
 30
0.0
 40
0.278617
 41
0.278617
  0
VERTEX
  8
0
 10
15.6865
 20
28.4824
 30
0.0
 40
0.278617
 41
0.278617
  0
VERTEX
  8
0
 10
15.8117
 20
28.4321
 30
0.0
 40
0.278617
 41
0.278617
  0
VERTEX
  8
0
 10
15.9472
 20
28.4019
 30
0.0
 40
0.278617
 41
0.278617
  0
VERTEX
  8
0
 10
16.0878
 20
28.3918
 30
0.0
 40
0.278617
 41
0.278617
  0
VERTEX
  8
0
 10
16.2285
 20
28.4019
 30
0.0
 40
0.278617
 41
0.278617
  0
VERTEX
  8
0
 10
16.3637
 20
28.4321
 30
0.0
 40
0.278617
 41
0.278617
  0
VERTEX
  8
0
 10
16.4889
 20
28.4824
 30
0.0
 40
0.278617
 41
0.278617
  0
VERTEX
  8
0
 10
16.5985
 20
28.5526
 30
0.0
 40
0.278617
 41
0.278617
  0
VERTEX
  8
0
 10
16.6253
 20
28.5733
 30
0.0
 40
0.278617
 41
0.278617
  0
VERTEX
  8
0
 10
16.6825
 20
28.6157
 30
0.0
 40
0.278617
 41
0.278617
  0
VERTEX
  8
0
 10
16.7685
 20
28.6767
 30
0.0
 40
0.278617
 41
0.278617
  0
VERTEX
  8
0
 10
16.8818
 20
28.7531
 30
0.0
 40
0.278617
 41
0.278617
  0
VERTEX
  8
0
 10
17.021
 20
28.8415
 30
0.0
 40
0.278617
 41
0.278617
  0
VERTEX
  8
0
 10
17.1844
 20
28.9392
 30
0.0
 40
0.278617
 41
0.278617
  0
VERTEX
  8
0
 10
17.3708
 20
29.0426
 30
0.0
 40
0.278617
 41
0.278617
  0
VERTEX
  8
0
 10
17.5785
 20
29.1487
 30
0.0
 40
0.278617
 41
0.278617
  0
VERTEX
  8
0
 10
17.806
 20
29.2542
 30
0.0
 40
0.278617
 41
0.278617
  0
VERTEX
  8
0
 10
18.0518
 20
29.3561
 30
0.0
 40
0.278617
 41
0.278617
  0
VERTEX
  8
0
 10
18.3144
 20
29.4508
 30
0.0
 40
0.278617
 41
0.278617
  0
VERTEX
  8
0
 10
18.5925
 20
29.5357
 30
0.0
 40
0.278617
 41
0.278617
  0
VERTEX
  8
0
 10
18.8844
 20
29.6072
 30
0.0
 40
0.278617
 41
0.278617
  0
VERTEX
  8
0
 10
19.1887
 20
29.6622
 30
0.0
 40
0.278617
 41
0.278617
  0
VERTEX
  8
0
 10
19.5039
 20
29.6975
 30
0.0
 40
0.278617
 41
0.278617
  0
VERTEX
  8
0
 10
19.8285
 20
29.71
 30
0.0
 40
0.278617
 41
0.278617
  0
VERTEX
  8
0
 10
20.2981
 20
29.6949
 30
0.0
 40
0.278617
 41
0.278617
  0
VERTEX
  8
0
 10
20.7453
 20
29.6487
 30
0.0
 40
0.278617
 41
0.278617
  0
VERTEX
  8
0
 10
21.1711
 20
29.5712
 30
0.0
 40
0.278617
 41
0.278617
  0
VERTEX
  8
0
 10
21.5761
 20
29.4614
 30
0.0
 40
0.278617
 41
0.278617
  0
VERTEX
  8
0
 10
21.9612
 20
29.3189
 30
0.0
 40
0.278617
 41
0.278617
  0
VERTEX
  8
0
 10
22.3274
 20
29.1429
 30
0.0
 40
0.278617
 41
0.278617
  0
VERTEX
  8
0
 10
22.6751
 20
28.9328
 30
0.0
 40
0.278617
 41
0.278617
  0
VERTEX
  8
0
 10
23.0054
 20
28.6878
 30
0.0
 40
0.278617
 41
0.278617
  0
VERTEX
  8
0
 10
23.319
 20
28.4075
 30
0.0
 40
0.278617
 41
0.278617
  0
VERTEX
  8
0
 10
23.6167
 20
28.0912
 30
0.0
 40
0.278617
 41
0.278617
  0
VERTEX
  8
0
 10
23.8992
 20
27.7381
 30
0.0
 40
0.278617
 41
0.278617
  0
VERTEX
  8
0
 10
24.1674
 20
27.3478
 30
0.0
 40
0.278617
 41
0.278617
  0
VERTEX
  8
0
 10
24.4221
 20
26.9193
 30
0.0
 40
0.278617
 41
0.278617
  0
VERTEX
  8
0
 10
24.6642
 20
26.4522
 30
0.0
 40
0.278617
 41
0.278617
  0
VERTEX
  8
0
 10
24.8942
 20
25.946
 30
0.0
 40
0.278617
 41
0.278617
  0
VERTEX
  8
0
 10
25.1132
 20
25.3996
 30
0.0
 40
0.278617
 41
0.278617
  0
VERTEX
  8
0
 10
28.8324
 20
15.264
 30
0.0
 40
0.278617
 41
0.278617
  0
VERTEX
  8
0
 10
28.8599
 20
15.1578
 30
0.0
 40
0.278617
 41
0.278617
  0
VERTEX
  8
0
 10
28.8669
 20
15.0512
 30
0.0
 40
0.278617
 41
0.278617
  0
VERTEX
  8
0
 10
28.8544
 20
14.9471
 30
0.0
 40
0.278617
 41
0.278617
  0
VERTEX
  8
0
 10
28.8238
 20
14.8482
 30
0.0
 40
0.278617
 41
0.278617
  0
VERTEX
  8
0
 10
28.7758
 20
14.7574
 30
0.0
 40
0.278617
 41
0.278617
  0
VERTEX
  8
0
 10
28.7121
 20
14.6774
 30
0.0
 40
0.278617
 41
0.278617
  0
VERTEX
  8
0
 10
28.6333
 20
14.6111
 30
0.0
 40
0.278617
 41
0.278617
  0
VERTEX
  8
0
 10
28.541
 20
14.5614
 30
0.0
 40
0.278617
 41
0.278617
  0
SEQEND
 8
0
  0
POLYLINE
  8
0
 62
     0
 66
     1
 10
0
 20
0
 30
0.0
 70
     1
 40
4.29246
 41
4.29246
  0
VERTEX
  8
0
 10
3.60644
 20
14.8186
 30
0.0
 40
0.0596175
 41
0.0596175
  0
VERTEX
  8
0
 10
3.49957
 20
14.9654
 30
0.0
 40
0.0596175
 41
0.0596175
  0
VERTEX
  8
0
 10
3.48068
 20
15.1014
 30
0.0
 40
0.0596175
 41
0.0596175
  0
VERTEX
  8
0
 10
3.49507
 20
15.1487
 30
0.0
 40
0.0596175
 41
0.0596175
  0
VERTEX
  8
0
 10
3.52979
 20
15.2506
 30
0.0
 40
0.0596175
 41
0.0596175
  0
VERTEX
  8
0
 10
3.58344
 20
15.4035
 30
0.0
 40
0.0596175
 41
0.0596175
  0
VERTEX
  8
0
 10
3.65474
 20
15.6036
 30
0.0
 40
0.0596175
 41
0.0596175
  0
VERTEX
  8
0
 10
3.74235
 20
15.8478
 30
0.0
 40
0.0596175
 41
0.0596175
  0
VERTEX
  8
0
 10
3.84506
 20
16.1322
 30
0.0
 40
0.0596175
 41
0.0596175
  0
VERTEX
  8
0
 10
3.96143
 20
16.4532
 30
0.0
 40
0.0596175
 41
0.0596175
  0
VERTEX
  8
0
 10
4.09017
 20
16.8074
 30
0.0
 40
0.0596175
 41
0.0596175
  0
VERTEX
  8
0
 10
4.22999
 20
17.1913
 30
0.0
 40
0.0596175
 41
0.0596175
  0
VERTEX
  8
0
 10
4.37961
 20
17.601
 30
0.0
 40
0.0596175
 41
0.0596175
  0
VERTEX
  8
0
 10
4.53765
 20
18.0332
 30
0.0
 40
0.0596175
 41
0.0596175
  0
VERTEX
  8
0
 10
4.70285
 20
18.4843
 30
0.0
 40
0.0596175
 41
0.0596175
  0
VERTEX
  8
0
 10
4.87392
 20
18.9507
 30
0.0
 40
0.0596175
 41
0.0596175
  0
VERTEX
  8
0
 10
5.04943
 20
19.4288
 30
0.0
 40
0.0596175
 41
0.0596175
  0
VERTEX
  8
0
 10
5.22819
 20
19.915
 30
0.0
 40
0.0596175
 41
0.0596175
  0
VERTEX
  8
0
 10
5.40881
 20
20.4058
 30
0.0
 40
0.0596175
 41
0.0596175
  0
VERTEX
  8
0
 10
5.59
 20
20.8978
 30
0.0
 40
0.0596175
 41
0.0596175
  0
VERTEX
  8
0
 10
5.77051
 20
21.3871
 30
0.0
 40
0.0596175
 41
0.0596175
  0
VERTEX
  8
0
 10
5.94889
 20
21.8704
 30
0.0
 40
0.0596175
 41
0.0596175
  0
VERTEX
  8
0
 10
6.12392
 20
22.344
 30
0.0
 40
0.0596175
 41
0.0596175
  0
VERTEX
  8
0
 10
6.29428
 20
22.8043
 30
0.0
 40
0.0596175
 41
0.0596175
  0
VERTEX
  8
0
 10
6.45865
 20
23.2478
 30
0.0
 40
0.0596175
 41
0.0596175
  0
VERTEX
  8
0
 10
6.61572
 20
23.671
 30
0.0
 40
0.0596175
 41
0.0596175
  0
VERTEX
  8
0
 10
6.76411
 20
24.0701
 30
0.0
 40
0.0596175
 41
0.0596175
  0
VERTEX
  8
0
 10
6.90261
 20
24.4419
 30
0.0
 40
0.0596175
 41
0.0596175
  0
VERTEX
  8
0
 10
7.02989
 20
24.7825
 30
0.0
 40
0.0596175
 41
0.0596175
  0
VERTEX
  8
0
 10
7.14458
 20
25.0885
 30
0.0
 40
0.0596175
 41
0.0596175
  0
VERTEX
  8
0
 10
7.24539
 20
25.3563
 30
0.0
 40
0.0596175
 41
0.0596175
  0
VERTEX
  8
0
 10
7.331
 20
25.5822
 30
0.0
 40
0.0596175
 41
0.0596175
  0
VERTEX
  8
0
 10
7.40013
 20
25.7629
 30
0.0
 40
0.0596175
 41
0.0596175
  0
VERTEX
  8
0
 10
7.45139
 20
25.8946
 30
0.0
 40
0.0596175
 41
0.0596175
  0
VERTEX
  8
0
 10
7.48361
 20
25.9737
 30
0.0
 40
0.0596175
 41
0.0596175
  0
VERTEX
  8
0
 10
7.64051
 20
26.3226
 30
0.0
 40
0.0596175
 41
0.0596175
  0
VERTEX
  8
0
 10
7.80464
 20
26.6526
 30
0.0
 40
0.0596175
 41
0.0596175
  0
VERTEX
  8
0
 10
7.97613
 20
26.964
 30
0.0
 40
0.0596175
 41
0.0596175
  0
VERTEX
  8
0
 10
8.15506
 20
27.2568
 30
0.0
 40
0.0596175
 41
0.0596175
  0
VERTEX
  8
0
 10
8.34164
 20
27.5311
 30
0.0
 40
0.0596175
 41
0.0596175
  0
VERTEX
  8
0
 10
8.53586
 20
27.7872
 30
0.0
 40
0.0596175
 41
0.0596175
  0
VERTEX
  8
0
 10
8.73801
 20
28.025
 30
0.0
 40
0.0596175
 41
0.0596175
  0
VERTEX
  8
0
 10
8.94819
 20
28.2449
 30
0.0
 40
0.0596175
 41
0.0596175
  0
VERTEX
  8
0
 10
9.16644
 20
28.4467
 30
0.0
 40
0.0596175
 41
0.0596175
  0
VERTEX
  8
0
 10
9.39301
 20
28.6308
 30
0.0
 40
0.0596175
 41
0.0596175
  0
VERTEX
  8
0
 10
9.62793
 20
28.7972
 30
0.0
 40
0.0596175
 41
0.0596175
  0
VERTEX
  8
0
 10
9.87136
 20
28.9462
 30
0.0
 40
0.0596175
 41
0.0596175
  0
VERTEX
  8
0
 10
10.1235
 20
29.0776
 30
0.0
 40
0.0596175
 41
0.0596175
  0
VERTEX
  8
0
 10
10.3844
 20
29.1919
 30
0.0
 40
0.0596175
 41
0.0596175
  0
VERTEX
  8
0
 10
10.6543
 20
29.289
 30
0.0
 40
0.0596175
 41
0.0596175
  0
VERTEX
  8
0
 10
10.9332
 20
29.3692
 30
0.0
 40
0.0596175
 41
0.0596175
  0
VERTEX
  8
0
 10
11.5039
 20
29.4822
 30
0.0
 40
0.0596175
 41
0.0596175
  0
VERTEX
  8
0
 10
12.0706
 20
29.5319
 30
0.0
 40
0.0596175
 41
0.0596175
  0
VERTEX
  8
0
 10
12.6326
 20
29.5188
 30
0.0
 40
0.0596175
 41
0.0596175
  0
VERTEX
  8
0
 10
13.1889
 20
29.4426
 30
0.0
 40
0.0596175
 41
0.0596175
  0
VERTEX
  8
0
 10
13.7388
 20
29.3039
 30
0.0
 40
0.0596175
 41
0.0596175
  0
VERTEX
  8
0
 10
14.2814
 20
29.1024
 30
0.0
 40
0.0596175
 41
0.0596175
  0
VERTEX
  8
0
 10
14.816
 20
28.8386
 30
0.0
 40
0.0596175
 41
0.0596175
  0
VERTEX
  8
0
 10
15.3417
 20
28.5124
 30
0.0
 40
0.0596175
 41
0.0596175
  0
VERTEX
  8
0
 10
15.4532
 20
28.4372
 30
0.0
 40
0.0596175
 41
0.0596175
  0
VERTEX
  8
0
 10
15.5464
 20
28.3792
 30
0.0
 40
0.0596175
 41
0.0596175
  0
VERTEX
  8
0
 10
15.6275
 20
28.336
 30
0.0
 40
0.0596175
 41
0.0596175
  0
VERTEX
  8
0
 10
15.7033
 20
28.3056
 30
0.0
 40
0.0596175
 41
0.0596175
  0
VERTEX
  8
0
 10
15.7806
 20
28.2857
 30
0.0
 40
0.0596175
 41
0.0596175
  0
VERTEX
  8
0
 10
15.8656
 20
28.274
 30
0.0
 40
0.0596175
 41
0.0596175
  0
VERTEX
  8
0
 10
15.965
 20
28.2687
 30
0.0
 40
0.0596175
 41
0.0596175
  0
VERTEX
  8
0
 10
16.0857
 20
28.2675
 30
0.0
 40
0.0596175
 41
0.0596175
  0
VERTEX
  8
0
 10
16.2078
 20
28.2689
 30
0.0
 40
0.0596175
 41
0.0596175
  0
VERTEX
  8
0
 10
16.3087
 20
28.2744
 30
0.0
 40
0.0596175
 41
0.0596175
  0
VERTEX
  8
0
 10
16.396
 20
28.2869
 30
0.0
 40
0.0596175
 41
0.0596175
  0
VERTEX
  8
0
 10
16.4769
 20
28.309
 30
0.0
 40
0.0596175
 41
0.0596175
  0
VERTEX
  8
0
 10
16.5593
 20
28.3431
 30
0.0
 40
0.0596175
 41
0.0596175
  0
VERTEX
  8
0
 10
16.6506
 20
28.3918
 30
0.0
 40
0.0596175
 41
0.0596175
  0
VERTEX
  8
0
 10
16.7579
 20
28.4576
 30
0.0
 40
0.0596175
 41
0.0596175
  0
VERTEX
  8
0
 10
16.8892
 20
28.5432
 30
0.0
 40
0.0596175
 41
0.0596175
  0
VERTEX
  8
0
 10
17.4578
 20
28.8829
 30
0.0
 40
0.0596175
 41
0.0596175
  0
VERTEX
  8
0
 10
18.0299
 20
29.1518
 30
0.0
 40
0.0596175
 41
0.0596175
  0
VERTEX
  8
0
 10
18.6058
 20
29.3497
 30
0.0
 40
0.0596175
 41
0.0596175
  0
VERTEX
  8
0
 10
19.186
 20
29.4768
 30
0.0
 40
0.0596175
 41
0.0596175
  0
VERTEX
  8
0
 10
19.7706
 20
29.5331
 30
0.0
 40
0.0596175
 41
0.0596175
  0
VERTEX
  8
0
 10
20.3599
 20
29.5186
 30
0.0
 40
0.0596175
 41
0.0596175
  0
VERTEX
  8
0
 10
20.9542
 20
29.4335
 30
0.0
 40
0.0596175
 41
0.0596175
  0
VERTEX
  8
0
 10
21.5538
 20
29.2778
 30
0.0
 40
0.0596175
 41
0.0596175
  0
VERTEX
  8
0
 10
22.0099
 20
29.1004
 30
0.0
 40
0.0596175
 41
0.0596175
  0
VERTEX
  8
0
 10
22.4444
 20
28.8647
 30
0.0
 40
0.0596175
 41
0.0596175
  0
VERTEX
  8
0
 10
22.8567
 20
28.5714
 30
0.0
 40
0.0596175
 41
0.0596175
  0
VERTEX
  8
0
 10
23.2461
 20
28.2207
 30
0.0
 40
0.0596175
 41
0.0596175
  0
VERTEX
  8
0
 10
23.6122
 20
27.8135
 30
0.0
 40
0.0596175
 41
0.0596175
  0
VERTEX
  8
0
 10
23.9546
 20
27.35
 30
0.0
 40
0.0596175
 41
0.0596175
  0
VERTEX
  8
0
 10
24.2725
 20
26.831
 30
0.0
 40
0.0596175
 41
0.0596175
  0
VERTEX
  8
0
 10
24.5656
 20
26.2568
 30
0.0
 40
0.0596175
 41
0.0596175
  0
VERTEX
  8
0
 10
24.615
 20
26.1443
 30
0.0
 40
0.0596175
 41
0.0596175
  0
VERTEX
  8
0
 10
24.6825
 20
25.981
 30
0.0
 40
0.0596175
 41
0.0596175
  0
VERTEX
  8
0
 10
24.7667
 20
25.7701
 30
0.0
 40
0.0596175
 41
0.0596175
  0
VERTEX
  8
0
 10
24.8663
 20
25.5156
 30
0.0
 40
0.0596175
 41
0.0596175
  0
VERTEX
  8
0
 10
24.98
 20
25.2207
 30
0.0
 40
0.0596175
 41
0.0596175
  0
VERTEX
  8
0
 10
25.1067
 20
24.889
 30
0.0
 40
0.0596175
 41
0.0596175
  0
VERTEX
  8
0
 10
25.2449
 20
24.5242
 30
0.0
 40
0.0596175
 41
0.0596175
  0
VERTEX
  8
0
 10
25.3933
 20
24.1297
 30
0.0
 40
0.0596175
 41
0.0596175
  0
VERTEX
  8
0
 10
25.5507
 20
23.7092
 30
0.0
 40
0.0596175
 41
0.0596175
  0
VERTEX
  8
0
 10
25.7158
 20
23.266
 30
0.0
 40
0.0596175
 41
0.0596175
  0
VERTEX
  8
0
 10
25.8874
 20
22.8038
 30
0.0
 40
0.0596175
 41
0.0596175
  0
VERTEX
  8
0
 10
26.0639
 20
22.3261
 30
0.0
 40
0.0596175
 41
0.0596175
  0
VERTEX
  8
0
 10
26.2443
 20
21.8365
 30
0.0
 40
0.0596175
 41
0.0596175
  0
VERTEX
  8
0
 10
26.4272
 20
21.3386
 30
0.0
 40
0.0596175
 41
0.0596175
  0
VERTEX
  8
0
 10
26.6114
 20
20.8357
 30
0.0
 40
0.0596175
 41
0.0596175
  0
VERTEX
  8
0
 10
26.7954
 20
20.3315
 30
0.0
 40
0.0596175
 41
0.0596175
  0
VERTEX
  8
0
 10
26.9781
 20
19.8296
 30
0.0
 40
0.0596175
 41
0.0596175
  0
VERTEX
  8
0
 10
27.1581
 20
19.3336
 30
0.0
 40
0.0596175
 41
0.0596175
  0
VERTEX
  8
0
 10
27.3342
 20
18.8467
 30
0.0
 40
0.0596175
 41
0.0596175
  0
VERTEX
  8
0
 10
27.505
 20
18.3728
 30
0.0
 40
0.0596175
 41
0.0596175
  0
VERTEX
  8
0
 10
27.6694
 20
17.9153
 30
0.0
 40
0.0596175
 41
0.0596175
  0
VERTEX
  8
0
 10
27.8258
 20
17.4778
 30
0.0
 40
0.0596175
 41
0.0596175
  0
VERTEX
  8
0
 10
27.9732
 20
17.0637
 30
0.0
 40
0.0596175
 41
0.0596175
  0
VERTEX
  8
0
 10
28.1103
 20
16.6767
 30
0.0
 40
0.0596175
 41
0.0596175
  0
VERTEX
  8
0
 10
28.2356
 20
16.3203
 30
0.0
 40
0.0596175
 41
0.0596175
  0
VERTEX
  8
0
 10
28.3478
 20
15.9981
 30
0.0
 40
0.0596175
 41
0.0596175
  0
VERTEX
  8
0
 10
28.4458
 20
15.7135
 30
0.0
 40
0.0596175
 41
0.0596175
  0
VERTEX
  8
0
 10
28.5283
 20
15.47
 30
0.0
 40
0.0596175
 41
0.0596175
  0
VERTEX
  8
0
 10
28.5939
 20
15.2714
 30
0.0
 40
0.0596175
 41
0.0596175
  0
VERTEX
  8
0
 10
28.6414
 20
15.1211
 30
0.0
 40
0.0596175
 41
0.0596175
  0
VERTEX
  8
0
 10
28.6693
 20
15.0226
 30
0.0
 40
0.0596175
 41
0.0596175
  0
VERTEX
  8
0
 10
28.6765
 20
14.9796
 30
0.0
 40
0.0596175
 41
0.0596175
  0
VERTEX
  8
0
 10
28.6519
 20
14.9201
 30
0.0
 40
0.0596175
 41
0.0596175
  0
VERTEX
  8
0
 10
28.6096
 20
14.8571
 30
0.0
 40
0.0596175
 41
0.0596175
  0
VERTEX
  8
0
 10
28.5554
 20
14.7976
 30
0.0
 40
0.0596175
 41
0.0596175
  0
VERTEX
  8
0
 10
28.4954
 20
14.7494
 30
0.0
 40
0.0596175
 41
0.0596175
  0
VERTEX
  8
0
 10
28.4663
 20
14.7303
 30
0.0
 40
0.0596175
 41
0.0596175
  0
VERTEX
  8
0
 10
28.4387
 20
14.7126
 30
0.0
 40
0.0596175
 41
0.0596175
  0
VERTEX
  8
0
 10
28.4125
 20
14.6979
 30
0.0
 40
0.0596175
 41
0.0596175
  0
VERTEX
  8
0
 10
28.3871
 20
14.6868
 30
0.0
 40
0.0596175
 41
0.0596175
  0
VERTEX
  8
0
 10
28.3619
 20
14.6804
 30
0.0
 40
0.0596175
 41
0.0596175
  0
VERTEX
  8
0
 10
28.3367
 20
14.6797
 30
0.0
 40
0.0596175
 41
0.0596175
  0
VERTEX
  8
0
 10
28.3108
 20
14.6858
 30
0.0
 40
0.0596175
 41
0.0596175
  0
VERTEX
  8
0
 10
28.284
 20
14.6999
 30
0.0
 40
0.0596175
 41
0.0596175
  0
VERTEX
  8
0
 10
28.2558
 20
14.7225
 30
0.0
 40
0.0596175
 41
0.0596175
  0
VERTEX
  8
0
 10
28.2257
 20
14.755
 30
0.0
 40
0.0596175
 41
0.0596175
  0
VERTEX
  8
0
 10
28.1932
 20
14.7983
 30
0.0
 40
0.0596175
 41
0.0596175
  0
VERTEX
  8
0
 10
28.1579
 20
14.8536
 30
0.0
 40
0.0596175
 41
0.0596175
  0
VERTEX
  8
0
 10
28.1193
 20
14.9217
 30
0.0
 40
0.0596175
 41
0.0596175
  0
VERTEX
  8
0
 10
28.0771
 20
15.0035
 30
0.0
 40
0.0596175
 41
0.0596175
  0
VERTEX
  8
0
 10
28.0308
 20
15.1003
 30
0.0
 40
0.0596175
 41
0.0596175
  0
VERTEX
  8
0
 10
27.9799
 20
15.2129
 30
0.0
 40
0.0596175
 41
0.0596175
  0
VERTEX
  8
0
 10
27.9239
 20
15.3424
 30
0.0
 40
0.0596175
 41
0.0596175
  0
VERTEX
  8
0
 10
27.8625
 20
15.4899
 30
0.0
 40
0.0596175
 41
0.0596175
  0
VERTEX
  8
0
 10
27.7951
 20
15.6563
 30
0.0
 40
0.0596175
 41
0.0596175
  0
VERTEX
  8
0
 10
27.7214
 20
15.8425
 30
0.0
 40
0.0596175
 41
0.0596175
  0
VERTEX
  8
0
 10
27.6408
 20
16.0499
 30
0.0
 40
0.0596175
 41
0.0596175
  0
VERTEX
  8
0
 10
27.5531
 20
16.279
 30
0.0
 40
0.0596175
 41
0.0596175
  0
VERTEX
  8
0
 10
27.4576
 20
16.5313
 30
0.0
 40
0.0596175
 41
0.0596175
  0
VERTEX
  8
0
 10
27.3539
 20
16.8075
 30
0.0
 40
0.0596175
 41
0.0596175
  0
VERTEX
  8
0
 10
27.2417
 20
17.1086
 30
0.0
 40
0.0596175
 41
0.0596175
  0
VERTEX
  8
0
 10
27.1203
 20
17.4358
 30
0.0
 40
0.0596175
 41
0.0596175
  0
VERTEX
  8
0
 10
26.9894
 20
17.7901
 30
0.0
 40
0.0596175
 41
0.0596175
  0
VERTEX
  8
0
 10
26.8487
 20
18.1724
 30
0.0
 40
0.0596175
 41
0.0596175
  0
VERTEX
  8
0
 10
26.6975
 20
18.5839
 30
0.0
 40
0.0596175
 41
0.0596175
  0
VERTEX
  8
0
 10
26.5354
 20
19.0253
 30
0.0
 40
0.0596175
 41
0.0596175
  0
VERTEX
  8
0
 10
26.3622
 20
19.4978
 30
0.0
 40
0.0596175
 41
0.0596175
  0
VERTEX
  8
0
 10
26.1772
 20
20.0024
 30
0.0
 40
0.0596175
 41
0.0596175
  0
VERTEX
  8
0
 10
25.9942
 20
20.5012
 30
0.0
 40
0.0596175
 41
0.0596175
  0
VERTEX
  8
0
 10
25.8215
 20
20.9718
 30
0.0
 40
0.0596175
 41
0.0596175
  0
VERTEX
  8
0
 10
25.6588
 20
21.415
 30
0.0
 40
0.0596175
 41
0.0596175
  0
VERTEX
  8
0
 10
25.5056
 20
21.8315
 30
0.0
 40
0.0596175
 41
0.0596175
  0
VERTEX
  8
0
 10
25.3617
 20
22.2226
 30
0.0
 40
0.0596175
 41
0.0596175
  0
VERTEX
  8
0
 10
25.2265
 20
22.5892
 30
0.0
 40
0.0596175
 41
0.0596175
  0
VERTEX
  8
0
 10
25.0999
 20
22.9321
 30
0.0
 40
0.0596175
 41
0.0596175
  0
VERTEX
  8
0
 10
24.9814
 20
23.2522
 30
0.0
 40
0.0596175
 41
0.0596175
  0
VERTEX
  8
0
 10
24.8706
 20
23.5507
 30
0.0
 40
0.0596175
 41
0.0596175
  0
VERTEX
  8
0
 10
24.7671
 20
23.8283
 30
0.0
 40
0.0596175
 41
0.0596175
  0
VERTEX
  8
0
 10
24.6706
 20
24.0862
 30
0.0
 40
0.0596175
 41
0.0596175
  0
VERTEX
  8
0
 10
24.5806
 20
24.3253
 30
0.0
 40
0.0596175
 41
0.0596175
  0
VERTEX
  8
0
 10
24.4969
 20
24.5464
 30
0.0
 40
0.0596175
 41
0.0596175
  0
VERTEX
  8
0
 10
24.4192
 20
24.7504
 30
0.0
 40
0.0596175
 41
0.0596175
  0
VERTEX
  8
0
 10
24.3468
 20
24.9385
 30
0.0
 40
0.0596175
 41
0.0596175
  0
VERTEX
  8
0
 10
24.2797
 20
25.1114
 30
0.0
 40
0.0596175
 41
0.0596175
  0
VERTEX
  8
0
 10
24.2172
 20
25.2703
 30
0.0
 40
0.0596175
 41
0.0596175
  0
VERTEX
  8
0
 10
24.1592
 20
25.4158
 30
0.0
 40
0.0596175
 41
0.0596175
  0
VERTEX
  8
0
 10
24.1051
 20
25.5493
 30
0.0
 40
0.0596175
 41
0.0596175
  0
VERTEX
  8
0
 10
24.0547
 20
25.6714
 30
0.0
 40
0.0596175
 41
0.0596175
  0
VERTEX
  8
0
 10
24.0076
 20
25.7832
 30
0.0
 40
0.0596175
 41
0.0596175
  0
VERTEX
  8
0
 10
23.9633
 20
25.8857
 30
0.0
 40
0.0596175
 41
0.0596175
  0
VERTEX
  8
0
 10
23.9217
 20
25.9797
 30
0.0
 40
0.0596175
 41
0.0596175
  0
VERTEX
  8
0
 10
23.8821
 20
26.0663
 30
0.0
 40
0.0596175
 41
0.0596175
  0
VERTEX
  8
0
 10
23.8443
 20
26.1464
 30
0.0
 40
0.0596175
 41
0.0596175
  0
VERTEX
  8
0
 10
23.8079
 20
26.2207
 30
0.0
 40
0.0596175
 41
0.0596175
  0
VERTEX
  8
0
 10
23.7726
 20
26.2906
 30
0.0
 40
0.0596175
 41
0.0596175
  0
VERTEX
  8
0
 10
23.7379
 20
26.3567
 30
0.0
 40
0.0596175
 41
0.0596175
  0
VERTEX
  8
0
 10
23.7036
 20
26.4201
 30
0.0
 40
0.0596175
 41
0.0596175
  0
VERTEX
  8
0
 10
23.6692
 20
26.4818
 30
0.0
 40
0.0596175
 41
0.0596175
  0
VERTEX
  8
0
 10
23.6343
 20
26.5426
 30
0.0
 40
0.0596175
 41
0.0596175
  0
VERTEX
  8
0
 10
23.5986
 20
26.6035
 30
0.0
 40
0.0596175
 41
0.0596175
  0
VERTEX
  8
0
 10
23.434
 20
26.8696
 30
0.0
 40
0.0596175
 41
0.0596175
  0
VERTEX
  8
0
 10
23.2661
 20
27.1158
 30
0.0
 40
0.0596175
 41
0.0596175
  0
VERTEX
  8
0
 10
23.094
 20
27.3429
 30
0.0
 40
0.0596175
 41
0.0596175
  0
VERTEX
  8
0
 10
22.9169
 20
27.5511
 30
0.0
 40
0.0596175
 41
0.0596175
  0
VERTEX
  8
0
 10
22.7342
 20
27.7411
 30
0.0
 40
0.0596175
 41
0.0596175
  0
VERTEX
  8
0
 10
22.5449
 20
27.9132
 30
0.0
 40
0.0596175
 41
0.0596175
  0
VERTEX
  8
0
 10
22.3485
 20
28.0679
 30
0.0
 40
0.0596175
 41
0.0596175
  0
VERTEX
  8
0
 10
22.1442
 20
28.2056
 30
0.0
 40
0.0596175
 41
0.0596175
  0
VERTEX
  8
0
 10
21.931
 20
28.3271
 30
0.0
 40
0.0596175
 41
0.0596175
  0
VERTEX
  8
0
 10
21.7083
 20
28.4324
 30
0.0
 40
0.0596175
 41
0.0596175
  0
VERTEX
  8
0
 10
21.4756
 20
28.5224
 30
0.0
 40
0.0596175
 41
0.0596175
  0
VERTEX
  8
0
 10
21.2317
 20
28.5972
 30
0.0
 40
0.0596175
 41
0.0596175
  0
VERTEX
  8
0
 10
20.9761
 20
28.6575
 30
0.0
 40
0.0596175
 41
0.0596175
  0
VERTEX
  8
0
 10
20.7079
 20
28.7039
 30
0.0
 40
0.0596175
 41
0.0596175
  0
VERTEX
  8
0
 10
20.4265
 20
28.7365
 30
0.0
 40
0.0596175
 41
0.0596175
  0
VERTEX
  8
0
 10
20.1311
 20
28.756
 30
0.0
 40
0.0596175
 41
0.0596175
  0
VERTEX
  8
0
 10
19.9132
 20
28.7642
 30
0.0
 40
0.0596175
 41
0.0596175
  0
VERTEX
  8
0
 10
19.7293
 20
28.7681
 30
0.0
 40
0.0596175
 41
0.0596175
  0
VERTEX
  8
0
 10
19.5713
 20
28.7667
 30
0.0
 40
0.0596175
 41
0.0596175
  0
VERTEX
  8
0
 10
19.4311
 20
28.7597
 30
0.0
 40
0.0596175
 41
0.0596175
  0
VERTEX
  8
0
 10
19.301
 20
28.7467
 30
0.0
 40
0.0596175
 41
0.0596175
  0
VERTEX
  8
0
 10
19.1732
 20
28.7267
 30
0.0
 40
0.0596175
 41
0.0596175
  0
VERTEX
  8
0
 10
19.0397
 20
28.6993
 30
0.0
 40
0.0596175
 41
0.0596175
  0
VERTEX
  8
0
 10
18.8926
 20
28.6639
 30
0.0
 40
0.0596175
 41
0.0596175
  0
VERTEX
  8
0
 10
18.6922
 20
28.6058
 30
0.0
 40
0.0596175
 41
0.0596175
  0
VERTEX
  8
0
 10
18.4715
 20
28.5289
 30
0.0
 40
0.0596175
 41
0.0596175
  0
VERTEX
  8
0
 10
18.2397
 20
28.4376
 30
0.0
 40
0.0596175
 41
0.0596175
  0
VERTEX
  8
0
 10
18.0064
 20
28.3362
 30
0.0
 40
0.0596175
 41
0.0596175
  0
VERTEX
  8
0
 10
17.781
 20
28.229
 30
0.0
 40
0.0596175
 41
0.0596175
  0
VERTEX
  8
0
 10
17.5731
 20
28.1203
 30
0.0
 40
0.0596175
 41
0.0596175
  0
VERTEX
  8
0
 10
17.3921
 20
28.0143
 30
0.0
 40
0.0596175
 41
0.0596175
  0
VERTEX
  8
0
 10
17.2475
 20
27.9154
 30
0.0
 40
0.0596175
 41
0.0596175
  0
VERTEX
  8
0
 10
17.0978
 20
27.8072
 30
0.0
 40
0.0596175
 41
0.0596175
  0
VERTEX
  8
0
 10
16.9569
 20
27.7176
 30
0.0
 40
0.0596175
 41
0.0596175
  0
VERTEX
  8
0
 10
16.8211
 20
27.6456
 30
0.0
 40
0.0596175
 41
0.0596175
  0
VERTEX
  8
0
 10
16.6865
 20
27.5896
 30
0.0
 40
0.0596175
 41
0.0596175
  0
VERTEX
  8
0
 10
16.5493
 20
27.5483
 30
0.0
 40
0.0596175
 41
0.0596175
  0
VERTEX
  8
0
 10
16.406
 20
27.5206
 30
0.0
 40
0.0596175
 41
0.0596175
  0
VERTEX
  8
0
 10
16.2528
 20
27.5049
 30
0.0
 40
0.0596175
 41
0.0596175
  0
VERTEX
  8
0
 10
16.0857
 20
27.4999
 30
0.0
 40
0.0596175
 41
0.0596175
  0
VERTEX
  8
0
 10
15.9186
 20
27.5049
 30
0.0
 40
0.0596175
 41
0.0596175
  0
VERTEX
  8
0
 10
15.7653
 20
27.5206
 30
0.0
 40
0.0596175
 41
0.0596175
  0
VERTEX
  8
0
 10
15.6219
 20
27.5483
 30
0.0
 40
0.0596175
 41
0.0596175
  0
VERTEX
  8
0
 10
15.4849
 20
27.5896
 30
0.0
 40
0.0596175
 41
0.0596175
  0
VERTEX
  8
0
 10
15.3501
 20
27.6456
 30
0.0
 40
0.0596175
 41
0.0596175
  0
VERTEX
  8
0
 10
15.2143
 20
27.7176
 30
0.0
 40
0.0596175
 41
0.0596175
  0
VERTEX
  8
0
 10
15.0735
 20
27.8072
 30
0.0
 40
0.0596175
 41
0.0596175
  0
VERTEX
  8
0
 10
14.9239
 20
27.9154
 30
0.0
 40
0.0596175
 41
0.0596175
  0
VERTEX
  8
0
 10
14.7822
 20
28.0122
 30
0.0
 40
0.0596175
 41
0.0596175
  0
VERTEX
  8
0
 10
14.6039
 20
28.1167
 30
0.0
 40
0.0596175
 41
0.0596175
  0
VERTEX
  8
0
 10
14.3986
 20
28.2246
 30
0.0
 40
0.0596175
 41
0.0596175
  0
VERTEX
  8
0
 10
14.1763
 20
28.3314
 30
0.0
 40
0.0596175
 41
0.0596175
  0
VERTEX
  8
0
 10
13.9467
 20
28.4324
 30
0.0
 40
0.0596175
 41
0.0596175
  0
VERTEX
  8
0
 10
13.7197
 20
28.5231
 30
0.0
 40
0.0596175
 41
0.0596175
  0
VERTEX
  8
0
 10
13.5053
 20
28.599
 30
0.0
 40
0.0596175
 41
0.0596175
  0
VERTEX
  8
0
 10
13.3134
 20
28.6556
 30
0.0
 40
0.0596175
 41
0.0596175
  0
VERTEX
  8
0
 10
12.9379
 20
28.7304
 30
0.0
 40
0.0596175
 41
0.0596175
  0
VERTEX
  8
0
 10
12.5437
 20
28.77
 30
0.0
 40
0.0596175
 41
0.0596175
  0
VERTEX
  8
0
 10
12.1388
 20
28.7749
 30
0.0
 40
0.0596175
 41
0.0596175
  0
VERTEX
  8
0
 10
11.731
 20
28.746
 30
0.0
 40
0.0596175
 41
0.0596175
  0
VERTEX
  8
0
 10
11.3283
 20
28.6843
 30
0.0
 40
0.0596175
 41
0.0596175
  0
VERTEX
  8
0
 10
10.9386
 20
28.5907
 30
0.0
 40
0.0596175
 41
0.0596175
  0
VERTEX
  8
0
 10
10.5697
 20
28.466
 30
0.0
 40
0.0596175
 41
0.0596175
  0
VERTEX
  8
0
 10
10.2296
 20
28.311
 30
0.0
 40
0.0596175
 41
0.0596175
  0
VERTEX
  8
0
 10
9.93826
 20
28.1338
 30
0.0
 40
0.0596175
 41
0.0596175
  0
VERTEX
  8
0
 10
9.65104
 20
27.9111
 30
0.0
 40
0.0596175
 41
0.0596175
  0
VERTEX
  8
0
 10
9.37071
 20
27.6465
 30
0.0
 40
0.0596175
 41
0.0596175
  0
VERTEX
  8
0
 10
9.1001
 20
27.3435
 30
0.0
 40
0.0596175
 41
0.0596175
  0
VERTEX
  8
0
 10
8.84201
 20
27.0054
 30
0.0
 40
0.0596175
 41
0.0596175
  0
VERTEX
  8
0
 10
8.59918
 20
26.6356
 30
0.0
 40
0.0596175
 41
0.0596175
  0
VERTEX
  8
0
 10
8.3744
 20
26.2374
 30
0.0
 40
0.0596175
 41
0.0596175
  0
VERTEX
  8
0
 10
8.17051
 20
25.814
 30
0.0
 40
0.0596175
 41
0.0596175
  0
VERTEX
  8
0
 10
8.13699
 20
25.7339
 30
0.0
 40
0.0596175
 41
0.0596175
  0
VERTEX
  8
0
 10
8.08501
 20
25.6028
 30
0.0
 40
0.0596175
 41
0.0596175
  0
VERTEX
  8
0
 10
8.01563
 20
25.4239
 30
0.0
 40
0.0596175
 41
0.0596175
  0
VERTEX
  8
0
 10
7.93001
 20
25.2001
 30
0.0
 40
0.0596175
 41
0.0596175
  0
VERTEX
  8
0
 10
7.82915
 20
24.9344
 30
0.0
 40
0.0596175
 41
0.0596175
  0
VERTEX
  8
0
 10
7.71419
 20
24.6297
 30
0.0
 40
0.0596175
 41
0.0596175
  0
VERTEX
  8
0
 10
7.58621
 20
24.2889
 30
0.0
 40
0.0596175
 41
0.0596175
  0
VERTEX
  8
0
 10
7.44635
 20
23.915
 30
0.0
 40
0.0596175
 41
0.0596175
  0
VERTEX
  8
0
 10
7.29568
 20
23.5108
 30
0.0
 40
0.0596175
 41
0.0596175
  0
VERTEX
  8
0
 10
7.13531
 20
23.0793
 30
0.0
 40
0.0596175
 41
0.0596175
  0
VERTEX
  8
0
 10
6.96631
 20
22.6236
 30
0.0
 40
0.0596175
 41
0.0596175
  0
VERTEX
  8
0
 10
6.78982
 20
22.1465
 30
0.0
 40
0.0596175
 41
0.0596175
  0
VERTEX
  8
0
 10
6.60688
 20
21.651
 30
0.0
 40
0.0596175
 41
0.0596175
  0
VERTEX
  8
0
 10
6.41862
 20
21.1399
 30
0.0
 40
0.0596175
 41
0.0596175
  0
VERTEX
  8
0
 10
6.22618
 20
20.6163
 30
0.0
 40
0.0596175
 41
0.0596175
  0
VERTEX
  8
0
 10
6.0306
 20
20.0829
 30
0.0
 40
0.0596175
 41
0.0596175
  0
VERTEX
  8
0
 10
5.86263
 20
19.6247
 30
0.0
 40
0.0596175
 41
0.0596175
  0
VERTEX
  8
0
 10
5.70426
 20
19.1931
 30
0.0
 40
0.0596175
 41
0.0596175
  0
VERTEX
  8
0
 10
5.55512
 20
18.7869
 30
0.0
 40
0.0596175
 41
0.0596175
  0
VERTEX
  8
0
 10
5.41493
 20
18.4057
 30
0.0
 40
0.0596175
 41
0.0596175
  0
VERTEX
  8
0
 10
5.28331
 20
18.0486
 30
0.0
 40
0.0596175
 41
0.0596175
  0
VERTEX
  8
0
 10
5.16
 20
17.7149
 30
0.0
 40
0.0596175
 41
0.0596175
  0
VERTEX
  8
0
 10
5.0446
 20
17.4036
 30
0.0
 40
0.0596175
 41
0.0596175
  0
VERTEX
  8
0
 10
4.9369
 20
17.114
 30
0.0
 40
0.0596175
 41
0.0596175
  0
VERTEX
  8
0
 10
4.83649
 20
16.8456
 30
0.0
 40
0.0596175
 41
0.0596175
  0
VERTEX
  8
0
 10
4.74311
 20
16.5972
 30
0.0
 40
0.0596175
 41
0.0596175
  0
VERTEX
  8
0
 10
4.65636
 20
16.3685
 30
0.0
 40
0.0596175
 41
0.0596175
  0
VERTEX
  8
0
 10
4.57601
 20
16.1582
 30
0.0
 40
0.0596175
 41
0.0596175
  0
VERTEX
  8
0
 10
4.50174
 20
15.9658
 30
0.0
 40
0.0596175
 41
0.0596175
  0
VERTEX
  8
0
 10
4.43317
 20
15.7904
 30
0.0
 40
0.0596175
 41
0.0596175
  0
VERTEX
  8
0
 10
4.36996
 20
15.6314
 30
0.0
 40
0.0596175
 41
0.0596175
  0
VERTEX
  8
0
 10
4.3119
 20
15.4879
 30
0.0
 40
0.0596175
 41
0.0596175
  0
VERTEX
  8
0
 10
4.25857
 20
15.3592
 30
0.0
 40
0.0596175
 41
0.0596175
  0
VERTEX
  8
0
 10
4.20975
 20
15.2444
 30
0.0
 40
0.0596175
 41
0.0596175
  0
VERTEX
  8
0
 10
4.16504
 20
15.1428
 30
0.0
 40
0.0596175
 41
0.0596175
  0
VERTEX
  8
0
 10
4.12414
 20
15.0536
 30
0.0
 40
0.0596175
 41
0.0596175
  0
VERTEX
  8
0
 10
4.08669
 20
14.976
 30
0.0
 40
0.0596175
 41
0.0596175
  0
VERTEX
  8
0
 10
4.05246
 20
14.9093
 30
0.0
 40
0.0596175
 41
0.0596175
  0
VERTEX
  8
0
 10
4.02106
 20
14.8526
 30
0.0
 40
0.0596175
 41
0.0596175
  0
VERTEX
  8
0
 10
3.99219
 20
14.8051
 30
0.0
 40
0.0596175
 41
0.0596175
  0
VERTEX
  8
0
 10
3.9656
 20
14.7663
 30
0.0
 40
0.0596175
 41
0.0596175
  0
VERTEX
  8
0
 10
3.94086
 20
14.7351
 30
0.0
 40
0.0596175
 41
0.0596175
  0
VERTEX
  8
0
 10
3.91769
 20
14.7108
 30
0.0
 40
0.0596175
 41
0.0596175
  0
VERTEX
  8
0
 10
3.89578
 20
14.6928
 30
0.0
 40
0.0596175
 41
0.0596175
  0
VERTEX
  8
0
 10
3.87483
 20
14.68
 30
0.0
 40
0.0596175
 41
0.0596175
  0
VERTEX
  8
0
 10
3.85449
 20
14.6719
 30
0.0
 40
0.0596175
 41
0.0596175
  0
VERTEX
  8
0
 10
3.83447
 20
14.6676
 30
0.0
 40
0.0596175
 41
0.0596175
  0
VERTEX
  8
0
 10
3.81446
 20
14.6662
 30
0.0
 40
0.0596175
 41
0.0596175
  0
VERTEX
  8
0
 10
3.78082
 20
14.6783
 30
0.0
 40
0.0596175
 41
0.0596175
  0
VERTEX
  8
0
 10
3.73036
 20
14.7111
 30
0.0
 40
0.0596175
 41
0.0596175
  0
VERTEX
  8
0
 10
3.66997
 20
14.7594
 30
0.0
 40
0.0596175
 41
0.0596175
  0
VERTEX
  8
0
 10
3.60644
 20
14.8186
 30
0.0
 40
0.0596175
 41
0.0596175
  0
SEQEND
 8
0
  0
POLYLINE
  8
0
 62
     0
 66
     1
 10
0
 20
0
 30
0.0
 70
     1
 40
0
 41
0
  0
VERTEX
  8
0
 10
15.0142
 20
8.74843
 30
0.0
 40
0
 41
0
  0
VERTEX
  8
0
 10
14.5458
 20
8.7889
 30
0.0
 40
0
 41
0
  0
VERTEX
  8
0
 10
14.1426
 20
8.82563
 30
0.0
 40
0
 41
0
  0
VERTEX
  8
0
 10
13.7927
 20
8.86003
 30
0.0
 40
0
 41
0
  0
VERTEX
  8
0
 10
13.4842
 20
8.89344
 30
0.0
 40
0
 41
0
  0
VERTEX
  8
0
 10
13.2051
 20
8.92731
 30
0.0
 40
0
 41
0
  0
VERTEX
  8
0
 10
12.9435
 20
8.96294
 30
0.0
 40
0
 41
0
  0
VERTEX
  8
0
 10
12.6874
 20
9.00174
 30
0.0
 40
0
 41
0
  0
VERTEX
  8
0
 10
12.425
 20
9.04497
 30
0.0
 40
0
 41
0
  0
VERTEX
  8
0
 10
11.7721
 20
9.16618
 30
0.0
 40
0
 41
0
  0
VERTEX
  8
0
 10
11.1252
 20
9.30567
 30
0.0
 40
0
 41
0
  0
VERTEX
  8
0
 10
10.4855
 20
9.46289
 30
0.0
 40
0
 41
0
  0
VERTEX
  8
0
 10
9.85454
 20
9.63726
 30
0.0
 40
0
 41
0
  0
VERTEX
  8
0
 10
9.23372
 20
9.82824
 30
0.0
 40
0
 41
0
  0
VERTEX
  8
0
 10
8.62446
 20
10.0351
 30
0.0
 40
0
 41
0
  0
VERTEX
  8
0
 10
8.0281
 20
10.2573
 30
0.0
 40
0
 41
0
  0
VERTEX
  8
0
 10
7.44612
 20
10.4943
 30
0.0
 40
0
 41
0
  0
VERTEX
  8
0
 10
6.87993
 20
10.7453
 30
0.0
 40
0
 41
0
  0
VERTEX
  8
0
 10
6.33094
 20
11.01
 30
0.0
 40
0
 41
0
  0
VERTEX
  8
0
 10
5.80051
 20
11.2875
 30
0.0
 40
0
 41
0
  0
VERTEX
  8
0
 10
5.29015
 20
11.5775
 30
0.0
 40
0
 41
0
  0
VERTEX
  8
0
 10
4.80117
 20
11.8791
 30
0.0
 40
0
 41
0
  0
VERTEX
  8
0
 10
4.33507
 20
12.1919
 30
0.0
 40
0
 41
0
  0
VERTEX
  8
0
 10
3.89324
 20
12.5153
 30
0.0
 40
0
 41
0
  0
VERTEX
  8
0
 10
3.47706
 20
12.8485
 30
0.0
 40
0
 41
0
  0
VERTEX
  8
0
 10
3.17096
 20
13.1212
 30
0.0
 40
0
 41
0
  0
VERTEX
  8
0
 10
2.88797
 20
13.4042
 30
0.0
 40
0
 41
0
  0
VERTEX
  8
0
 10
2.63325
 20
13.6904
 30
0.0
 40
0
 41
0
  0
VERTEX
  8
0
 10
2.41222
 20
13.9726
 30
0.0
 40
0
 41
0
  0
VERTEX
  8
0
 10
2.23008
 20
14.2436
 30
0.0
 40
0
 41
0
  0
VERTEX
  8
0
 10
2.09212
 20
14.4958
 30
0.0
 40
0
 41
0
  0
VERTEX
  8
0
 10
2.00369
 20
14.7224
 30
0.0
 40
0
 41
0
  0
VERTEX
  8
0
 10
1.97
 20
14.9158
 30
0.0
 40
0
 41
0
  0
VERTEX
  8
0
 10
1.97862
 20
14.9632
 30
0.0
 40
0
 41
0
  0
VERTEX
  8
0
 10
2.00532
 20
15.0593
 30
0.0
 40
0
 41
0
  0
VERTEX
  8
0
 10
2.04964
 20
15.2026
 30
0.0
 40
0
 41
0
  0
VERTEX
  8
0
 10
2.11106
 20
15.3918
 30
0.0
 40
0
 41
0
  0
VERTEX
  8
0
 10
2.18907
 20
15.6253
 30
0.0
 40
0
 41
0
  0
VERTEX
  8
0
 10
2.28315
 20
15.9017
 30
0.0
 40
0
 41
0
  0
VERTEX
  8
0
 10
2.39274
 20
16.2196
 30
0.0
 40
0
 41
0
  0
VERTEX
  8
0
 10
2.51742
 20
16.5774
 30
0.0
 40
0
 41
0
  0
VERTEX
  8
0
 10
2.65662
 20
16.9739
 30
0.0
 40
0
 41
0
  0
VERTEX
  8
0
 10
2.80985
 20
17.4074
 30
0.0
 40
0
 41
0
  0
VERTEX
  8
0
 10
2.97661
 20
17.8765
 30
0.0
 40
0
 41
0
  0
VERTEX
  8
0
 10
3.15642
 20
18.3799
 30
0.0
 40
0
 41
0
  0
VERTEX
  8
0
 10
3.34868
 20
18.9158
 30
0.0
 40
0
 41
0
  0
VERTEX
  8
0
 10
3.55296
 20
19.4832
 30
0.0
 40
0
 41
0
  0
VERTEX
  8
0
 10
3.76872
 20
20.0803
 30
0.0
 40
0
 41
0
  0
VERTEX
  8
0
 10
3.9955
 20
20.7058
 30
0.0
 40
0
 41
0
  0
VERTEX
  8
0
 10
6.02615
 20
26.2989
 30
0.0
 40
0
 41
0
  0
VERTEX
  8
0
 10
6.02615
 20
28.5151
 30
0.0
 40
0
 41
0
  0
VERTEX
  8
0
 10
6.02686
 20
28.9514
 30
0.0
 40
0
 41
0
  0
VERTEX
  8
0
 10
6.02919
 20
29.3506
 30
0.0
 40
0
 41
0
  0
VERTEX
  8
0
 10
6.03336
 20
29.7157
 30
0.0
 40
0
 41
0
  0
VERTEX
  8
0
 10
6.03961
 20
30.0494
 30
0.0
 40
0
 41
0
  0
VERTEX
  8
0
 10
6.04818
 20
30.3546
 30
0.0
 40
0
 41
0
  0
VERTEX
  8
0
 10
6.05919
 20
30.6339
 30
0.0
 40
0
 41
0
  0
VERTEX
  8
0
 10
6.07297
 20
30.8903
 30
0.0
 40
0
 41
0
  0
VERTEX
  8
0
 10
6.08968
 20
31.1264
 30
0.0
 40
0
 41
0
  0
VERTEX
  8
0
 10
6.1096
 20
31.345
 30
0.0
 40
0
 41
0
  0
VERTEX
  8
0
 10
6.13292
 20
31.549
 30
0.0
 40
0
 41
0
  0
VERTEX
  8
0
 10
6.15989
 20
31.7411
 30
0.0
 40
0
 41
0
  0
VERTEX
  8
0
 10
6.19069
 20
31.9242
 30
0.0
 40
0
 41
0
  0
VERTEX
  8
0
 10
6.22558
 20
32.1008
 30
0.0
 40
0
 41
0
  0
VERTEX
  8
0
 10
6.26476
 20
32.274
 30
0.0
 40
0
 41
0
  0
VERTEX
  8
0
 10
6.30849
 20
32.4464
 30
0.0
 40
0
 41
0
  0
VERTEX
  8
0
 10
6.35699
 20
32.6208
 30
0.0
 40
0
 41
0
  0
VERTEX
  8
0
 10
6.5446
 20
33.2019
 30
0.0
 40
0
 41
0
  0
VERTEX
  8
0
 10
6.76481
 20
33.7603
 30
0.0
 40
0
 41
0
  0
VERTEX
  8
0
 10
7.01665
 20
34.2951
 30
0.0
 40
0
 41
0
  0
VERTEX
  8
0
 10
7.29899
 20
34.8053
 30
0.0
 40
0
 41
0
  0
VERTEX
  8
0
 10
7.61079
 20
35.2899
 30
0.0
 40
0
 41
0
  0
VERTEX
  8
0
 10
7.95096
 20
35.7478
 30
0.0
 40
0
 41
0
  0
VERTEX
  8
0
 10
8.31847
 20
36.1781
 30
0.0
 40
0
 41
0
  0
VERTEX
  8
0
 10
8.71224
 20
36.5796
 30
0.0
 40
0
 41
0
  0
VERTEX
  8
0
 10
9.13118
 20
36.9514
 30
0.0
 40
0
 41
0
  0
VERTEX
  8
0
 10
9.57428
 20
37.2925
 30
0.0
 40
0
 41
0
  0
VERTEX
  8
0
 10
10.0405
 20
37.6019
 30
0.0
 40
0
 41
0
  0
VERTEX
  8
0
 10
10.5287
 20
37.8786
 30
0.0
 40
0
 41
0
  0
VERTEX
  8
0
 10
11.0378
 20
38.1217
 30
0.0
 40
0
 41
0
  0
VERTEX
  8
0
 10
11.5668
 20
38.3299
 30
0.0
 40
0
 41
0
  0
VERTEX
  8
0
 10
12.1147
 20
38.5024
 30
0.0
 40
0
 41
0
  0
VERTEX
  8
0
 10
12.6803
 20
38.6381
 30
0.0
 40
0
 41
0
  0
VERTEX
  8
0
 10
12.7657
 20
38.6546
 30
0.0
 40
0
 41
0
  0
VERTEX
  8
0
 10
12.8536
 20
38.6692
 30
0.0
 40
0
 41
0
  0
VERTEX
  8
0
 10
12.9469
 20
38.6822
 30
0.0
 40
0
 41
0
  0
VERTEX
  8
0
 10
13.049
 20
38.6936
 30
0.0
 40
0
 41
0
  0
VERTEX
  8
0
 10
13.1631
 20
38.7036
 30
0.0
 40
0
 41
0
  0
VERTEX
  8
0
 10
13.2923
 20
38.7122
 30
0.0
 40
0
 41
0
  0
VERTEX
  8
0
 10
13.4397
 20
38.7194
 30
0.0
 40
0
 41
0
  0
VERTEX
  8
0
 10
13.6086
 20
38.7256
 30
0.0
 40
0
 41
0
  0
VERTEX
  8
0
 10
13.8023
 20
38.7306
 30
0.0
 40
0
 41
0
  0
VERTEX
  8
0
 10
14.0236
 20
38.7346
 30
0.0
 40
0
 41
0
  0
VERTEX
  8
0
 10
14.2761
 20
38.7378
 30
0.0
 40
0
 41
0
  0
VERTEX
  8
0
 10
14.5628
 20
38.7401
 30
0.0
 40
0
 41
0
  0
VERTEX
  8
0
 10
14.8869
 20
38.7417
 30
0.0
 40
0
 41
0
  0
VERTEX
  8
0
 10
15.2515
 20
38.7428
 30
0.0
 40
0
 41
0
  0
VERTEX
  8
0
 10
15.66
 20
38.7433
 30
0.0
 40
0
 41
0
  0
VERTEX
  8
0
 10
16.1154
 20
38.7433
 30
0.0
 40
0
 41
0
  0
VERTEX
  8
0
 10
16.6146
 20
38.7433
 30
0.0
 40
0
 41
0
  0
VERTEX
  8
0
 10
17.0549
 20
38.7429
 30
0.0
 40
0
 41
0
  0
VERTEX
  8
0
 10
17.4407
 20
38.7421
 30
0.0
 40
0
 41
0
  0
VERTEX
  8
0
 10
17.7769
 20
38.7406
 30
0.0
 40
0
 41
0
  0
VERTEX
  8
0
 10
18.0682
 20
38.7382
 30
0.0
 40
0
 41
0
  0
VERTEX
  8
0
 10
18.3192
 20
38.7349
 30
0.0
 40
0
 41
0
  0
VERTEX
  8
0
 10
18.5349
 20
38.7304
 30
0.0
 40
0
 41
0
  0
VERTEX
  8
0
 10
18.7197
 20
38.7244
 30
0.0
 40
0
 41
0
  0
VERTEX
  8
0
 10
18.8785
 20
38.7169
 30
0.0
 40
0
 41
0
  0
VERTEX
  8
0
 10
19.016
 20
38.7078
 30
0.0
 40
0
 41
0
  0
VERTEX
  8
0
 10
19.1368
 20
38.6965
 30
0.0
 40
0
 41
0
  0
VERTEX
  8
0
 10
19.2457
 20
38.6833
 30
0.0
 40
0
 41
0
  0
VERTEX
  8
0
 10
19.3475
 20
38.6678
 30
0.0
 40
0
 41
0
  0
VERTEX
  8
0
 10
19.4468
 20
38.6497
 30
0.0
 40
0
 41
0
  0
VERTEX
  8
0
 10
19.5485
 20
38.629
 30
0.0
 40
0
 41
0
  0
VERTEX
  8
0
 10
19.6571
 20
38.6054
 30
0.0
 40
0
 41
0
  0
VERTEX
  8
0
 10
20.2438
 20
38.4532
 30
0.0
 40
0
 41
0
  0
VERTEX
  8
0
 10
20.8106
 20
38.2603
 30
0.0
 40
0
 41
0
  0
VERTEX
  8
0
 10
21.3563
 20
38.0279
 30
0.0
 40
0
 41
0
  0
VERTEX
  8
0
 10
21.8794
 20
37.7575
 30
0.0
 40
0
 41
0
  0
VERTEX
  8
0
 10
22.379
 20
37.4501
 30
0.0
 40
0
 41
0
  0
VERTEX
  8
0
 10
22.8539
 20
37.1071
 30
0.0
 40
0
 41
0
  0
VERTEX
  8
0
 10
23.3028
 20
36.7297
 30
0.0
 40
0
 41
0
  0
VERTEX
  8
0
 10
23.7244
 20
36.3192
 30
0.0
 40
0
 41
0
  0
VERTEX
  8
0
 10
24.1178
 20
35.8767
 30
0.0
 40
0
 41
0
  0
VERTEX
  8
0
 10
24.4815
 20
35.4036
 30
0.0
 40
0
 41
0
  0
VERTEX
  8
0
 10
24.8146
 20
34.9012
 30
0.0
 40
0
 41
0
  0
VERTEX
  8
0
 10
25.1156
 20
34.3707
 30
0.0
 40
0
 41
0
  0
VERTEX
  8
0
 10
25.3833
 20
33.8132
 30
0.0
 40
0
 41
0
  0
VERTEX
  8
0
 10
25.6168
 20
33.2301
 30
0.0
 40
0
 41
0
  0
VERTEX
  8
0
 10
25.8146
 20
32.6228
 30
0.0
 40
0
 41
0
  0
VERTEX
  8
0
 10
25.9757
 20
31.9924
 30
0.0
 40
0
 41
0
  0
VERTEX
  8
0
 10
25.9962
 20
31.8971
 30
0.0
 40
0
 41
0
  0
VERTEX
  8
0
 10
26.0144
 20
31.8043
 30
0.0
 40
0
 41
0
  0
VERTEX
  8
0
 10
26.0306
 20
31.7104
 30
0.0
 40
0
 41
0
  0
VERTEX
  8
0
 10
26.0449
 20
31.6124
 30
0.0
 40
0
 41
0
  0
VERTEX
  8
0
 10
26.0574
 20
31.5064
 30
0.0
 40
0
 41
0
  0
VERTEX
  8
0
 10
26.0683
 20
31.3893
 30
0.0
 40
0
 41
0
  0
VERTEX
  8
0
 10
26.0779
 20
31.2576
 30
0.0
 40
0
 41
0
  0
VERTEX
  8
0
 10
26.0861
 20
31.1082
 30
0.0
 40
0
 41
0
  0
VERTEX
  8
0
 10
26.0933
 20
30.9375
 30
0.0
 40
0
 41
0
  0
VERTEX
  8
0
 10
26.0997
 20
30.7421
 30
0.0
 40
0
 41
0
  0
VERTEX
  8
0
 10
26.1051
 20
30.5186
 30
0.0
 40
0
 41
0
  0
VERTEX
  8
0
 10
26.1101
 20
30.2639
 30
0.0
 40
0
 41
0
  0
VERTEX
  8
0
 10
26.1146
 20
29.9742
 30
0.0
 40
0
 41
0
  0
VERTEX
  8
0
 10
26.1189
 20
29.6464
 30
0.0
 40
0
 41
0
  0
VERTEX
  8
0
 10
26.1231
 20
29.2771
 30
0.0
 40
0
 41
0
  0
VERTEX
  8
0
 10
26.1272
 20
28.8626
 30
0.0
 40
0
 41
0
  0
VERTEX
  8
0
 10
26.1522
 20
26.3032
 30
0.0
 40
0
 41
0
  0
VERTEX
  8
0
 10
28.2017
 20
20.646
 30
0.0
 40
0
 41
0
  0
VERTEX
  8
0
 10
28.4046
 20
20.0861
 30
0.0
 40
0
 41
0
  0
VERTEX
  8
0
 10
28.594
 20
19.5637
 30
0.0
 40
0
 41
0
  0
VERTEX
  8
0
 10
28.7704
 20
19.0775
 30
0.0
 40
0
 41
0
  0
VERTEX
  8
0
 10
28.934
 20
18.626
 30
0.0
 40
0
 41
0
  0
VERTEX
  8
0
 10
29.0853
 20
18.2078
 30
0.0
 40
0
 41
0
  0
VERTEX
  8
0
 10
29.2249
 20
17.8215
 30
0.0
 40
0
 41
0
  0
VERTEX
  8
0
 10
29.3529
 20
17.4658
 30
0.0
 40
0
 41
0
  0
VERTEX
  8
0
 10
29.4697
 20
17.1392
 30
0.0
 40
0
 41
0
  0
VERTEX
  8
0
 10
29.5761
 20
16.8401
 30
0.0
 40
0
 41
0
  0
VERTEX
  8
0
 10
29.6721
 20
16.5675
 30
0.0
 40
0
 41
0
  0
VERTEX
  8
0
 10
29.7583
 20
16.3197
 30
0.0
 40
0
 41
0
  0
VERTEX
  8
0
 10
29.8351
 20
16.0953
 30
0.0
 40
0
 41
0
  0
VERTEX
  8
0
 10
29.9028
 20
15.8931
 30
0.0
 40
0
 41
0
  0
VERTEX
  8
0
 10
29.9619
 20
15.7114
 30
0.0
 40
0
 41
0
  0
VERTEX
  8
0
 10
30.0128
 20
15.549
 30
0.0
 40
0
 41
0
  0
VERTEX
  8
0
 10
30.0558
 20
15.4044
 30
0.0
 40
0
 41
0
  0
VERTEX
  8
0
 10
30.0915
 20
15.2763
 30
0.0
 40
0
 41
0
  0
VERTEX
  8
0
 10
30.1203
 20
15.1632
 30
0.0
 40
0
 41
0
  0
VERTEX
  8
0
 10
30.1424
 20
15.0636
 30
0.0
 40
0
 41
0
  0
VERTEX
  8
0
 10
30.1582
 20
14.9764
 30
0.0
 40
0
 41
0
  0
VERTEX
  8
0
 10
30.1683
 20
14.8999
 30
0.0
 40
0
 41
0
  0
VERTEX
  8
0
 10
30.1731
 20
14.8326
 30
0.0
 40
0
 41
0
  0
VERTEX
  8
0
 10
30.1729
 20
14.7735
 30
0.0
 40
0
 41
0
  0
VERTEX
  8
0
 10
30.1682
 20
14.7208
 30
0.0
 40
0
 41
0
  0
VERTEX
  8
0
 10
30.1592
 20
14.6733
 30
0.0
 40
0
 41
0
  0
VERTEX
  8
0
 10
30.1465
 20
14.6296
 30
0.0
 40
0
 41
0
  0
VERTEX
  8
0
 10
30.1306
 20
14.5882
 30
0.0
 40
0
 41
0
  0
VERTEX
  8
0
 10
30.1117
 20
14.5478
 30
0.0
 40
0
 41
0
  0
VERTEX
  8
0
 10
30.0903
 20
14.5068
 30
0.0
 40
0
 41
0
  0
VERTEX
  8
0
 10
30.0667
 20
14.464
 30
0.0
 40
0
 41
0
  0
VERTEX
  8
0
 10
30.0414
 20
14.4179
 30
0.0
 40
0
 41
0
  0
VERTEX
  8
0
 10
30.0149
 20
14.3669
 30
0.0
 40
0
 41
0
  0
VERTEX
  8
0
 10
29.8817
 20
14.134
 30
0.0
 40
0
 41
0
  0
VERTEX
  8
0
 10
29.7146
 20
13.8942
 30
0.0
 40
0
 41
0
  0
VERTEX
  8
0
 10
29.5151
 20
13.6484
 30
0.0
 40
0
 41
0
  0
VERTEX
  8
0
 10
29.2851
 20
13.3984
 30
0.0
 40
0
 41
0
  0
VERTEX
  8
0
 10
29.0262
 20
13.145
 30
0.0
 40
0
 41
0
  0
VERTEX
  8
0
 10
28.74
 20
12.8897
 30
0.0
 40
0
 41
0
  0
VERTEX
  8
0
 10
28.4281
 20
12.6336
 30
0.0
 40
0
 41
0
  0
VERTEX
  8
0
 10
28.0924
 20
12.3779
 30
0.0
 40
0
 41
0
  0
VERTEX
  8
0
 10
27.7344
 20
12.124
 30
0.0
 40
0
 41
0
  0
VERTEX
  8
0
 10
27.3558
 20
11.8729
 30
0.0
 40
0
 41
0
  0
VERTEX
  8
0
 10
26.9583
 20
11.626
 30
0.0
 40
0
 41
0
  0
VERTEX
  8
0
 10
26.5438
 20
11.3846
 30
0.0
 40
0
 41
0
  0
VERTEX
  8
0
 10
26.1136
 20
11.1496
 30
0.0
 40
0
 41
0
  0
VERTEX
  8
0
 10
25.6696
 20
10.9226
 30
0.0
 40
0
 41
0
  0
VERTEX
  8
0
 10
25.2133
 20
10.7046
 30
0.0
 40
0
 41
0
  0
VERTEX
  8
0
 10
24.7467
 20
10.497
 30
0.0
 40
0
 41
0
  0
VERTEX
  8
0
 10
24.0046
 20
10.1983
 30
0.0
 40
0
 41
0
  0
VERTEX
  8
0
 10
23.2231
 20
9.92068
 30
0.0
 40
0
 41
0
  0
VERTEX
  8
0
 10
22.4119
 20
9.66644
 30
0.0
 40
0
 41
0
  0
VERTEX
  8
0
 10
21.5811
 20
9.43826
 30
0.0
 40
0
 41
0
  0
VERTEX
  8
0
 10
20.7406
 20
9.23856
 30
0.0
 40
0
 41
0
  0
VERTEX
  8
0
 10
19.8999
 20
9.06993
 30
0.0
 40
0
 41
0
  0
VERTEX
  8
0
 10
19.0692
 20
8.93485
 30
0.0
 40
0
 41
0
  0
VERTEX
  8
0
 10
18.2583
 20
8.83589
 30
0.0
 40
0
 41
0
  0
VERTEX
  8
0
 10
18.1131
 20
8.82308
 30
0.0
 40
0
 41
0
  0
VERTEX
  8
0
 10
17.9393
 20
8.81071
 30
0.0
 40
0
 41
0
  0
VERTEX
  8
0
 10
17.7414
 20
8.79883
 30
0.0
 40
0
 41
0
  0
VERTEX
  8
0
 10
17.5239
 20
8.7876
 30
0.0
 40
0
 41
0
  0
VERTEX
  8
0
 10
17.2914
 20
8.77718
 30
0.0
 40
0
 41
0
  0
VERTEX
  8
0
 10
17.0481
 20
8.76768
 30
0.0
 40
0
 41
0
  0
VERTEX
  8
0
 10
16.7988
 20
8.75917
 30
0.0
 40
0
 41
0
  0
VERTEX
  8
0
 10
16.5476
 20
8.75179
 30
0.0
 40
0
 41
0
  0
VERTEX
  8
0
 10
16.2993
 20
8.74571
 30
0.0
 40
0
 41
0
  0
VERTEX
  8
0
 10
16.0582
 20
8.741
 30
0.0
 40
0
 41
0
  0
VERTEX
  8
0
 10
15.8289
 20
8.73774
 30
0.0
 40
0
 41
0
  0
VERTEX
  8
0
 10
15.6156
 20
8.73617
 30
0.0
 40
0
 41
0
  0
VERTEX
  8
0
 10
15.4231
 20
8.73633
 30
0.0
 40
0
 41
0
  0
VERTEX
  8
0
 10
15.2557
 20
8.73833
 30
0.0
 40
0
 41
0
  0
VERTEX
  8
0
 10
15.1179
 20
8.74235
 30
0.0
 40
0
 41
0
  0
VERTEX
  8
0
 10
15.0142
 20
8.74843
 30
0.0
 40
0
 41
0
  0
SEQEND
 8
0
  0
POLYLINE
  8
0
 62
     0
 66
     1
 10
0
 20
0
 30
0.0
 70
     1
 40
0
 41
0
  0
VERTEX
  8
0
 10
10.48
 20
12.0898
 30
0.0
 40
0
 41
0
  0
VERTEX
  8
0
 10
10.6605
 20
12.2657
 30
0.0
 40
0
 41
0
  0
VERTEX
  8
0
 10
10.7856
 20
12.4748
 30
0.0
 40
0
 41
0
  0
VERTEX
  8
0
 10
10.856
 20
12.705
 30
0.0
 40
0
 41
0
  0
VERTEX
  8
0
 10
10.8722
 20
12.9442
 30
0.0
 40
0
 41
0
  0
VERTEX
  8
0
 10
10.8346
 20
13.1804
 30
0.0
 40
0
 41
0
  0
VERTEX
  8
0
 10
10.7438
 20
13.4014
 30
0.0
 40
0
 41
0
  0
VERTEX
  8
0
 10
10.6005
 20
13.5951
 30
0.0
 40
0
 41
0
  0
VERTEX
  8
0
 10
10.4051
 20
13.7495
 30
0.0
 40
0
 41
0
  0
VERTEX
  8
0
 10
10.307
 20
13.7958
 30
0.0
 40
0
 41
0
  0
VERTEX
  8
0
 10
10.1956
 20
13.8284
 30
0.0
 40
0
 41
0
  0
VERTEX
  8
0
 10
10.0751
 20
13.8474
 30
0.0
 40
0
 41
0
  0
VERTEX
  8
0
 10
9.94997
 20
13.8529
 30
0.0
 40
0
 41
0
  0
VERTEX
  8
0
 10
9.82437
 20
13.8449
 30
0.0
 40
0
 41
0
  0
VERTEX
  8
0
 10
9.70264
 20
13.8235
 30
0.0
 40
0
 41
0
  0
VERTEX
  8
0
 10
9.58908
 20
13.7885
 30
0.0
 40
0
 41
0
  0
VERTEX
  8
0
 10
9.48807
 20
13.7402
 30
0.0
 40
0
 41
0
  0
VERTEX
  8
0
 10
9.37636
 20
13.6622
 30
0.0
 40
0
 41
0
  0
VERTEX
  8
0
 10
9.28065
 20
13.5704
 30
0.0
 40
0
 41
0
  0
VERTEX
  8
0
 10
9.20079
 20
13.467
 30
0.0
 40
0
 41
0
  0
VERTEX
  8
0
 10
9.13667
 20
13.3538
 30
0.0
 40
0
 41
0
  0
VERTEX
  8
0
 10
9.08817
 20
13.2333
 30
0.0
 40
0
 41
0
  0
VERTEX
  8
0
 10
9.05528
 20
13.1073
 30
0.0
 40
0
 41
0
  0
VERTEX
  8
0
 10
9.03782
 20
12.978
 30
0.0
 40
0
 41
0
  0
VERTEX
  8
0
 10
9.03581
 20
12.8474
 30
0.0
 40
0
 41
0
  0
VERTEX
  8
0
 10
9.0491
 20
12.7178
 30
0.0
 40
0
 41
0
  0
VERTEX
  8
0
 10
9.07753
 20
12.591
 30
0.0
 40
0
 41
0
  0
VERTEX
  8
0
 10
9.12115
 20
12.4693
 30
0.0
 40
0
 41
0
  0
VERTEX
  8
0
 10
9.17974
 20
12.3548
 30
0.0
 40
0
 41
0
  0
VERTEX
  8
0
 10
9.25331
 20
12.2494
 30
0.0
 40
0
 41
0
  0
VERTEX
  8
0
 10
9.34174
 20
12.1553
 30
0.0
 40
0
 41
0
  0
VERTEX
  8
0
 10
9.44493
 20
12.0747
 30
0.0
 40
0
 41
0
  0
VERTEX
  8
0
 10
9.56278
 20
12.0095
 30
0.0
 40
0
 41
0
  0
VERTEX
  8
0
 10
9.66428
 20
11.9749
 30
0.0
 40
0
 41
0
  0
VERTEX
  8
0
 10
9.78114
 20
11.954
 30
0.0
 40
0
 41
0
  0
VERTEX
  8
0
 10
9.90756
 20
11.9465
 30
0.0
 40
0
 41
0
  0
VERTEX
  8
0
 10
10.0377
 20
11.9517
 30
0.0
 40
0
 41
0
  0
VERTEX
  8
0
 10
10.1658
 20
11.9691
 30
0.0
 40
0
 41
0
  0
VERTEX
  8
0
 10
10.2861
 20
11.9983
 30
0.0
 40
0
 41
0
  0
VERTEX
  8
0
 10
10.3927
 20
12.0387
 30
0.0
 40
0
 41
0
  0
VERTEX
  8
0
 10
10.48
 20
12.0898
 30
0.0
 40
0
 41
0
  0
SEQEND
 8
0
  0
POLYLINE
  8
0
 62
     0
 66
     1
 10
0
 20
0
 30
0.0
 70
     1
 40
0
 41
0
  0
VERTEX
  8
0
 10
22.7418
 20
12.087
 30
0.0
 40
0
 41
0
  0
VERTEX
  8
0
 10
22.8351
 20
12.1676
 30
0.0
 40
0
 41
0
  0
VERTEX
  8
0
 10
22.9196
 20
12.265
 30
0.0
 40
0
 41
0
  0
VERTEX
  8
0
 10
22.9933
 20
12.3755
 30
0.0
 40
0
 41
0
  0
VERTEX
  8
0
 10
23.0546
 20
12.4953
 30
0.0
 40
0
 41
0
  0
VERTEX
  8
0
 10
23.1019
 20
12.6207
 30
0.0
 40
0
 41
0
  0
VERTEX
  8
0
 10
23.1336
 20
12.7479
 30
0.0
 40
0
 41
0
  0
VERTEX
  8
0
 10
23.1478
 20
12.873
 30
0.0
 40
0
 41
0
  0
VERTEX
  8
0
 10
23.1431
 20
12.9925
 30
0.0
 40
0
 41
0
  0
VERTEX
  8
0
 10
23.0979
 20
13.1934
 30
0.0
 40
0
 41
0
  0
VERTEX
  8
0
 10
23.0193
 20
13.3754
 30
0.0
 40
0
 41
0
  0
VERTEX
  8
0
 10
22.9115
 20
13.5349
 30
0.0
 40
0
 41
0
  0
VERTEX
  8
0
 10
22.7793
 20
13.6681
 30
0.0
 40
0
 41
0
  0
VERTEX
  8
0
 10
22.6271
 20
13.7712
 30
0.0
 40
0
 41
0
  0
VERTEX
  8
0
 10
22.4593
 20
13.8404
 30
0.0
 40
0
 41
0
  0
VERTEX
  8
0
 10
22.2807
 20
13.8721
 30
0.0
 40
0
 41
0
  0
VERTEX
  8
0
 10
22.0956
 20
13.8624
 30
0.0
 40
0
 41
0
  0
VERTEX
  8
0
 10
21.9333
 20
13.8199
 30
0.0
 40
0
 41
0
  0
VERTEX
  8
0
 10
21.7889
 20
13.7524
 30
0.0
 40
0
 41
0
  0
VERTEX
  8
0
 10
21.6625
 20
13.6631
 30
0.0
 40
0
 41
0
  0
VERTEX
  8
0
 10
21.5549
 20
13.5552
 30
0.0
 40
0
 41
0
  0
VERTEX
  8
0
 10
21.4662
 20
13.4321
 30
0.0
 40
0
 41
0
  0
VERTEX
  8
0
 10
21.3969
 20
13.2968
 30
0.0
 40
0
 41
0
  0
VERTEX
  8
0
 10
21.3475
 20
13.1527
 30
0.0
 40
0
 41
0
  0
VERTEX
  8
0
 10
21.3182
 20
13.0029
 30
0.0
 40
0
 41
0
  0
VERTEX
  8
0
 10
21.3096
 20
12.8509
 30
0.0
 40
0
 41
0
  0
VERTEX
  8
0
 10
21.3219
 20
12.6996
 30
0.0
 40
0
 41
0
  0
VERTEX
  8
0
 10
21.3557
 20
12.5525
 30
0.0
 40
0
 41
0
  0
VERTEX
  8
0
 10
21.4114
 20
12.4127
 30
0.0
 40
0
 41
0
  0
VERTEX
  8
0
 10
21.4893
 20
12.2834
 30
0.0
 40
0
 41
0
  0
VERTEX
  8
0
 10
21.5899
 20
12.1679
 30
0.0
 40
0
 41
0
  0
VERTEX
  8
0
 10
21.7136
 20
12.0696
 30
0.0
 40
0
 41
0
  0
VERTEX
  8
0
 10
21.8607
 20
11.9914
 30
0.0
 40
0
 41
0
  0
VERTEX
  8
0
 10
21.9529
 20
11.9639
 30
0.0
 40
0
 41
0
  0
VERTEX
  8
0
 10
22.0635
 20
11.9491
 30
0.0
 40
0
 41
0
  0
VERTEX
  8
0
 10
22.1857
 20
11.9463
 30
0.0
 40
0
 41
0
  0
VERTEX
  8
0
 10
22.3131
 20
11.9548
 30
0.0
 40
0
 41
0
  0
VERTEX
  8
0
 10
22.4389
 20
11.9738
 30
0.0
 40
0
 41
0
  0
VERTEX
  8
0
 10
22.5567
 20
12.0027
 30
0.0
 40
0
 41
0
  0
VERTEX
  8
0
 10
22.6599
 20
12.0406
 30
0.0
 40
0
 41
0
  0
VERTEX
  8
0
 10
22.7418
 20
12.087
 30
0.0
 40
0
 41
0
  0
SEQEND
 8
0
  0
POLYLINE
  8
0
 62
     0
 66
     1
 10
0
 20
0
 30
0.0
 70
     1
 40
0
 41
0
  0
VERTEX
  8
0
 10
13.1664
 20
14.6217
 30
0.0
 40
0
 41
0
  0
VERTEX
  8
0
 10
13.1638
 20
16.5412
 30
0.0
 40
0
 41
0
  0
VERTEX
  8
0
 10
12.5133
 20
15.8568
 30
0.0
 40
0
 41
0
  0
VERTEX
  8
0
 10
11.8628
 20
15.1722
 30
0.0
 40
0
 41
0
  0
VERTEX
  8
0
 10
11.8612
 20
13.9371
 30
0.0
 40
0
 41
0
  0
VERTEX
  8
0
 10
11.8595
 20
12.702
 30
0.0
 40
0
 41
0
  0
VERTEX
  8
0
 10
13.169
 20
12.702
 30
0.0
 40
0
 41
0
  0
VERTEX
  8
0
 10
13.1664
 20
14.6217
 30
0.0
 40
0
 41
0
  0
SEQEND
 8
0
  0
POLYLINE
  8
0
 62
     0
 66
     1
 10
0
 20
0
 30
0.0
 70
     1
 40
0
 41
0
  0
VERTEX
  8
0
 10
15.7285
 20
15.0532
 30
0.0
 40
0
 41
0
  0
VERTEX
  8
0
 10
15.7285
 20
17.4043
 30
0.0
 40
0
 41
0
  0
VERTEX
  8
0
 10
13.8833
 20
17.4043
 30
0.0
 40
0
 41
0
  0
VERTEX
  8
0
 10
13.8833
 20
12.702
 30
0.0
 40
0
 41
0
  0
VERTEX
  8
0
 10
15.7285
 20
12.702
 30
0.0
 40
0
 41
0
  0
VERTEX
  8
0
 10
15.7285
 20
15.0532
 30
0.0
 40
0
 41
0
  0
SEQEND
 8
0
  0
POLYLINE
  8
0
 62
     0
 66
     1
 10
0
 20
0
 30
0.0
 70
     1
 40
0
 41
0
  0
VERTEX
  8
0
 10
18.2881
 20
15.0532
 30
0.0
 40
0
 41
0
  0
VERTEX
  8
0
 10
18.2881
 20
17.4043
 30
0.0
 40
0
 41
0
  0
VERTEX
  8
0
 10
16.4428
 20
17.4043
 30
0.0
 40
0
 41
0
  0
VERTEX
  8
0
 10
16.4428
 20
12.702
 30
0.0
 40
0
 41
0
  0
VERTEX
  8
0
 10
18.2881
 20
12.702
 30
0.0
 40
0
 41
0
  0
VERTEX
  8
0
 10
18.2881
 20
15.0532
 30
0.0
 40
0
 41
0
  0
SEQEND
 8
0
  0
POLYLINE
  8
0
 62
     0
 66
     1
 10
0
 20
0
 30
0.0
 70
     1
 40
0
 41
0
  0
VERTEX
  8
0
 10
20.3565
 20
13.9222
 30
0.0
 40
0
 41
0
  0
VERTEX
  8
0
 10
20.3712
 20
15.1126
 30
0.0
 40
0
 41
0
  0
VERTEX
  8
0
 10
19.6897
 20
15.8269
 30
0.0
 40
0
 41
0
  0
VERTEX
  8
0
 10
19.0082
 20
16.5412
 30
0.0
 40
0
 41
0
  0
VERTEX
  8
0
 10
19.0024
 20
12.6981
 30
0.0
 40
0
 41
0
  0
VERTEX
  8
0
 10
19.6719
 20
12.7149
 30
0.0
 40
0
 41
0
  0
VERTEX
  8
0
 10
20.3417
 20
12.7318
 30
0.0
 40
0
 41
0
  0
VERTEX
  8
0
 10
20.3565
 20
13.9222
 30
0.0
 40
0
 41
0
  0
SEQEND
 8
0
  0
POLYLINE
  8
0
 62
     0
 66
     1
 10
0
 20
0
 30
0.0
 70
     1
 40
0
 41
0
  0
VERTEX
  8
0
 10
4.23807
 20
14.5324
 30
0.0
 40
0
 41
0
  0
VERTEX
  8
0
 10
4.25276
 20
14.5474
 30
0.0
 40
0
 41
0
  0
VERTEX
  8
0
 10
4.26861
 20
14.5669
 30
0.0
 40
0
 41
0
  0
VERTEX
  8
0
 10
4.28575
 20
14.5912
 30
0.0
 40
0
 41
0
  0
VERTEX
  8
0
 10
4.30453
 20
14.6211
 30
0.0
 40
0
 41
0
  0
VERTEX
  8
0
 10
4.32497
 20
14.6569
 30
0.0
 40
0
 41
0
  0
VERTEX
  8
0
 10
4.34744
 20
14.6993
 30
0.0
 40
0
 41
0
  0
VERTEX
  8
0
 10
4.37213
 20
14.7488
 30
0.0
 40
0
 41
0
  0
VERTEX
  8
0
 10
4.39914
 20
14.8058
 30
0.0
 40
0
 41
0
  0
VERTEX
  8
0
 10
4.42882
 20
14.8712
 30
0.0
 40
0
 41
0
  0
VERTEX
  8
0
 10
4.46132
 20
14.9453
 30
0.0
 40
0
 41
0
  0
VERTEX
  8
0
 10
4.49681
 20
15.0285
 30
0.0
 40
0
 41
0
  0
VERTEX
  8
0
 10
4.5356
 20
15.1217
 30
0.0
 40
0
 41
0
  0
VERTEX
  8
0
 10
4.57781
 20
15.2251
 30
0.0
 40
0
 41
0
  0
VERTEX
  8
0
 10
4.62364
 20
15.3396
 30
0.0
 40
0
 41
0
  0
VERTEX
  8
0
 10
4.67344
 20
15.4654
 30
0.0
 40
0
 41
0
  0
VERTEX
  8
0
 10
4.72726
 20
15.6033
 30
0.0
 40
0
 41
0
  0
VERTEX
  8
0
 10
4.78543
 20
15.7538
 30
0.0
 40
0
 41
0
  0
VERTEX
  8
0
 10
4.8481
 20
15.9172
 30
0.0
 40
0
 41
0
  0
VERTEX
  8
0
 10
4.91553
 20
16.0944
 30
0.0
 40
0
 41
0
  0
VERTEX
  8
0
 10
4.98785
 20
16.2857
 30
0.0
 40
0
 41
0
  0
VERTEX
  8
0
 10
5.06532
 20
16.4918
 30
0.0
 40
0
 41
0
  0
VERTEX
  8
0
 10
5.14817
 20
16.7131
 30
0.0
 40
0
 41
0
  0
VERTEX
  8
0
 10
5.2366
 20
16.9501
 30
0.0
 40
0
 41
0
  0
VERTEX
  8
0
 10
5.33083
 20
17.2036
 30
0.0
 40
0
 41
0
  0
VERTEX
  8
0
 10
5.43099
 20
17.474
 30
0.0
 40
0
 41
0
  0
VERTEX
  8
0
 10
5.53743
 20
17.7619
 30
0.0
 40
0
 41
0
  0
VERTEX
  8
0
 10
5.65028
 20
18.0678
 30
0.0
 40
0
 41
0
  0
VERTEX
  8
0
 10
5.76975
 20
18.3921
 30
0.0
 40
0
 41
0
  0
VERTEX
  8
0
 10
5.89606
 20
18.7356
 30
0.0
 40
0
 41
0
  0
VERTEX
  8
0
 10
6.0294
 20
19.0987
 30
0.0
 40
0
 41
0
  0
VERTEX
  8
0
 10
6.17003
 20
19.4819
 30
0.0
 40
0
 41
0
  0
VERTEX
  8
0
 10
6.31819
 20
19.886
 30
0.0
 40
0
 41
0
  0
VERTEX
  8
0
 10
6.51303
 20
20.4172
 30
0.0
 40
0
 41
0
  0
VERTEX
  8
0
 10
6.70464
 20
20.9385
 30
0.0
 40
0
 41
0
  0
VERTEX
  8
0
 10
6.89188
 20
21.4472
 30
0.0
 40
0
 41
0
  0
VERTEX
  8
0
 10
7.07362
 20
21.94
 30
0.0
 40
0
 41
0
  0
VERTEX
  8
0
 10
7.24881
 20
22.4143
 30
0.0
 40
0
 41
0
  0
VERTEX
  8
0
 10
7.41639
 20
22.8671
 30
0.0
 40
0
 41
0
  0
VERTEX
  8
0
 10
7.57531
 20
23.2954
 30
0.0
 40
0
 41
0
  0
VERTEX
  8
0
 10
7.72439
 20
23.6963
 30
0.0
 40
0
 41
0
  0
VERTEX
  8
0
 10
7.86257
 20
24.0669
 30
0.0
 40
0
 41
0
  0
VERTEX
  8
0
 10
7.98882
 20
24.4046
 30
0.0
 40
0
 41
0
  0
VERTEX
  8
0
 10
8.102
 20
24.7058
 30
0.0
 40
0
 41
0
  0
VERTEX
  8
0
 10
8.20107
 20
24.9683
 30
0.0
 40
0
 41
0
  0
VERTEX
  8
0
 10
8.28489
 20
25.1887
 30
0.0
 40
0
 41
0
  0
VERTEX
  8
0
 10
8.35243
 20
25.3644
 30
0.0
 40
0
 41
0
  0
VERTEX
  8
0
 10
8.40256
 20
25.4924
 30
0.0
 40
0
 41
0
  0
VERTEX
  8
0
 10
8.43425
 20
25.5694
 30
0.0
 40
0
 41
0
  0
VERTEX
  8
0
 10
8.5905
 20
25.9124
 30
0.0
 40
0
 41
0
  0
VERTEX
  8
0
 10
8.7519
 20
26.2307
 30
0.0
 40
0
 41
0
  0
VERTEX
  8
0
 10
8.91917
 20
26.525
 30
0.0
 40
0
 41
0
  0
VERTEX
  8
0
 10
9.09299
 20
26.7961
 30
0.0
 40
0
 41
0
  0
VERTEX
  8
0
 10
9.27408
 20
27.0444
 30
0.0
 40
0
 41
0
  0
VERTEX
  8
0
 10
9.46326
 20
27.2706
 30
0.0
 40
0
 41
0
  0
VERTEX
  8
0
 10
9.66129
 20
27.4751
 30
0.0
 40
0
 41
0
  0
VERTEX
  8
0
 10
9.86882
 20
27.6588
 30
0.0
 40
0
 41
0
  0
VERTEX
  8
0
 10
10.0866
 20
27.8222
 30
0.0
 40
0
 41
0
  0
VERTEX
  8
0
 10
10.3154
 20
27.9658
 30
0.0
 40
0
 41
0
  0
VERTEX
  8
0
 10
10.556
 20
28.0903
 30
0.0
 40
0
 41
0
  0
VERTEX
  8
0
 10
10.8091
 20
28.1963
 30
0.0
 40
0
 41
0
  0
VERTEX
  8
0
 10
11.0754
 20
28.2842
 30
0.0
 40
0
 41
0
  0
VERTEX
  8
0
 10
11.3557
 20
28.355
 30
0.0
 40
0
 41
0
  0
VERTEX
  8
0
 10
11.6507
 20
28.409
 30
0.0
 40
0
 41
0
  0
VERTEX
  8
0
 10
11.9612
 20
28.4469
 30
0.0
 40
0
 41
0
  0
VERTEX
  8
0
 10
12.2824
 20
28.46
 30
0.0
 40
0
 41
0
  0
VERTEX
  8
0
 10
12.6144
 20
28.4403
 30
0.0
 40
0
 41
0
  0
VERTEX
  8
0
 10
12.9536
 20
28.3888
 30
0.0
 40
0
 41
0
  0
VERTEX
  8
0
 10
13.2967
 20
28.3065
 30
0.0
 40
0
 41
0
  0
VERTEX
  8
0
 10
13.6403
 20
28.1944
 30
0.0
 40
0
 41
0
  0
VERTEX
  8
0
 10
13.9808
 20
28.0533
 30
0.0
 40
0
 41
0
  0
VERTEX
  8
0
 10
14.3151
 20
27.8844
 30
0.0
 40
0
 41
0
  0
VERTEX
  8
0
 10
14.6397
 20
27.6885
 30
0.0
 40
0
 41
0
  0
VERTEX
  8
0
 10
14.8583
 20
27.5497
 30
0.0
 40
0
 41
0
  0
VERTEX
  8
0
 10
15.0546
 20
27.436
 30
0.0
 40
0
 41
0
  0
VERTEX
  8
0
 10
15.2342
 20
27.3453
 30
0.0
 40
0
 41
0
  0
VERTEX
  8
0
 10
15.4022
 20
27.2756
 30
0.0
 40
0
 41
0
  0
VERTEX
  8
0
 10
15.5646
 20
27.2247
 30
0.0
 40
0
 41
0
  0
VERTEX
  8
0
 10
15.7265
 20
27.191
 30
0.0
 40
0
 41
0
  0
VERTEX
  8
0
 10
15.8936
 20
27.1724
 30
0.0
 40
0
 41
0
  0
VERTEX
  8
0
 10
16.0714
 20
27.1667
 30
0.0
 40
0
 41
0
  0
VERTEX
  8
0
 10
16.2637
 20
27.1704
 30
0.0
 40
0
 41
0
  0
VERTEX
  8
0
 10
16.4314
 20
27.1835
 30
0.0
 40
0
 41
0
  0
VERTEX
  8
0
 10
16.5839
 20
27.209
 30
0.0
 40
0
 41
0
  0
VERTEX
  8
0
 10
16.7307
 20
27.2506
 30
0.0
 40
0
 41
0
  0
VERTEX
  8
0
 10
16.8814
 20
27.3114
 30
0.0
 40
0
 41
0
  0
VERTEX
  8
0
 10
17.0457
 20
27.3946
 30
0.0
 40
0
 41
0
  0
VERTEX
  8
0
 10
17.2332
 20
27.5036
 30
0.0
 40
0
 41
0
  0
VERTEX
  8
0
 10
17.4535
 20
27.6417
 30
0.0
 40
0
 41
0
  0
VERTEX
  8
0
 10
17.9039
 20
27.9075
 30
0.0
 40
0
 41
0
  0
VERTEX
  8
0
 10
18.345
 20
28.12
 30
0.0
 40
0
 41
0
  0
VERTEX
  8
0
 10
18.7806
 20
28.2803
 30
0.0
 40
0
 41
0
  0
VERTEX
  8
0
 10
19.2138
 20
28.3886
 30
0.0
 40
0
 41
0
  0
VERTEX
  8
0
 10
19.6485
 20
28.4457
 30
0.0
 40
0
 41
0
  0
VERTEX
  8
0
 10
20.0881
 20
28.4525
 30
0.0
 40
0
 41
0
  0
VERTEX
  8
0
 10
20.5362
 20
28.4096
 30
0.0
 40
0
 41
0
  0
VERTEX
  8
0
 10
20.9964
 20
28.3175
 30
0.0
 40
0
 41
0
  0
VERTEX
  8
0
 10
21.4064
 20
28.1871
 30
0.0
 40
0
 41
0
  0
VERTEX
  8
0
 10
21.7911
 20
28.0058
 30
0.0
 40
0
 41
0
  0
VERTEX
  8
0
 10
22.1521
 20
27.7722
 30
0.0
 40
0
 41
0
  0
VERTEX
  8
0
 10
22.4906
 20
27.4849
 30
0.0
 40
0
 41
0
  0
VERTEX
  8
0
 10
22.8083
 20
27.1424
 30
0.0
 40
0
 41
0
  0
VERTEX
  8
0
 10
23.1065
 20
26.7433
 30
0.0
 40
0
 41
0
  0
VERTEX
  8
0
 10
23.3868
 20
26.2864
 30
0.0
 40
0
 41
0
  0
VERTEX
  8
0
 10
23.6507
 20
25.77
 30
0.0
 40
0
 41
0
  0
VERTEX
  8
0
 10
23.6843
 20
25.6925
 30
0.0
 40
0
 41
0
  0
VERTEX
  8
0
 10
23.7367
 20
25.5632
 30
0.0
 40
0
 41
0
  0
VERTEX
  8
0
 10
23.8067
 20
25.3851
 30
0.0
 40
0
 41
0
  0
VERTEX
  8
0
 10
23.8932
 20
25.1614
 30
0.0
 40
0
 41
0
  0
VERTEX
  8
0
 10
23.9953
 20
24.8949
 30
0.0
 40
0
 41
0
  0
VERTEX
  8
0
 10
24.1117
 20
24.5885
 30
0.0
 40
0
 41
0
  0
VERTEX
  8
0
 10
24.2414
 20
24.2453
 30
0.0
 40
0
 41
0
  0
VERTEX
  8
0
 10
24.3831
 20
23.8681
 30
0.0
 40
0
 41
0
  0
VERTEX
  8
0
 10
24.5358
 20
23.4601
 30
0.0
 40
0
 41
0
  0
VERTEX
  8
0
 10
24.6985
 20
23.024
 30
0.0
 40
0
 41
0
  0
VERTEX
  8
0
 10
24.8699
 20
22.5631
 30
0.0
 40
0
 41
0
  0
VERTEX
  8
0
 10
25.049
 20
22.08
 30
0.0
 40
0
 41
0
  0
VERTEX
  8
0
 10
25.2346
 20
21.5779
 30
0.0
 40
0
 41
0
  0
VERTEX
  8
0
 10
25.4257
 20
21.0597
 30
0.0
 40
0
 41
0
  0
VERTEX
  8
0
 10
25.6211
 20
20.5283
 30
0.0
 40
0
 41
0
  0
VERTEX
  8
0
 10
25.8199
 20
19.9868
 30
0.0
 40
0
 41
0
  0
VERTEX
  8
0
 10
26.0133
 20
19.4583
 30
0.0
 40
0
 41
0
  0
VERTEX
  8
0
 10
26.1944
 20
18.964
 30
0.0
 40
0
 41
0
  0
VERTEX
  8
0
 10
26.3635
 20
18.5028
 30
0.0
 40
0
 41
0
  0
VERTEX
  8
0
 10
26.5211
 20
18.0733
 30
0.0
 40
0
 41
0
  0
VERTEX
  8
0
 10
26.6676
 20
17.6747
 30
0.0
 40
0
 41
0
  0
VERTEX
  8
0
 10
26.8038
 20
17.3057
 30
0.0
 40
0
 41
0
  0
VERTEX
  8
0
 10
26.9299
 20
16.9653
 30
0.0
 40
0
 41
0
  0
VERTEX
  8
0
 10
27.0465
 20
16.6521
 30
0.0
 40
0
 41
0
  0
VERTEX
  8
0
 10
27.1543
 20
16.3651
 30
0.0
 40
0
 41
0
  0
VERTEX
  8
0
 10
27.2538
 20
16.1032
 30
0.0
 40
0
 41
0
  0
VERTEX
  8
0
 10
27.3451
 20
15.8651
 30
0.0
 40
0
 41
0
  0
VERTEX
  8
0
 10
27.4293
 20
15.6499
 30
0.0
 40
0
 41
0
  0
VERTEX
  8
0
 10
27.5064
 20
15.4562
 30
0.0
 40
0
 41
0
  0
VERTEX
  8
0
 10
27.5774
 20
15.2832
 30
0.0
 40
0
 41
0
  0
VERTEX
  8
0
 10
27.6424
 20
15.1294
 30
0.0
 40
0
 41
0
  0
VERTEX
  8
0
 10
27.7021
 20
14.9938
 30
0.0
 40
0
 41
0
  0
VERTEX
  8
0
 10
27.7569
 20
14.8753
 30
0.0
 40
0
 41
0
  0
VERTEX
  8
0
 10
27.8076
 20
14.7726
 30
0.0
 40
0
 41
0
  0
VERTEX
  8
0
 10
27.8544
 20
14.6849
 30
0.0
 40
0
 41
0
  0
VERTEX
  8
0
 10
27.8981
 20
14.6107
 30
0.0
 40
0
 41
0
  0
VERTEX
  8
0
 10
27.9389
 20
14.549
 30
0.0
 40
0
 41
0
  0
VERTEX
  8
0
 10
27.9775
 20
14.4988
 30
0.0
 40
0
 41
0
  0
VERTEX
  8
0
 10
28.0144
 20
14.4586
 30
0.0
 40
0
 41
0
  0
VERTEX
  8
0
 10
28.0501
 20
14.4275
 30
0.0
 40
0
 41
0
  0
VERTEX
  8
0
 10
28.0851
 20
14.4044
 30
0.0
 40
0
 41
0
  0
VERTEX
  8
0
 10
28.12
 20
14.3881
 30
0.0
 40
0
 41
0
  0
VERTEX
  8
0
 10
28.1553
 20
14.3774
 30
0.0
 40
0
 41
0
  0
VERTEX
  8
0
 10
28.1913
 20
14.3712
 30
0.0
 40
0
 41
0
  0
VERTEX
  8
0
 10
28.2286
 20
14.3683
 30
0.0
 40
0
 41
0
  0
VERTEX
  8
0
 10
28.2681
 20
14.3678
 30
0.0
 40
0
 41
0
  0
VERTEX
  8
0
 10
28.3097
 20
14.3683
 30
0.0
 40
0
 41
0
  0
VERTEX
  8
0
 10
28.3544
 20
14.3686
 30
0.0
 40
0
 41
0
  0
VERTEX
  8
0
 10
28.4842
 20
14.3772
 30
0.0
 40
0
 41
0
  0
VERTEX
  8
0
 10
28.5896
 20
14.4083
 30
0.0
 40
0
 41
0
  0
VERTEX
  8
0
 10
28.6888
 20
14.4703
 30
0.0
 40
0
 41
0
  0
VERTEX
  8
0
 10
28.8
 20
14.571
 30
0.0
 40
0
 41
0
  0
VERTEX
  8
0
 10
28.9025
 20
14.6837
 30
0.0
 40
0
 41
0
  0
VERTEX
  8
0
 10
28.9642
 20
14.7842
 30
0.0
 40
0
 41
0
  0
VERTEX
  8
0
 10
28.9943
 20
14.8932
 30
0.0
 40
0
 41
0
  0
VERTEX
  8
0
 10
29.0024
 20
15.0325
 30
0.0
 40
0
 41
0
  0
VERTEX
  8
0
 10
28.9965
 20
15.0828
 30
0.0
 40
0
 41
0
  0
VERTEX
  8
0
 10
28.9787
 20
15.1631
 30
0.0
 40
0
 41
0
  0
VERTEX
  8
0
 10
28.9483
 20
15.2749
 30
0.0
 40
0
 41
0
  0
VERTEX
  8
0
 10
28.9047
 20
15.42
 30
0.0
 40
0
 41
0
  0
VERTEX
  8
0
 10
28.8472
 20
15.6004
 30
0.0
 40
0
 41
0
  0
VERTEX
  8
0
 10
28.7753
 20
15.8176
 30
0.0
 40
0
 41
0
  0
VERTEX
  8
0
 10
28.6882
 20
16.0736
 30
0.0
 40
0
 41
0
  0
VERTEX
  8
0
 10
28.5854
 20
16.37
 30
0.0
 40
0
 41
0
  0
VERTEX
  8
0
 10
28.4664
 20
16.7088
 30
0.0
 40
0
 41
0
  0
VERTEX
  8
0
 10
28.3304
 20
17.0914
 30
0.0
 40
0
 41
0
  0
VERTEX
  8
0
 10
28.1768
 20
17.5199
 30
0.0
 40
0
 41
0
  0
VERTEX
  8
0
 10
28.005
 20
17.9958
 30
0.0
 40
0
 41
0
  0
VERTEX
  8
0
 10
27.8144
 20
18.5211
 30
0.0
 40
0
 41
0
  0
VERTEX
  8
0
 10
27.6044
 20
19.0975
 30
0.0
 40
0
 41
0
  0
VERTEX
  8
0
 10
27.3744
 20
19.7267
 30
0.0
 40
0
 41
0
  0
VERTEX
  8
0
 10
27.1239
 20
20.4104
 30
0.0
 40
0
 41
0
  0
VERTEX
  8
0
 10
26.9404
 20
20.9104
 30
0.0
 40
0
 41
0
  0
VERTEX
  8
0
 10
26.7674
 20
21.3817
 30
0.0
 40
0
 41
0
  0
VERTEX
  8
0
 10
26.6046
 20
21.8249
 30
0.0
 40
0
 41
0
  0
VERTEX
  8
0
 10
26.4514
 20
22.2411
 30
0.0
 40
0
 41
0
  0
VERTEX
  8
0
 10
26.3078
 20
22.6315
 30
0.0
 40
0
 41
0
  0
VERTEX
  8
0
 10
26.1731
 20
22.9969
 30
0.0
 40
0
 41
0
  0
VERTEX
  8
0
 10
26.0469
 20
23.3385
 30
0.0
 40
0
 41
0
  0
VERTEX
  8
0
 10
25.929
 20
23.6571
 30
0.0
 40
0
 41
0
  0
VERTEX
  8
0
 10
25.8189
 20
23.9538
 30
0.0
 40
0
 41
0
  0
VERTEX
  8
0
 10
25.7162
 20
24.2294
 30
0.0
 40
0
 41
0
  0
VERTEX
  8
0
 10
25.6206
 20
24.4851
 30
0.0
 40
0
 41
0
  0
VERTEX
  8
0
 10
25.5315
 20
24.7221
 30
0.0
 40
0
 41
0
  0
VERTEX
  8
0
 10
25.4488
 20
24.941
 30
0.0
 40
0
 41
0
  0
VERTEX
  8
0
 10
25.3719
 20
25.1429
 30
0.0
 40
0
 41
0
  0
VERTEX
  8
0
 10
25.3006
 20
25.3289
 30
0.0
 40
0
 41
0
  0
VERTEX
  8
0
 10
25.2343
 20
25.5
 30
0.0
 40
0
 41
0
  0
VERTEX
  8
0
 10
25.1726
 20
25.6569
 30
0.0
 40
0
 41
0
  0
VERTEX
  8
0
 10
25.1154
 20
25.8011
 30
0.0
 40
0
 41
0
  0
VERTEX
  8
0
 10
25.0621
 20
25.9333
 30
0.0
 40
0
 41
0
  0
VERTEX
  8
0
 10
25.0122
 20
26.0546
 30
0.0
 40
0
 41
0
  0
VERTEX
  8
0
 10
24.9657
 20
26.1658
 30
0.0
 40
0
 41
0
  0
VERTEX
  8
0
 10
24.9218
 20
26.2681
 30
0.0
 40
0
 41
0
  0
VERTEX
  8
0
 10
24.8803
 20
26.3625
 30
0.0
 40
0
 41
0
  0
VERTEX
  8
0
 10
24.8407
 20
26.4499
 30
0.0
 40
0
 41
0
  0
VERTEX
  8
0
 10
24.8028
 20
26.5313
 30
0.0
 40
0
 41
0
  0
VERTEX
  8
0
 10
24.7661
 20
26.6076
 30
0.0
 40
0
 41
0
  0
VERTEX
  8
0
 10
24.7301
 20
26.68
 30
0.0
 40
0
 41
0
  0
VERTEX
  8
0
 10
24.6947
 20
26.7494
 30
0.0
 40
0
 41
0
  0
VERTEX
  8
0
 10
24.6593
 20
26.8169
 30
0.0
 40
0
 41
0
  0
VERTEX
  8
0
 10
24.6235
 20
26.8835
 30
0.0
 40
0
 41
0
  0
VERTEX
  8
0
 10
24.5869
 20
26.95
 30
0.0
 40
0
 41
0
  0
VERTEX
  8
0
 10
24.5493
 20
27.0175
 30
0.0
 40
0
 41
0
  0
VERTEX
  8
0
 10
24.3396
 20
27.3719
 30
0.0
 40
0
 41
0
  0
VERTEX
  8
0
 10
24.1219
 20
27.7011
 30
0.0
 40
0
 41
0
  0
VERTEX
  8
0
 10
23.8956
 20
28.0054
 30
0.0
 40
0
 41
0
  0
VERTEX
  8
0
 10
23.6601
 20
28.2853
 30
0.0
 40
0
 41
0
  0
VERTEX
  8
0
 10
23.415
 20
28.5408
 30
0.0
 40
0
 41
0
  0
VERTEX
  8
0
 10
23.1597
 20
28.7726
 30
0.0
 40
0
 41
0
  0
VERTEX
  8
0
 10
22.8936
 20
28.9808
 30
0.0
 40
0
 41
0
  0
VERTEX
  8
0
 10
22.6163
 20
29.1658
 30
0.0
 40
0
 41
0
  0
VERTEX
  8
0
 10
22.3269
 20
29.3281
 30
0.0
 40
0
 41
0
  0
VERTEX
  8
0
 10
22.0253
 20
29.4676
 30
0.0
 40
0
 41
0
  0
VERTEX
  8
0
 10
21.7108
 20
29.5851
 30
0.0
 40
0
 41
0
  0
VERTEX
  8
0
 10
21.3826
 20
29.6807
 30
0.0
 40
0
 41
0
  0
VERTEX
  8
0
 10
21.0407
 20
29.7547
 30
0.0
 40
0
 41
0
  0
VERTEX
  8
0
 10
20.684
 20
29.8076
 30
0.0
 40
0
 41
0
  0
VERTEX
  8
0
 10
20.3124
 20
29.8397
 30
0.0
 40
0
 41
0
  0
VERTEX
  8
0
 10
19.925
 20
29.8511
 30
0.0
 40
0
 41
0
  0
VERTEX
  8
0
 10
19.5167
 20
29.8396
 30
0.0
 40
0
 41
0
  0
VERTEX
  8
0
 10
19.125
 20
29.8015
 30
0.0
 40
0
 41
0
  0
VERTEX
  8
0
 10
18.7457
 20
29.7354
 30
0.0
 40
0
 41
0
  0
VERTEX
  8
0
 10
18.3744
 20
29.64
 30
0.0
 40
0
 41
0
  0
VERTEX
  8
0
 10
18.0072
 20
29.5143
 30
0.0
 40
0
 41
0
  0
VERTEX
  8
0
 10
17.6399
 20
29.3569
 30
0.0
 40
0
 41
0
  0
VERTEX
  8
0
 10
17.2681
 20
29.1665
 30
0.0
 40
0
 41
0
  0
VERTEX
  8
0
 10
16.8876
 20
28.9419
 30
0.0
 40
0
 41
0
  0
VERTEX
  8
0
 10
16.6368
 20
28.7894
 30
0.0
 40
0
 41
0
  0
VERTEX
  8
0
 10
16.4303
 20
28.6786
 30
0.0
 40
0
 41
0
  0
VERTEX
  8
0
 10
16.256
 20
28.6089
 30
0.0
 40
0
 41
0
  0
VERTEX
  8
0
 10
16.1018
 20
28.5792
 30
0.0
 40
0
 41
0
  0
VERTEX
  8
0
 10
15.9558
 20
28.589
 30
0.0
 40
0
 41
0
  0
VERTEX
  8
0
 10
15.806
 20
28.6375
 30
0.0
 40
0
 41
0
  0
VERTEX
  8
0
 10
15.64
 20
28.7238
 30
0.0
 40
0
 41
0
  0
VERTEX
  8
0
 10
15.4461
 20
28.8469
 30
0.0
 40
0
 41
0
  0
VERTEX
  8
0
 10
15.0539
 20
29.0931
 30
0.0
 40
0
 41
0
  0
VERTEX
  8
0
 10
14.6681
 20
29.3022
 30
0.0
 40
0
 41
0
  0
VERTEX
  8
0
 10
14.2849
 20
29.4757
 30
0.0
 40
0
 41
0
  0
VERTEX
  8
0
 10
13.9007
 20
29.615
 30
0.0
 40
0
 41
0
  0
VERTEX
  8
0
 10
13.5117
 20
29.721
 30
0.0
 40
0
 41
0
  0
VERTEX
  8
0
 10
13.1143
 20
29.7949
 30
0.0
 40
0
 41
0
  0
VERTEX
  8
0
 10
12.7046
 20
29.8378
 30
0.0
 40
0
 41
0
  0
VERTEX
  8
0
 10
12.2792
 20
29.8511
 30
0.0
 40
0
 41
0
  0
VERTEX
  8
0
 10
11.8517
 20
29.8381
 30
0.0
 40
0
 41
0
  0
VERTEX
  8
0
 10
11.4437
 20
29.8008
 30
0.0
 40
0
 41
0
  0
VERTEX
  8
0
 10
11.0546
 20
29.7389
 30
0.0
 40
0
 41
0
  0
VERTEX
  8
0
 10
10.6834
 20
29.6517
 30
0.0
 40
0
 41
0
  0
VERTEX
  8
0
 10
10.3293
 20
29.5386
 30
0.0
 40
0
 41
0
  0
VERTEX
  8
0
 10
9.9916
 20
29.3992
 30
0.0
 40
0
 41
0
  0
VERTEX
  8
0
 10
9.66932
 20
29.2328
 30
0.0
 40
0
 41
0
  0
VERTEX
  8
0
 10
9.36182
 20
29.0388
 30
0.0
 40
0
 41
0
  0
VERTEX
  8
0
 10
9.06814
 20
28.8168
 30
0.0
 40
0
 41
0
  0
VERTEX
  8
0
 10
8.7876
 20
28.5661
 30
0.0
 40
0
 41
0
  0
VERTEX
  8
0
 10
8.51938
 20
28.2863
 30
0.0
 40
0
 41
0
  0
VERTEX
  8
0
 10
8.26253
 20
27.9765
 30
0.0
 40
0
 41
0
  0
VERTEX
  8
0
 10
8.01639
 20
27.6365
 30
0.0
 40
0
 41
0
  0
VERTEX
  8
0
 10
7.78006
 20
27.2657
 30
0.0
 40
0
 41
0
  0
VERTEX
  8
0
 10
7.55274
 20
26.8633
 30
0.0
 40
0
 41
0
  0
VERTEX
  8
0
 10
7.33371
 20
26.4289
 30
0.0
 40
0
 41
0
  0
VERTEX
  8
0
 10
7.27767
 20
26.305
 30
0.0
 40
0
 41
0
  0
VERTEX
  8
0
 10
7.20443
 20
26.1317
 30
0.0
 40
0
 41
0
  0
VERTEX
  8
0
 10
7.11513
 20
25.9126
 30
0.0
 40
0
 41
0
  0
VERTEX
  8
0
 10
7.01101
 20
25.6513
 30
0.0
 40
0
 41
0
  0
VERTEX
  8
0
 10
6.89339
 20
25.3508
 30
0.0
 40
0
 41
0
  0
VERTEX
  8
0
 10
6.76346
 20
25.015
 30
0.0
 40
0
 41
0
  0
VERTEX
  8
0
 10
6.6225
 20
24.6469
 30
0.0
 40
0
 41
0
  0
VERTEX
  8
0
 10
6.47174
 20
24.2503
 30
0.0
 40
0
 41
0
  0
VERTEX
  8
0
 10
6.3125
 20
23.8282
 30
0.0
 40
0
 41
0
  0
VERTEX
  8
0
 10
6.14594
 20
23.3844
 30
0.0
 40
0
 41
0
  0
VERTEX
  8
0
 10
5.97331
 20
22.9222
 30
0.0
 40
0
 41
0
  0
VERTEX
  8
0
 10
5.79596
 20
22.445
 30
0.0
 40
0
 41
0
  0
VERTEX
  8
0
 10
5.61501
 20
21.9561
 30
0.0
 40
0
 41
0
  0
VERTEX
  8
0
 10
5.43186
 20
21.4592
 30
0.0
 40
0
 41
0
  0
VERTEX
  8
0
 10
5.24761
 20
20.9575
 30
0.0
 40
0
 41
0
  0
VERTEX
  8
0
 10
5.06358
 20
20.4546
 30
0.0
 40
0
 41
0
  0
VERTEX
  8
0
 10
4.88108
 20
19.9538
 30
0.0
 40
0
 41
0
  0
VERTEX
  8
0
 10
4.70122
 20
19.4583
 30
0.0
 40
0
 41
0
  0
VERTEX
  8
0
 10
4.52539
 20
18.9721
 30
0.0
 40
0
 41
0
  0
VERTEX
  8
0
 10
4.35471
 20
18.4982
 30
0.0
 40
0
 41
0
  0
VERTEX
  8
0
 10
4.19054
 20
18.04
 30
0.0
 40
0
 41
0
  0
VERTEX
  8
0
 10
4.03407
 20
17.6011
 30
0.0
 40
0
 41
0
  0
VERTEX
  8
0
 10
3.88661
 20
17.185
 30
0.0
 40
0
 41
0
  0
VERTEX
  8
0
 10
3.74929
 20
16.7949
 30
0.0
 40
0
 41
0
  0
VERTEX
  8
0
 10
3.62349
 20
16.4342
 30
0.0
 40
0
 41
0
  0
VERTEX
  8
0
 10
3.51042
 20
16.1065
 30
0.0
 40
0
 41
0
  0
VERTEX
  8
0
 10
3.41129
 20
15.8153
 30
0.0
 40
0
 41
0
  0
VERTEX
  8
0
 10
3.32742
 20
15.5637
 30
0.0
 40
0
 41
0
  0
VERTEX
  8
0
 10
3.25999
 20
15.3554
 30
0.0
 40
0
 41
0
  0
VERTEX
  8
0
 10
3.21024
 20
15.1937
 30
0.0
 40
0
 41
0
  0
VERTEX
  8
0
 10
3.17953
 20
15.0821
 30
0.0
 40
0
 41
0
  0
VERTEX
  8
0
 10
3.169
 20
15.0239
 30
0.0
 40
0
 41
0
  0
VERTEX
  8
0
 10
3.17725
 20
14.8899
 30
0.0
 40
0
 41
0
  0
VERTEX
  8
0
 10
3.2079
 20
14.7826
 30
0.0
 40
0
 41
0
  0
VERTEX
  8
0
 10
3.26969
 20
14.6829
 30
0.0
 40
0
 41
0
  0
VERTEX
  8
0
 10
3.37136
 20
14.571
 30
0.0
 40
0
 41
0
  0
VERTEX
  8
0
 10
3.47467
 20
14.4824
 30
0.0
 40
0
 41
0
  0
VERTEX
  8
0
 10
3.58251
 20
14.4175
 30
0.0
 40
0
 41
0
  0
VERTEX
  8
0
 10
3.69336
 20
14.3765
 30
0.0
 40
0
 41
0
  0
VERTEX
  8
0
 10
3.80561
 20
14.3594
 30
0.0
 40
0
 41
0
  0
VERTEX
  8
0
 10
3.91769
 20
14.3665
 30
0.0
 40
0
 41
0
  0
VERTEX
  8
0
 10
4.02815
 20
14.3976
 30
0.0
 40
0
 41
0
  0
VERTEX
  8
0
 10
4.13547
 20
14.4529
 30
0.0
 40
0
 41
0
  0
VERTEX
  8
0
 10
4.23807
 20
14.5324
 30
0.0
 40
0
 41
0
  0
SEQEND
 8
0
  0
POLYLINE
  8
0
 62
     0
 66
     1
 10
0
 20
0
 30
0.0
 70
     1
 40
0
 41
0
  0
VERTEX
  8
0
 10
17.8018
 20
19.2644
 30
0.0
 40
0
 41
0
  0
VERTEX
  8
0
 10
17.7939
 20
19.6042
 30
0.0
 40
0
 41
0
  0
VERTEX
  8
0
 10
17.7853
 20
19.8706
 30
0.0
 40
0
 41
0
  0
VERTEX
  8
0
 10
17.7743
 20
20.0771
 30
0.0
 40
0
 41
0
  0
VERTEX
  8
0
 10
17.7593
 20
20.2372
 30
0.0
 40
0
 41
0
  0
VERTEX
  8
0
 10
17.7386
 20
20.364
 30
0.0
 40
0
 41
0
  0
VERTEX
  8
0
 10
17.7107
 20
20.471
 30
0.0
 40
0
 41
0
  0
VERTEX
  8
0
 10
17.6738
 20
20.5713
 30
0.0
 40
0
 41
0
  0
VERTEX
  8
0
 10
17.6262
 20
20.6782
 30
0.0
 40
0
 41
0
  0
VERTEX
  8
0
 10
17.5492
 20
20.8338
 30
0.0
 40
0
 41
0
  0
VERTEX
  8
0
 10
17.4711
 20
20.9706
 30
0.0
 40
0
 41
0
  0
VERTEX
  8
0
 10
17.3896
 20
21.0912
 30
0.0
 40
0
 41
0
  0
VERTEX
  8
0
 10
17.3022
 20
21.1983
 30
0.0
 40
0
 41
0
  0
VERTEX
  8
0
 10
17.2068
 20
21.2944
 30
0.0
 40
0
 41
0
  0
VERTEX
  8
0
 10
17.1013
 20
21.3821
 30
0.0
 40
0
 41
0
  0
VERTEX
  8
0
 10
16.9828
 20
21.4638
 30
0.0
 40
0
 41
0
  0
VERTEX
  8
0
 10
16.8494
 20
21.5422
 30
0.0
 40
0
 41
0
  0
VERTEX
  8
0
 10
16.7544
 20
21.5924
 30
0.0
 40
0
 41
0
  0
VERTEX
  8
0
 10
16.6694
 20
21.6322
 30
0.0
 40
0
 41
0
  0
VERTEX
  8
0
 10
16.5892
 20
21.6626
 30
0.0
 40
0
 41
0
  0
VERTEX
  8
0
 10
16.5089
 20
21.685
 30
0.0
 40
0
 41
0
  0
VERTEX
  8
0
 10
16.4235
 20
21.7004
 30
0.0
 40
0
 41
0
  0
VERTEX
  8
0
 10
16.3278
 20
21.7101
 30
0.0
 40
0
 41
0
  0
VERTEX
  8
0
 10
16.2168
 20
21.715
 30
0.0
 40
0
 41
0
  0
VERTEX
  8
0
 10
16.0857
 20
21.7162
 30
0.0
 40
0
 41
0
  0
VERTEX
  8
0
 10
15.8246
 20
21.7008
 30
0.0
 40
0
 41
0
  0
VERTEX
  8
0
 10
15.585
 20
21.654
 30
0.0
 40
0
 41
0
  0
VERTEX
  8
0
 10
15.3661
 20
21.5751
 30
0.0
 40
0
 41
0
  0
VERTEX
  8
0
 10
15.1668
 20
21.4638
 30
0.0
 40
0
 41
0
  0
VERTEX
  8
0
 10
14.9863
 20
21.3192
 30
0.0
 40
0
 41
0
  0
VERTEX
  8
0
 10
14.8235
 20
21.1407
 30
0.0
 40
0
 41
0
  0
VERTEX
  8
0
 10
14.6776
 20
20.9278
 30
0.0
 40
0
 41
0
  0
VERTEX
  8
0
 10
14.5479
 20
20.6799
 30
0.0
 40
0
 41
0
  0
VERTEX
  8
0
 10
14.5017
 20
20.574
 30
0.0
 40
0
 41
0
  0
VERTEX
  8
0
 10
14.4654
 20
20.4733
 30
0.0
 40
0
 41
0
  0
VERTEX
  8
0
 10
14.4378
 20
20.3653
 30
0.0
 40
0
 41
0
  0
VERTEX
  8
0
 10
14.4169
 20
20.2369
 30
0.0
 40
0
 41
0
  0
VERTEX
  8
0
 10
14.4015
 20
20.0757
 30
0.0
 40
0
 41
0
  0
VERTEX
  8
0
 10
14.3897
 20
19.8686
 30
0.0
 40
0
 41
0
  0
VERTEX
  8
0
 10
14.38
 20
19.6031
 30
0.0
 40
0
 41
0
  0
VERTEX
  8
0
 10
14.371
 20
19.2661
 30
0.0
 40
0
 41
0
  0
VERTEX
  8
0
 10
14.3436
 20
18.1782
 30
0.0
 40
0
 41
0
  0
VERTEX
  8
0
 10
17.8249
 20
18.1782
 30
0.0
 40
0
 41
0
  0
VERTEX
  8
0
 10
17.8018
 20
19.2644
 30
0.0
 40
0
 41
0
  0
SEQEND
 8
0
  0
POLYLINE
  8
0
 62
     0
 66
     1
 10
0
 20
0
 30
0.0
 70
     1
 40
0
 41
0
  0
VERTEX
  8
0
 10
14.7167
 20
22.6192
 30
0.0
 40
0
 41
0
  0
VERTEX
  8
0
 10
14.8021
 20
22.6597
 30
0.0
 40
0
 41
0
  0
VERTEX
  8
0
 10
14.8772
 20
22.6978
 30
0.0
 40
0
 41
0
  0
VERTEX
  8
0
 10
14.9429
 20
22.7349
 30
0.0
 40
0
 41
0
  0
VERTEX
  8
0
 10
14.9997
 20
22.7728
 30
0.0
 40
0
 41
0
  0
VERTEX
  8
0
 10
15.0485
 20
22.8132
 30
0.0
 40
0
 41
0
  0
VERTEX
  8
0
 10
15.0897
 20
22.8576
 30
0.0
 40
0
 41
0
  0
VERTEX
  8
0
 10
15.1242
 20
22.9078
 30
0.0
 40
0
 41
0
  0
VERTEX
  8
0
 10
15.1525
 20
22.9654
 30
0.0
 40
0
 41
0
  0
VERTEX
  8
0
 10
15.1754
 20
23.0321
 30
0.0
 40
0
 41
0
  0
VERTEX
  8
0
 10
15.1936
 20
23.1096
 30
0.0
 40
0
 41
0
  0
VERTEX
  8
0
 10
15.2078
 20
23.1993
 30
0.0
 40
0
 41
0
  0
VERTEX
  8
0
 10
15.2185
 20
23.3032
 30
0.0
 40
0
 41
0
  0
VERTEX
  8
0
 10
15.2267
 20
23.4228
 30
0.0
 40
0
 41
0
  0
VERTEX
  8
0
 10
15.2326
 20
23.5597
 30
0.0
 40
0
 41
0
  0
VERTEX
  8
0
 10
15.2375
 20
23.7156
 30
0.0
 40
0
 41
0
  0
VERTEX
  8
0
 10
15.2417
 20
23.8922
 30
0.0
 40
0
 41
0
  0
VERTEX
  8
0
 10
15.2458
 20
24.2474
 30
0.0
 40
0
 41
0
  0
VERTEX
  8
0
 10
15.241
 20
24.5543
 30
0.0
 40
0
 41
0
  0
VERTEX
  8
0
 10
15.226
 20
24.8208
 30
0.0
 40
0
 41
0
  0
VERTEX
  8
0
 10
15.1996
 20
25.055
 30
0.0
 40
0
 41
0
  0
VERTEX
  8
0
 10
15.1607
 20
25.2649
 30
0.0
 40
0
 41
0
  0
VERTEX
  8
0
 10
15.1082
 20
25.4582
 30
0.0
 40
0
 41
0
  0
VERTEX
  8
0
 10
15.0408
 20
25.6429
 30
0.0
 40
0
 41
0
  0
VERTEX
  8
0
 10
14.9576
 20
25.8269
 30
0.0
 40
0
 41
0
  0
VERTEX
  8
0
 10
14.8401
 20
26.0426
 30
0.0
 40
0
 41
0
  0
VERTEX
  8
0
 10
14.7108
 20
26.2332
 30
0.0
 40
0
 41
0
  0
VERTEX
  8
0
 10
14.5658
 20
26.4017
 30
0.0
 40
0
 41
0
  0
VERTEX
  8
0
 10
14.4011
 20
26.5512
 30
0.0
 40
0
 41
0
  0
VERTEX
  8
0
 10
14.2128
 20
26.6851
 30
0.0
 40
0
 41
0
  0
VERTEX
  8
0
 10
13.9968
 20
26.8065
 30
0.0
 40
0
 41
0
  0
VERTEX
  8
0
 10
13.7495
 20
26.9185
 30
0.0
 40
0
 41
0
  0
VERTEX
  8
0
 10
13.4666
 20
27.024
 30
0.0
 40
0
 41
0
  0
VERTEX
  8
0
 10
13.2482
 20
27.0811
 30
0.0
 40
0
 41
0
  0
VERTEX
  8
0
 10
12.9882
 20
27.1192
 30
0.0
 40
0
 41
0
  0
VERTEX
  8
0
 10
12.6989
 20
27.1386
 30
0.0
 40
0
 41
0
  0
VERTEX
  8
0
 10
12.3922
 20
27.1399
 30
0.0
 40
0
 41
0
  0
VERTEX
  8
0
 10
12.0803
 20
27.1232
 30
0.0
 40
0
 41
0
  0
VERTEX
  8
0
 10
11.7753
 20
27.0889
 30
0.0
 40
0
 41
0
  0
VERTEX
  8
0
 10
11.4894
 20
27.0372
 30
0.0
 40
0
 41
0
  0
VERTEX
  8
0
 10
11.2345
 20
26.9683
 30
0.0
 40
0
 41
0
  0
VERTEX
  8
0
 10
10.8866
 20
26.8381
 30
0.0
 40
0
 41
0
  0
VERTEX
  8
0
 10
10.5589
 20
26.6826
 30
0.0
 40
0
 41
0
  0
VERTEX
  8
0
 10
10.2546
 20
26.5044
 30
0.0
 40
0
 41
0
  0
VERTEX
  8
0
 10
9.97629
 20
26.306
 30
0.0
 40
0
 41
0
  0
VERTEX
  8
0
 10
9.727
 20
26.0892
 30
0.0
 40
0
 41
0
  0
VERTEX
  8
0
 10
9.50956
 20
25.8565
 30
0.0
 40
0
 41
0
  0
VERTEX
  8
0
 10
9.32676
 20
25.6101
 30
0.0
 40
0
 41
0
  0
VERTEX
  8
0
 10
9.18169
 20
25.3525
 30
0.0
 40
0
 41
0
  0
VERTEX
  8
0
 10
9.08996
 20
25.1436
 30
0.0
 40
0
 41
0
  0
VERTEX
  8
0
 10
9.00667
 20
24.921
 30
0.0
 40
0
 41
0
  0
VERTEX
  8
0
 10
8.93338
 20
24.6917
 30
0.0
 40
0
 41
0
  0
VERTEX
  8
0
 10
8.8719
 20
24.4624
 30
0.0
 40
0
 41
0
  0
VERTEX
  8
0
 10
8.82379
 20
24.2401
 30
0.0
 40
0
 41
0
  0
VERTEX
  8
0
 10
8.79075
 20
24.0318
 30
0.0
 40
0
 41
0
  0
VERTEX
  8
0
 10
8.77447
 20
23.8443
 30
0.0
 40
0
 41
0
  0
VERTEX
  8
0
 10
8.77664
 20
23.6843
 30
0.0
 40
0
 41
0
  0
VERTEX
  8
0
 10
8.80994
 20
23.4706
 30
0.0
 40
0
 41
0
  0
VERTEX
  8
0
 10
8.87201
 20
23.2708
 30
0.0
 40
0
 41
0
  0
VERTEX
  8
0
 10
8.96056
 20
23.0881
 30
0.0
 40
0
 41
0
  0
VERTEX
  8
0
 10
9.07324
 20
22.9251
 30
0.0
 40
0
 41
0
  0
VERTEX
  8
0
 10
9.20785
 20
22.7846
 30
0.0
 40
0
 41
0
  0
VERTEX
  8
0
 10
9.36199
 20
22.6694
 30
0.0
 40
0
 41
0
  0
VERTEX
  8
0
 10
9.53347
 20
22.5825
 30
0.0
 40
0
 41
0
  0
VERTEX
  8
0
 10
9.72006
 20
22.5263
 30
0.0
 40
0
 41
0
  0
VERTEX
  8
0
 10
9.81868
 20
22.5157
 30
0.0
 40
0
 41
0
  0
VERTEX
  8
0
 10
9.99886
 20
22.5061
 30
0.0
 40
0
 41
0
  0
VERTEX
  8
0
 10
10.2502
 20
22.4979
 30
0.0
 40
0
 41
0
  0
VERTEX
  8
0
 10
10.5625
 20
22.4913
 30
0.0
 40
0
 41
0
  0
VERTEX
  8
0
 10
10.9255
 20
22.4863
 30
0.0
 40
0
 41
0
  0
VERTEX
  8
0
 10
11.329
 20
22.4832
 30
0.0
 40
0
 41
0
  0
VERTEX
  8
0
 10
11.7628
 20
22.4821
 30
0.0
 40
0
 41
0
  0
VERTEX
  8
0
 10
12.2166
 20
22.4832
 30
0.0
 40
0
 41
0
  0
VERTEX
  8
0
 10
12.5929
 20
22.4851
 30
0.0
 40
0
 41
0
  0
VERTEX
  8
0
 10
12.9252
 20
22.4871
 30
0.0
 40
0
 41
0
  0
VERTEX
  8
0
 10
13.2165
 20
22.4894
 30
0.0
 40
0
 41
0
  0
VERTEX
  8
0
 10
13.4701
 20
22.4921
 30
0.0
 40
0
 41
0
  0
VERTEX
  8
0
 10
13.689
 20
22.4954
 30
0.0
 40
0
 41
0
  0
VERTEX
  8
0
 10
13.8764
 20
22.4994
 30
0.0
 40
0
 41
0
  0
VERTEX
  8
0
 10
14.0356
 20
22.5043
 30
0.0
 40
0
 41
0
  0
VERTEX
  8
0
 10
14.1696
 20
22.5104
 30
0.0
 40
0
 41
0
  0
VERTEX
  8
0
 10
14.2817
 20
22.5178
 30
0.0
 40
0
 41
0
  0
VERTEX
  8
0
 10
14.375
 20
22.5265
 30
0.0
 40
0
 41
0
  0
VERTEX
  8
0
 10
14.4526
 20
22.5369
 30
0.0
 40
0
 41
0
  0
VERTEX
  8
0
 10
14.5178
 20
22.5492
 30
0.0
 40
0
 41
0
  0
VERTEX
  8
0
 10
14.5735
 20
22.5632
 30
0.0
 40
0
 41
0
  0
VERTEX
  8
0
 10
14.6232
 20
22.5796
 30
0.0
 40
0
 41
0
  0
VERTEX
  8
0
 10
14.6699
 20
22.5982
 30
0.0
 40
0
 41
0
  0
VERTEX
  8
0
 10
14.7167
 20
22.6192
 30
0.0
 40
0
 41
0
  0
SEQEND
 8
0
  0
POLYLINE
  8
0
 62
     0
 66
     1
 10
0
 20
0
 30
0.0
 70
     1
 40
0
 41
0
  0
VERTEX
  8
0
 10
22.3967
 20
22.5237
 30
0.0
 40
0
 41
0
  0
VERTEX
  8
0
 10
22.6021
 20
22.5786
 30
0.0
 40
0
 41
0
  0
VERTEX
  8
0
 10
22.7867
 20
22.6604
 30
0.0
 40
0
 41
0
  0
VERTEX
  8
0
 10
22.9492
 20
22.7679
 30
0.0
 40
0
 41
0
  0
VERTEX
  8
0
 10
23.0885
 20
22.8997
 30
0.0
 40
0
 41
0
  0
VERTEX
  8
0
 10
23.2035
 20
23.0546
 30
0.0
 40
0
 41
0
  0
VERTEX
  8
0
 10
23.2929
 20
23.2313
 30
0.0
 40
0
 41
0
  0
VERTEX
  8
0
 10
23.3556
 20
23.4282
 30
0.0
 40
0
 41
0
  0
VERTEX
  8
0
 10
23.3903
 20
23.6442
 30
0.0
 40
0
 41
0
  0
VERTEX
  8
0
 10
23.3949
 20
23.8187
 30
0.0
 40
0
 41
0
  0
VERTEX
  8
0
 10
23.3804
 20
24.0179
 30
0.0
 40
0
 41
0
  0
VERTEX
  8
0
 10
23.3486
 20
24.2354
 30
0.0
 40
0
 41
0
  0
VERTEX
  8
0
 10
23.3008
 20
24.4651
 30
0.0
 40
0
 41
0
  0
VERTEX
  8
0
 10
23.2385
 20
24.7007
 30
0.0
 40
0
 41
0
  0
VERTEX
  8
0
 10
23.1632
 20
24.9358
 30
0.0
 40
0
 41
0
  0
VERTEX
  8
0
 10
23.0764
 20
25.1643
 30
0.0
 40
0
 41
0
  0
VERTEX
  8
0
 10
22.9797
 20
25.3797
 30
0.0
 40
0
 41
0
  0
VERTEX
  8
0
 10
22.8342
 20
25.6321
 30
0.0
 40
0
 41
0
  0
VERTEX
  8
0
 10
22.6515
 20
25.8736
 30
0.0
 40
0
 41
0
  0
VERTEX
  8
0
 10
22.4346
 20
26.1021
 30
0.0
 40
0
 41
0
  0
VERTEX
  8
0
 10
22.1863
 20
26.315
 30
0.0
 40
0
 41
0
  0
VERTEX
  8
0
 10
21.9094
 20
26.5104
 30
0.0
 40
0
 41
0
  0
VERTEX
  8
0
 10
21.6069
 20
26.686
 30
0.0
 40
0
 41
0
  0
VERTEX
  8
0
 10
21.2818
 20
26.8393
 30
0.0
 40
0
 41
0
  0
VERTEX
  8
0
 10
20.9368
 20
26.9683
 30
0.0
 40
0
 41
0
  0
VERTEX
  8
0
 10
20.6819
 20
27.0372
 30
0.0
 40
0
 41
0
  0
VERTEX
  8
0
 10
20.396
 20
27.0889
 30
0.0
 40
0
 41
0
  0
VERTEX
  8
0
 10
20.091
 20
27.1232
 30
0.0
 40
0
 41
0
  0
VERTEX
  8
0
 10
19.779
 20
27.1399
 30
0.0
 40
0
 41
0
  0
VERTEX
  8
0
 10
19.4724
 20
27.1386
 30
0.0
 40
0
 41
0
  0
VERTEX
  8
0
 10
19.1831
 20
27.1192
 30
0.0
 40
0
 41
0
  0
VERTEX
  8
0
 10
18.9231
 20
27.0811
 30
0.0
 40
0
 41
0
  0
VERTEX
  8
0
 10
18.7047
 20
27.024
 30
0.0
 40
0
 41
0
  0
VERTEX
  8
0
 10
18.5107
 20
26.9539
 30
0.0
 40
0
 41
0
  0
VERTEX
  8
0
 10
18.3365
 20
26.8828
 30
0.0
 40
0
 41
0
  0
VERTEX
  8
0
 10
18.18
 20
26.8096
 30
0.0
 40
0
 41
0
  0
VERTEX
  8
0
 10
18.0388
 20
26.7328
 30
0.0
 40
0
 41
0
  0
VERTEX
  8
0
 10
17.9104
 20
26.6511
 30
0.0
 40
0
 41
0
  0
VERTEX
  8
0
 10
17.7929
 20
26.5633
 30
0.0
 40
0
 41
0
  0
VERTEX
  8
0
 10
17.6839
 20
26.4679
 30
0.0
 40
0
 41
0
  0
VERTEX
  8
0
 10
17.5808
 20
26.3636
 30
0.0
 40
0
 41
0
  0
VERTEX
  8
0
 10
17.4008
 20
26.1467
 30
0.0
 40
0
 41
0
  0
VERTEX
  8
0
 10
17.2532
 20
25.9176
 30
0.0
 40
0
 41
0
  0
VERTEX
  8
0
 10
17.1357
 20
25.6686
 30
0.0
 40
0
 41
0
  0
VERTEX
  8
0
 10
17.0464
 20
25.3915
 30
0.0
 40
0
 41
0
  0
VERTEX
  8
0
 10
16.9832
 20
25.0782
 30
0.0
 40
0
 41
0
  0
VERTEX
  8
0
 10
16.944
 20
24.7204
 30
0.0
 40
0
 41
0
  0
VERTEX
  8
0
 10
16.9268
 20
24.3104
 30
0.0
 40
0
 41
0
  0
VERTEX
  8
0
 10
16.9293
 20
23.8399
 30
0.0
 40
0
 41
0
  0
VERTEX
  8
0
 10
16.9358
 20
23.5943
 30
0.0
 40
0
 41
0
  0
VERTEX
  8
0
 10
16.9435
 20
23.399
 30
0.0
 40
0
 41
0
  0
VERTEX
  8
0
 10
16.9531
 20
23.2468
 30
0.0
 40
0
 41
0
  0
VERTEX
  8
0
 10
16.9657
 20
23.1304
 30
0.0
 40
0
 41
0
  0
VERTEX
  8
0
 10
16.9824
 20
23.0428
 30
0.0
 40
0
 41
0
  0
VERTEX
  8
0
 10
17.0043
 20
22.9767
 30
0.0
 40
0
 41
0
  0
VERTEX
  8
0
 10
17.0324
 20
22.925
 30
0.0
 40
0
 41
0
  0
VERTEX
  8
0
 10
17.0676
 20
22.8806
 30
0.0
 40
0
 41
0
  0
VERTEX
  8
0
 10
17.2117
 20
22.7525
 30
0.0
 40
0
 41
0
  0
VERTEX
  8
0
 10
17.3882
 20
22.6501
 30
0.0
 40
0
 41
0
  0
VERTEX
  8
0
 10
17.5974
 20
22.5736
 30
0.0
 40
0
 41
0
  0
VERTEX
  8
0
 10
17.8393
 20
22.5228
 30
0.0
 40
0
 41
0
  0
VERTEX
  8
0
 10
17.9625
 20
22.511
 30
0.0
 40
0
 41
0
  0
VERTEX
  8
0
 10
18.1529
 20
22.5006
 30
0.0
 40
0
 41
0
  0
VERTEX
  8
0
 10
18.4006
 20
22.4919
 30
0.0
 40
0
 41
0
  0
VERTEX
  8
0
 10
18.6957
 20
22.4849
 30
0.0
 40
0
 41
0
  0
VERTEX
  8
0
 10
19.0286
 20
22.4793
 30
0.0
 40
0
 41
0
  0
VERTEX
  8
0
 10
19.3896
 20
22.4754
 30
0.0
 40
0
 41
0
  0
VERTEX
  8
0
 10
19.7689
 20
22.4731
 30
0.0
 40
0
 41
0
  0
VERTEX
  8
0
 10
20.1567
 20
22.4724
 30
0.0
 40
0
 41
0
  0
VERTEX
  8
0
 10
20.5432
 20
22.4732
 30
0.0
 40
0
 41
0
  0
VERTEX
  8
0
 10
20.9189
 20
22.4757
 30
0.0
 40
0
 41
0
  0
VERTEX
  8
0
 10
21.2739
 20
22.4797
 30
0.0
 40
0
 41
0
  0
VERTEX
  8
0
 10
21.5983
 20
22.4854
 30
0.0
 40
0
 41
0
  0
VERTEX
  8
0
 10
21.8826
 20
22.4926
 30
0.0
 40
0
 41
0
  0
VERTEX
  8
0
 10
22.1169
 20
22.5014
 30
0.0
 40
0
 41
0
  0
VERTEX
  8
0
 10
22.2915
 20
22.5118
 30
0.0
 40
0
 41
0
  0
VERTEX
  8
0
 10
22.3967
 20
22.5237
 30
0.0
 40
0
 41
0
  0
SEQEND
 8
0
  0
POLYLINE
  8
0
 62
     0
 66
     1
 10
0
 20
0
 30
0.0
 70
     1
 40
4.29246
 41
4.29246
  0
VERTEX
  8
0
 10
15.0142
 20
8.74843
 30
0.0
 40
0.0596175
 41
0.0596175
  0
VERTEX
  8
0
 10
14.5458
 20
8.7889
 30
0.0
 40
0.0596175
 41
0.0596175
  0
VERTEX
  8
0
 10
14.1426
 20
8.82563
 30
0.0
 40
0.0596175
 41
0.0596175
  0
VERTEX
  8
0
 10
13.7927
 20
8.86003
 30
0.0
 40
0.0596175
 41
0.0596175
  0
VERTEX
  8
0
 10
13.4842
 20
8.89344
 30
0.0
 40
0.0596175
 41
0.0596175
  0
VERTEX
  8
0
 10
13.2051
 20
8.92731
 30
0.0
 40
0.0596175
 41
0.0596175
  0
VERTEX
  8
0
 10
12.9435
 20
8.96294
 30
0.0
 40
0.0596175
 41
0.0596175
  0
VERTEX
  8
0
 10
12.6874
 20
9.00174
 30
0.0
 40
0.0596175
 41
0.0596175
  0
VERTEX
  8
0
 10
12.425
 20
9.04497
 30
0.0
 40
0.0596175
 41
0.0596175
  0
VERTEX
  8
0
 10
11.7721
 20
9.16618
 30
0.0
 40
0.0596175
 41
0.0596175
  0
VERTEX
  8
0
 10
11.1252
 20
9.30567
 30
0.0
 40
0.0596175
 41
0.0596175
  0
VERTEX
  8
0
 10
10.4855
 20
9.46289
 30
0.0
 40
0.0596175
 41
0.0596175
  0
VERTEX
  8
0
 10
9.85454
 20
9.63726
 30
0.0
 40
0.0596175
 41
0.0596175
  0
VERTEX
  8
0
 10
9.23372
 20
9.82824
 30
0.0
 40
0.0596175
 41
0.0596175
  0
VERTEX
  8
0
 10
8.62446
 20
10.0351
 30
0.0
 40
0.0596175
 41
0.0596175
  0
VERTEX
  8
0
 10
8.0281
 20
10.2573
 30
0.0
 40
0.0596175
 41
0.0596175
  0
VERTEX
  8
0
 10
7.44612
 20
10.4943
 30
0.0
 40
0.0596175
 41
0.0596175
  0
VERTEX
  8
0
 10
6.87993
 20
10.7453
 30
0.0
 40
0.0596175
 41
0.0596175
  0
VERTEX
  8
0
 10
6.33094
 20
11.01
 30
0.0
 40
0.0596175
 41
0.0596175
  0
VERTEX
  8
0
 10
5.80051
 20
11.2875
 30
0.0
 40
0.0596175
 41
0.0596175
  0
VERTEX
  8
0
 10
5.29015
 20
11.5775
 30
0.0
 40
0.0596175
 41
0.0596175
  0
VERTEX
  8
0
 10
4.80117
 20
11.8791
 30
0.0
 40
0.0596175
 41
0.0596175
  0
VERTEX
  8
0
 10
4.33507
 20
12.1919
 30
0.0
 40
0.0596175
 41
0.0596175
  0
VERTEX
  8
0
 10
3.89324
 20
12.5153
 30
0.0
 40
0.0596175
 41
0.0596175
  0
VERTEX
  8
0
 10
3.47706
 20
12.8485
 30
0.0
 40
0.0596175
 41
0.0596175
  0
VERTEX
  8
0
 10
3.17096
 20
13.1212
 30
0.0
 40
0.0596175
 41
0.0596175
  0
VERTEX
  8
0
 10
2.88797
 20
13.4042
 30
0.0
 40
0.0596175
 41
0.0596175
  0
VERTEX
  8
0
 10
2.63325
 20
13.6904
 30
0.0
 40
0.0596175
 41
0.0596175
  0
VERTEX
  8
0
 10
2.41222
 20
13.9726
 30
0.0
 40
0.0596175
 41
0.0596175
  0
VERTEX
  8
0
 10
2.23008
 20
14.2436
 30
0.0
 40
0.0596175
 41
0.0596175
  0
VERTEX
  8
0
 10
2.09212
 20
14.4958
 30
0.0
 40
0.0596175
 41
0.0596175
  0
VERTEX
  8
0
 10
2.00369
 20
14.7224
 30
0.0
 40
0.0596175
 41
0.0596175
  0
VERTEX
  8
0
 10
1.97
 20
14.9158
 30
0.0
 40
0.0596175
 41
0.0596175
  0
VERTEX
  8
0
 10
1.97862
 20
14.9632
 30
0.0
 40
0.0596175
 41
0.0596175
  0
VERTEX
  8
0
 10
2.00532
 20
15.0593
 30
0.0
 40
0.0596175
 41
0.0596175
  0
VERTEX
  8
0
 10
2.04964
 20
15.2026
 30
0.0
 40
0.0596175
 41
0.0596175
  0
VERTEX
  8
0
 10
2.11106
 20
15.3918
 30
0.0
 40
0.0596175
 41
0.0596175
  0
VERTEX
  8
0
 10
2.18907
 20
15.6253
 30
0.0
 40
0.0596175
 41
0.0596175
  0
VERTEX
  8
0
 10
2.28315
 20
15.9017
 30
0.0
 40
0.0596175
 41
0.0596175
  0
VERTEX
  8
0
 10
2.39274
 20
16.2196
 30
0.0
 40
0.0596175
 41
0.0596175
  0
VERTEX
  8
0
 10
2.51742
 20
16.5774
 30
0.0
 40
0.0596175
 41
0.0596175
  0
VERTEX
  8
0
 10
2.65662
 20
16.9739
 30
0.0
 40
0.0596175
 41
0.0596175
  0
VERTEX
  8
0
 10
2.80985
 20
17.4074
 30
0.0
 40
0.0596175
 41
0.0596175
  0
VERTEX
  8
0
 10
2.97661
 20
17.8765
 30
0.0
 40
0.0596175
 41
0.0596175
  0
VERTEX
  8
0
 10
3.15642
 20
18.3799
 30
0.0
 40
0.0596175
 41
0.0596175
  0
VERTEX
  8
0
 10
3.34868
 20
18.9158
 30
0.0
 40
0.0596175
 41
0.0596175
  0
VERTEX
  8
0
 10
3.55296
 20
19.4832
 30
0.0
 40
0.0596175
 41
0.0596175
  0
VERTEX
  8
0
 10
3.76872
 20
20.0803
 30
0.0
 40
0.0596175
 41
0.0596175
  0
VERTEX
  8
0
 10
3.9955
 20
20.7058
 30
0.0
 40
0.0596175
 41
0.0596175
  0
VERTEX
  8
0
 10
6.02615
 20
26.2989
 30
0.0
 40
0.0596175
 41
0.0596175
  0
VERTEX
  8
0
 10
6.02615
 20
28.5151
 30
0.0
 40
0.0596175
 41
0.0596175
  0
VERTEX
  8
0
 10
6.02686
 20
28.9514
 30
0.0
 40
0.0596175
 41
0.0596175
  0
VERTEX
  8
0
 10
6.02919
 20
29.3506
 30
0.0
 40
0.0596175
 41
0.0596175
  0
VERTEX
  8
0
 10
6.03336
 20
29.7157
 30
0.0
 40
0.0596175
 41
0.0596175
  0
VERTEX
  8
0
 10
6.03961
 20
30.0494
 30
0.0
 40
0.0596175
 41
0.0596175
  0
VERTEX
  8
0
 10
6.04818
 20
30.3546
 30
0.0
 40
0.0596175
 41
0.0596175
  0
VERTEX
  8
0
 10
6.05919
 20
30.6339
 30
0.0
 40
0.0596175
 41
0.0596175
  0
VERTEX
  8
0
 10
6.07297
 20
30.8903
 30
0.0
 40
0.0596175
 41
0.0596175
  0
VERTEX
  8
0
 10
6.08968
 20
31.1264
 30
0.0
 40
0.0596175
 41
0.0596175
  0
VERTEX
  8
0
 10
6.1096
 20
31.345
 30
0.0
 40
0.0596175
 41
0.0596175
  0
VERTEX
  8
0
 10
6.13292
 20
31.549
 30
0.0
 40
0.0596175
 41
0.0596175
  0
VERTEX
  8
0
 10
6.15989
 20
31.7411
 30
0.0
 40
0.0596175
 41
0.0596175
  0
VERTEX
  8
0
 10
6.19069
 20
31.9242
 30
0.0
 40
0.0596175
 41
0.0596175
  0
VERTEX
  8
0
 10
6.22558
 20
32.1008
 30
0.0
 40
0.0596175
 41
0.0596175
  0
VERTEX
  8
0
 10
6.26476
 20
32.274
 30
0.0
 40
0.0596175
 41
0.0596175
  0
VERTEX
  8
0
 10
6.30849
 20
32.4464
 30
0.0
 40
0.0596175
 41
0.0596175
  0
VERTEX
  8
0
 10
6.35699
 20
32.6208
 30
0.0
 40
0.0596175
 41
0.0596175
  0
VERTEX
  8
0
 10
6.5446
 20
33.2019
 30
0.0
 40
0.0596175
 41
0.0596175
  0
VERTEX
  8
0
 10
6.76481
 20
33.7603
 30
0.0
 40
0.0596175
 41
0.0596175
  0
VERTEX
  8
0
 10
7.01665
 20
34.2951
 30
0.0
 40
0.0596175
 41
0.0596175
  0
VERTEX
  8
0
 10
7.29899
 20
34.8053
 30
0.0
 40
0.0596175
 41
0.0596175
  0
VERTEX
  8
0
 10
7.61079
 20
35.2899
 30
0.0
 40
0.0596175
 41
0.0596175
  0
VERTEX
  8
0
 10
7.95096
 20
35.7478
 30
0.0
 40
0.0596175
 41
0.0596175
  0
VERTEX
  8
0
 10
8.31847
 20
36.1781
 30
0.0
 40
0.0596175
 41
0.0596175
  0
VERTEX
  8
0
 10
8.71224
 20
36.5796
 30
0.0
 40
0.0596175
 41
0.0596175
  0
VERTEX
  8
0
 10
9.13118
 20
36.9514
 30
0.0
 40
0.0596175
 41
0.0596175
  0
VERTEX
  8
0
 10
9.57428
 20
37.2925
 30
0.0
 40
0.0596175
 41
0.0596175
  0
VERTEX
  8
0
 10
10.0405
 20
37.6019
 30
0.0
 40
0.0596175
 41
0.0596175
  0
VERTEX
  8
0
 10
10.5287
 20
37.8786
 30
0.0
 40
0.0596175
 41
0.0596175
  0
VERTEX
  8
0
 10
11.0378
 20
38.1217
 30
0.0
 40
0.0596175
 41
0.0596175
  0
VERTEX
  8
0
 10
11.5668
 20
38.3299
 30
0.0
 40
0.0596175
 41
0.0596175
  0
VERTEX
  8
0
 10
12.1147
 20
38.5024
 30
0.0
 40
0.0596175
 41
0.0596175
  0
VERTEX
  8
0
 10
12.6803
 20
38.6381
 30
0.0
 40
0.0596175
 41
0.0596175
  0
VERTEX
  8
0
 10
12.7657
 20
38.6546
 30
0.0
 40
0.0596175
 41
0.0596175
  0
VERTEX
  8
0
 10
12.8536
 20
38.6692
 30
0.0
 40
0.0596175
 41
0.0596175
  0
VERTEX
  8
0
 10
12.9469
 20
38.6822
 30
0.0
 40
0.0596175
 41
0.0596175
  0
VERTEX
  8
0
 10
13.049
 20
38.6936
 30
0.0
 40
0.0596175
 41
0.0596175
  0
VERTEX
  8
0
 10
13.1631
 20
38.7036
 30
0.0
 40
0.0596175
 41
0.0596175
  0
VERTEX
  8
0
 10
13.2923
 20
38.7122
 30
0.0
 40
0.0596175
 41
0.0596175
  0
VERTEX
  8
0
 10
13.4397
 20
38.7194
 30
0.0
 40
0.0596175
 41
0.0596175
  0
VERTEX
  8
0
 10
13.6086
 20
38.7256
 30
0.0
 40
0.0596175
 41
0.0596175
  0
VERTEX
  8
0
 10
13.8023
 20
38.7306
 30
0.0
 40
0.0596175
 41
0.0596175
  0
VERTEX
  8
0
 10
14.0236
 20
38.7346
 30
0.0
 40
0.0596175
 41
0.0596175
  0
VERTEX
  8
0
 10
14.2761
 20
38.7378
 30
0.0
 40
0.0596175
 41
0.0596175
  0
VERTEX
  8
0
 10
14.5628
 20
38.7401
 30
0.0
 40
0.0596175
 41
0.0596175
  0
VERTEX
  8
0
 10
14.8869
 20
38.7417
 30
0.0
 40
0.0596175
 41
0.0596175
  0
VERTEX
  8
0
 10
15.2515
 20
38.7428
 30
0.0
 40
0.0596175
 41
0.0596175
  0
VERTEX
  8
0
 10
15.66
 20
38.7433
 30
0.0
 40
0.0596175
 41
0.0596175
  0
VERTEX
  8
0
 10
16.1154
 20
38.7433
 30
0.0
 40
0.0596175
 41
0.0596175
  0
VERTEX
  8
0
 10
16.6146
 20
38.7433
 30
0.0
 40
0.0596175
 41
0.0596175
  0
VERTEX
  8
0
 10
17.0549
 20
38.7429
 30
0.0
 40
0.0596175
 41
0.0596175
  0
VERTEX
  8
0
 10
17.4407
 20
38.7421
 30
0.0
 40
0.0596175
 41
0.0596175
  0
VERTEX
  8
0
 10
17.7769
 20
38.7406
 30
0.0
 40
0.0596175
 41
0.0596175
  0
VERTEX
  8
0
 10
18.0682
 20
38.7382
 30
0.0
 40
0.0596175
 41
0.0596175
  0
VERTEX
  8
0
 10
18.3192
 20
38.7349
 30
0.0
 40
0.0596175
 41
0.0596175
  0
VERTEX
  8
0
 10
18.5349
 20
38.7304
 30
0.0
 40
0.0596175
 41
0.0596175
  0
VERTEX
  8
0
 10
18.7197
 20
38.7244
 30
0.0
 40
0.0596175
 41
0.0596175
  0
VERTEX
  8
0
 10
18.8785
 20
38.7169
 30
0.0
 40
0.0596175
 41
0.0596175
  0
VERTEX
  8
0
 10
19.016
 20
38.7078
 30
0.0
 40
0.0596175
 41
0.0596175
  0
VERTEX
  8
0
 10
19.1368
 20
38.6965
 30
0.0
 40
0.0596175
 41
0.0596175
  0
VERTEX
  8
0
 10
19.2457
 20
38.6833
 30
0.0
 40
0.0596175
 41
0.0596175
  0
VERTEX
  8
0
 10
19.3475
 20
38.6678
 30
0.0
 40
0.0596175
 41
0.0596175
  0
VERTEX
  8
0
 10
19.4468
 20
38.6497
 30
0.0
 40
0.0596175
 41
0.0596175
  0
VERTEX
  8
0
 10
19.5485
 20
38.629
 30
0.0
 40
0.0596175
 41
0.0596175
  0
VERTEX
  8
0
 10
19.6571
 20
38.6054
 30
0.0
 40
0.0596175
 41
0.0596175
  0
VERTEX
  8
0
 10
20.2438
 20
38.4532
 30
0.0
 40
0.0596175
 41
0.0596175
  0
VERTEX
  8
0
 10
20.8106
 20
38.2603
 30
0.0
 40
0.0596175
 41
0.0596175
  0
VERTEX
  8
0
 10
21.3563
 20
38.0279
 30
0.0
 40
0.0596175
 41
0.0596175
  0
VERTEX
  8
0
 10
21.8794
 20
37.7575
 30
0.0
 40
0.0596175
 41
0.0596175
  0
VERTEX
  8
0
 10
22.379
 20
37.4501
 30
0.0
 40
0.0596175
 41
0.0596175
  0
VERTEX
  8
0
 10
22.8539
 20
37.1071
 30
0.0
 40
0.0596175
 41
0.0596175
  0
VERTEX
  8
0
 10
23.3028
 20
36.7297
 30
0.0
 40
0.0596175
 41
0.0596175
  0
VERTEX
  8
0
 10
23.7244
 20
36.3192
 30
0.0
 40
0.0596175
 41
0.0596175
  0
VERTEX
  8
0
 10
24.1178
 20
35.8767
 30
0.0
 40
0.0596175
 41
0.0596175
  0
VERTEX
  8
0
 10
24.4815
 20
35.4036
 30
0.0
 40
0.0596175
 41
0.0596175
  0
VERTEX
  8
0
 10
24.8146
 20
34.9012
 30
0.0
 40
0.0596175
 41
0.0596175
  0
VERTEX
  8
0
 10
25.1156
 20
34.3707
 30
0.0
 40
0.0596175
 41
0.0596175
  0
VERTEX
  8
0
 10
25.3833
 20
33.8132
 30
0.0
 40
0.0596175
 41
0.0596175
  0
VERTEX
  8
0
 10
25.6168
 20
33.2301
 30
0.0
 40
0.0596175
 41
0.0596175
  0
VERTEX
  8
0
 10
25.8146
 20
32.6228
 30
0.0
 40
0.0596175
 41
0.0596175
  0
VERTEX
  8
0
 10
25.9757
 20
31.9924
 30
0.0
 40
0.0596175
 41
0.0596175
  0
VERTEX
  8
0
 10
25.9962
 20
31.8971
 30
0.0
 40
0.0596175
 41
0.0596175
  0
VERTEX
  8
0
 10
26.0144
 20
31.8043
 30
0.0
 40
0.0596175
 41
0.0596175
  0
VERTEX
  8
0
 10
26.0306
 20
31.7104
 30
0.0
 40
0.0596175
 41
0.0596175
  0
VERTEX
  8
0
 10
26.0449
 20
31.6124
 30
0.0
 40
0.0596175
 41
0.0596175
  0
VERTEX
  8
0
 10
26.0574
 20
31.5064
 30
0.0
 40
0.0596175
 41
0.0596175
  0
VERTEX
  8
0
 10
26.0683
 20
31.3893
 30
0.0
 40
0.0596175
 41
0.0596175
  0
VERTEX
  8
0
 10
26.0779
 20
31.2576
 30
0.0
 40
0.0596175
 41
0.0596175
  0
VERTEX
  8
0
 10
26.0861
 20
31.1082
 30
0.0
 40
0.0596175
 41
0.0596175
  0
VERTEX
  8
0
 10
26.0933
 20
30.9375
 30
0.0
 40
0.0596175
 41
0.0596175
  0
VERTEX
  8
0
 10
26.0997
 20
30.7421
 30
0.0
 40
0.0596175
 41
0.0596175
  0
VERTEX
  8
0
 10
26.1051
 20
30.5186
 30
0.0
 40
0.0596175
 41
0.0596175
  0
VERTEX
  8
0
 10
26.1101
 20
30.2639
 30
0.0
 40
0.0596175
 41
0.0596175
  0
VERTEX
  8
0
 10
26.1146
 20
29.9742
 30
0.0
 40
0.0596175
 41
0.0596175
  0
VERTEX
  8
0
 10
26.1189
 20
29.6464
 30
0.0
 40
0.0596175
 41
0.0596175
  0
VERTEX
  8
0
 10
26.1231
 20
29.2771
 30
0.0
 40
0.0596175
 41
0.0596175
  0
VERTEX
  8
0
 10
26.1272
 20
28.8626
 30
0.0
 40
0.0596175
 41
0.0596175
  0
VERTEX
  8
0
 10
26.1522
 20
26.3032
 30
0.0
 40
0.0596175
 41
0.0596175
  0
VERTEX
  8
0
 10
28.2017
 20
20.646
 30
0.0
 40
0.0596175
 41
0.0596175
  0
VERTEX
  8
0
 10
28.4046
 20
20.0861
 30
0.0
 40
0.0596175
 41
0.0596175
  0
VERTEX
  8
0
 10
28.594
 20
19.5637
 30
0.0
 40
0.0596175
 41
0.0596175
  0
VERTEX
  8
0
 10
28.7704
 20
19.0775
 30
0.0
 40
0.0596175
 41
0.0596175
  0
VERTEX
  8
0
 10
28.934
 20
18.626
 30
0.0
 40
0.0596175
 41
0.0596175
  0
VERTEX
  8
0
 10
29.0853
 20
18.2078
 30
0.0
 40
0.0596175
 41
0.0596175
  0
VERTEX
  8
0
 10
29.2249
 20
17.8215
 30
0.0
 40
0.0596175
 41
0.0596175
  0
VERTEX
  8
0
 10
29.3529
 20
17.4658
 30
0.0
 40
0.0596175
 41
0.0596175
  0
VERTEX
  8
0
 10
29.4697
 20
17.1392
 30
0.0
 40
0.0596175
 41
0.0596175
  0
VERTEX
  8
0
 10
29.5761
 20
16.8401
 30
0.0
 40
0.0596175
 41
0.0596175
  0
VERTEX
  8
0
 10
29.6721
 20
16.5675
 30
0.0
 40
0.0596175
 41
0.0596175
  0
VERTEX
  8
0
 10
29.7583
 20
16.3197
 30
0.0
 40
0.0596175
 41
0.0596175
  0
VERTEX
  8
0
 10
29.8351
 20
16.0953
 30
0.0
 40
0.0596175
 41
0.0596175
  0
VERTEX
  8
0
 10
29.9028
 20
15.8931
 30
0.0
 40
0.0596175
 41
0.0596175
  0
VERTEX
  8
0
 10
29.9619
 20
15.7114
 30
0.0
 40
0.0596175
 41
0.0596175
  0
VERTEX
  8
0
 10
30.0128
 20
15.549
 30
0.0
 40
0.0596175
 41
0.0596175
  0
VERTEX
  8
0
 10
30.0558
 20
15.4044
 30
0.0
 40
0.0596175
 41
0.0596175
  0
VERTEX
  8
0
 10
30.0915
 20
15.2763
 30
0.0
 40
0.0596175
 41
0.0596175
  0
VERTEX
  8
0
 10
30.1203
 20
15.1632
 30
0.0
 40
0.0596175
 41
0.0596175
  0
VERTEX
  8
0
 10
30.1424
 20
15.0636
 30
0.0
 40
0.0596175
 41
0.0596175
  0
VERTEX
  8
0
 10
30.1582
 20
14.9764
 30
0.0
 40
0.0596175
 41
0.0596175
  0
VERTEX
  8
0
 10
30.1683
 20
14.8999
 30
0.0
 40
0.0596175
 41
0.0596175
  0
VERTEX
  8
0
 10
30.1731
 20
14.8326
 30
0.0
 40
0.0596175
 41
0.0596175
  0
VERTEX
  8
0
 10
30.1729
 20
14.7735
 30
0.0
 40
0.0596175
 41
0.0596175
  0
VERTEX
  8
0
 10
30.1682
 20
14.7208
 30
0.0
 40
0.0596175
 41
0.0596175
  0
VERTEX
  8
0
 10
30.1592
 20
14.6733
 30
0.0
 40
0.0596175
 41
0.0596175
  0
VERTEX
  8
0
 10
30.1465
 20
14.6296
 30
0.0
 40
0.0596175
 41
0.0596175
  0
VERTEX
  8
0
 10
30.1306
 20
14.5882
 30
0.0
 40
0.0596175
 41
0.0596175
  0
VERTEX
  8
0
 10
30.1117
 20
14.5478
 30
0.0
 40
0.0596175
 41
0.0596175
  0
VERTEX
  8
0
 10
30.0903
 20
14.5068
 30
0.0
 40
0.0596175
 41
0.0596175
  0
VERTEX
  8
0
 10
30.0667
 20
14.464
 30
0.0
 40
0.0596175
 41
0.0596175
  0
VERTEX
  8
0
 10
30.0414
 20
14.4179
 30
0.0
 40
0.0596175
 41
0.0596175
  0
VERTEX
  8
0
 10
30.0149
 20
14.3669
 30
0.0
 40
0.0596175
 41
0.0596175
  0
VERTEX
  8
0
 10
29.8817
 20
14.134
 30
0.0
 40
0.0596175
 41
0.0596175
  0
VERTEX
  8
0
 10
29.7146
 20
13.8942
 30
0.0
 40
0.0596175
 41
0.0596175
  0
VERTEX
  8
0
 10
29.5151
 20
13.6484
 30
0.0
 40
0.0596175
 41
0.0596175
  0
VERTEX
  8
0
 10
29.2851
 20
13.3984
 30
0.0
 40
0.0596175
 41
0.0596175
  0
VERTEX
  8
0
 10
29.0262
 20
13.145
 30
0.0
 40
0.0596175
 41
0.0596175
  0
VERTEX
  8
0
 10
28.74
 20
12.8897
 30
0.0
 40
0.0596175
 41
0.0596175
  0
VERTEX
  8
0
 10
28.4281
 20
12.6336
 30
0.0
 40
0.0596175
 41
0.0596175
  0
VERTEX
  8
0
 10
28.0924
 20
12.3779
 30
0.0
 40
0.0596175
 41
0.0596175
  0
VERTEX
  8
0
 10
27.7344
 20
12.124
 30
0.0
 40
0.0596175
 41
0.0596175
  0
VERTEX
  8
0
 10
27.3558
 20
11.8729
 30
0.0
 40
0.0596175
 41
0.0596175
  0
VERTEX
  8
0
 10
26.9583
 20
11.626
 30
0.0
 40
0.0596175
 41
0.0596175
  0
VERTEX
  8
0
 10
26.5438
 20
11.3846
 30
0.0
 40
0.0596175
 41
0.0596175
  0
VERTEX
  8
0
 10
26.1136
 20
11.1496
 30
0.0
 40
0.0596175
 41
0.0596175
  0
VERTEX
  8
0
 10
25.6696
 20
10.9226
 30
0.0
 40
0.0596175
 41
0.0596175
  0
VERTEX
  8
0
 10
25.2133
 20
10.7046
 30
0.0
 40
0.0596175
 41
0.0596175
  0
VERTEX
  8
0
 10
24.7467
 20
10.497
 30
0.0
 40
0.0596175
 41
0.0596175
  0
VERTEX
  8
0
 10
24.0046
 20
10.1983
 30
0.0
 40
0.0596175
 41
0.0596175
  0
VERTEX
  8
0
 10
23.2231
 20
9.92068
 30
0.0
 40
0.0596175
 41
0.0596175
  0
VERTEX
  8
0
 10
22.4119
 20
9.66644
 30
0.0
 40
0.0596175
 41
0.0596175
  0
VERTEX
  8
0
 10
21.5811
 20
9.43826
 30
0.0
 40
0.0596175
 41
0.0596175
  0
VERTEX
  8
0
 10
20.7406
 20
9.23856
 30
0.0
 40
0.0596175
 41
0.0596175
  0
VERTEX
  8
0
 10
19.8999
 20
9.06993
 30
0.0
 40
0.0596175
 41
0.0596175
  0
VERTEX
  8
0
 10
19.0692
 20
8.93485
 30
0.0
 40
0.0596175
 41
0.0596175
  0
VERTEX
  8
0
 10
18.2583
 20
8.83589
 30
0.0
 40
0.0596175
 41
0.0596175
  0
VERTEX
  8
0
 10
18.1131
 20
8.82308
 30
0.0
 40
0.0596175
 41
0.0596175
  0
VERTEX
  8
0
 10
17.9393
 20
8.81071
 30
0.0
 40
0.0596175
 41
0.0596175
  0
VERTEX
  8
0
 10
17.7414
 20
8.79883
 30
0.0
 40
0.0596175
 41
0.0596175
  0
VERTEX
  8
0
 10
17.5239
 20
8.7876
 30
0.0
 40
0.0596175
 41
0.0596175
  0
VERTEX
  8
0
 10
17.2914
 20
8.77718
 30
0.0
 40
0.0596175
 41
0.0596175
  0
VERTEX
  8
0
 10
17.0481
 20
8.76768
 30
0.0
 40
0.0596175
 41
0.0596175
  0
VERTEX
  8
0
 10
16.7988
 20
8.75917
 30
0.0
 40
0.0596175
 41
0.0596175
  0
VERTEX
  8
0
 10
16.5476
 20
8.75179
 30
0.0
 40
0.0596175
 41
0.0596175
  0
VERTEX
  8
0
 10
16.2993
 20
8.74571
 30
0.0
 40
0.0596175
 41
0.0596175
  0
VERTEX
  8
0
 10
16.0582
 20
8.741
 30
0.0
 40
0.0596175
 41
0.0596175
  0
VERTEX
  8
0
 10
15.8289
 20
8.73774
 30
0.0
 40
0.0596175
 41
0.0596175
  0
VERTEX
  8
0
 10
15.6156
 20
8.73617
 30
0.0
 40
0.0596175
 41
0.0596175
  0
VERTEX
  8
0
 10
15.4231
 20
8.73633
 30
0.0
 40
0.0596175
 41
0.0596175
  0
VERTEX
  8
0
 10
15.2557
 20
8.73833
 30
0.0
 40
0.0596175
 41
0.0596175
  0
VERTEX
  8
0
 10
15.1179
 20
8.74235
 30
0.0
 40
0.0596175
 41
0.0596175
  0
VERTEX
  8
0
 10
15.0142
 20
8.74843
 30
0.0
 40
0.0596175
 41
0.0596175
  0
SEQEND
 8
0
  0
POLYLINE
  8
0
 62
     0
 66
     1
 10
0
 20
0
 30
0.0
 70
     1
 40
4.29246
 41
4.29246
  0
VERTEX
  8
0
 10
10.48
 20
12.0898
 30
0.0
 40
0.0596175
 41
0.0596175
  0
VERTEX
  8
0
 10
10.6605
 20
12.2657
 30
0.0
 40
0.0596175
 41
0.0596175
  0
VERTEX
  8
0
 10
10.7856
 20
12.4748
 30
0.0
 40
0.0596175
 41
0.0596175
  0
VERTEX
  8
0
 10
10.856
 20
12.705
 30
0.0
 40
0.0596175
 41
0.0596175
  0
VERTEX
  8
0
 10
10.8722
 20
12.9442
 30
0.0
 40
0.0596175
 41
0.0596175
  0
VERTEX
  8
0
 10
10.8346
 20
13.1804
 30
0.0
 40
0.0596175
 41
0.0596175
  0
VERTEX
  8
0
 10
10.7438
 20
13.4014
 30
0.0
 40
0.0596175
 41
0.0596175
  0
VERTEX
  8
0
 10
10.6005
 20
13.5951
 30
0.0
 40
0.0596175
 41
0.0596175
  0
VERTEX
  8
0
 10
10.4051
 20
13.7495
 30
0.0
 40
0.0596175
 41
0.0596175
  0
VERTEX
  8
0
 10
10.307
 20
13.7958
 30
0.0
 40
0.0596175
 41
0.0596175
  0
VERTEX
  8
0
 10
10.1956
 20
13.8284
 30
0.0
 40
0.0596175
 41
0.0596175
  0
VERTEX
  8
0
 10
10.0751
 20
13.8474
 30
0.0
 40
0.0596175
 41
0.0596175
  0
VERTEX
  8
0
 10
9.94997
 20
13.8529
 30
0.0
 40
0.0596175
 41
0.0596175
  0
VERTEX
  8
0
 10
9.82437
 20
13.8449
 30
0.0
 40
0.0596175
 41
0.0596175
  0
VERTEX
  8
0
 10
9.70264
 20
13.8235
 30
0.0
 40
0.0596175
 41
0.0596175
  0
VERTEX
  8
0
 10
9.58908
 20
13.7885
 30
0.0
 40
0.0596175
 41
0.0596175
  0
VERTEX
  8
0
 10
9.48807
 20
13.7402
 30
0.0
 40
0.0596175
 41
0.0596175
  0
VERTEX
  8
0
 10
9.37636
 20
13.6622
 30
0.0
 40
0.0596175
 41
0.0596175
  0
VERTEX
  8
0
 10
9.28065
 20
13.5704
 30
0.0
 40
0.0596175
 41
0.0596175
  0
VERTEX
  8
0
 10
9.20079
 20
13.467
 30
0.0
 40
0.0596175
 41
0.0596175
  0
VERTEX
  8
0
 10
9.13667
 20
13.3538
 30
0.0
 40
0.0596175
 41
0.0596175
  0
VERTEX
  8
0
 10
9.08817
 20
13.2333
 30
0.0
 40
0.0596175
 41
0.0596175
  0
VERTEX
  8
0
 10
9.05528
 20
13.1073
 30
0.0
 40
0.0596175
 41
0.0596175
  0
VERTEX
  8
0
 10
9.03782
 20
12.978
 30
0.0
 40
0.0596175
 41
0.0596175
  0
VERTEX
  8
0
 10
9.03581
 20
12.8474
 30
0.0
 40
0.0596175
 41
0.0596175
  0
VERTEX
  8
0
 10
9.0491
 20
12.7178
 30
0.0
 40
0.0596175
 41
0.0596175
  0
VERTEX
  8
0
 10
9.07753
 20
12.591
 30
0.0
 40
0.0596175
 41
0.0596175
  0
VERTEX
  8
0
 10
9.12115
 20
12.4693
 30
0.0
 40
0.0596175
 41
0.0596175
  0
VERTEX
  8
0
 10
9.17974
 20
12.3548
 30
0.0
 40
0.0596175
 41
0.0596175
  0
VERTEX
  8
0
 10
9.25331
 20
12.2494
 30
0.0
 40
0.0596175
 41
0.0596175
  0
VERTEX
  8
0
 10
9.34174
 20
12.1553
 30
0.0
 40
0.0596175
 41
0.0596175
  0
VERTEX
  8
0
 10
9.44493
 20
12.0747
 30
0.0
 40
0.0596175
 41
0.0596175
  0
VERTEX
  8
0
 10
9.56278
 20
12.0095
 30
0.0
 40
0.0596175
 41
0.0596175
  0
VERTEX
  8
0
 10
9.66428
 20
11.9749
 30
0.0
 40
0.0596175
 41
0.0596175
  0
VERTEX
  8
0
 10
9.78114
 20
11.954
 30
0.0
 40
0.0596175
 41
0.0596175
  0
VERTEX
  8
0
 10
9.90756
 20
11.9465
 30
0.0
 40
0.0596175
 41
0.0596175
  0
VERTEX
  8
0
 10
10.0377
 20
11.9517
 30
0.0
 40
0.0596175
 41
0.0596175
  0
VERTEX
  8
0
 10
10.1658
 20
11.9691
 30
0.0
 40
0.0596175
 41
0.0596175
  0
VERTEX
  8
0
 10
10.2861
 20
11.9983
 30
0.0
 40
0.0596175
 41
0.0596175
  0
VERTEX
  8
0
 10
10.3927
 20
12.0387
 30
0.0
 40
0.0596175
 41
0.0596175
  0
VERTEX
  8
0
 10
10.48
 20
12.0898
 30
0.0
 40
0.0596175
 41
0.0596175
  0
SEQEND
 8
0
  0
POLYLINE
  8
0
 62
     0
 66
     1
 10
0
 20
0
 30
0.0
 70
     1
 40
4.29246
 41
4.29246
  0
VERTEX
  8
0
 10
22.7418
 20
12.087
 30
0.0
 40
0.0596175
 41
0.0596175
  0
VERTEX
  8
0
 10
22.8351
 20
12.1676
 30
0.0
 40
0.0596175
 41
0.0596175
  0
VERTEX
  8
0
 10
22.9196
 20
12.265
 30
0.0
 40
0.0596175
 41
0.0596175
  0
VERTEX
  8
0
 10
22.9933
 20
12.3755
 30
0.0
 40
0.0596175
 41
0.0596175
  0
VERTEX
  8
0
 10
23.0546
 20
12.4953
 30
0.0
 40
0.0596175
 41
0.0596175
  0
VERTEX
  8
0
 10
23.1019
 20
12.6207
 30
0.0
 40
0.0596175
 41
0.0596175
  0
VERTEX
  8
0
 10
23.1336
 20
12.7479
 30
0.0
 40
0.0596175
 41
0.0596175
  0
VERTEX
  8
0
 10
23.1478
 20
12.873
 30
0.0
 40
0.0596175
 41
0.0596175
  0
VERTEX
  8
0
 10
23.1431
 20
12.9925
 30
0.0
 40
0.0596175
 41
0.0596175
  0
VERTEX
  8
0
 10
23.0979
 20
13.1934
 30
0.0
 40
0.0596175
 41
0.0596175
  0
VERTEX
  8
0
 10
23.0193
 20
13.3754
 30
0.0
 40
0.0596175
 41
0.0596175
  0
VERTEX
  8
0
 10
22.9115
 20
13.5349
 30
0.0
 40
0.0596175
 41
0.0596175
  0
VERTEX
  8
0
 10
22.7793
 20
13.6681
 30
0.0
 40
0.0596175
 41
0.0596175
  0
VERTEX
  8
0
 10
22.6271
 20
13.7712
 30
0.0
 40
0.0596175
 41
0.0596175
  0
VERTEX
  8
0
 10
22.4593
 20
13.8404
 30
0.0
 40
0.0596175
 41
0.0596175
  0
VERTEX
  8
0
 10
22.2807
 20
13.8721
 30
0.0
 40
0.0596175
 41
0.0596175
  0
VERTEX
  8
0
 10
22.0956
 20
13.8624
 30
0.0
 40
0.0596175
 41
0.0596175
  0
VERTEX
  8
0
 10
21.9333
 20
13.8199
 30
0.0
 40
0.0596175
 41
0.0596175
  0
VERTEX
  8
0
 10
21.7889
 20
13.7524
 30
0.0
 40
0.0596175
 41
0.0596175
  0
VERTEX
  8
0
 10
21.6625
 20
13.6631
 30
0.0
 40
0.0596175
 41
0.0596175
  0
VERTEX
  8
0
 10
21.5549
 20
13.5552
 30
0.0
 40
0.0596175
 41
0.0596175
  0
VERTEX
  8
0
 10
21.4662
 20
13.4321
 30
0.0
 40
0.0596175
 41
0.0596175
  0
VERTEX
  8
0
 10
21.3969
 20
13.2968
 30
0.0
 40
0.0596175
 41
0.0596175
  0
VERTEX
  8
0
 10
21.3475
 20
13.1527
 30
0.0
 40
0.0596175
 41
0.0596175
  0
VERTEX
  8
0
 10
21.3182
 20
13.0029
 30
0.0
 40
0.0596175
 41
0.0596175
  0
VERTEX
  8
0
 10
21.3096
 20
12.8509
 30
0.0
 40
0.0596175
 41
0.0596175
  0
VERTEX
  8
0
 10
21.3219
 20
12.6996
 30
0.0
 40
0.0596175
 41
0.0596175
  0
VERTEX
  8
0
 10
21.3557
 20
12.5525
 30
0.0
 40
0.0596175
 41
0.0596175
  0
VERTEX
  8
0
 10
21.4114
 20
12.4127
 30
0.0
 40
0.0596175
 41
0.0596175
  0
VERTEX
  8
0
 10
21.4893
 20
12.2834
 30
0.0
 40
0.0596175
 41
0.0596175
  0
VERTEX
  8
0
 10
21.5899
 20
12.1679
 30
0.0
 40
0.0596175
 41
0.0596175
  0
VERTEX
  8
0
 10
21.7136
 20
12.0696
 30
0.0
 40
0.0596175
 41
0.0596175
  0
VERTEX
  8
0
 10
21.8607
 20
11.9914
 30
0.0
 40
0.0596175
 41
0.0596175
  0
VERTEX
  8
0
 10
21.9529
 20
11.9639
 30
0.0
 40
0.0596175
 41
0.0596175
  0
VERTEX
  8
0
 10
22.0635
 20
11.9491
 30
0.0
 40
0.0596175
 41
0.0596175
  0
VERTEX
  8
0
 10
22.1857
 20
11.9463
 30
0.0
 40
0.0596175
 41
0.0596175
  0
VERTEX
  8
0
 10
22.3131
 20
11.9548
 30
0.0
 40
0.0596175
 41
0.0596175
  0
VERTEX
  8
0
 10
22.4389
 20
11.9738
 30
0.0
 40
0.0596175
 41
0.0596175
  0
VERTEX
  8
0
 10
22.5567
 20
12.0027
 30
0.0
 40
0.0596175
 41
0.0596175
  0
VERTEX
  8
0
 10
22.6599
 20
12.0406
 30
0.0
 40
0.0596175
 41
0.0596175
  0
VERTEX
  8
0
 10
22.7418
 20
12.087
 30
0.0
 40
0.0596175
 41
0.0596175
  0
SEQEND
 8
0
  0
POLYLINE
  8
0
 62
     0
 66
     1
 10
0
 20
0
 30
0.0
 70
     1
 40
4.29246
 41
4.29246
  0
VERTEX
  8
0
 10
13.1664
 20
14.6217
 30
0.0
 40
0.0596175
 41
0.0596175
  0
VERTEX
  8
0
 10
13.1638
 20
16.5412
 30
0.0
 40
0.0596175
 41
0.0596175
  0
VERTEX
  8
0
 10
12.5133
 20
15.8568
 30
0.0
 40
0.0596175
 41
0.0596175
  0
VERTEX
  8
0
 10
11.8628
 20
15.1722
 30
0.0
 40
0.0596175
 41
0.0596175
  0
VERTEX
  8
0
 10
11.8612
 20
13.9371
 30
0.0
 40
0.0596175
 41
0.0596175
  0
VERTEX
  8
0
 10
11.8595
 20
12.702
 30
0.0
 40
0.0596175
 41
0.0596175
  0
VERTEX
  8
0
 10
13.169
 20
12.702
 30
0.0
 40
0.0596175
 41
0.0596175
  0
VERTEX
  8
0
 10
13.1664
 20
14.6217
 30
0.0
 40
0.0596175
 41
0.0596175
  0
SEQEND
 8
0
  0
POLYLINE
  8
0
 62
     0
 66
     1
 10
0
 20
0
 30
0.0
 70
     1
 40
4.29246
 41
4.29246
  0
VERTEX
  8
0
 10
15.7285
 20
15.0532
 30
0.0
 40
0.0596175
 41
0.0596175
  0
VERTEX
  8
0
 10
15.7285
 20
17.4043
 30
0.0
 40
0.0596175
 41
0.0596175
  0
VERTEX
  8
0
 10
13.8833
 20
17.4043
 30
0.0
 40
0.0596175
 41
0.0596175
  0
VERTEX
  8
0
 10
13.8833
 20
12.702
 30
0.0
 40
0.0596175
 41
0.0596175
  0
VERTEX
  8
0
 10
15.7285
 20
12.702
 30
0.0
 40
0.0596175
 41
0.0596175
  0
VERTEX
  8
0
 10
15.7285
 20
15.0532
 30
0.0
 40
0.0596175
 41
0.0596175
  0
SEQEND
 8
0
  0
POLYLINE
  8
0
 62
     0
 66
     1
 10
0
 20
0
 30
0.0
 70
     1
 40
4.29246
 41
4.29246
  0
VERTEX
  8
0
 10
18.2881
 20
15.0532
 30
0.0
 40
0.0596175
 41
0.0596175
  0
VERTEX
  8
0
 10
18.2881
 20
17.4043
 30
0.0
 40
0.0596175
 41
0.0596175
  0
VERTEX
  8
0
 10
16.4428
 20
17.4043
 30
0.0
 40
0.0596175
 41
0.0596175
  0
VERTEX
  8
0
 10
16.4428
 20
12.702
 30
0.0
 40
0.0596175
 41
0.0596175
  0
VERTEX
  8
0
 10
18.2881
 20
12.702
 30
0.0
 40
0.0596175
 41
0.0596175
  0
VERTEX
  8
0
 10
18.2881
 20
15.0532
 30
0.0
 40
0.0596175
 41
0.0596175
  0
SEQEND
 8
0
  0
POLYLINE
  8
0
 62
     0
 66
     1
 10
0
 20
0
 30
0.0
 70
     1
 40
4.29246
 41
4.29246
  0
VERTEX
  8
0
 10
20.3565
 20
13.9222
 30
0.0
 40
0.0596175
 41
0.0596175
  0
VERTEX
  8
0
 10
20.3712
 20
15.1126
 30
0.0
 40
0.0596175
 41
0.0596175
  0
VERTEX
  8
0
 10
19.6897
 20
15.8269
 30
0.0
 40
0.0596175
 41
0.0596175
  0
VERTEX
  8
0
 10
19.0082
 20
16.5412
 30
0.0
 40
0.0596175
 41
0.0596175
  0
VERTEX
  8
0
 10
19.0024
 20
12.6981
 30
0.0
 40
0.0596175
 41
0.0596175
  0
VERTEX
  8
0
 10
19.6719
 20
12.7149
 30
0.0
 40
0.0596175
 41
0.0596175
  0
VERTEX
  8
0
 10
20.3417
 20
12.7318
 30
0.0
 40
0.0596175
 41
0.0596175
  0
VERTEX
  8
0
 10
20.3565
 20
13.9222
 30
0.0
 40
0.0596175
 41
0.0596175
  0
SEQEND
 8
0
  0
POLYLINE
  8
0
 62
     0
 66
     1
 10
0
 20
0
 30
0.0
 70
     1
 40
4.29246
 41
4.29246
  0
VERTEX
  8
0
 10
4.23807
 20
14.5324
 30
0.0
 40
0.0596175
 41
0.0596175
  0
VERTEX
  8
0
 10
4.25276
 20
14.5474
 30
0.0
 40
0.0596175
 41
0.0596175
  0
VERTEX
  8
0
 10
4.26861
 20
14.5669
 30
0.0
 40
0.0596175
 41
0.0596175
  0
VERTEX
  8
0
 10
4.28575
 20
14.5912
 30
0.0
 40
0.0596175
 41
0.0596175
  0
VERTEX
  8
0
 10
4.30453
 20
14.6211
 30
0.0
 40
0.0596175
 41
0.0596175
  0
VERTEX
  8
0
 10
4.32497
 20
14.6569
 30
0.0
 40
0.0596175
 41
0.0596175
  0
VERTEX
  8
0
 10
4.34744
 20
14.6993
 30
0.0
 40
0.0596175
 41
0.0596175
  0
VERTEX
  8
0
 10
4.37213
 20
14.7488
 30
0.0
 40
0.0596175
 41
0.0596175
  0
VERTEX
  8
0
 10
4.39914
 20
14.8058
 30
0.0
 40
0.0596175
 41
0.0596175
  0
VERTEX
  8
0
 10
4.42882
 20
14.8712
 30
0.0
 40
0.0596175
 41
0.0596175
  0
VERTEX
  8
0
 10
4.46132
 20
14.9453
 30
0.0
 40
0.0596175
 41
0.0596175
  0
VERTEX
  8
0
 10
4.49681
 20
15.0285
 30
0.0
 40
0.0596175
 41
0.0596175
  0
VERTEX
  8
0
 10
4.5356
 20
15.1217
 30
0.0
 40
0.0596175
 41
0.0596175
  0
VERTEX
  8
0
 10
4.57781
 20
15.2251
 30
0.0
 40
0.0596175
 41
0.0596175
  0
VERTEX
  8
0
 10
4.62364
 20
15.3396
 30
0.0
 40
0.0596175
 41
0.0596175
  0
VERTEX
  8
0
 10
4.67344
 20
15.4654
 30
0.0
 40
0.0596175
 41
0.0596175
  0
VERTEX
  8
0
 10
4.72726
 20
15.6033
 30
0.0
 40
0.0596175
 41
0.0596175
  0
VERTEX
  8
0
 10
4.78543
 20
15.7538
 30
0.0
 40
0.0596175
 41
0.0596175
  0
VERTEX
  8
0
 10
4.8481
 20
15.9172
 30
0.0
 40
0.0596175
 41
0.0596175
  0
VERTEX
  8
0
 10
4.91553
 20
16.0944
 30
0.0
 40
0.0596175
 41
0.0596175
  0
VERTEX
  8
0
 10
4.98785
 20
16.2857
 30
0.0
 40
0.0596175
 41
0.0596175
  0
VERTEX
  8
0
 10
5.06532
 20
16.4918
 30
0.0
 40
0.0596175
 41
0.0596175
  0
VERTEX
  8
0
 10
5.14817
 20
16.7131
 30
0.0
 40
0.0596175
 41
0.0596175
  0
VERTEX
  8
0
 10
5.2366
 20
16.9501
 30
0.0
 40
0.0596175
 41
0.0596175
  0
VERTEX
  8
0
 10
5.33083
 20
17.2036
 30
0.0
 40
0.0596175
 41
0.0596175
  0
VERTEX
  8
0
 10
5.43099
 20
17.474
 30
0.0
 40
0.0596175
 41
0.0596175
  0
VERTEX
  8
0
 10
5.53743
 20
17.7619
 30
0.0
 40
0.0596175
 41
0.0596175
  0
VERTEX
  8
0
 10
5.65028
 20
18.0678
 30
0.0
 40
0.0596175
 41
0.0596175
  0
VERTEX
  8
0
 10
5.76975
 20
18.3921
 30
0.0
 40
0.0596175
 41
0.0596175
  0
VERTEX
  8
0
 10
5.89606
 20
18.7356
 30
0.0
 40
0.0596175
 41
0.0596175
  0
VERTEX
  8
0
 10
6.0294
 20
19.0987
 30
0.0
 40
0.0596175
 41
0.0596175
  0
VERTEX
  8
0
 10
6.17003
 20
19.4819
 30
0.0
 40
0.0596175
 41
0.0596175
  0
VERTEX
  8
0
 10
6.31819
 20
19.886
 30
0.0
 40
0.0596175
 41
0.0596175
  0
VERTEX
  8
0
 10
6.51303
 20
20.4172
 30
0.0
 40
0.0596175
 41
0.0596175
  0
VERTEX
  8
0
 10
6.70464
 20
20.9385
 30
0.0
 40
0.0596175
 41
0.0596175
  0
VERTEX
  8
0
 10
6.89188
 20
21.4472
 30
0.0
 40
0.0596175
 41
0.0596175
  0
VERTEX
  8
0
 10
7.07362
 20
21.94
 30
0.0
 40
0.0596175
 41
0.0596175
  0
VERTEX
  8
0
 10
7.24881
 20
22.4143
 30
0.0
 40
0.0596175
 41
0.0596175
  0
VERTEX
  8
0
 10
7.41639
 20
22.8671
 30
0.0
 40
0.0596175
 41
0.0596175
  0
VERTEX
  8
0
 10
7.57531
 20
23.2954
 30
0.0
 40
0.0596175
 41
0.0596175
  0
VERTEX
  8
0
 10
7.72439
 20
23.6963
 30
0.0
 40
0.0596175
 41
0.0596175
  0
VERTEX
  8
0
 10
7.86257
 20
24.0669
 30
0.0
 40
0.0596175
 41
0.0596175
  0
VERTEX
  8
0
 10
7.98882
 20
24.4046
 30
0.0
 40
0.0596175
 41
0.0596175
  0
VERTEX
  8
0
 10
8.102
 20
24.7058
 30
0.0
 40
0.0596175
 41
0.0596175
  0
VERTEX
  8
0
 10
8.20107
 20
24.9683
 30
0.0
 40
0.0596175
 41
0.0596175
  0
VERTEX
  8
0
 10
8.28489
 20
25.1887
 30
0.0
 40
0.0596175
 41
0.0596175
  0
VERTEX
  8
0
 10
8.35243
 20
25.3644
 30
0.0
 40
0.0596175
 41
0.0596175
  0
VERTEX
  8
0
 10
8.40256
 20
25.4924
 30
0.0
 40
0.0596175
 41
0.0596175
  0
VERTEX
  8
0
 10
8.43425
 20
25.5694
 30
0.0
 40
0.0596175
 41
0.0596175
  0
VERTEX
  8
0
 10
8.5905
 20
25.9124
 30
0.0
 40
0.0596175
 41
0.0596175
  0
VERTEX
  8
0
 10
8.7519
 20
26.2307
 30
0.0
 40
0.0596175
 41
0.0596175
  0
VERTEX
  8
0
 10
8.91917
 20
26.525
 30
0.0
 40
0.0596175
 41
0.0596175
  0
VERTEX
  8
0
 10
9.09299
 20
26.7961
 30
0.0
 40
0.0596175
 41
0.0596175
  0
VERTEX
  8
0
 10
9.27408
 20
27.0444
 30
0.0
 40
0.0596175
 41
0.0596175
  0
VERTEX
  8
0
 10
9.46326
 20
27.2706
 30
0.0
 40
0.0596175
 41
0.0596175
  0
VERTEX
  8
0
 10
9.66129
 20
27.4751
 30
0.0
 40
0.0596175
 41
0.0596175
  0
VERTEX
  8
0
 10
9.86882
 20
27.6588
 30
0.0
 40
0.0596175
 41
0.0596175
  0
VERTEX
  8
0
 10
10.0866
 20
27.8222
 30
0.0
 40
0.0596175
 41
0.0596175
  0
VERTEX
  8
0
 10
10.3154
 20
27.9658
 30
0.0
 40
0.0596175
 41
0.0596175
  0
VERTEX
  8
0
 10
10.556
 20
28.0903
 30
0.0
 40
0.0596175
 41
0.0596175
  0
VERTEX
  8
0
 10
10.8091
 20
28.1963
 30
0.0
 40
0.0596175
 41
0.0596175
  0
VERTEX
  8
0
 10
11.0754
 20
28.2842
 30
0.0
 40
0.0596175
 41
0.0596175
  0
VERTEX
  8
0
 10
11.3557
 20
28.355
 30
0.0
 40
0.0596175
 41
0.0596175
  0
VERTEX
  8
0
 10
11.6507
 20
28.409
 30
0.0
 40
0.0596175
 41
0.0596175
  0
VERTEX
  8
0
 10
11.9612
 20
28.4469
 30
0.0
 40
0.0596175
 41
0.0596175
  0
VERTEX
  8
0
 10
12.2824
 20
28.46
 30
0.0
 40
0.0596175
 41
0.0596175
  0
VERTEX
  8
0
 10
12.6144
 20
28.4403
 30
0.0
 40
0.0596175
 41
0.0596175
  0
VERTEX
  8
0
 10
12.9536
 20
28.3888
 30
0.0
 40
0.0596175
 41
0.0596175
  0
VERTEX
  8
0
 10
13.2967
 20
28.3065
 30
0.0
 40
0.0596175
 41
0.0596175
  0
VERTEX
  8
0
 10
13.6403
 20
28.1944
 30
0.0
 40
0.0596175
 41
0.0596175
  0
VERTEX
  8
0
 10
13.9808
 20
28.0533
 30
0.0
 40
0.0596175
 41
0.0596175
  0
VERTEX
  8
0
 10
14.3151
 20
27.8844
 30
0.0
 40
0.0596175
 41
0.0596175
  0
VERTEX
  8
0
 10
14.6397
 20
27.6885
 30
0.0
 40
0.0596175
 41
0.0596175
  0
VERTEX
  8
0
 10
14.8583
 20
27.5497
 30
0.0
 40
0.0596175
 41
0.0596175
  0
VERTEX
  8
0
 10
15.0546
 20
27.436
 30
0.0
 40
0.0596175
 41
0.0596175
  0
VERTEX
  8
0
 10
15.2342
 20
27.3453
 30
0.0
 40
0.0596175
 41
0.0596175
  0
VERTEX
  8
0
 10
15.4022
 20
27.2756
 30
0.0
 40
0.0596175
 41
0.0596175
  0
VERTEX
  8
0
 10
15.5646
 20
27.2247
 30
0.0
 40
0.0596175
 41
0.0596175
  0
VERTEX
  8
0
 10
15.7265
 20
27.191
 30
0.0
 40
0.0596175
 41
0.0596175
  0
VERTEX
  8
0
 10
15.8936
 20
27.1724
 30
0.0
 40
0.0596175
 41
0.0596175
  0
VERTEX
  8
0
 10
16.0714
 20
27.1667
 30
0.0
 40
0.0596175
 41
0.0596175
  0
VERTEX
  8
0
 10
16.2637
 20
27.1704
 30
0.0
 40
0.0596175
 41
0.0596175
  0
VERTEX
  8
0
 10
16.4314
 20
27.1835
 30
0.0
 40
0.0596175
 41
0.0596175
  0
VERTEX
  8
0
 10
16.5839
 20
27.209
 30
0.0
 40
0.0596175
 41
0.0596175
  0
VERTEX
  8
0
 10
16.7307
 20
27.2506
 30
0.0
 40
0.0596175
 41
0.0596175
  0
VERTEX
  8
0
 10
16.8814
 20
27.3114
 30
0.0
 40
0.0596175
 41
0.0596175
  0
VERTEX
  8
0
 10
17.0457
 20
27.3946
 30
0.0
 40
0.0596175
 41
0.0596175
  0
VERTEX
  8
0
 10
17.2332
 20
27.5036
 30
0.0
 40
0.0596175
 41
0.0596175
  0
VERTEX
  8
0
 10
17.4535
 20
27.6417
 30
0.0
 40
0.0596175
 41
0.0596175
  0
VERTEX
  8
0
 10
17.9039
 20
27.9075
 30
0.0
 40
0.0596175
 41
0.0596175
  0
VERTEX
  8
0
 10
18.345
 20
28.12
 30
0.0
 40
0.0596175
 41
0.0596175
  0
VERTEX
  8
0
 10
18.7806
 20
28.2803
 30
0.0
 40
0.0596175
 41
0.0596175
  0
VERTEX
  8
0
 10
19.2138
 20
28.3886
 30
0.0
 40
0.0596175
 41
0.0596175
  0
VERTEX
  8
0
 10
19.6485
 20
28.4457
 30
0.0
 40
0.0596175
 41
0.0596175
  0
VERTEX
  8
0
 10
20.0881
 20
28.4525
 30
0.0
 40
0.0596175
 41
0.0596175
  0
VERTEX
  8
0
 10
20.5362
 20
28.4096
 30
0.0
 40
0.0596175
 41
0.0596175
  0
VERTEX
  8
0
 10
20.9964
 20
28.3175
 30
0.0
 40
0.0596175
 41
0.0596175
  0
VERTEX
  8
0
 10
21.4064
 20
28.1871
 30
0.0
 40
0.0596175
 41
0.0596175
  0
VERTEX
  8
0
 10
21.7911
 20
28.0058
 30
0.0
 40
0.0596175
 41
0.0596175
  0
VERTEX
  8
0
 10
22.1521
 20
27.7722
 30
0.0
 40
0.0596175
 41
0.0596175
  0
VERTEX
  8
0
 10
22.4906
 20
27.4849
 30
0.0
 40
0.0596175
 41
0.0596175
  0
VERTEX
  8
0
 10
22.8083
 20
27.1424
 30
0.0
 40
0.0596175
 41
0.0596175
  0
VERTEX
  8
0
 10
23.1065
 20
26.7433
 30
0.0
 40
0.0596175
 41
0.0596175
  0
VERTEX
  8
0
 10
23.3868
 20
26.2864
 30
0.0
 40
0.0596175
 41
0.0596175
  0
VERTEX
  8
0
 10
23.6507
 20
25.77
 30
0.0
 40
0.0596175
 41
0.0596175
  0
VERTEX
  8
0
 10
23.6843
 20
25.6925
 30
0.0
 40
0.0596175
 41
0.0596175
  0
VERTEX
  8
0
 10
23.7367
 20
25.5632
 30
0.0
 40
0.0596175
 41
0.0596175
  0
VERTEX
  8
0
 10
23.8067
 20
25.3851
 30
0.0
 40
0.0596175
 41
0.0596175
  0
VERTEX
  8
0
 10
23.8932
 20
25.1614
 30
0.0
 40
0.0596175
 41
0.0596175
  0
VERTEX
  8
0
 10
23.9953
 20
24.8949
 30
0.0
 40
0.0596175
 41
0.0596175
  0
VERTEX
  8
0
 10
24.1117
 20
24.5885
 30
0.0
 40
0.0596175
 41
0.0596175
  0
VERTEX
  8
0
 10
24.2414
 20
24.2453
 30
0.0
 40
0.0596175
 41
0.0596175
  0
VERTEX
  8
0
 10
24.3831
 20
23.8681
 30
0.0
 40
0.0596175
 41
0.0596175
  0
VERTEX
  8
0
 10
24.5358
 20
23.4601
 30
0.0
 40
0.0596175
 41
0.0596175
  0
VERTEX
  8
0
 10
24.6985
 20
23.024
 30
0.0
 40
0.0596175
 41
0.0596175
  0
VERTEX
  8
0
 10
24.8699
 20
22.5631
 30
0.0
 40
0.0596175
 41
0.0596175
  0
VERTEX
  8
0
 10
25.049
 20
22.08
 30
0.0
 40
0.0596175
 41
0.0596175
  0
VERTEX
  8
0
 10
25.2346
 20
21.5779
 30
0.0
 40
0.0596175
 41
0.0596175
  0
VERTEX
  8
0
 10
25.4257
 20
21.0597
 30
0.0
 40
0.0596175
 41
0.0596175
  0
VERTEX
  8
0
 10
25.6211
 20
20.5283
 30
0.0
 40
0.0596175
 41
0.0596175
  0
VERTEX
  8
0
 10
25.8199
 20
19.9868
 30
0.0
 40
0.0596175
 41
0.0596175
  0
VERTEX
  8
0
 10
26.0133
 20
19.4583
 30
0.0
 40
0.0596175
 41
0.0596175
  0
VERTEX
  8
0
 10
26.1944
 20
18.964
 30
0.0
 40
0.0596175
 41
0.0596175
  0
VERTEX
  8
0
 10
26.3635
 20
18.5028
 30
0.0
 40
0.0596175
 41
0.0596175
  0
VERTEX
  8
0
 10
26.5211
 20
18.0733
 30
0.0
 40
0.0596175
 41
0.0596175
  0
VERTEX
  8
0
 10
26.6676
 20
17.6747
 30
0.0
 40
0.0596175
 41
0.0596175
  0
VERTEX
  8
0
 10
26.8038
 20
17.3057
 30
0.0
 40
0.0596175
 41
0.0596175
  0
VERTEX
  8
0
 10
26.9299
 20
16.9653
 30
0.0
 40
0.0596175
 41
0.0596175
  0
VERTEX
  8
0
 10
27.0465
 20
16.6521
 30
0.0
 40
0.0596175
 41
0.0596175
  0
VERTEX
  8
0
 10
27.1543
 20
16.3651
 30
0.0
 40
0.0596175
 41
0.0596175
  0
VERTEX
  8
0
 10
27.2538
 20
16.1032
 30
0.0
 40
0.0596175
 41
0.0596175
  0
VERTEX
  8
0
 10
27.3451
 20
15.8651
 30
0.0
 40
0.0596175
 41
0.0596175
  0
VERTEX
  8
0
 10
27.4293
 20
15.6499
 30
0.0
 40
0.0596175
 41
0.0596175
  0
VERTEX
  8
0
 10
27.5064
 20
15.4562
 30
0.0
 40
0.0596175
 41
0.0596175
  0
VERTEX
  8
0
 10
27.5774
 20
15.2832
 30
0.0
 40
0.0596175
 41
0.0596175
  0
VERTEX
  8
0
 10
27.6424
 20
15.1294
 30
0.0
 40
0.0596175
 41
0.0596175
  0
VERTEX
  8
0
 10
27.7021
 20
14.9938
 30
0.0
 40
0.0596175
 41
0.0596175
  0
VERTEX
  8
0
 10
27.7569
 20
14.8753
 30
0.0
 40
0.0596175
 41
0.0596175
  0
VERTEX
  8
0
 10
27.8076
 20
14.7726
 30
0.0
 40
0.0596175
 41
0.0596175
  0
VERTEX
  8
0
 10
27.8544
 20
14.6849
 30
0.0
 40
0.0596175
 41
0.0596175
  0
VERTEX
  8
0
 10
27.8981
 20
14.6107
 30
0.0
 40
0.0596175
 41
0.0596175
  0
VERTEX
  8
0
 10
27.9389
 20
14.549
 30
0.0
 40
0.0596175
 41
0.0596175
  0
VERTEX
  8
0
 10
27.9775
 20
14.4988
 30
0.0
 40
0.0596175
 41
0.0596175
  0
VERTEX
  8
0
 10
28.0144
 20
14.4586
 30
0.0
 40
0.0596175
 41
0.0596175
  0
VERTEX
  8
0
 10
28.0501
 20
14.4275
 30
0.0
 40
0.0596175
 41
0.0596175
  0
VERTEX
  8
0
 10
28.0851
 20
14.4044
 30
0.0
 40
0.0596175
 41
0.0596175
  0
VERTEX
  8
0
 10
28.12
 20
14.3881
 30
0.0
 40
0.0596175
 41
0.0596175
  0
VERTEX
  8
0
 10
28.1553
 20
14.3774
 30
0.0
 40
0.0596175
 41
0.0596175
  0
VERTEX
  8
0
 10
28.1913
 20
14.3712
 30
0.0
 40
0.0596175
 41
0.0596175
  0
VERTEX
  8
0
 10
28.2286
 20
14.3683
 30
0.0
 40
0.0596175
 41
0.0596175
  0
VERTEX
  8
0
 10
28.2681
 20
14.3678
 30
0.0
 40
0.0596175
 41
0.0596175
  0
VERTEX
  8
0
 10
28.3097
 20
14.3683
 30
0.0
 40
0.0596175
 41
0.0596175
  0
VERTEX
  8
0
 10
28.3544
 20
14.3686
 30
0.0
 40
0.0596175
 41
0.0596175
  0
VERTEX
  8
0
 10
28.4842
 20
14.3772
 30
0.0
 40
0.0596175
 41
0.0596175
  0
VERTEX
  8
0
 10
28.5896
 20
14.4083
 30
0.0
 40
0.0596175
 41
0.0596175
  0
VERTEX
  8
0
 10
28.6888
 20
14.4703
 30
0.0
 40
0.0596175
 41
0.0596175
  0
VERTEX
  8
0
 10
28.8
 20
14.571
 30
0.0
 40
0.0596175
 41
0.0596175
  0
VERTEX
  8
0
 10
28.9025
 20
14.6837
 30
0.0
 40
0.0596175
 41
0.0596175
  0
VERTEX
  8
0
 10
28.9642
 20
14.7842
 30
0.0
 40
0.0596175
 41
0.0596175
  0
VERTEX
  8
0
 10
28.9943
 20
14.8932
 30
0.0
 40
0.0596175
 41
0.0596175
  0
VERTEX
  8
0
 10
29.0024
 20
15.0325
 30
0.0
 40
0.0596175
 41
0.0596175
  0
VERTEX
  8
0
 10
28.9965
 20
15.0828
 30
0.0
 40
0.0596175
 41
0.0596175
  0
VERTEX
  8
0
 10
28.9787
 20
15.1631
 30
0.0
 40
0.0596175
 41
0.0596175
  0
VERTEX
  8
0
 10
28.9483
 20
15.2749
 30
0.0
 40
0.0596175
 41
0.0596175
  0
VERTEX
  8
0
 10
28.9047
 20
15.42
 30
0.0
 40
0.0596175
 41
0.0596175
  0
VERTEX
  8
0
 10
28.8472
 20
15.6004
 30
0.0
 40
0.0596175
 41
0.0596175
  0
VERTEX
  8
0
 10
28.7753
 20
15.8176
 30
0.0
 40
0.0596175
 41
0.0596175
  0
VERTEX
  8
0
 10
28.6882
 20
16.0736
 30
0.0
 40
0.0596175
 41
0.0596175
  0
VERTEX
  8
0
 10
28.5854
 20
16.37
 30
0.0
 40
0.0596175
 41
0.0596175
  0
VERTEX
  8
0
 10
28.4664
 20
16.7088
 30
0.0
 40
0.0596175
 41
0.0596175
  0
VERTEX
  8
0
 10
28.3304
 20
17.0914
 30
0.0
 40
0.0596175
 41
0.0596175
  0
VERTEX
  8
0
 10
28.1768
 20
17.5199
 30
0.0
 40
0.0596175
 41
0.0596175
  0
VERTEX
  8
0
 10
28.005
 20
17.9958
 30
0.0
 40
0.0596175
 41
0.0596175
  0
VERTEX
  8
0
 10
27.8144
 20
18.5211
 30
0.0
 40
0.0596175
 41
0.0596175
  0
VERTEX
  8
0
 10
27.6044
 20
19.0975
 30
0.0
 40
0.0596175
 41
0.0596175
  0
VERTEX
  8
0
 10
27.3744
 20
19.7267
 30
0.0
 40
0.0596175
 41
0.0596175
  0
VERTEX
  8
0
 10
27.1239
 20
20.4104
 30
0.0
 40
0.0596175
 41
0.0596175
  0
VERTEX
  8
0
 10
26.9404
 20
20.9104
 30
0.0
 40
0.0596175
 41
0.0596175
  0
VERTEX
  8
0
 10
26.7674
 20
21.3817
 30
0.0
 40
0.0596175
 41
0.0596175
  0
VERTEX
  8
0
 10
26.6046
 20
21.8249
 30
0.0
 40
0.0596175
 41
0.0596175
  0
VERTEX
  8
0
 10
26.4514
 20
22.2411
 30
0.0
 40
0.0596175
 41
0.0596175
  0
VERTEX
  8
0
 10
26.3078
 20
22.6315
 30
0.0
 40
0.0596175
 41
0.0596175
  0
VERTEX
  8
0
 10
26.1731
 20
22.9969
 30
0.0
 40
0.0596175
 41
0.0596175
  0
VERTEX
  8
0
 10
26.0469
 20
23.3385
 30
0.0
 40
0.0596175
 41
0.0596175
  0
VERTEX
  8
0
 10
25.929
 20
23.6571
 30
0.0
 40
0.0596175
 41
0.0596175
  0
VERTEX
  8
0
 10
25.8189
 20
23.9538
 30
0.0
 40
0.0596175
 41
0.0596175
  0
VERTEX
  8
0
 10
25.7162
 20
24.2294
 30
0.0
 40
0.0596175
 41
0.0596175
  0
VERTEX
  8
0
 10
25.6206
 20
24.4851
 30
0.0
 40
0.0596175
 41
0.0596175
  0
VERTEX
  8
0
 10
25.5315
 20
24.7221
 30
0.0
 40
0.0596175
 41
0.0596175
  0
VERTEX
  8
0
 10
25.4488
 20
24.941
 30
0.0
 40
0.0596175
 41
0.0596175
  0
VERTEX
  8
0
 10
25.3719
 20
25.1429
 30
0.0
 40
0.0596175
 41
0.0596175
  0
VERTEX
  8
0
 10
25.3006
 20
25.3289
 30
0.0
 40
0.0596175
 41
0.0596175
  0
VERTEX
  8
0
 10
25.2343
 20
25.5
 30
0.0
 40
0.0596175
 41
0.0596175
  0
VERTEX
  8
0
 10
25.1726
 20
25.6569
 30
0.0
 40
0.0596175
 41
0.0596175
  0
VERTEX
  8
0
 10
25.1154
 20
25.8011
 30
0.0
 40
0.0596175
 41
0.0596175
  0
VERTEX
  8
0
 10
25.0621
 20
25.9333
 30
0.0
 40
0.0596175
 41
0.0596175
  0
VERTEX
  8
0
 10
25.0122
 20
26.0546
 30
0.0
 40
0.0596175
 41
0.0596175
  0
VERTEX
  8
0
 10
24.9657
 20
26.1658
 30
0.0
 40
0.0596175
 41
0.0596175
  0
VERTEX
  8
0
 10
24.9218
 20
26.2681
 30
0.0
 40
0.0596175
 41
0.0596175
  0
VERTEX
  8
0
 10
24.8803
 20
26.3625
 30
0.0
 40
0.0596175
 41
0.0596175
  0
VERTEX
  8
0
 10
24.8407
 20
26.4499
 30
0.0
 40
0.0596175
 41
0.0596175
  0
VERTEX
  8
0
 10
24.8028
 20
26.5313
 30
0.0
 40
0.0596175
 41
0.0596175
  0
VERTEX
  8
0
 10
24.7661
 20
26.6076
 30
0.0
 40
0.0596175
 41
0.0596175
  0
VERTEX
  8
0
 10
24.7301
 20
26.68
 30
0.0
 40
0.0596175
 41
0.0596175
  0
VERTEX
  8
0
 10
24.6947
 20
26.7494
 30
0.0
 40
0.0596175
 41
0.0596175
  0
VERTEX
  8
0
 10
24.6593
 20
26.8169
 30
0.0
 40
0.0596175
 41
0.0596175
  0
VERTEX
  8
0
 10
24.6235
 20
26.8835
 30
0.0
 40
0.0596175
 41
0.0596175
  0
VERTEX
  8
0
 10
24.5869
 20
26.95
 30
0.0
 40
0.0596175
 41
0.0596175
  0
VERTEX
  8
0
 10
24.5493
 20
27.0175
 30
0.0
 40
0.0596175
 41
0.0596175
  0
VERTEX
  8
0
 10
24.3396
 20
27.3719
 30
0.0
 40
0.0596175
 41
0.0596175
  0
VERTEX
  8
0
 10
24.1219
 20
27.7011
 30
0.0
 40
0.0596175
 41
0.0596175
  0
VERTEX
  8
0
 10
23.8956
 20
28.0054
 30
0.0
 40
0.0596175
 41
0.0596175
  0
VERTEX
  8
0
 10
23.6601
 20
28.2853
 30
0.0
 40
0.0596175
 41
0.0596175
  0
VERTEX
  8
0
 10
23.415
 20
28.5408
 30
0.0
 40
0.0596175
 41
0.0596175
  0
VERTEX
  8
0
 10
23.1597
 20
28.7726
 30
0.0
 40
0.0596175
 41
0.0596175
  0
VERTEX
  8
0
 10
22.8936
 20
28.9808
 30
0.0
 40
0.0596175
 41
0.0596175
  0
VERTEX
  8
0
 10
22.6163
 20
29.1658
 30
0.0
 40
0.0596175
 41
0.0596175
  0
VERTEX
  8
0
 10
22.3269
 20
29.3281
 30
0.0
 40
0.0596175
 41
0.0596175
  0
VERTEX
  8
0
 10
22.0253
 20
29.4676
 30
0.0
 40
0.0596175
 41
0.0596175
  0
VERTEX
  8
0
 10
21.7108
 20
29.5851
 30
0.0
 40
0.0596175
 41
0.0596175
  0
VERTEX
  8
0
 10
21.3826
 20
29.6807
 30
0.0
 40
0.0596175
 41
0.0596175
  0
VERTEX
  8
0
 10
21.0407
 20
29.7547
 30
0.0
 40
0.0596175
 41
0.0596175
  0
VERTEX
  8
0
 10
20.684
 20
29.8076
 30
0.0
 40
0.0596175
 41
0.0596175
  0
VERTEX
  8
0
 10
20.3124
 20
29.8397
 30
0.0
 40
0.0596175
 41
0.0596175
  0
VERTEX
  8
0
 10
19.925
 20
29.8511
 30
0.0
 40
0.0596175
 41
0.0596175
  0
VERTEX
  8
0
 10
19.5167
 20
29.8396
 30
0.0
 40
0.0596175
 41
0.0596175
  0
VERTEX
  8
0
 10
19.125
 20
29.8015
 30
0.0
 40
0.0596175
 41
0.0596175
  0
VERTEX
  8
0
 10
18.7457
 20
29.7354
 30
0.0
 40
0.0596175
 41
0.0596175
  0
VERTEX
  8
0
 10
18.3744
 20
29.64
 30
0.0
 40
0.0596175
 41
0.0596175
  0
VERTEX
  8
0
 10
18.0072
 20
29.5143
 30
0.0
 40
0.0596175
 41
0.0596175
  0
VERTEX
  8
0
 10
17.6399
 20
29.3569
 30
0.0
 40
0.0596175
 41
0.0596175
  0
VERTEX
  8
0
 10
17.2681
 20
29.1665
 30
0.0
 40
0.0596175
 41
0.0596175
  0
VERTEX
  8
0
 10
16.8876
 20
28.9419
 30
0.0
 40
0.0596175
 41
0.0596175
  0
VERTEX
  8
0
 10
16.6368
 20
28.7894
 30
0.0
 40
0.0596175
 41
0.0596175
  0
VERTEX
  8
0
 10
16.4303
 20
28.6786
 30
0.0
 40
0.0596175
 41
0.0596175
  0
VERTEX
  8
0
 10
16.256
 20
28.6089
 30
0.0
 40
0.0596175
 41
0.0596175
  0
VERTEX
  8
0
 10
16.1018
 20
28.5792
 30
0.0
 40
0.0596175
 41
0.0596175
  0
VERTEX
  8
0
 10
15.9558
 20
28.589
 30
0.0
 40
0.0596175
 41
0.0596175
  0
VERTEX
  8
0
 10
15.806
 20
28.6375
 30
0.0
 40
0.0596175
 41
0.0596175
  0
VERTEX
  8
0
 10
15.64
 20
28.7238
 30
0.0
 40
0.0596175
 41
0.0596175
  0
VERTEX
  8
0
 10
15.4461
 20
28.8469
 30
0.0
 40
0.0596175
 41
0.0596175
  0
VERTEX
  8
0
 10
15.0539
 20
29.0931
 30
0.0
 40
0.0596175
 41
0.0596175
  0
VERTEX
  8
0
 10
14.6681
 20
29.3022
 30
0.0
 40
0.0596175
 41
0.0596175
  0
VERTEX
  8
0
 10
14.2849
 20
29.4757
 30
0.0
 40
0.0596175
 41
0.0596175
  0
VERTEX
  8
0
 10
13.9007
 20
29.615
 30
0.0
 40
0.0596175
 41
0.0596175
  0
VERTEX
  8
0
 10
13.5117
 20
29.721
 30
0.0
 40
0.0596175
 41
0.0596175
  0
VERTEX
  8
0
 10
13.1143
 20
29.7949
 30
0.0
 40
0.0596175
 41
0.0596175
  0
VERTEX
  8
0
 10
12.7046
 20
29.8378
 30
0.0
 40
0.0596175
 41
0.0596175
  0
VERTEX
  8
0
 10
12.2792
 20
29.8511
 30
0.0
 40
0.0596175
 41
0.0596175
  0
VERTEX
  8
0
 10
11.8517
 20
29.8381
 30
0.0
 40
0.0596175
 41
0.0596175
  0
VERTEX
  8
0
 10
11.4437
 20
29.8008
 30
0.0
 40
0.0596175
 41
0.0596175
  0
VERTEX
  8
0
 10
11.0546
 20
29.7389
 30
0.0
 40
0.0596175
 41
0.0596175
  0
VERTEX
  8
0
 10
10.6834
 20
29.6517
 30
0.0
 40
0.0596175
 41
0.0596175
  0
VERTEX
  8
0
 10
10.3293
 20
29.5386
 30
0.0
 40
0.0596175
 41
0.0596175
  0
VERTEX
  8
0
 10
9.9916
 20
29.3992
 30
0.0
 40
0.0596175
 41
0.0596175
  0
VERTEX
  8
0
 10
9.66932
 20
29.2328
 30
0.0
 40
0.0596175
 41
0.0596175
  0
VERTEX
  8
0
 10
9.36182
 20
29.0388
 30
0.0
 40
0.0596175
 41
0.0596175
  0
VERTEX
  8
0
 10
9.06814
 20
28.8168
 30
0.0
 40
0.0596175
 41
0.0596175
  0
VERTEX
  8
0
 10
8.7876
 20
28.5661
 30
0.0
 40
0.0596175
 41
0.0596175
  0
VERTEX
  8
0
 10
8.51938
 20
28.2863
 30
0.0
 40
0.0596175
 41
0.0596175
  0
VERTEX
  8
0
 10
8.26253
 20
27.9765
 30
0.0
 40
0.0596175
 41
0.0596175
  0
VERTEX
  8
0
 10
8.01639
 20
27.6365
 30
0.0
 40
0.0596175
 41
0.0596175
  0
VERTEX
  8
0
 10
7.78006
 20
27.2657
 30
0.0
 40
0.0596175
 41
0.0596175
  0
VERTEX
  8
0
 10
7.55274
 20
26.8633
 30
0.0
 40
0.0596175
 41
0.0596175
  0
VERTEX
  8
0
 10
7.33371
 20
26.4289
 30
0.0
 40
0.0596175
 41
0.0596175
  0
VERTEX
  8
0
 10
7.27767
 20
26.305
 30
0.0
 40
0.0596175
 41
0.0596175
  0
VERTEX
  8
0
 10
7.20443
 20
26.1317
 30
0.0
 40
0.0596175
 41
0.0596175
  0
VERTEX
  8
0
 10
7.11513
 20
25.9126
 30
0.0
 40
0.0596175
 41
0.0596175
  0
VERTEX
  8
0
 10
7.01101
 20
25.6513
 30
0.0
 40
0.0596175
 41
0.0596175
  0
VERTEX
  8
0
 10
6.89339
 20
25.3508
 30
0.0
 40
0.0596175
 41
0.0596175
  0
VERTEX
  8
0
 10
6.76346
 20
25.015
 30
0.0
 40
0.0596175
 41
0.0596175
  0
VERTEX
  8
0
 10
6.6225
 20
24.6469
 30
0.0
 40
0.0596175
 41
0.0596175
  0
VERTEX
  8
0
 10
6.47174
 20
24.2503
 30
0.0
 40
0.0596175
 41
0.0596175
  0
VERTEX
  8
0
 10
6.3125
 20
23.8282
 30
0.0
 40
0.0596175
 41
0.0596175
  0
VERTEX
  8
0
 10
6.14594
 20
23.3844
 30
0.0
 40
0.0596175
 41
0.0596175
  0
VERTEX
  8
0
 10
5.97331
 20
22.9222
 30
0.0
 40
0.0596175
 41
0.0596175
  0
VERTEX
  8
0
 10
5.79596
 20
22.445
 30
0.0
 40
0.0596175
 41
0.0596175
  0
VERTEX
  8
0
 10
5.61501
 20
21.9561
 30
0.0
 40
0.0596175
 41
0.0596175
  0
VERTEX
  8
0
 10
5.43186
 20
21.4592
 30
0.0
 40
0.0596175
 41
0.0596175
  0
VERTEX
  8
0
 10
5.24761
 20
20.9575
 30
0.0
 40
0.0596175
 41
0.0596175
  0
VERTEX
  8
0
 10
5.06358
 20
20.4546
 30
0.0
 40
0.0596175
 41
0.0596175
  0
VERTEX
  8
0
 10
4.88108
 20
19.9538
 30
0.0
 40
0.0596175
 41
0.0596175
  0
VERTEX
  8
0
 10
4.70122
 20
19.4583
 30
0.0
 40
0.0596175
 41
0.0596175
  0
VERTEX
  8
0
 10
4.52539
 20
18.9721
 30
0.0
 40
0.0596175
 41
0.0596175
  0
VERTEX
  8
0
 10
4.35471
 20
18.4982
 30
0.0
 40
0.0596175
 41
0.0596175
  0
VERTEX
  8
0
 10
4.19054
 20
18.04
 30
0.0
 40
0.0596175
 41
0.0596175
  0
VERTEX
  8
0
 10
4.03407
 20
17.6011
 30
0.0
 40
0.0596175
 41
0.0596175
  0
VERTEX
  8
0
 10
3.88661
 20
17.185
 30
0.0
 40
0.0596175
 41
0.0596175
  0
VERTEX
  8
0
 10
3.74929
 20
16.7949
 30
0.0
 40
0.0596175
 41
0.0596175
  0
VERTEX
  8
0
 10
3.62349
 20
16.4342
 30
0.0
 40
0.0596175
 41
0.0596175
  0
VERTEX
  8
0
 10
3.51042
 20
16.1065
 30
0.0
 40
0.0596175
 41
0.0596175
  0
VERTEX
  8
0
 10
3.41129
 20
15.8153
 30
0.0
 40
0.0596175
 41
0.0596175
  0
VERTEX
  8
0
 10
3.32742
 20
15.5637
 30
0.0
 40
0.0596175
 41
0.0596175
  0
VERTEX
  8
0
 10
3.25999
 20
15.3554
 30
0.0
 40
0.0596175
 41
0.0596175
  0
VERTEX
  8
0
 10
3.21024
 20
15.1937
 30
0.0
 40
0.0596175
 41
0.0596175
  0
VERTEX
  8
0
 10
3.17953
 20
15.0821
 30
0.0
 40
0.0596175
 41
0.0596175
  0
VERTEX
  8
0
 10
3.169
 20
15.0239
 30
0.0
 40
0.0596175
 41
0.0596175
  0
VERTEX
  8
0
 10
3.17725
 20
14.8899
 30
0.0
 40
0.0596175
 41
0.0596175
  0
VERTEX
  8
0
 10
3.2079
 20
14.7826
 30
0.0
 40
0.0596175
 41
0.0596175
  0
VERTEX
  8
0
 10
3.26969
 20
14.6829
 30
0.0
 40
0.0596175
 41
0.0596175
  0
VERTEX
  8
0
 10
3.37136
 20
14.571
 30
0.0
 40
0.0596175
 41
0.0596175
  0
VERTEX
  8
0
 10
3.47467
 20
14.4824
 30
0.0
 40
0.0596175
 41
0.0596175
  0
VERTEX
  8
0
 10
3.58251
 20
14.4175
 30
0.0
 40
0.0596175
 41
0.0596175
  0
VERTEX
  8
0
 10
3.69336
 20
14.3765
 30
0.0
 40
0.0596175
 41
0.0596175
  0
VERTEX
  8
0
 10
3.80561
 20
14.3594
 30
0.0
 40
0.0596175
 41
0.0596175
  0
VERTEX
  8
0
 10
3.91769
 20
14.3665
 30
0.0
 40
0.0596175
 41
0.0596175
  0
VERTEX
  8
0
 10
4.02815
 20
14.3976
 30
0.0
 40
0.0596175
 41
0.0596175
  0
VERTEX
  8
0
 10
4.13547
 20
14.4529
 30
0.0
 40
0.0596175
 41
0.0596175
  0
VERTEX
  8
0
 10
4.23807
 20
14.5324
 30
0.0
 40
0.0596175
 41
0.0596175
  0
SEQEND
 8
0
  0
POLYLINE
  8
0
 62
     0
 66
     1
 10
0
 20
0
 30
0.0
 70
     1
 40
4.29246
 41
4.29246
  0
VERTEX
  8
0
 10
17.8018
 20
19.2644
 30
0.0
 40
0.0596175
 41
0.0596175
  0
VERTEX
  8
0
 10
17.7939
 20
19.6042
 30
0.0
 40
0.0596175
 41
0.0596175
  0
VERTEX
  8
0
 10
17.7853
 20
19.8706
 30
0.0
 40
0.0596175
 41
0.0596175
  0
VERTEX
  8
0
 10
17.7743
 20
20.0771
 30
0.0
 40
0.0596175
 41
0.0596175
  0
VERTEX
  8
0
 10
17.7593
 20
20.2372
 30
0.0
 40
0.0596175
 41
0.0596175
  0
VERTEX
  8
0
 10
17.7386
 20
20.364
 30
0.0
 40
0.0596175
 41
0.0596175
  0
VERTEX
  8
0
 10
17.7107
 20
20.471
 30
0.0
 40
0.0596175
 41
0.0596175
  0
VERTEX
  8
0
 10
17.6738
 20
20.5713
 30
0.0
 40
0.0596175
 41
0.0596175
  0
VERTEX
  8
0
 10
17.6262
 20
20.6782
 30
0.0
 40
0.0596175
 41
0.0596175
  0
VERTEX
  8
0
 10
17.5492
 20
20.8338
 30
0.0
 40
0.0596175
 41
0.0596175
  0
VERTEX
  8
0
 10
17.4711
 20
20.9706
 30
0.0
 40
0.0596175
 41
0.0596175
  0
VERTEX
  8
0
 10
17.3896
 20
21.0912
 30
0.0
 40
0.0596175
 41
0.0596175
  0
VERTEX
  8
0
 10
17.3022
 20
21.1983
 30
0.0
 40
0.0596175
 41
0.0596175
  0
VERTEX
  8
0
 10
17.2068
 20
21.2944
 30
0.0
 40
0.0596175
 41
0.0596175
  0
VERTEX
  8
0
 10
17.1013
 20
21.3821
 30
0.0
 40
0.0596175
 41
0.0596175
  0
VERTEX
  8
0
 10
16.9828
 20
21.4638
 30
0.0
 40
0.0596175
 41
0.0596175
  0
VERTEX
  8
0
 10
16.8494
 20
21.5422
 30
0.0
 40
0.0596175
 41
0.0596175
  0
VERTEX
  8
0
 10
16.7544
 20
21.5924
 30
0.0
 40
0.0596175
 41
0.0596175
  0
VERTEX
  8
0
 10
16.6694
 20
21.6322
 30
0.0
 40
0.0596175
 41
0.0596175
  0
VERTEX
  8
0
 10
16.5892
 20
21.6626
 30
0.0
 40
0.0596175
 41
0.0596175
  0
VERTEX
  8
0
 10
16.5089
 20
21.685
 30
0.0
 40
0.0596175
 41
0.0596175
  0
VERTEX
  8
0
 10
16.4235
 20
21.7004
 30
0.0
 40
0.0596175
 41
0.0596175
  0
VERTEX
  8
0
 10
16.3278
 20
21.7101
 30
0.0
 40
0.0596175
 41
0.0596175
  0
VERTEX
  8
0
 10
16.2168
 20
21.715
 30
0.0
 40
0.0596175
 41
0.0596175
  0
VERTEX
  8
0
 10
16.0857
 20
21.7162
 30
0.0
 40
0.0596175
 41
0.0596175
  0
VERTEX
  8
0
 10
15.8246
 20
21.7008
 30
0.0
 40
0.0596175
 41
0.0596175
  0
VERTEX
  8
0
 10
15.585
 20
21.654
 30
0.0
 40
0.0596175
 41
0.0596175
  0
VERTEX
  8
0
 10
15.3661
 20
21.5751
 30
0.0
 40
0.0596175
 41
0.0596175
  0
VERTEX
  8
0
 10
15.1668
 20
21.4638
 30
0.0
 40
0.0596175
 41
0.0596175
  0
VERTEX
  8
0
 10
14.9863
 20
21.3192
 30
0.0
 40
0.0596175
 41
0.0596175
  0
VERTEX
  8
0
 10
14.8235
 20
21.1407
 30
0.0
 40
0.0596175
 41
0.0596175
  0
VERTEX
  8
0
 10
14.6776
 20
20.9278
 30
0.0
 40
0.0596175
 41
0.0596175
  0
VERTEX
  8
0
 10
14.5479
 20
20.6799
 30
0.0
 40
0.0596175
 41
0.0596175
  0
VERTEX
  8
0
 10
14.5017
 20
20.574
 30
0.0
 40
0.0596175
 41
0.0596175
  0
VERTEX
  8
0
 10
14.4654
 20
20.4733
 30
0.0
 40
0.0596175
 41
0.0596175
  0
VERTEX
  8
0
 10
14.4378
 20
20.3653
 30
0.0
 40
0.0596175
 41
0.0596175
  0
VERTEX
  8
0
 10
14.4169
 20
20.2369
 30
0.0
 40
0.0596175
 41
0.0596175
  0
VERTEX
  8
0
 10
14.4015
 20
20.0757
 30
0.0
 40
0.0596175
 41
0.0596175
  0
VERTEX
  8
0
 10
14.3897
 20
19.8686
 30
0.0
 40
0.0596175
 41
0.0596175
  0
VERTEX
  8
0
 10
14.38
 20
19.6031
 30
0.0
 40
0.0596175
 41
0.0596175
  0
VERTEX
  8
0
 10
14.371
 20
19.2661
 30
0.0
 40
0.0596175
 41
0.0596175
  0
VERTEX
  8
0
 10
14.3436
 20
18.1782
 30
0.0
 40
0.0596175
 41
0.0596175
  0
VERTEX
  8
0
 10
17.8249
 20
18.1782
 30
0.0
 40
0.0596175
 41
0.0596175
  0
VERTEX
  8
0
 10
17.8018
 20
19.2644
 30
0.0
 40
0.0596175
 41
0.0596175
  0
SEQEND
 8
0
  0
POLYLINE
  8
0
 62
     0
 66
     1
 10
0
 20
0
 30
0.0
 70
     1
 40
4.29246
 41
4.29246
  0
VERTEX
  8
0
 10
14.7167
 20
22.6192
 30
0.0
 40
0.0596175
 41
0.0596175
  0
VERTEX
  8
0
 10
14.8021
 20
22.6597
 30
0.0
 40
0.0596175
 41
0.0596175
  0
VERTEX
  8
0
 10
14.8772
 20
22.6978
 30
0.0
 40
0.0596175
 41
0.0596175
  0
VERTEX
  8
0
 10
14.9429
 20
22.7349
 30
0.0
 40
0.0596175
 41
0.0596175
  0
VERTEX
  8
0
 10
14.9997
 20
22.7728
 30
0.0
 40
0.0596175
 41
0.0596175
  0
VERTEX
  8
0
 10
15.0485
 20
22.8132
 30
0.0
 40
0.0596175
 41
0.0596175
  0
VERTEX
  8
0
 10
15.0897
 20
22.8576
 30
0.0
 40
0.0596175
 41
0.0596175
  0
VERTEX
  8
0
 10
15.1242
 20
22.9078
 30
0.0
 40
0.0596175
 41
0.0596175
  0
VERTEX
  8
0
 10
15.1525
 20
22.9654
 30
0.0
 40
0.0596175
 41
0.0596175
  0
VERTEX
  8
0
 10
15.1754
 20
23.0321
 30
0.0
 40
0.0596175
 41
0.0596175
  0
VERTEX
  8
0
 10
15.1936
 20
23.1096
 30
0.0
 40
0.0596175
 41
0.0596175
  0
VERTEX
  8
0
 10
15.2078
 20
23.1993
 30
0.0
 40
0.0596175
 41
0.0596175
  0
VERTEX
  8
0
 10
15.2185
 20
23.3032
 30
0.0
 40
0.0596175
 41
0.0596175
  0
VERTEX
  8
0
 10
15.2267
 20
23.4228
 30
0.0
 40
0.0596175
 41
0.0596175
  0
VERTEX
  8
0
 10
15.2326
 20
23.5597
 30
0.0
 40
0.0596175
 41
0.0596175
  0
VERTEX
  8
0
 10
15.2375
 20
23.7156
 30
0.0
 40
0.0596175
 41
0.0596175
  0
VERTEX
  8
0
 10
15.2417
 20
23.8922
 30
0.0
 40
0.0596175
 41
0.0596175
  0
VERTEX
  8
0
 10
15.2458
 20
24.2474
 30
0.0
 40
0.0596175
 41
0.0596175
  0
VERTEX
  8
0
 10
15.241
 20
24.5543
 30
0.0
 40
0.0596175
 41
0.0596175
  0
VERTEX
  8
0
 10
15.226
 20
24.8208
 30
0.0
 40
0.0596175
 41
0.0596175
  0
VERTEX
  8
0
 10
15.1996
 20
25.055
 30
0.0
 40
0.0596175
 41
0.0596175
  0
VERTEX
  8
0
 10
15.1607
 20
25.2649
 30
0.0
 40
0.0596175
 41
0.0596175
  0
VERTEX
  8
0
 10
15.1082
 20
25.4582
 30
0.0
 40
0.0596175
 41
0.0596175
  0
VERTEX
  8
0
 10
15.0408
 20
25.6429
 30
0.0
 40
0.0596175
 41
0.0596175
  0
VERTEX
  8
0
 10
14.9576
 20
25.8269
 30
0.0
 40
0.0596175
 41
0.0596175
  0
VERTEX
  8
0
 10
14.8401
 20
26.0426
 30
0.0
 40
0.0596175
 41
0.0596175
  0
VERTEX
  8
0
 10
14.7108
 20
26.2332
 30
0.0
 40
0.0596175
 41
0.0596175
  0
VERTEX
  8
0
 10
14.5658
 20
26.4017
 30
0.0
 40
0.0596175
 41
0.0596175
  0
VERTEX
  8
0
 10
14.4011
 20
26.5512
 30
0.0
 40
0.0596175
 41
0.0596175
  0
VERTEX
  8
0
 10
14.2128
 20
26.6851
 30
0.0
 40
0.0596175
 41
0.0596175
  0
VERTEX
  8
0
 10
13.9968
 20
26.8065
 30
0.0
 40
0.0596175
 41
0.0596175
  0
VERTEX
  8
0
 10
13.7495
 20
26.9185
 30
0.0
 40
0.0596175
 41
0.0596175
  0
VERTEX
  8
0
 10
13.4666
 20
27.024
 30
0.0
 40
0.0596175
 41
0.0596175
  0
VERTEX
  8
0
 10
13.2482
 20
27.0811
 30
0.0
 40
0.0596175
 41
0.0596175
  0
VERTEX
  8
0
 10
12.9882
 20
27.1192
 30
0.0
 40
0.0596175
 41
0.0596175
  0
VERTEX
  8
0
 10
12.6989
 20
27.1386
 30
0.0
 40
0.0596175
 41
0.0596175
  0
VERTEX
  8
0
 10
12.3922
 20
27.1399
 30
0.0
 40
0.0596175
 41
0.0596175
  0
VERTEX
  8
0
 10
12.0803
 20
27.1232
 30
0.0
 40
0.0596175
 41
0.0596175
  0
VERTEX
  8
0
 10
11.7753
 20
27.0889
 30
0.0
 40
0.0596175
 41
0.0596175
  0
VERTEX
  8
0
 10
11.4894
 20
27.0372
 30
0.0
 40
0.0596175
 41
0.0596175
  0
VERTEX
  8
0
 10
11.2345
 20
26.9683
 30
0.0
 40
0.0596175
 41
0.0596175
  0
VERTEX
  8
0
 10
10.8866
 20
26.8381
 30
0.0
 40
0.0596175
 41
0.0596175
  0
VERTEX
  8
0
 10
10.5589
 20
26.6826
 30
0.0
 40
0.0596175
 41
0.0596175
  0
VERTEX
  8
0
 10
10.2546
 20
26.5044
 30
0.0
 40
0.0596175
 41
0.0596175
  0
VERTEX
  8
0
 10
9.97629
 20
26.306
 30
0.0
 40
0.0596175
 41
0.0596175
  0
VERTEX
  8
0
 10
9.727
 20
26.0892
 30
0.0
 40
0.0596175
 41
0.0596175
  0
VERTEX
  8
0
 10
9.50956
 20
25.8565
 30
0.0
 40
0.0596175
 41
0.0596175
  0
VERTEX
  8
0
 10
9.32676
 20
25.6101
 30
0.0
 40
0.0596175
 41
0.0596175
  0
VERTEX
  8
0
 10
9.18169
 20
25.3525
 30
0.0
 40
0.0596175
 41
0.0596175
  0
VERTEX
  8
0
 10
9.08996
 20
25.1436
 30
0.0
 40
0.0596175
 41
0.0596175
  0
VERTEX
  8
0
 10
9.00667
 20
24.921
 30
0.0
 40
0.0596175
 41
0.0596175
  0
VERTEX
  8
0
 10
8.93338
 20
24.6917
 30
0.0
 40
0.0596175
 41
0.0596175
  0
VERTEX
  8
0
 10
8.8719
 20
24.4624
 30
0.0
 40
0.0596175
 41
0.0596175
  0
VERTEX
  8
0
 10
8.82379
 20
24.2401
 30
0.0
 40
0.0596175
 41
0.0596175
  0
VERTEX
  8
0
 10
8.79075
 20
24.0318
 30
0.0
 40
0.0596175
 41
0.0596175
  0
VERTEX
  8
0
 10
8.77447
 20
23.8443
 30
0.0
 40
0.0596175
 41
0.0596175
  0
VERTEX
  8
0
 10
8.77664
 20
23.6843
 30
0.0
 40
0.0596175
 41
0.0596175
  0
VERTEX
  8
0
 10
8.80994
 20
23.4706
 30
0.0
 40
0.0596175
 41
0.0596175
  0
VERTEX
  8
0
 10
8.87201
 20
23.2708
 30
0.0
 40
0.0596175
 41
0.0596175
  0
VERTEX
  8
0
 10
8.96056
 20
23.0881
 30
0.0
 40
0.0596175
 41
0.0596175
  0
VERTEX
  8
0
 10
9.07324
 20
22.9251
 30
0.0
 40
0.0596175
 41
0.0596175
  0
VERTEX
  8
0
 10
9.20785
 20
22.7846
 30
0.0
 40
0.0596175
 41
0.0596175
  0
VERTEX
  8
0
 10
9.36199
 20
22.6694
 30
0.0
 40
0.0596175
 41
0.0596175
  0
VERTEX
  8
0
 10
9.53347
 20
22.5825
 30
0.0
 40
0.0596175
 41
0.0596175
  0
VERTEX
  8
0
 10
9.72006
 20
22.5263
 30
0.0
 40
0.0596175
 41
0.0596175
  0
VERTEX
  8
0
 10
9.81868
 20
22.5157
 30
0.0
 40
0.0596175
 41
0.0596175
  0
VERTEX
  8
0
 10
9.99886
 20
22.5061
 30
0.0
 40
0.0596175
 41
0.0596175
  0
VERTEX
  8
0
 10
10.2502
 20
22.4979
 30
0.0
 40
0.0596175
 41
0.0596175
  0
VERTEX
  8
0
 10
10.5625
 20
22.4913
 30
0.0
 40
0.0596175
 41
0.0596175
  0
VERTEX
  8
0
 10
10.9255
 20
22.4863
 30
0.0
 40
0.0596175
 41
0.0596175
  0
VERTEX
  8
0
 10
11.329
 20
22.4832
 30
0.0
 40
0.0596175
 41
0.0596175
  0
VERTEX
  8
0
 10
11.7628
 20
22.4821
 30
0.0
 40
0.0596175
 41
0.0596175
  0
VERTEX
  8
0
 10
12.2166
 20
22.4832
 30
0.0
 40
0.0596175
 41
0.0596175
  0
VERTEX
  8
0
 10
12.5929
 20
22.4851
 30
0.0
 40
0.0596175
 41
0.0596175
  0
VERTEX
  8
0
 10
12.9252
 20
22.4871
 30
0.0
 40
0.0596175
 41
0.0596175
  0
VERTEX
  8
0
 10
13.2165
 20
22.4894
 30
0.0
 40
0.0596175
 41
0.0596175
  0
VERTEX
  8
0
 10
13.4701
 20
22.4921
 30
0.0
 40
0.0596175
 41
0.0596175
  0
VERTEX
  8
0
 10
13.689
 20
22.4954
 30
0.0
 40
0.0596175
 41
0.0596175
  0
VERTEX
  8
0
 10
13.8764
 20
22.4994
 30
0.0
 40
0.0596175
 41
0.0596175
  0
VERTEX
  8
0
 10
14.0356
 20
22.5043
 30
0.0
 40
0.0596175
 41
0.0596175
  0
VERTEX
  8
0
 10
14.1696
 20
22.5104
 30
0.0
 40
0.0596175
 41
0.0596175
  0
VERTEX
  8
0
 10
14.2817
 20
22.5178
 30
0.0
 40
0.0596175
 41
0.0596175
  0
VERTEX
  8
0
 10
14.375
 20
22.5265
 30
0.0
 40
0.0596175
 41
0.0596175
  0
VERTEX
  8
0
 10
14.4526
 20
22.5369
 30
0.0
 40
0.0596175
 41
0.0596175
  0
VERTEX
  8
0
 10
14.5178
 20
22.5492
 30
0.0
 40
0.0596175
 41
0.0596175
  0
VERTEX
  8
0
 10
14.5735
 20
22.5632
 30
0.0
 40
0.0596175
 41
0.0596175
  0
VERTEX
  8
0
 10
14.6232
 20
22.5796
 30
0.0
 40
0.0596175
 41
0.0596175
  0
VERTEX
  8
0
 10
14.6699
 20
22.5982
 30
0.0
 40
0.0596175
 41
0.0596175
  0
VERTEX
  8
0
 10
14.7167
 20
22.6192
 30
0.0
 40
0.0596175
 41
0.0596175
  0
SEQEND
 8
0
  0
POLYLINE
  8
0
 62
     0
 66
     1
 10
0
 20
0
 30
0.0
 70
     1
 40
4.29246
 41
4.29246
  0
VERTEX
  8
0
 10
22.3967
 20
22.5237
 30
0.0
 40
0.0596175
 41
0.0596175
  0
VERTEX
  8
0
 10
22.6021
 20
22.5786
 30
0.0
 40
0.0596175
 41
0.0596175
  0
VERTEX
  8
0
 10
22.7867
 20
22.6604
 30
0.0
 40
0.0596175
 41
0.0596175
  0
VERTEX
  8
0
 10
22.9492
 20
22.7679
 30
0.0
 40
0.0596175
 41
0.0596175
  0
VERTEX
  8
0
 10
23.0885
 20
22.8997
 30
0.0
 40
0.0596175
 41
0.0596175
  0
VERTEX
  8
0
 10
23.2035
 20
23.0546
 30
0.0
 40
0.0596175
 41
0.0596175
  0
VERTEX
  8
0
 10
23.2929
 20
23.2313
 30
0.0
 40
0.0596175
 41
0.0596175
  0
VERTEX
  8
0
 10
23.3556
 20
23.4282
 30
0.0
 40
0.0596175
 41
0.0596175
  0
VERTEX
  8
0
 10
23.3903
 20
23.6442
 30
0.0
 40
0.0596175
 41
0.0596175
  0
VERTEX
  8
0
 10
23.3949
 20
23.8187
 30
0.0
 40
0.0596175
 41
0.0596175
  0
VERTEX
  8
0
 10
23.3804
 20
24.0179
 30
0.0
 40
0.0596175
 41
0.0596175
  0
VERTEX
  8
0
 10
23.3486
 20
24.2354
 30
0.0
 40
0.0596175
 41
0.0596175
  0
VERTEX
  8
0
 10
23.3008
 20
24.4651
 30
0.0
 40
0.0596175
 41
0.0596175
  0
VERTEX
  8
0
 10
23.2385
 20
24.7007
 30
0.0
 40
0.0596175
 41
0.0596175
  0
VERTEX
  8
0
 10
23.1632
 20
24.9358
 30
0.0
 40
0.0596175
 41
0.0596175
  0
VERTEX
  8
0
 10
23.0764
 20
25.1643
 30
0.0
 40
0.0596175
 41
0.0596175
  0
VERTEX
  8
0
 10
22.9797
 20
25.3797
 30
0.0
 40
0.0596175
 41
0.0596175
  0
VERTEX
  8
0
 10
22.8342
 20
25.6321
 30
0.0
 40
0.0596175
 41
0.0596175
  0
VERTEX
  8
0
 10
22.6515
 20
25.8736
 30
0.0
 40
0.0596175
 41
0.0596175
  0
VERTEX
  8
0
 10
22.4346
 20
26.1021
 30
0.0
 40
0.0596175
 41
0.0596175
  0
VERTEX
  8
0
 10
22.1863
 20
26.315
 30
0.0
 40
0.0596175
 41
0.0596175
  0
VERTEX
  8
0
 10
21.9094
 20
26.5104
 30
0.0
 40
0.0596175
 41
0.0596175
  0
VERTEX
  8
0
 10
21.6069
 20
26.686
 30
0.0
 40
0.0596175
 41
0.0596175
  0
VERTEX
  8
0
 10
21.2818
 20
26.8393
 30
0.0
 40
0.0596175
 41
0.0596175
  0
VERTEX
  8
0
 10
20.9368
 20
26.9683
 30
0.0
 40
0.0596175
 41
0.0596175
  0
VERTEX
  8
0
 10
20.6819
 20
27.0372
 30
0.0
 40
0.0596175
 41
0.0596175
  0
VERTEX
  8
0
 10
20.396
 20
27.0889
 30
0.0
 40
0.0596175
 41
0.0596175
  0
VERTEX
  8
0
 10
20.091
 20
27.1232
 30
0.0
 40
0.0596175
 41
0.0596175
  0
VERTEX
  8
0
 10
19.779
 20
27.1399
 30
0.0
 40
0.0596175
 41
0.0596175
  0
VERTEX
  8
0
 10
19.4724
 20
27.1386
 30
0.0
 40
0.0596175
 41
0.0596175
  0
VERTEX
  8
0
 10
19.1831
 20
27.1192
 30
0.0
 40
0.0596175
 41
0.0596175
  0
VERTEX
  8
0
 10
18.9231
 20
27.0811
 30
0.0
 40
0.0596175
 41
0.0596175
  0
VERTEX
  8
0
 10
18.7047
 20
27.024
 30
0.0
 40
0.0596175
 41
0.0596175
  0
VERTEX
  8
0
 10
18.5107
 20
26.9539
 30
0.0
 40
0.0596175
 41
0.0596175
  0
VERTEX
  8
0
 10
18.3365
 20
26.8828
 30
0.0
 40
0.0596175
 41
0.0596175
  0
VERTEX
  8
0
 10
18.18
 20
26.8096
 30
0.0
 40
0.0596175
 41
0.0596175
  0
VERTEX
  8
0
 10
18.0388
 20
26.7328
 30
0.0
 40
0.0596175
 41
0.0596175
  0
VERTEX
  8
0
 10
17.9104
 20
26.6511
 30
0.0
 40
0.0596175
 41
0.0596175
  0
VERTEX
  8
0
 10
17.7929
 20
26.5633
 30
0.0
 40
0.0596175
 41
0.0596175
  0
VERTEX
  8
0
 10
17.6839
 20
26.4679
 30
0.0
 40
0.0596175
 41
0.0596175
  0
VERTEX
  8
0
 10
17.5808
 20
26.3636
 30
0.0
 40
0.0596175
 41
0.0596175
  0
VERTEX
  8
0
 10
17.4008
 20
26.1467
 30
0.0
 40
0.0596175
 41
0.0596175
  0
VERTEX
  8
0
 10
17.2532
 20
25.9176
 30
0.0
 40
0.0596175
 41
0.0596175
  0
VERTEX
  8
0
 10
17.1357
 20
25.6686
 30
0.0
 40
0.0596175
 41
0.0596175
  0
VERTEX
  8
0
 10
17.0464
 20
25.3915
 30
0.0
 40
0.0596175
 41
0.0596175
  0
VERTEX
  8
0
 10
16.9832
 20
25.0782
 30
0.0
 40
0.0596175
 41
0.0596175
  0
VERTEX
  8
0
 10
16.944
 20
24.7204
 30
0.0
 40
0.0596175
 41
0.0596175
  0
VERTEX
  8
0
 10
16.9268
 20
24.3104
 30
0.0
 40
0.0596175
 41
0.0596175
  0
VERTEX
  8
0
 10
16.9293
 20
23.8399
 30
0.0
 40
0.0596175
 41
0.0596175
  0
VERTEX
  8
0
 10
16.9358
 20
23.5943
 30
0.0
 40
0.0596175
 41
0.0596175
  0
VERTEX
  8
0
 10
16.9435
 20
23.399
 30
0.0
 40
0.0596175
 41
0.0596175
  0
VERTEX
  8
0
 10
16.9531
 20
23.2468
 30
0.0
 40
0.0596175
 41
0.0596175
  0
VERTEX
  8
0
 10
16.9657
 20
23.1304
 30
0.0
 40
0.0596175
 41
0.0596175
  0
VERTEX
  8
0
 10
16.9824
 20
23.0428
 30
0.0
 40
0.0596175
 41
0.0596175
  0
VERTEX
  8
0
 10
17.0043
 20
22.9767
 30
0.0
 40
0.0596175
 41
0.0596175
  0
VERTEX
  8
0
 10
17.0324
 20
22.925
 30
0.0
 40
0.0596175
 41
0.0596175
  0
VERTEX
  8
0
 10
17.0676
 20
22.8806
 30
0.0
 40
0.0596175
 41
0.0596175
  0
VERTEX
  8
0
 10
17.2117
 20
22.7525
 30
0.0
 40
0.0596175
 41
0.0596175
  0
VERTEX
  8
0
 10
17.3882
 20
22.6501
 30
0.0
 40
0.0596175
 41
0.0596175
  0
VERTEX
  8
0
 10
17.5974
 20
22.5736
 30
0.0
 40
0.0596175
 41
0.0596175
  0
VERTEX
  8
0
 10
17.8393
 20
22.5228
 30
0.0
 40
0.0596175
 41
0.0596175
  0
VERTEX
  8
0
 10
17.9625
 20
22.511
 30
0.0
 40
0.0596175
 41
0.0596175
  0
VERTEX
  8
0
 10
18.1529
 20
22.5006
 30
0.0
 40
0.0596175
 41
0.0596175
  0
VERTEX
  8
0
 10
18.4006
 20
22.4919
 30
0.0
 40
0.0596175
 41
0.0596175
  0
VERTEX
  8
0
 10
18.6957
 20
22.4849
 30
0.0
 40
0.0596175
 41
0.0596175
  0
VERTEX
  8
0
 10
19.0286
 20
22.4793
 30
0.0
 40
0.0596175
 41
0.0596175
  0
VERTEX
  8
0
 10
19.3896
 20
22.4754
 30
0.0
 40
0.0596175
 41
0.0596175
  0
VERTEX
  8
0
 10
19.7689
 20
22.4731
 30
0.0
 40
0.0596175
 41
0.0596175
  0
VERTEX
  8
0
 10
20.1567
 20
22.4724
 30
0.0
 40
0.0596175
 41
0.0596175
  0
VERTEX
  8
0
 10
20.5432
 20
22.4732
 30
0.0
 40
0.0596175
 41
0.0596175
  0
VERTEX
  8
0
 10
20.9189
 20
22.4757
 30
0.0
 40
0.0596175
 41
0.0596175
  0
VERTEX
  8
0
 10
21.2739
 20
22.4797
 30
0.0
 40
0.0596175
 41
0.0596175
  0
VERTEX
  8
0
 10
21.5983
 20
22.4854
 30
0.0
 40
0.0596175
 41
0.0596175
  0
VERTEX
  8
0
 10
21.8826
 20
22.4926
 30
0.0
 40
0.0596175
 41
0.0596175
  0
VERTEX
  8
0
 10
22.1169
 20
22.5014
 30
0.0
 40
0.0596175
 41
0.0596175
  0
VERTEX
  8
0
 10
22.2915
 20
22.5118
 30
0.0
 40
0.0596175
 41
0.0596175
  0
VERTEX
  8
0
 10
22.3967
 20
22.5237
 30
0.0
 40
0.0596175
 41
0.0596175
  0
SEQEND
 8
0
  0
ENDSEC
  0
EOF
